<svg xmlns="http://www.w3.org/2000/svg" xmlns:xlink="http://www.w3.org/1999/xlink" width="400.88" height="316.283" viewBox="0 0 400.88 316.283"><defs><style>.a{fill:#d7ffe7;opacity:0.95;}.b{fill:#1a954f;}.c{fill:#005e26;}.d{fill:#3eff8c;}.e{fill:#008cff;}.f{fill:#181929;}.g{fill:#fff;}.h{fill:url(#a);}.i{fill:url(#b);}.j{fill:#e65353;}.k{fill:#eea987;}.l{fill:#d98b52;}.m{fill:#b84343;}.n{fill:#c78d71;}.o{fill:#eea886;}.p{fill:#16202e;}.q{fill:#faa146;}.r{fill:#8e4f3a;}.s{fill:#633029;}.t{fill:#323657;}.u{fill:#ff7446;}.v{fill:#232a55;}.w{fill:#fcb500;}.x{fill:#fcc332;}.y{fill:#fc9700;}.z{fill:#e55353;}.aa{fill:#ebeeff;}.ab{fill:#353a3d;}.ac{fill:#81807e;}.ad{fill:#2d3133;}.ae{fill:#decbc4;}.af{fill:#495055;}.ag{fill:#a77860;}.ah{fill:#252e3b;}.ai{fill:#3c4145;}.aj{fill:#b3a5a0;}.ak{fill:#51565c;}.al{fill:#f5e2d9;}.am{fill:#ad9f99;}.an{fill:#69737a;}.ao{fill:#22243b;}.ap{fill:#292c47;}.aq{fill:#cfbeb6;}.ar{fill:#3a3f47;}.as{fill:#23263d;}.at{fill:#d44040;}.au{fill:#eddad3;}.av{fill:#8f5c28;}.aw{fill:#ffa800;}.ax{fill:#f27200;}.ay{fill:#e06a00;}.az{fill:#f2b90c;}.ba{fill:#b65f2e;}.bb{fill:#f7931e;}.bc{fill:#b96e16;}.bd{fill:#f8e000;}</style><linearGradient id="a" x1="0.079" y1="2.025" x2="0.485" y2="0.072" gradientUnits="objectBoundingBox"><stop offset="0" stop-color="#c9c4c1"/><stop offset="1" stop-color="#fff6de"/></linearGradient><linearGradient id="b" x1="-0.958" y1="0.501" x2="0.041" y2="0.501" xlink:href="#a"/></defs><path class="a" d="M462.52,175.44h0a57.635,57.635,0,0,1-57.62-57.62h0A57.635,57.635,0,0,1,462.52,60.2h0a57.635,57.635,0,0,1,57.62,57.62h0A57.635,57.635,0,0,1,462.52,175.44Z" transform="translate(-266.418 -12.595)"/><rect class="b" width="53.218" height="2.601" transform="translate(169.361 127.323)"/><rect class="b" width="38.213" height="2.601" transform="translate(176.923 134.301)"/><path class="a" d="M550.727,265.164h0A78.853,78.853,0,0,1,471.9,186.337V158.927A78.853,78.853,0,0,1,550.727,80.1h0a78.853,78.853,0,0,1,78.827,78.827v27.409A78.853,78.853,0,0,1,550.727,265.164Z" transform="translate(-228.674 -9.338)"/><g transform="translate(314.651 178.397)"><rect class="c" width="12.404" height="2.401"/></g><g transform="translate(267.234 194.083)"><rect class="b" width="72.625" height="4.402" transform="translate(0 0)"/><rect class="b" width="58.82" height="4.402" transform="translate(0 21.607)"/><rect class="b" width="34.412" height="4.402" transform="translate(0 10.804)"/></g><g transform="translate(268.435 95.244)"><path class="d" d="M575.131,89.5v2.2h13.4v12.4h2.2V89.3H575.131ZM484.5,104.305h2.2V91.9h13.4V89.7H484.5v14.605Zm103.836,64.422v12.6h-13.4v2.2h15.605V168.727Zm-101.435,0h-2.2v14.805h15.605v-2.2H486.9v-12.6Z" transform="translate(-484.5 -89.3)"/></g><g transform="translate(354.064 193.662)"><g transform="translate(0 0)"><path class="e" d="M540.7,171.909a13.4,13.4,0,1,1,13.4-13.4A13.405,13.405,0,0,1,540.7,171.909Zm0-24.208a10.8,10.8,0,1,0,10.8,10.8A10.759,10.759,0,0,0,540.7,147.7Z" transform="translate(-527.3 -145.1)"/></g><g transform="translate(6.602 9.003)"><path class="e" d="M536.6,159.2l-6-6,1.8-1.8,4.2,4.2,6-6,1.8,2Z" transform="translate(-530.6 -149.6)"/></g></g><ellipse class="b" cx="187.836" cy="10.204" rx="187.836" ry="10.204" transform="translate(0 295.876)"/><g transform="translate(25.9 141.723)"><g transform="translate(44.125 30.51)"><path class="b" d="M357.7,247.936c6.4-4.6,14-36.212,14.4-55.019.2-9.6,3-13.6,5.6-17.206,2.4-3.4,4.4-6.4,3.2-13-2.4-12.8,3.8-18.406,3.8-18.406l-.8-.8c-.2.2-6.6,6-4.2,19.407,1.2,6.2-.8,9-3,12.2-2.4,3.4-5.6,7.8-5.8,17.806-.4,20.207-8.2,50.217-14,54.219Z" transform="translate(-356.9 -143.5)"/></g><g transform="translate(0 73.728)"><path class="f" d="M366.366,216.917c-.6-1.4-1.2-2.8-2-4.4-3.6-7.8-7-9-12.4-11.2-1.4-.6-2.8-1.2-4.4-1.8-7.8-3.4-6.2-8.6-5-13.2l.6-1.8c.6-2.6-.6-4-2.6-6-1.4-1.6-3.4-3.4-4.8-6.4-1.6-3.2-.8-5,.2-5.8,2-1.8,6.6-1.6,10.8.8a16.9,16.9,0,0,1,3.6,3c2.8,2.8,6.2,6.4,14.805,6.4,4.8,0,7.6.6,9,2.2,1.6,1.8,1.2,4.4.8,8a27.231,27.231,0,0,0-.4,4.2c-.6,9.2,4.8,16.006,5,16.006,3.2,3.8,7.4,12,5.6,17.006a6.585,6.585,0,0,1-4.8,4,13.208,13.208,0,0,1-2.8.2C371.367,228.521,369.167,223.519,366.366,216.917ZM346.159,168.1c-3.8-2-8-2.6-9.6-1-1.2,1.2-.6,3.2,0,4.6a18.874,18.874,0,0,0,4.6,6c2,2.2,3.8,3.8,2.8,7-.2.6-.4,1.2-.6,2-1.4,4.6-2.6,8.8,4.4,11.8a34.25,34.25,0,0,0,4.4,1.8c5.4,2.2,9,3.6,13,11.8.8,1.6,1.4,3,2,4.4,3.4,7.6,5.4,12.2,12.6,10.6a5.159,5.159,0,0,0,4-3.2c1.6-4.4-2.2-12-5.4-16.006a25.367,25.367,0,0,1-5.2-16.806,29.971,29.971,0,0,1,.4-4.4c.4-3.4.6-5.8-.6-7.2-1.2-1.2-3.6-1.8-8.2-2-9,0-12.6-3.8-15.405-6.8a20.2,20.2,0,0,0-3.2-2.6Z" transform="translate(-334.845 -165.101)"/></g><g transform="translate(8.312 82.328)"><path class="b" d="M375.813,230.421h1c0-1-1.4-24.608-10.8-31.611-10.4-7.6-13.6-15.805-15.205-21.207-1.8-6.4-11.2-8.2-11.6-8.2l-.2,1s9.2,1.6,10.8,7.4c1.6,5.6,5,14,15.605,21.808C374.412,206.413,375.813,230.221,375.813,230.421Z" transform="translate(-339 -169.4)"/></g><g transform="translate(34.983)"><path d="M360.672,277c-2.2-1.2-2.2-5.6-2-12.4.2-8.6.4-20.207-4.2-31.011-4.8-11.4-.6-14.805,3.6-18.006,4.6-3.6,9-7,.6-22.408-3.8-7-5-11.8-3.8-15.005s4.6-4.4,8.2-5.8c6.2-2.2,13.2-4.8,12.2-17.806-.2-4,.2-6.4,1.4-7.8,1.4-1.4,3.4-1.2,5.8-1,3.6.2,7.6.6,11.2-4,.4-1.2,3.8-11.6,7.8-13.2a2.551,2.551,0,0,1,2.4,0h0c2.8,1.4,4.4,3,5,4.8,1,3.4-1.6,7.2-4.4,11.6-4.4,7-9.6,14.805-4.2,24.008,7,12.4,3.2,16.606-1.8,22.608-3,3.4-6.2,7.2-8.4,13.6-1.8,5,1.2,10,4.2,14.605,3.6,5.8,7.4,12-.6,17.206-13.2,8.8-26.409,37.213-26.409,37.413v.2h-.2c-2.4,2-4.2,2.8-5.6,2.8C361.472,277.2,361.072,277.2,360.672,277Zm32.811-41.214c7.2-4.6,4-9.8.2-15.805-3-4.6-6.2-10-4.2-15.605,2.2-6.6,5.6-10.4,8.6-14,5-5.8,8.2-9.6,1.6-21.407-5.6-9.8,0-18.406,4.4-25.209,2.8-4.2,5-7.8,4.2-10.6-.4-1.6-1.8-3-4.4-4.2h0a2.209,2.209,0,0,0-1.6,0c-3.8,1.6-7.2,12.6-7.2,12.8h0c-4,5.2-8.6,4.8-12.2,4.6-2.2-.2-4-.2-5,.8s-1.4,3.2-1.2,7c1,13.8-6.8,16.606-13,19.007-3.4,1.2-6.4,2.4-7.6,5-1,2.8,0,7.4,3.8,14.2,8.8,16.206,3.8,20.007-.8,23.808-4,3.2-7.8,6-3.2,16.806,4.6,11,4.4,22.808,4.2,31.411-.2,5.8-.2,10.6,1.4,11.4q1.5.6,5.4-2.4C367.674,271.2,380.279,244.59,393.483,235.787Z" transform="translate(-352.331 -128.25)"/></g><path class="b" d="M349.86,140.745c6.8-2.4,5.4,10.6,8.2,20.207s31.611,4.2,19.607,28.21c-12.2,24.008,15.405,8,7.2,29.01s-.8,43.415-9.6,37.813c-8.8-5.8-5-32.211-14.2-35.412s-10.8-6.8-1.6-15.405-24.008-17.006-15.805-34.212C351.661,153.95,342.057,143.346,349.86,140.745Z" transform="translate(-327.343 -116.037)"/><g transform="translate(27.119 54.719)"><path class="g" d="M366.006,239.629c.8-3.6,8-35.212,1.4-39.013-6-3.4-5.8-16.406-4.8-28.81.8-11-13.2-16.006-13.8-16.206l-.4,1c.2,0,14,5,13.2,15.205-1,12.8-1,26.209,5.4,29.81,5.2,3,.4,28.41-1.8,37.813Z" transform="translate(-348.4 -155.6)"/></g><path class="h" d="M390.314,191.9l-9.6,36.613H359.1L349.5,191.9Z" transform="translate(-320.181 -64.556)"/><path class="i" d="M390.314,191.9s-21.207,4-21.207,36.613h-10L349.5,191.9Z" transform="translate(-320.181 -64.556)"/></g><path class="a" d="M514.616,115.026h-8.4A38,38,0,0,1,468.2,77.013h0A38,38,0,0,1,506.213,39h8.4a38,38,0,0,1,38.013,38.013h0A38,38,0,0,1,514.616,115.026Z" transform="translate(-220.093 -20.77)"/><g transform="translate(289.352 67.971)"><rect class="b" width="6.802" height="1.2"/></g><g transform="translate(262.831 31.834)"><path class="d" d="M523.617,45.8V47h7.2v6.8h1.2v-8ZM475,53.8h1.2V47h7.2V45.8H475Zm55.819,34.612v6.8h-7.2v1.2h8.4v-8Zm-54.619,0H475v8h8.4v-1.2h-7.2Z" transform="translate(-475 -45.8)"/></g><g transform="translate(191.483 116.316)"><rect class="c" width="9.003" height="1.601" transform="translate(0 0)"/></g><g transform="translate(158 59.485)"><path class="d" d="M479.522,66.2v1.6h9.6v9h1.6V66.2ZM414.7,76.8h1.6v-9h9.6V66.2H414.7V76.8Zm74.426,46.216v9h-9.6v1.6h11.2v-10.6Zm-72.825,0h-1.6v10.6h11.2v-1.6h-9.6v-9Z" transform="translate(-414.7 -66.2)"/></g><g transform="translate(269.435 64.685)"><g transform="translate(0 48.534)"><path class="j" d="M585.235,153.82H570.229c-1-7.2-2.2-15.405-2.2-15.405s-.6,6.8-1.4,15.405h-59.62c-.6-7.8-1.2-13.4-1.4-13.6-.4-.2-2.4,6.6-4.2,13.6H485c4.2-18.006,12-46.616,16.406-48.417,6.4-2.4,32.411-10.4,32.411-10.4h14.805s26.409,7.6,28.81,15.805C579.633,117.208,583.834,138.615,585.235,153.82Z" transform="translate(-485 -95)"/></g><g transform="translate(40.413)"><path class="k" d="M521.806,70.858s13.8,2.2,11.8,24.008c-2.2,21.808-14.405,20.007-15.205,20.007s-12.2.4-13.2-26.209C505.2,88.665,504.8,69.058,521.806,70.858Z" transform="translate(-505.2 -70.742)"/></g><g transform="translate(44.816 35.163)"><path class="k" d="M526.006,90.684s-.4,9,.4,10.8c.8,2-11.4,8.2-19.007,1.2,0,0,1.8-9.8,1.4-13.2C508.4,86.282,526.006,90.684,526.006,90.684Z" transform="translate(-507.4 -88.317)"/></g><g transform="translate(68.142 17.212)"><path class="k" d="M519.941,80.056s1.6-1.6,2,0c.6,1.6-2.4,9-2.2,9.4,0,0-.2.6-.6.2S519.941,80.056,519.941,80.056Z" transform="translate(-519.059 -79.344)"/></g><g transform="translate(38.529 17.012)"><path class="k" d="M506.343,79.956s-1.4-1.6-2,0,2.2,9,2,9.4c0,0,.2.6.6.2C507.143,89.159,506.343,79.956,506.343,79.956Z" transform="translate(-504.258 -79.244)"/></g><g transform="translate(40.226 5.523)"><path class="l" d="M534.3,89.3l-2,2.6s0-5.8-.2-6.8c-.4-1-.8-3.8-1-4.4s-12-4-22.208,1c0,0,.4,4.2-.6,4.6s-.6,6.8-.6,6.8l-1.6-1.8a14.3,14.3,0,0,1-.6-8.4c.4-1.2,1.2-4.6,4.4-6.8,4.2-3,9.2-1.6,9.8-1.4a9.257,9.257,0,0,1,6.4-1C530.9,74.9,534.7,81.1,534.3,89.3Z" transform="translate(-505.106 -73.502)"/></g><g transform="translate(45.013 48.437)"><path class="k" d="M526.508,95.048s3.2.6-10,13.2c0,0-9.2-10.2-9-12C507.9,94.448,526.508,95.048,526.508,95.048Z" transform="translate(-507.498 -94.952)"/></g><g transform="translate(54.019 46.533)"><path class="m" d="M512,109.205l3.6,6L526.2,97.2,521.6,94Z" transform="translate(-512 -94)"/></g><g transform="translate(40.414 47.933)"><path class="m" d="M518.8,108.5l-8.6-13.8-5,3.2,8.8,16.606Z" transform="translate(-505.2 -94.7)"/></g><g transform="translate(50.907 61.538)"><path class="m" d="M510.955,139.913c.2,2,.2,4.6.2,7.4h-.4c0-2.8,0-5.2-.2-7.4-.8-15.405,3-34.012,3-38.413h.4C513.757,106.1,509.955,124.708,510.955,139.913Z" transform="translate(-510.445 -101.5)"/></g><path class="n" d="M508.8,91.7a9.514,9.514,0,0,0,8,2.6,15.6,15.6,0,0,0,6.8-3,8.527,8.527,0,0,1-7.2,5A8,8,0,0,1,508.8,91.7Z" transform="translate(-461.184 -50.169)"/></g><g transform="translate(160.207 49.641)"><g transform="translate(22.976 15.773)"><path class="o" d="M429.517,70.419h0c-.4,0-.8-1.6-1-1.8a.62.62,0,0,0-.2-.4c-.4-1.2-1.2-4-1-5,.2-.4.2-.6.6-.6.4-.2,1,.6,1,.6h0c.2,1,1,7,.6,7.2Zm-1.4-7.8h0q-.3,0-.6.6c-.4,1,.6,4,1,5a.7.7,0,0,0,.2.4c.2.8.6,1.8.8,1.8h0c.2-.2-.2-4.6-.6-7.2A.893.893,0,0,0,428.116,62.616Z" transform="translate(-427.284 -62.584)"/></g><g transform="translate(20.607)"><path class="p" d="M441.905,54.7a16.716,16.716,0,0,1,7.6,5.2c3.6,4.6,1.6,7.6,5.4,15.605,2.2,4.6,3.4,7,6,9.8a17.442,17.442,0,0,1,4,6,9.525,9.525,0,0,1,0,4.8c-2,9-3.4,10.4-3.4,10.4l-17.606-3.4H426.1s7-3.4,5.4-10.8-5.4-19.407-3.2-27.81C430.1,56.5,437.3,55.3,441.905,54.7Z" transform="translate(-426.1 -54.7)"/></g><g transform="translate(44.681 15.605)"><path class="o" d="M438.267,70.5h0c-.4-.4.2-6.2.4-7.4h0s.6-.6,1-.6q.3,0,.6.6c.4,1-.6,3.8-1,5a.7.7,0,0,1-.2.4c0,.4-.4,2-.8,2Zm.6-7.4c-.2,2.6-.6,7-.6,7.2h0c.2,0,.6-1,.8-1.8a.62.62,0,0,1,.2-.4c.4-1,1.2-4,1-5,0-.2-.2-.4-.4-.6A1.38,1.38,0,0,0,438.868,63.1Z" transform="translate(-438.133 -62.5)"/></g><g transform="translate(0 39.636)"><path class="q" d="M487.225,105.5h-11c-2.2-4.2-4-7.4-4-7.4a34.911,34.911,0,0,0-2.6,7.4H432.806a25.752,25.752,0,0,1-.4-7.6s-2,3.6-4.2,7.6H415.8c3.2-6.2,9.4-17.206,10.8-18.806,1.8-1.8,11.8-8.8,19.207-11.2,7.2-2.2,11.4,0,11.4,0a101.63,101.63,0,0,1,14.405,4C474.22,80.691,481.623,94.5,487.225,105.5Z" transform="translate(-415.8 -74.511)"/></g><g transform="translate(24.407 4.325)"><path class="r" d="M440,56.938s10.2,1.4,8.6,16.406c-1.4,15.005-10.4,13.8-11,13.8s-9,.4-9.6-18.006C428,69.142,427.6,55.738,440,56.938Z" transform="translate(-427.999 -56.862)"/></g><g transform="translate(29.404 31.145)"><path class="r" d="M442.107,70.933s-.6,7.8.8,10c1.4,2.4-1.2,5.4-7,4.4s-5.4-4.4-5.4-4.4,1.6-4.8,1.2-8.6C431.3,68.732,442.107,70.933,442.107,70.933Z" transform="translate(-430.497 -70.267)"/></g><g transform="translate(23.63 1.801)"><path class="p" d="M439.393,63.6s4.8,5,7,7.4c2.2,2.6,2.4,7.4,2.4,7.4s3.6-4.6,2.2-9.8c-1.6-5.2-5.2-15.605-14.4-12.4s-9.6,17.006-8.6,23.808C427.789,80.208,431.991,65,439.393,63.6Z" transform="translate(-427.611 -55.6)"/></g><g transform="translate(28.189 39.835)"><path class="r" d="M446.316,75.99s-7,17.806-11.2,20.807c0,0-5.6-18.206-5.2-20.807C429.71,76.19,438.113,72.789,446.316,75.99Z" transform="translate(-429.89 -74.611)"/></g><g transform="translate(19.825 37.013)"><path class="p" d="M435.495,73.2s-12.6,11.2-9.2,18.006c2.8,6,12.6,2.2,11-4A72.393,72.393,0,0,1,435.495,73.2Z" transform="translate(-425.709 -73.2)"/></g><g transform="translate(31.411 32.811)"><path class="s" d="M431.5,72.1a9.111,9.111,0,0,0,8.6-1,5.683,5.683,0,0,1-4.2,2.8C432.5,74.3,431.5,72.1,431.5,72.1Z" transform="translate(-431.5 -71.1)"/></g></g><g transform="translate(273.262 42.438)"><path class="t" d="M495.306,51.1s-4.2,15.605-5,19.207a22.139,22.139,0,0,1-2.2,5h0a2.845,2.845,0,0,0-.4,1.2c-.2,1.4.4,2.4-.6,3.8l-.2.6h-8.2c1-2.8,2.2-6.4,3.2-9.4.8-2.4,1.4-4.4,1.6-5,.6-1.6,2.4-7.2,4-10.8.6-1.2,2.6-2.6,4.6-3.4A17.68,17.68,0,0,1,495.306,51.1Z" transform="translate(-478.7 -51.1)"/></g><path class="u" d="M498.5,44s.2,15.005.2,18.606c0,3.8-5,8.2-7.6,7.4-2.6-1-5.4-4.2-5.4-4.2V51.6Z" transform="translate(-199.897 -15.767)"/><path class="u" d="M497.992,35.5s3.6,8.2,3,14.4-10,14.4-14.2,12c-4.2-2.6-2.8-9.6-2.8-11.2s-1.6-9.2-.2-11.8C484.988,35.9,495.391,32.9,497.992,35.5Z" transform="translate(-202.204 -25.269)"/><path class="v" d="M487.958,33.534c5.8-2.4,12.2-1.2,14.6,2,5.4,7-.4,19.007-.4,19.007s-.6,5.2-3.2,8.2-8.6,5.4-12,3-2.4-9.8-2.4-9.8.4,1.8,1.8,1.8,1.6-1,2.2-1c2.2-.4,3.2.2,5.2,1a2.423,2.423,0,0,0,2-.2,5.428,5.428,0,0,0,2.8-5.2l-.6-5.2a13.771,13.771,0,0,1-4.6-4c-1,3.8-9.4,3-10.6,1.2C481.556,42.337,482.156,35.935,487.958,33.534Z" transform="translate(-203.377 -27.508)"/><path class="w" d="M483.6,37.856c2.2-6.4,8.8-9.6,14.805-7,6,2.4,8.8,9.8,6.6,16.206,0,.2-.2.4-.2.8l-21.407-9C483.4,38.256,483.4,38.056,483.6,37.856Z" transform="translate(-202.497 -29.829)"/><path class="x" d="M488.1,40.315c0-.2.2-.4.2-.8a11.116,11.116,0,0,1,11.8-7.8c-.6-.4-1.2-.6-1.8-1a11.125,11.125,0,0,0-14.805,7c0,.2-.2.4-.2.8l21.407,9Z" transform="translate(-202.48 -29.888)"/><path class="y" d="M481.2,33.353c.2-.6,6,1.4,13.2,4.4,7,3,12.8,5.8,12.6,6.4s-6-1.4-13.2-4.4S481,33.953,481.2,33.353Z" transform="translate(-204.46 -26.527)"/><path class="u" d="M491.122,40.757s1-2,2.4-1.4c1.2.6.4,7-1.2,7C490.722,46.159,491.122,40.757,491.122,40.757Z" transform="translate(-194.941 -20.526)"/><g transform="translate(273.161 37.636)"><path class="z" d="M515.318,63.1c0,4.6-5.4,15.805-6.2,19.207a2.844,2.844,0,0,1-.4,1.2H482.707c-.2-1.6-.2-3-.4-3.8-.2-2.6-2.8-8-2.6-10.6,0-2.6,1.4-4.8,3.2-7.6.6-.8,1.2-1.8,1.8-2.6a70.919,70.919,0,0,1,4.6-6.2c.6-.6,1.4-1.2,1.8-1.6h0a7.226,7.226,0,0,1,2-1l8.2-1.4s5,1.8,8,2.6C509.516,51.5,515.318,52.3,515.318,63.1Z" transform="translate(-479.695 -48.7)"/></g><g transform="translate(277.947 40.237)"><path class="z" d="M490.2,50l-4.8,7.4L481,64.2a19.637,19.637,0,0,0,.8-4,8.8,8.8,0,0,1,.4-2,.735.735,0,0,1,.2-.6h0c1.8-4.4,7.6-7.6,7.8-7.6Z" transform="translate(-481 -50)"/></g><path class="aa" d="M481.8,57.7h0a14.613,14.613,0,0,0-.4,2.6l1.8-2.6a65.919,65.919,0,0,1,4.2-5.6,14.822,14.822,0,0,1,2.4-2.2S483.6,52.9,481.8,57.7Z" transform="translate(-202.682 -9.863)"/><path class="z" d="M494.512,63.947s7.4-3,9.6-3c0,0-1.6-12-8.8-10.8C488.109,51.543,494.512,63.947,494.512,63.947Z" transform="translate(-195.211 -9.705)"/><path class="t" d="M507.807,62c-.4,6.6-2.2,12.8-3.8,18.606l-.6,2.4H488.2v-6C489,58.6,494.8,49,494.8,49s1.8.6,7.2,2.2c3.6,1,5,5.6,5.6,8.6h0A17.327,17.327,0,0,1,507.807,62Z" transform="translate(-198.676 -10.763)"/><path class="t" d="M493.2,49.5c0,.2-1,1.8-2.2,4.6a49.539,49.539,0,0,0-4.2,17.806c0,2.4-.6,6-1.2,10.8h-3a59.693,59.693,0,0,0-1.6-9.4c-.4-1.4-.8-2.6-1-3.2-1-3.2,2.2-7.6,3.2-9.2C484,59.1,486.6,51.9,493.2,49.5Z" transform="translate(-204.324 -10.263)"/><path class="t" d="M509.134,82.009h-8.2a14.768,14.768,0,0,0-.4-2.4c-1.4-5.2-5.8-15.605-5.8-15.605s-6.6-10.8-.4-13.4c6.2-2.8,8.8,5,9.8,8.2h0C504.332,59.6,507.933,73.806,509.134,82.009Z" transform="translate(-195.888 -9.761)"/><g transform="translate(109.711 85.709)"><g transform="translate(92.46 79.245)"><path class="o" d="M434.3,145.14s2.8,0,3.8-1.2a21.975,21.975,0,0,1,3.4-2.4c.8-.4,2.8-2.4,3.2-1.4.2,1-3.4,3.6-4,4.2s3,1,3.6,1.6-1.4,7.8-3.8,7.2-4.6-3-5-3a12.752,12.752,0,0,1-1.8-.4Z" transform="translate(-433.7 -139.862)"/></g><g transform="translate(99.062 85.124)"><path class="o" d="M440.2,142.8s7.4,2.2,7.8,3c.4.6,0,1.2-.6,1-.8-.2-7.2-2-7.2-2s8.2,4.4,8.4,4.8c.2.2-.2,1.2-.6,1.2s-8.8-3.8-8.8-3.8,7.6,4.2,7.8,4.6-.4,1.2-1,1-7.8-3.6-7.8-3.6,5.2,3.4,5.2,4c0,.4-.4,1.2-1.6.2-1.4-1-4.8-2.8-4.8-2.8Z" transform="translate(-437 -142.8)"/></g><g transform="translate(69.303 208.872)"><path class="ab" d="M430.278,205.347s2.4,3.6,5.8,4.4,6.6,2,6.6,4c0,2.2-9.6,3.4-13.4,1.2-5.8-3.2-6.2-2.2-7-3.8-.6-1.6.8-5.8.8-6.4C422.875,204.347,430.278,205.347,430.278,205.347Z" transform="translate(-422.125 -204.653)"/></g><g transform="translate(70.237 206.766)"><path class="ac" d="M429.41,204.6l.4,1.8s-7.6,1-7.2-.4l.4-2.4Z" transform="translate(-422.592 -203.6)"/></g><g transform="translate(22.301 208.52)"><path class="ab" d="M406.77,205.324s1.6,3.4,4.6,4.6,5.6,2.6,5.6,4.8c0,2-7.6,4.2-13,.2-3.4-2.4-4.6-2.6-5.2-4-.6-1.6,1-5.6,1-6.2C399.768,203.923,406.77,205.324,406.77,205.324Z" transform="translate(-398.633 -204.477)"/></g><g transform="translate(23.632 206.166)"><path class="ac" d="M406.3,204.7v1.8s-7.2.6-7-.8c.2-1,.6-2.4.6-2.4Z" transform="translate(-399.298 -203.3)"/></g><g transform="translate(20.738 95.594)"><path class="ad" d="M434.161,155.97s9.4,36.213,13,44.615c3.4,7.8,4.4,18.606,5,24.008.6,6.8,4,33.612,4.4,35.612s-11.2,1.2-11.2,1.2-8-46.216-11.2-53.018c-2.2-4.4-15.005-36.813-16.406-35.012s-3.2,34.212-4.4,39.614c-1,5.4-4.4,47.817-4.4,47.817s-7.4,1-9.4-.6c0,0-1-36.212-.2-46.216.2-3.8-4.4-46.016,1.6-63.022C404.151,142.165,434.161,155.97,434.161,155.97Z" transform="translate(-397.851 -148.033)"/></g><g transform="translate(4.23 35.107)"><path class="ae" d="M389.6,160.215a25.672,25.672,0,0,0,2,4.4c1.8-3.6,3.2-6.6,3.8-7.8,1.6-3.6,9.4-12,9.4-12h0c.4,1.6,3,11.6,3.2,16.606.2,5.4,1.6,15.405,1.6,15.405h0l1.6.2,3.6.6h.4l1,.2,9.8,1.4,3.4.4h.4l2,.2,5.4.8,1.4.2h0l1,.2,1.4.2h0s1.4-2,1.2-6c-.2-2.6-.4-7.6-.4-12.4h0v-.2h0a31.737,31.737,0,0,1,.8-6.8,11.328,11.328,0,0,0,.6-3.6v-.8a23.925,23.925,0,0,0,0-5.8h0c0,.2.8,2.8,1.8,6,1.6,5.4,3.8,12.6,4.8,13,1.4.6,23.408,7,28.21,7.8h1v-.2c.6-2,1.4-5.2,1.6-5.6h0l-.8-.2-24.008-7.2-11-31.611c-.2-.2-3-1.4-5-2.4s-4.4-2.4-6.6-3.6c-1.2-.6-2.2-1.2-3-1.6h-.2a17.454,17.454,0,0,1-2.6-1.2h-.6c-2.2-.2-8.6-.8-10.8-1h-.6a16.929,16.929,0,0,0-3.4,1.2h-.4a.7.7,0,0,0-.4.2c-.4.2-.6.2-1,.4-.2,0-.2,0-.4.2a88.158,88.158,0,0,0-8.6,3.8c-.6.4-2.6,4.2-5,8.8-2.6,9.4-6.4,24.008-6.6,27.81Z" transform="translate(-389.6 -117.8)"/></g><g transform="translate(23.814 94.521)"><path class="af" d="M431.622,151.9s.8.8,1,4.6c0,0-30.01-3.6-33.212-4.8,0,0-.2-4,.6-4.2C400.611,147.3,431.622,151.9,431.622,151.9Z" transform="translate(-399.389 -147.497)"/></g><g transform="translate(30.439 23.323)"><path class="o" d="M402.7,122.494c0,4.8,9.2,7.4,9.2,7.4s3.8-4.8,3-5.2c-.4-.2-.6-.8-.6-1.6v-2.8l-3-3c-3-2.8-6.8-6.6-7-5v.2C405.3,115.491,402.7,122.494,402.7,122.494Z" transform="translate(-402.7 -111.91)"/></g><g transform="translate(29.038 94.927)"><path class="ab" d="M404.2,147.9s-.6,4.2-.8,5.2l-1.4-.2s.4-4.4.6-5.2Z" transform="translate(-402 -147.7)"/></g><g transform="translate(52.446 98.329)"><path class="ab" d="M414.9,149.6s.6,3.8.6,5.2l-1.4-.2s-.4-4.8-.4-5.2Z" transform="translate(-413.7 -149.4)"/></g><g transform="translate(34.04 26.904)"><path class="ag" d="M404.5,113.7h0s.4.6,1,1.4c1.4,1.8,4,4.6,7,5.8v-2.2a1.8,1.8,0,0,0,1-.2,34.726,34.726,0,0,0-2-3l-1.8-.6Z" transform="translate(-404.5 -113.7)"/></g><g transform="translate(29.201 7.4)"><path class="o" d="M405.12,120.054a36.125,36.125,0,0,0,1.8,3.4h0c.2.4.6.8,1,1.4,1.6,1.6,4.4,3.8,7,3.6a1.8,1.8,0,0,0,1-.2,4.348,4.348,0,0,0,3.2-2.2c5.8-11.2,1.6-20.207,1.6-20.207s-15.605-4.4-18.006.2C400.918,109.651,403.319,116.053,405.12,120.054Z" transform="translate(-402.081 -103.951)"/></g><g transform="translate(26.431 0)"><path class="ah" d="M421.91,109.751s1.4,0,1.8-2.8-.4-3.4-.4-3.4-6.4-2.6-8.8-3-8-.6-9.4.8c0,0-3.2-.8-4.2,4.6-1.4,8.6,4.8,16.806,4.8,16.806s0-5.6,1.2-6.4,2.2,1,2.2,1l2.6.4s-3.8-8.2.8-8.6C417.309,108.95,419.309,110.151,421.91,109.751Z" transform="translate(-400.697 -100.253)"/></g><g transform="translate(30.632 12.565)"><path class="o" d="M407.2,108.868c-.2-2.4-4.6-3.4-4.4-.8s2.4,5,3.4,5C407.4,112.869,407.4,110.669,407.2,108.868Z" transform="translate(-402.797 -106.533)"/></g><g transform="translate(4.399 35.707)"><path class="ai" d="M391.716,164.316c2,3.6,5,9.2,8,14.4-.4.8-.8,1.4-1.2,2.2a21.248,21.248,0,0,0-2.2,5c-.6,2-1.6,6.8.2,7.8l9.6,5.4a1.548,1.548,0,0,1,.2-.6c.4-.8,1-2.8,2-5.2a2.015,2.015,0,0,0,.2-.6c.2-.4.4-1,.8-1.8.2-.4.2-.6.4-1l.6-1.2c.2-.6.6-1.2.8-1.8.6-1.6,1.2-2.8,1.2-2.8v-.2c.4-.6.6-1.4,1-2,.6-1,1-2,1.6-3.2,0-.2.2-.2.2-.4s.2-.4.2-.6.2-.2.2-.4h0v-.2c2.8-5,6-9.4,7-15.605,0-.6.2-1.2.2-1.8.2-1,.2-2,.4-3a1.5,1.5,0,0,1,.2-1c.6-4.2.8-7.8,1-10.4.8-8-4.2-16.806-8-22.008-2-2.8-3.8-4.8-4-5.2h-.4a.7.7,0,0,0-.4.2c-.4.2-.6.2-1,.4-.2,0-.2,0-.4.2-3.6,1.4-11.4,3.6-12.4,4.2-.6.4-1.8,4-3.2,8.6-3,9.6-4.8,24.008-4.8,27.409v.2C389.515,160.315,390.315,161.915,391.716,164.316Zm14.605-1.8a18.435,18.435,0,0,1-1.4,6v.2c-.6-1.4-1.2-2.6-1.8-3.8h0c-1.4-3.2-2.4-5.8-2.4-6.6-.4-6.4,4.4-13.6,4.4-13.6h0C405.921,148.711,406.321,162.515,406.321,162.515Z" transform="translate(-389.685 -118.1)"/></g><path class="aj" d="M426.728,163.622l-27.409,12.2a3.016,3.016,0,0,1-4-1.6l-7.6-16.806a3.016,3.016,0,0,1,1.6-4l27.41-12.2a3.016,3.016,0,0,1,4,1.6l7.6,16.806A3.016,3.016,0,0,1,426.728,163.622Z" transform="translate(-387.486 -59.491)"/><g transform="translate(45.244 37.107)"><path class="ai" d="M410.1,118.8s1.2,4.2,3,15.005h0a8.664,8.664,0,0,0,.2,1v.2a1.512,1.512,0,0,0,.2.8h0v.6c0,.4.2.8.2,1.2.8,5.2,1.8,14,2.8,23.008h0c.8,7,2.6,14.2,3.2,19.607h0c.2,1,.4,2.4.8,4a.735.735,0,0,0,.2.6c1.6,6.8,4.8,16.406,4.8,16.406l1-.8,2.8-2.4a2.258,2.258,0,0,0,.6-2.2c-1.4-4.8-6.6-22.008-7.6-34.012h0c.4-4.2,1.6-9.8,1.4-10.8h0c.6,1.4,1.2,3.2,1.8,4.6h0c1.6,4.2,3.2,8.2,4,8.4,1.6.6,28.81,8.6,29.01,7.6v-.8c.4-1.6,1-3.8,1.4-5.2,0-.2.2-.4.2-.6a3.5,3.5,0,0,0,.2-1l-23.208-7.6-11.6-30.611c-.2-.2-3.2-1.8-5.2-2.8s-4.6-2.2-7-3.2a7.549,7.549,0,0,1-3.2-1Z" transform="translate(-410.1 -118.8)"/></g><g transform="translate(24.837 36.107)"><path class="ak" d="M404.5,129.9l4.4,2.6-2,2,5.2,27.209c1-6.4,1.6-12.4,1.8-16.206,1.2-12.4-11.2-26.409-12-27.209a13.8,13.8,0,0,0-2,.8Z" transform="translate(-399.9 -118.3)"/></g><g transform="translate(45.044 37.107)"><path class="ak" d="M410,118.8s1.6,5.4,3.6,19.007c.8,5.2,1.8,14,2.8,23.008l1-25.609-2.2-2.2,1.8-2.4-4-10.2a14.29,14.29,0,0,0-3-1.6Z" transform="translate(-410 -118.8)"/></g><g transform="translate(26.637 33.906)"><path class="al" d="M400.8,119.4l3.8-2.2s.2,2,9.2,7.4l-2.6,7.4Z" transform="translate(-400.8 -117.2)"/></g><g transform="translate(39.642 34.907)"><path class="al" d="M409.7,117.7s-.2,2.2-2.4,6.2l5,6.6.4-10.8Z" transform="translate(-407.3 -117.7)"/></g><g transform="translate(38.947 41.109)"><path class="q" d="M407.647,120.8s-1,4-.6,5a4.931,4.931,0,0,0,3.8-.2A21.467,21.467,0,0,0,407.647,120.8Z" transform="translate(-406.953 -120.8)"/></g><g transform="translate(44.243 86.324)"><path class="am" d="M410,154.8c.6-2.8,0-11,0-11.4h-.4s.6,8.6,0,11.2Z" transform="translate(-409.6 -143.4)"/></g><g transform="translate(40.642 96.528)"><path class="an" d="M408,148.5s4.4.6,5.8.8l-.2,5-5.8-.6Z" transform="translate(-407.8 -148.5)"/></g><g transform="translate(39.442 45.31)"><path class="q" d="M409.6,123.3a68.679,68.679,0,0,1,4.2,26.409c-.8,14.4-2.2,19.807-2.2,19.807l-3,3.8-1.4-4.6s4-18.406,1.4-36.413c-.4-3.2-1.2-9.4-1.2-9.4Z" transform="translate(-407.2 -122.9)"/></g><g transform="translate(22.413 104.506)"><path class="o" d="M403.313,152.513s1,2.2,2.2,2.4a11.633,11.633,0,0,1,2.6,2l-7.4,4s-2-3.8-2-6.4C398.311,152.112,403.313,152.513,403.313,152.513Z" transform="translate(-398.689 -152.488)"/></g><g transform="translate(21.636 104.731)"><path class="ae" d="M404.3,152.6l.4,1s-4.8,3.4-6,3.6l-.4-1.4Z" transform="translate(-398.3 -152.6)"/></g><g transform="translate(8.231 80.722)"><path class="ai" d="M411.607,164.608a31.086,31.086,0,0,1-6.6,4.2L391.6,145.2l8.6-4.6C400.2,140.8,411.407,163.008,411.607,164.608Z" transform="translate(-391.6 -140.6)"/></g><g transform="translate(57.248 54.714)"><path class="ad" d="M417.1,136.2c.2,3.4.2,6.4.2,6.4h0v0c.6,1.4,1.2,3.2,1.8,4.6a46.975,46.975,0,0,0,.2-5.2c-.2-9.4-3.2-14.4-3.2-14.4C416.7,129.4,416.9,133,417.1,136.2Z" transform="translate(-416.1 -127.6)"/></g></g><g transform="translate(199.319 79.369)"><g transform="translate(67.134 24.244)"><path class="o" d="M472.944,116.8a10.709,10.709,0,0,1,0-2.6c.4-1.4-.2-3.6,1.6-4.8s6.8,3.4,7.2,4.8c.4,1.2-1.4,3.4-5.4,5.2C472.544,121.4,472.944,116.8,472.944,116.8Z" transform="translate(-472.855 -109.201)"/></g><g transform="translate(68.424 15.397)"><path class="o" d="M473.5,114.424a38,38,0,0,1,4-5.2c2-2.2,4.8-4.8,5.4-4.4.8.8-1.6,2.6-3.4,5-1.6,2.2-1,2-1,2s-.2,0,2-2c2.4-2.2,5.2-4.4,5.6-4,.6.4.6.6-.2,1.6.6-.4.8-.4,1-.2,1.2,1.2-2,5-3.2,6.4,1-1.2,1.8-2,2-.8s-4.4,6.4-5.8,8.4C478.3,123.427,473.5,114.424,473.5,114.424Z" transform="translate(-473.5 -104.779)"/></g><g transform="translate(0.222 207.938)"><path class="f" d="M448.792,201.584s4.8,2.8,7,3.8,10.6,1.4,11.4,2.2.6,3.4-.8,3.6-11.6,1.2-15.005.4-9.8.6-11.2,0c-1.4-.4-.6-8.2,0-9.8C440.589,200.183,448.792,201.584,448.792,201.584Z" transform="translate(-439.411 -201.017)"/></g><g transform="translate(1.2 205.304)"><path class="ao" d="M448.7,199.7l-.4,3.2s-6.4,1.2-8.4.2l.4-3.2Z" transform="translate(-439.9 -199.7)"/></g><g transform="translate(0 85.203)"><path class="ap" d="M474.912,153.334c0,2.2-.4,6.8-1,11.8-.2,1-.2,2.2-.4,3.2-.6,6.6-1.2,12.8-1.2,12.8a195.021,195.021,0,0,1-4.4,21.407h0c-.6,2-1,3.8-1.6,5.2a11.733,11.733,0,0,1-1.6,3.2c-4,5-13,50.017-13,50.017H439.3s2.8-30.411,5.4-38.213c3-8.6,8.4-20.207,7-28.61-.8-5.2-1.8-21.807-1.8-21.807s-1-18.606,3.8-32.211C455.105,136.729,474.912,153.334,474.912,153.334Z" transform="translate(-439.3 -139.67)"/></g><g transform="translate(34.902 209.05)"><path class="f" d="M466.258,202.228s4.8,2.8,7,4c2.2,1,10.6,1.4,11.4,2.2s.4,3.4-1,3.6-11.6,1-15.005.2-9.8.4-11.2,0-.4-8.2.2-9.8C458.056,200.627,466.258,202.228,466.258,202.228Z" transform="translate(-456.745 -201.572)"/></g><g transform="translate(36.012 206.504)"><path class="ao" d="M466.1,200.3l-.4,3.2s-6.4,1.2-8.4.2l.6-3.2Z" transform="translate(-457.3 -200.3)"/></g><g transform="translate(17.443 86.813)"><path class="ap" d="M460.586,215.751c-.4-10-1.2-16.606-3.8-22.208-2.2-4.8-4-20.007-4-20.007s-5.8-17.806-4.6-32.211c.2-3.6,22.808,5.4,22.808,5.4.4,2.2,2,8.8,2.6,13.6,3,28.01,2,46.416,2,46.416-1.8,6.2,2.6,55.019,2.6,55.019h-12.6s-3.4-17.406-3.6-28.21C461.786,233.557,460.386,217.352,460.586,215.751Z" transform="translate(-448.018 -140.475)"/></g><g transform="translate(10.604 31.044)"><path class="aq" d="M463.807,115s5.8,9.6,7.6,15.005.4,21.007.6,24.208c1,9.8,2.4,20.607,2.4,20.607l-19.807,12.6a166.172,166.172,0,0,1-6.6-18.606,91.964,91.964,0,0,1-3.4-25.809c0-19.407,10.6-30.41,10.6-30.41Z" transform="translate(-444.6 -112.6)"/></g><g transform="translate(17.4 3.805)"><path class="o" d="M467.61,102.816s4,4.4,3,5.4,2.8,5.2,3.4,6-1.6,2-2,2.6-.2,7.4-2,8.2c-1.8.6-11.4,0-14.405-1.8s-7.8-12.4-7.6-17.606S460.407,95.213,467.61,102.816Z" transform="translate(-447.997 -98.986)"/></g><g transform="translate(22.208 10.788)"><path class="o" d="M461.4,119.93a6.4,6.4,0,0,1-.2,1.4,2.537,2.537,0,0,1-.2,1.2v1.4a6.8,6.8,0,0,1-.2,2v4.2c.4,2.6-10.4-8.2-10.4-8.2a106.947,106.947,0,0,0,.4-17.606C450.6,95.722,461.4,119.93,461.4,119.93Z" transform="translate(-450.4 -102.476)"/></g><g transform="translate(15.485 0)"><path class="ar" d="M469.368,105.519s2-4.6-4-7.6c-7-3.6-14.4,5.6-15.405,6.2s-5.4,5.6-1,12.2c5.4,8.4,5.2,8,5.2,8s.6-6.2.6-7.4c0-2.2,5.6-2.4,5.6-2.4s-2.4-3.2.2-4.6S466.367,105.319,469.368,105.519Z" transform="translate(-447.04 -97.084)"/></g><g transform="translate(21.365 14.839)"><path class="o" d="M454.423,106.3c-.4-.6-2-3.2-4-.8-2,2.2,3.4,6.6,3.8,6.4C454.623,111.9,458.024,111.3,454.423,106.3Z" transform="translate(-449.979 -104.5)"/></g><g transform="translate(11.404 92.065)"><path class="as" d="M475.01,148.5s-1-4.6-1.2-5.4L445,147.9l.2,3.8S466.007,150.5,475.01,148.5Z" transform="translate(-445 -143.1)"/></g><g transform="translate(6.179 77.059)"><path class="q" d="M445.013,135.6a87.681,87.681,0,0,1-2.6,41.614c-.8,2.8,19.207-.4,19.207-.4Z" transform="translate(-442.388 -135.6)"/></g><g transform="translate(7.616 31.044)"><path class="q" d="M469.7,198.43s-14.2,3.2-18.206,1.8a285.779,285.779,0,0,1-7.8-42.815c-.2-1.6-.2-3.4-.4-5h0c-1.2-17.606,3.4-35.212,13.4-39.814.2.2,14.605,12.8,14.4,24.408v6.6h0c0,4.4.4,8.8.8,13a3.906,3.906,0,0,0,.2,1.4c0,.8.2,1.4.2,2.2.2,1,.2,1.8.4,2.8A98.724,98.724,0,0,1,469.7,198.43Z" transform="translate(-443.107 -112.6)"/></g><g transform="translate(33.612 41.647)"><path class="at" d="M456.1,118.1a179.4,179.4,0,0,1,3.8,24.008c.8,11.2,2,19.207,2,19.207l1.8,5.6.8-5.4s-.6-14.4-1.4-20.407-1.2-13.4-6-23.208Z" transform="translate(-456.1 -117.9)"/></g><g transform="translate(33.011 38.446)"><path class="at" d="M456.2,119.7a1.4,1.4,0,0,0,.8.4c.4,0,1.2-.6-1.2-3.8Z" transform="translate(-455.8 -116.3)"/></g><g transform="translate(21.207 29.443)"><path class="au" d="M451.1,111.8s6.6,6.2,10.6,7.6l.8,6-12.6-12Z" transform="translate(-449.9 -111.8)"/></g><g transform="translate(15.892 29.574)"><path class="q" d="M458.361,135.943c-2.6-1-13.6-6.2-10.6-12.4,2.8-6.2,10.4-2.8,16.006-.4,5.8,2.6,19.807,10.6,20.807,10,1-.8,5.8-7.6,6.8-9.2.8-1.6,6.2-11.4,6.6-12,.4-.8,8,5.6,8,5.6s-13.6,24.208-17.406,28.21C484.97,149.548,458.361,135.943,458.361,135.943Z" transform="translate(-447.243 -111.865)"/></g><g transform="translate(22.808 127.477)"><path class="f" d="M456.7,181.407h0c-.6,2-1,3.8-1.6,5.2h0L450.7,160.8C451.7,163.2,456.7,181.407,456.7,181.407Z" transform="translate(-450.7 -160.8)"/></g><g transform="translate(23.008 51.851)"><path class="av" d="M463.4,133.2,450.8,123c3.4,1.8,11.4,5.6,12.4,6C463.2,130.4,463.4,131.8,463.4,133.2Z" transform="translate(-450.8 -123)"/></g><g transform="translate(25.209 28.042)"><path class="ag" d="M459.7,112.9a2.538,2.538,0,0,1-.2,1.2v.8c-4.2-.2-7.4-3.6-7.6-3.8C453.7,112.5,459.7,112.9,459.7,112.9Z" transform="translate(-451.9 -111.1)"/></g></g><g transform="translate(307.53 69.512)"><path class="aw" d="M520.105,71h0C504.1,71.2,504.3,86.605,504.3,86.605h31.611S536.111,71.2,520.105,71Z" transform="translate(-503.781 -71)"/><path class="ax" d="M534.57,78.6c-3-1.2-4.8-2.2-14.2-2.4-9.4,0-11.2,1.2-14.2,2.4-1.8.8-2.4,2.2-2,3H536.97A3.873,3.873,0,0,0,534.57,78.6Z" transform="translate(-504.041 -65.796)"/><path class="ay" d="M525.9,80.9c-3.8-3-9.4-3.4-11.2-3.6v-6c-.4,0-.8-.2-1.4-.2v7.6h.6s8.8,0,12.6,4.8A12.2,12.2,0,0,0,525.9,80.9Z" transform="translate(-494.775 -70.9)"/><path class="ay" d="M516.3,71.3v6c-2,0-7.4.6-11.2,3.6a6.908,6.908,0,0,0-.6,2.6c3.8-4.8,12.6-4.8,12.6-4.8h.6V71.1A3.4,3.4,0,0,0,516.3,71.3Z" transform="translate(-503.581 -70.9)"/></g><g transform="translate(179.813 44.389)"><path class="az" d="M430.4,53.216c0,.2,1.2,9.8,1.2,9.8,4-.4,9.4-.4,13.2-.4-.2-1.6-.6-4.2-1.8-5.6-1.8-1.8-4.8-4.6-7.6-4.8A9.878,9.878,0,0,0,430.4,53.216Z" transform="translate(-420.765 -51.966)"/><path class="az" d="M430.6,53.125c0,.2,1.2,10,1.2,10,4.2-.4,11.6-.8,15.605-.8a13.616,13.616,0,0,0-1.6-4.8,10.363,10.363,0,0,0-4.6-4.2,9.227,9.227,0,0,0-5.6-1.2,11.868,11.868,0,0,0-4.6,1Z" transform="translate(-420.564 -52.075)"/><path class="ba" d="M429.4,53.4l2,9.8c.2,0,5.2-.6,12.6-.6,0-2.4-.2-5.2-1.8-7.2a8.231,8.231,0,0,0-9.6-2.6C431.4,53,430.2,53.2,429.4,53.4Z" transform="translate(-421.765 -51.95)"/><path class="bb" d="M425.925,66.49c2.6-4,14-4.2,19.007-4.2,0-1.2.4-4.6-.6-6-3.2-5.6-15.205-5.2-18.206,2.8C425.725,60.888,425.925,64.49,425.925,66.49Z" transform="translate(-425.293 -51.635)"/><path class="bc" d="M426.111,61.7h0c2.4-4,13-4,18.006-4.2,2.8,0,11-1,11,1.4,0,.8-2,1.8-3.6,2.2-.2-.4-.2-1-1-1-6,0-16.206.4-21.407,3.2a2.891,2.891,0,0,0-1.2,2.8A2.913,2.913,0,0,1,426.111,61.7Z" transform="translate(-425.479 -46.85)"/><path class="bd" d="M426.016,62.232c3.4-6,27.009-6.6,29.81-4,1.2,1-.2,2.6-3,3.2,1.2-.6,1.8-1,2-1.4,2.2-3.6-19.807-1.8-25.209.2a5.84,5.84,0,0,0-3.2,2.2h0a4.375,4.375,0,0,0-.6,1.8,3.228,3.228,0,0,0,.6,1.8C424.816,64.633,426.016,62.232,426.016,62.232Z" transform="translate(-425.584 -47.377)"/></g></svg>