<svg xmlns="http://www.w3.org/2000/svg" xmlns:xlink="http://www.w3.org/1999/xlink" width="363.1" height="282.525" viewBox="0 0 363.1 282.525"><defs><style>.a,.z{fill:#303637;}.b{fill:#fff;}.c,.x{fill:#ffa97c;}.d{fill:#d66634;opacity:0.3;}.ak,.al,.e{fill:#f9fafe;}.f{fill:#f06359;}.g{fill:#e6e7e8;}.h{fill:#929497;}.i{clip-path:url(#a);}.j{fill:#f7d9bc;}.k{fill:#00adee;}.l{fill:#f6a49b;}.m{fill:#292b2b;}.n,.p{fill:#f7a584;}.o{fill:#27282a;}.ah,.p{opacity:0.2;}.q{fill:#f3f3f3;}.q,.z{opacity:0.1;}.ab,.ai,.r,.t{fill:none;}.r{stroke:#27282a;stroke-width:0.397px;}.ai,.r,.t{stroke-miterlimit:10;}.s{fill:#d0d2d3;}.t{stroke:#58595b;}.u{clip-path:url(#b);}.v{fill:#ffbe90;}.w{fill:#f4cdb3;}.x{opacity:0.4;}.y{fill:#4d4d4d;}.aa{fill:#ffce55;}.ac{fill:#fba478;}.ad{fill:#e67944;}.ae{fill:#ffac7a;}.af{fill:#999;}.ag{fill:#131313;}.ah{fill:#f1f1f1;}.ai{stroke:#34bf6e;stroke-width:3px;}.aj{fill:#1a954f;}.ak{font-size:12px;}.ak,.al{font-family:Raleway-ExtraBold, Raleway;font-weight:800;}.al{font-size:6px;}</style><clipPath id="a"><circle cx="20.997" cy="20.997" r="20.997"/></clipPath><clipPath id="b"><path d="M295.837,214.321H55.306a8.566,8.566,0,0,1-8.706-8.365V61.365A8.566,8.566,0,0,1,55.306,53h240.53a8.566,8.566,0,0,1,8.706,8.365V205.956A8.566,8.566,0,0,1,295.837,214.321Z" transform="translate(-46.6 -53)"/></clipPath></defs><g transform="translate(-42.3 -25.4)"><g transform="translate(42.3 25.4)"><path class="a" d="M305.705,226.8H51.518a9.18,9.18,0,0,1-9.218-9.218V57.118A9.18,9.18,0,0,1,51.518,47.9H305.705a9.18,9.18,0,0,1,9.218,9.218V217.586A9.29,9.29,0,0,1,305.705,226.8Z" transform="translate(-42.3 -9.49)"/><path class="b" d="M295.837,214.321H55.306a8.566,8.566,0,0,1-8.706-8.365V61.365A8.566,8.566,0,0,1,55.306,53h240.53a8.566,8.566,0,0,1,8.706,8.365V205.956A8.566,8.566,0,0,1,295.837,214.321Z" transform="translate(-39.259 -5.884)"/><path class="a" d="M111.8,152.7v54.456h35.508V152.7Zm17.583,40.629a11.608,11.608,0,1,1,11.608-11.608A11.62,11.62,0,0,1,129.383,193.329Z" transform="translate(6.843 64.614)"/><rect class="a" width="108.742" height="10.755" transform="translate(81.941 271.77)"/><path class="c" d="M103.818,81.515c4.438-1.707,10.072-2.9,13.657.171,1.878,1.707,2.731,4.268,3.244,6.658a107.7,107.7,0,0,1,2.39,14.852c.854,7.341,1.536,14.681.683,21.851-1.024,7.341-3.756,14.51-9.048,19.632a8.98,8.98,0,0,1-4.438,2.561,13.878,13.878,0,0,1-3.756-.171c-4.268-.512-8.535-1.195-12.8-1.707a12.981,12.981,0,0,1-4.268-1.024,15.757,15.757,0,0,1-4.951-3.926c-8.877-10.243-11.438-24.924-7.341-37.727C80.6,91.417,93.576,85.612,103.818,81.515Z" transform="translate(-18.975 13.058)"/><path class="d" d="M89.292,90.783,84,93.173l5.292-.854V90.1" transform="translate(-12.814 20.349)"/><g transform="translate(73.235)"><rect class="e" width="127.862" height="166.613"/><rect class="a" width="127.862" height="10.584" transform="translate(3.243)"/><circle class="f" cx="1.878" cy="1.878" r="1.878" transform="translate(120.521 2.731)"/><circle class="g" cx="1.878" cy="1.878" r="1.878" transform="translate(113.181 2.731)"/><circle class="g" cx="1.878" cy="1.878" r="1.878" transform="translate(105.669 2.731)"/></g><g transform="translate(85.696 22.534)"><circle class="h" cx="21.339" cy="21.339" r="21.339"/><g transform="translate(0.512 0.683)"><g class="i"><g transform="translate(10.072 29.021)"><path class="j" d="M112.357,57.441l1.878.341a7.659,7.659,0,0,1,5.975,7.511v2.731a.806.806,0,0,1-.854.854h-19.8a.806.806,0,0,1-.854-.854V65.294a7.843,7.843,0,0,1,5.975-7.511l1.707-.341h0l1.878-.341h2.731l1.366.341Z" transform="translate(-98.7 -55.222)"/><g transform="translate(3.073 2.049)"><path class="k" d="M114.5,58.054l-3.243-.683L110.4,57.2v2.049h0v0h0a1.755,1.755,0,0,1-1.878,1.707,1.894,1.894,0,0,1-1.878-1.878h0V57.2l-1.024.171-3.073.683a5.7,5.7,0,0,0-2.049.854v9.9h16.559v-9.9C116.035,58.566,115.181,58.224,114.5,58.054Z" transform="translate(-100.5 -57.2)"/></g><path class="k" d="M101.385,64.275H98.825a6.226,6.226,0,0,1,2.561-5.975Z" transform="translate(-98.654 -54.374)"/><path class="k" d="M110,64.275h2.561A6.226,6.226,0,0,0,110,58.3Z" transform="translate(-90.71 -54.374)"/><g transform="translate(8.877)"><path class="j" d="M107.756,58.049v1.878a1.878,1.878,0,1,1-3.756,0h0V56.854l.512-.512h.341L106.731,56l.512.171.683.171" transform="translate(-103.829 -56)"/><path class="l" d="M106.631,56l-1.878.341h-.341l-.512.512V58.39a3.661,3.661,0,0,0,2.049.683,3.441,3.441,0,0,0,1.878-.512V56.512l-.683-.171Z" transform="translate(-103.9 -56)"/></g></g><path class="j" d="M108.353,67.012h0a7.832,7.832,0,0,1-7.853-7.853V50.453a7.832,7.832,0,0,1,7.853-7.853h0a7.832,7.832,0,0,1,7.853,7.853v8.706A7.832,7.832,0,0,1,108.353,67.012Z" transform="translate(-87.355 -36.454)"/><circle class="m" cx="0.854" cy="0.854" r="0.854" transform="translate(23.729 17.071)"/><circle class="m" cx="0.854" cy="0.854" r="0.854" transform="translate(16.9 17.071)"/><g transform="translate(18.309 24.677)"><path class="n" d="M106.384,54.556a4.723,4.723,0,0,1-2.731-.854c-.171,0-.171-.171,0-.171,0,0,.171-.171.171,0a4.445,4.445,0,0,0,2.561.683,5.655,5.655,0,0,0,2.561-.683h.171V53.7A4.723,4.723,0,0,1,106.384,54.556Z" transform="translate(-103.525 -53.456)"/></g><g transform="translate(20.186 28.167)"><path class="n" d="M104.753,56.012h0c-.171-.171-.171-.341,0-.341a1.279,1.279,0,0,1,.854-.171,1.539,1.539,0,0,1,.854.171.171.171,0,0,1,0,.341c-.171,0-.341-.171-.683-.171-.512,0-.854,0-1.024.171Z" transform="translate(-104.625 -55.5)"/></g><path class="l" d="M109.7,49.4h0a1.53,1.53,0,0,1,1.536,1.536v.854a1.53,1.53,0,0,1-1.536,1.536h0" transform="translate(-80.85 -31.646)"/><path class="l" d="M101.236,49.4h0A1.53,1.53,0,0,0,99.7,50.936v.854a1.53,1.53,0,0,0,1.536,1.536h0" transform="translate(-87.921 -31.646)"/><path class="l" d="M105.3,49.753l-.683,2.561a.855.855,0,0,0,.854,1.024h0a.855.855,0,0,0,.854-1.024l-.683-2.561C105.809,49.582,105.467,49.582,105.3,49.753Z" transform="translate(-84.47 -31.487)"/><g transform="translate(16.089 14.773)"><path class="o" d="M104.914,48.757h-.171a1.414,1.414,0,0,0-1.878,0,.362.362,0,0,1-.512-.512,1.846,1.846,0,0,1,2.731,0,.32.32,0,0,1,0,.512Z" transform="translate(-102.225 -47.654)"/></g><g transform="translate(22.918 14.602)"><path class="o" d="M106.694,48.828c-.171,0-.171,0-.341-.171a.32.32,0,0,1,0-.512c1.366-1.024,2.39-.512,2.731,0a.362.362,0,1,1-.512.512c0-.171-.683-.854-1.878,0Z" transform="translate(-106.225 -47.554)"/></g><path class="j" d="M107.2,55.6v.171" transform="translate(-82.618 -27.262)"/><rect class="l" width="1.024" height="3.926" transform="translate(29.362 38.922)"/><rect class="l" width="1.024" height="3.926" transform="translate(11.779 38.922)"/><path class="p" d="M108.353,62.415h0a7.832,7.832,0,0,0,7.853-7.853V49.1h0s-.512,7.682-6.487,10.072a3.77,3.77,0,0,1-2.731,0C101.012,56.782,100.5,49.1,100.5,49.1h0v5.463a7.942,7.942,0,0,0,7.853,7.853h0" transform="translate(-87.355 -31.858)"/><path class="o" d="M115.585,45.361c-1.195-2.561-3.756-4.78-9.56-3.756a3.581,3.581,0,0,0-2.39,1.878c-1.707.171-4.1,1.878-2.9,10.925,0,0,1.366-10.072,4.609-6.316h0c1.024,1.195,3.926,3.585,10.755,3.756a12.02,12.02,0,0,1,0,2.731C118.317,47.41,116.609,45.7,115.585,45.361Z" transform="translate(-87.418 -37.338)"/><path class="q" d="M107.109,44.685h0a3.987,3.987,0,0,0-4.609-1.707l.171.341a3.6,3.6,0,0,1,4.268,1.536h0c.683,1.536,3.926,2.39,8.877,2.561v-.341" transform="translate(-85.941 -36.32)"/></g></g><g transform="translate(22.875 16.73)"><circle class="r" cx="2.049" cy="2.049" r="2.049"/><line class="r" x2="2.39" transform="translate(3.926 1.536)"/></g><g transform="translate(13.828 16.73)"><circle class="r" cx="2.049" cy="2.049" r="2.049" transform="translate(2.219)"/><line class="r" x1="2.39" transform="translate(0 1.536)"/></g><line class="r" x2="3.073" transform="translate(19.973 18.607)"/></g><rect class="s" width="53.603" height="6.487" transform="translate(138.104 30.045)"/><rect class="s" width="53.603" height="6.487" transform="translate(138.104 44.043)"/><rect class="s" width="53.603" height="6.487" transform="translate(138.104 57.871)"/><rect class="s" width="81.258" height="6.487" transform="translate(110.62 78.868)"/><rect class="s" width="81.258" height="6.487" transform="translate(110.62 99.865)"/><rect class="s" width="81.258" height="6.487" transform="translate(110.62 120.863)"/><rect class="s" width="81.258" height="6.487" transform="translate(110.62 141.689)"/><g transform="translate(90.135 77.332)"><rect class="t" width="9.048" height="8.023"/><rect class="t" width="9.048" height="8.023" transform="translate(0 21.68)"/><rect class="t" width="9.048" height="8.023" transform="translate(0 43.531)"/><rect class="t" width="9.048" height="8.023" transform="translate(0 65.382)"/></g><g transform="translate(7.341 47.116)"><g class="u"><g transform="translate(-40.288 31.034)"><path class="v" d="M104.653,143.6c-2.049-1.536-2.561-3.926-2.731-6.316-1.366,6.487-5.633,6.316-6.658,6.828a.167.167,0,0,0-.171.171.167.167,0,0,0,.171-.171c6.316-4.268,6.828-11.779,6.828-12.974A41.92,41.92,0,0,0,95.435,108.6c-2.9-4.438-7.17-9.218-3.585-14.51a17.136,17.136,0,0,1,3.756-3.243,18.884,18.884,0,0,0,6.828-9.048c.512-1.707,1.878-11.267-1.707-10.584a6.919,6.919,0,0,0-1.536.854,108.042,108.042,0,0,1-11.95,7.511c-3.585,2.049-5.975,2.561-7.341,6.658-4.438,13.315-9.389,25.948-6.658,40.288,1.707,9.048-3.414,18.607-8.194,26.289a13.186,13.186,0,0,0-2.049,4.1c6.828,8.194,14.169,16.388,22.875,22.534,3.243-4.438,6.487-8.877,10.584-12.633,3.756-3.243,3.926-4.951,8.194-7.341V143.6Z" transform="translate(5.284 -71.18)"/><g transform="translate(0 1.059)"><path class="w" d="M80.045,82.9a.167.167,0,0,0,.171.171.627.627,0,0,0,.512-.171c1.366-.683,2.9-1.536,4.268-2.39A6.684,6.684,0,0,0,86.7,79.141,6.386,6.386,0,0,0,87.9,76.409a10.52,10.52,0,0,0-.171-4.609c-2.9,2.049-5.975,4.1-9.218,5.975A8.3,8.3,0,0,0,80.045,82.9Z" transform="translate(16.235 -71.8)"/><path class="c" d="M78.649,81.292c-.683-.512-.854-2.9-1.024-3.756,0-.512-.171-1.024-.171-1.536a.167.167,0,0,0-.171.171c-.171.171-.512.171-.683.341A5.956,5.956,0,0,0,78.649,81.292Z" transform="translate(14.901 -68.83)"/><path class="c" d="M77.378,80.8c-.683-.512-.854-2.9-1.024-3.756V76.7c-.341.171-.512.341-.854.512A5.679,5.679,0,0,0,77.378,80.8Z" transform="translate(14.123 -68.335)"/><path class="x" d="M80.383,116.836c-.171-8.365-4.78-16.047-6.487-24.241,0-.341-.171-.854-.171-1.195a50.045,50.045,0,0,0-.683,20.827c1.707,9.048-3.414,18.607-8.194,26.289a13.186,13.186,0,0,0-2.049,4.1c1.195,1.366,2.219,2.561,3.414,3.926,1.195-1.536,2.39-3.243,3.585-4.78C74.92,134.419,80.554,126.054,80.383,116.836Z" transform="translate(5.143 -57.941)"/><path class="c" d="M76.912,85.849a22.155,22.155,0,0,0,5.633-1.195c.171-.341.512-.512.854-.854a3.539,3.539,0,0,1-1.024.341A18.428,18.428,0,0,1,76.4,85.849.32.32,0,0,0,76.912,85.849Z" transform="translate(14.759 -63.315)"/><path class="c" d="M82.84,141.79c.683-.854,1.195-1.707,1.878-2.561a9.784,9.784,0,0,0-1.878-1.878C77.889,132.743,72.6,128.133,68.5,122.5c3.585,4.951,7.341,9.9,10.925,15.022C80.62,138.888,81.645,140.254,82.84,141.79Z" transform="translate(9.173 -35.95)"/><path class="e" d="M64.187,115.7s9.9,20.827,28.167,34.483c.341.854-3.243,5.975-3.243,5.975S65.723,141.648,57.7,120.651C58.554,118.431,64.187,115.7,64.187,115.7Z" transform="translate(1.536 -40.758)"/><g transform="translate(0 74.942)"><path class="y" d="M80.7,115.7s3.585,22.192,41.653,42.165c-1.536-1.024-40.117,51.9-40.117,51.9L23,162.645Z" transform="translate(-23 -115.7)"/><path class="z" d="M94.571,133.8H91.5L36.7,168.283l35.849,28.509s38.58-52.92,40.117-51.9a129.106,129.106,0,0,1-18.1-11.1Z" transform="translate(-13.313 -102.901)"/></g></g></g><circle class="aa" cx="4.268" cy="4.268" r="4.268" transform="translate(39.605 147.323)"/></g><g class="u"><g transform="translate(129.91 18.607)"><rect class="ab" width="96.28" height="136.909"/><g transform="translate(7.341 17.583)"><g transform="translate(11.779 0.637)"><path class="ac" d="M167.847,85.672a24.371,24.371,0,0,1,2.561,4.609c1.366,3.073,2.561,6.316,3.756,9.389a55.5,55.5,0,0,1,2.9,10.413,47.935,47.935,0,0,1,.171,7c-.171,10.243-.341,20.485-.683,30.728a22.157,22.157,0,0,1-3.243-6.316,237.968,237.968,0,0,1-10.243-34.142,83.889,83.889,0,0,0-2.9-11.267c-.854-2.39-2.049-4.78-3.073-7.17-1.707-3.585-3.414-7.341-5.292-10.925,2.561-.854,5.292,1.024,7.682,2.049C162.555,81.4,165.8,82.94,167.847,85.672Z" transform="translate(-121.243 -72.311)"/><path class="ad" d="M135.569,86.585a8.922,8.922,0,0,0,2.049,1.195c1.707.341,3.243-1.195,4.78-1.536a18.808,18.808,0,0,1,3.073-.341c2.39-.171,4.78-.171,7-.341a1.279,1.279,0,0,1,.854.171c.341.171.512.512.683.683A16.245,16.245,0,0,0,157.249,90c.341.341.854.683,1.024,1.195a2.535,2.535,0,0,1-.683,2.39,10.709,10.709,0,0,0-1.024,6.487c0,.341.171.683,0,1.024-.171.512-.512.683-.854,1.024a10.906,10.906,0,0,0-3.756,8.194,21.375,21.375,0,0,0,9.73-1.707,11.549,11.549,0,0,0,4.438-3.073,10.151,10.151,0,0,0,2.219-5.8A26.639,26.639,0,0,0,168,93.413a16.045,16.045,0,0,0-1.366-5.633,10.853,10.853,0,0,0-3.756-4.1,18.709,18.709,0,0,0-7.17-2.9c-4.438-1.024-9.389-1.536-13.657.341-2.219,1.024-4.438,1.878-6.658,2.9-.171.171-.341.171-.512.341A1.631,1.631,0,0,0,135.569,86.585Z" transform="translate(-133.35 -70.834)"/><path class="ac" d="M160.019,103.684a22.791,22.791,0,0,1,0-3.414c.341-1.366,1.366-2.219,2.219-3.244a1.294,1.294,0,0,0,.341-.683c0-.171-.171-.512-.171-.683-2.219-4.1-2.219-8.194-7.341-9.73-5.292-1.536-11.608-.512-16.9-.512-1.707,0-3.926-.171-4.268-2.39v-.341c0-.171.171-.171.341-.341a14.528,14.528,0,0,1,2.9-1.024c2.731-.683,5.292-1.878,8.023-2.39,4.438-.854,8.706-1.707,13.145-2.561a7,7,0,0,1,1.878-.171,3.542,3.542,0,0,1,1.707,1.024c2.39,2.049,4.78,3.926,7.17,5.975a13.241,13.241,0,0,1,4.268,4.951,12.471,12.471,0,0,1,.341,5.633,146.012,146.012,0,0,0,0,21.168c.171,2.049.171,4.609-1.195,6.316-2.731,3.073-10.413.512-13.315-1.195-3.926-2.219-5.292-6.146-2.39-10.072,1.366-1.707,2.9-3.414,3.243-5.633C160.019,104.2,160.019,104.026,160.019,103.684Z" transform="translate(-133.9 -73.423)"/><path class="v" d="M190.334,135.562c-.854-8.194-1.195-16.047-2.731-24.07,0-.171.171,1.878.171,1.707a12.585,12.585,0,0,0-1.536-7.853c-1.195-2.39-2.9-4.609-4.268-6.828-3.073-5.633-4.268-12.12-7.511-17.583a9.859,9.859,0,0,0-3.073-3.414,12.246,12.246,0,0,0-3.585-.854c-4.1-.512-8.023-1.024-12.12-1.536a42.252,42.252,0,0,0-8.023-.512c-4.268.171-8.023,1.366-11.95.341A1.569,1.569,0,0,0,134,76.5a4.289,4.289,0,0,0,1.024,2.39,12.841,12.841,0,0,0,7.853,4.609c2.219.341,4.609,0,6.828.512a23.5,23.5,0,0,1,5.8,2.049c3.243,1.536,6.658,3.073,9.9,4.609,1.024.512,2.219,1.195,2.39,2.39a4,4,0,0,1-1.195,2.9,17.07,17.07,0,0,0-2.561,14.34c.683,2.561-2.39,3.414-4.609,3.756-2.39.341-3.756-1.195-4.951-3.073-2.219-3.585-3.073-7.853-4.438-11.779,0-.341-.171-.512-.341-.854a27.576,27.576,0,0,0-2.9-5.975L144.755,89.3a6.234,6.234,0,0,0-6.487-1.878,6.312,6.312,0,0,0-3.243,3.073c-1.536,2.9-.683,5.8,0,8.877.341,1.878.683,3.585.854,5.463a47.139,47.139,0,0,0,3.073,10.925,96.41,96.41,0,0,1,5.633,16.73c1.707,5.975,5.633,11.95,8.877,17.071,7,10.925,15.364,21,20.827,32.947a101.162,101.162,0,0,1,6.487,19.973c.683,2.9,1.707,17.242,4.438,18.1,1.195.341,4.268-2.219,5.633-2.731,3.243-1.195,7-1.707,10.413-2.561,2.219-.512,19.632-5.292,20.485-3.756C207.576,189.165,193.066,162.193,190.334,135.562Z" transform="translate(-133.829 -74.573)"/><path class="w" d="M134.8,88.345s-.512-8.023,8.194-4.1c.341.171,2.219,5.975,2.049,7.511-.171-.512-3.585,2.9-8.194,3.243C136.68,95.174,134.8,88.345,134.8,88.345Z" transform="translate(-133.266 -68.497)"/><path class="w" d="M136.254,76.636a14.018,14.018,0,0,0,5.975.512l-.512-2.049a26.052,26.052,0,0,1-6.316,0c0,.683.171,1.366.512,1.536C136.083,76.466,136.254,76.466,136.254,76.636Z" transform="translate(-132.839 -74.201)"/><path class="ae" d="M140.783,78.043a19.6,19.6,0,0,1-.171-3.243H140.1A18.131,18.131,0,0,0,140.783,78.043Z" transform="translate(-129.516 -74.413)"/><path class="ae" d="M141.471,76.919a9.734,9.734,0,0,1,.171-2.219H141.3v.341C141.3,75.724,141.471,76.407,141.471,76.919Z" transform="translate(-128.667 -74.484)"/><path class="ae" d="M143.095,80.99c.341-.341.854-.512,1.195-.854a18.144,18.144,0,0,0,1.878-1.536c-.854,1.024-2.9,1.878-4.268,2.39A2.789,2.789,0,0,1,143.095,80.99Z" transform="translate(-128.243 -71.726)"/><path class="ae" d="M149.683,82.924c1.024-.341,2.049-.683,2.9-1.024a13.687,13.687,0,0,1-3.585.854C149.171,82.583,149.512,82.754,149.683,82.924Z" transform="translate(-123.223 -69.393)"/><path class="ae" d="M155.179,80.78a13.949,13.949,0,0,1,.171-4.609c-.171,0-.512-.171-.683-.171C154.155,77.707,155.008,79.073,155.179,80.78Z" transform="translate(-119.33 -73.565)"/><path class="ac" d="M146.7,96.6a37.408,37.408,0,0,1,.683,9.73,38.616,38.616,0,0,0,.171-8.877A2.057,2.057,0,0,1,146.7,96.6Z" transform="translate(-124.849 -58.998)"/><path class="ae" d="M161.111,86.749A37.586,37.586,0,0,1,153.6,84.7a1.476,1.476,0,0,1,.512,1.024v.683A13.842,13.842,0,0,0,161.111,86.749Z" transform="translate(-119.97 -67.413)"/><path class="ae" d="M145.548,89a22.218,22.218,0,0,1-9.048,3.756,14.943,14.943,0,0,1,3.756-1.707C141.963,90.536,144.182,90.024,145.548,89Z" transform="translate(-132.062 -64.372)"/><path class="ae" d="M137,92.99a9.737,9.737,0,0,0,4.438,0,6.825,6.825,0,0,0,3.756-2.39c-1.024.683-2.39.854-3.585,1.536A18.448,18.448,0,0,1,137,92.99Z" transform="translate(-131.708 -63.241)"/></g><path class="e" d="M150.1,133.828v5.463s32.606-7.682,37.385-15.022c-.512.341-3.244-4.268-3.244-4.268S181,127.682,150.1,133.828Z" transform="translate(-110.666 -41.815)"/><path class="y" d="M196.6,119.2s-15.022,16.047-50.7,22.022c-.171.341,16.9,60.943,16.9,60.943s65.553-23.558,65.211-24.241C227.5,177.241,196.6,119.2,196.6,119.2Z" transform="translate(-113.636 -42.381)"/><path class="z" d="M196.431,184.007c-6.487-17.583-21.168-57.017-21.509-56.5-3.756,2.049-12.462,4.268-19.29,5.8q-4.609,1.024-9.73,2.049c-.171.341,16.9,60.943,16.9,60.943S179.7,190.153,196.431,184.007Z" transform="translate(-113.636 -36.514)"/><path class="a" d="M127,74.2s37.727,15.876,73.064,42.165c.171.683,1.366,3.585-3.926,5.121C195.8,121.657,138.1,85.979,127,74.2Z" transform="translate(-127 -74.2)"/><path class="af" d="M127,74.2s3.243,3.073,6.146,5.463c0,0,2.219.171,1.878-1.878C134.853,77.785,127,74.2,127,74.2Z" transform="translate(-127 -74.2)"/><path class="ag" d="M127,74.2l2.731,2.39s1.024,0,1.024-.854C130.585,75.907,127,74.2,127,74.2Z" transform="translate(-127 -74.2)"/><path class="ag" d="M160.538,91.3a12,12,0,0,1-4.438,6.146c.171.171.341.171.512.341a12.362,12.362,0,0,0,4.438-6.146C160.88,91.641,160.709,91.471,160.538,91.3Z" transform="translate(-106.423 -62.109)"/><path class="ah" d="M133.4,77.7s30.386,15.364,40.8,23.729c0,.341-1.024,1.366-1.024,1.366Z" transform="translate(-122.475 -71.725)"/><path class="ah" d="M159.1,94.366,175.317,105.8a1.774,1.774,0,0,0,1.195-2.049c.171,0-16.9-10.755-16.9-10.755Z" transform="translate(-104.302 -60.907)"/></g></g><circle class="aa" cx="4.268" cy="4.268" r="4.268" transform="translate(179.416 139.47)"/></g><path class="a" d="M179.139,119.2s-5.633.341-8.536,2.731c-.171-.171,2.39,2.9,2.39,2.9Z" transform="translate(41.077 -6.19)"/><path class="a" d="M145.9,134.089s1.366-3.926,7.17-4.78v3.414Z" transform="translate(23.615 0.943)"/><path class="a" d="M56.8,115.706a4.179,4.179,0,0,1,4.1,2.39s-2.049,1.366-2.39,2.561A14.719,14.719,0,0,1,56.8,115.706Z" transform="translate(-39.388 -8.671)"/><path class="a" d="M78.436,136.5s5.975,3.756,5.8,6.658c0,0-5.975-3.243-7.341-4.1C77.071,138.719,78.436,136.5,78.436,136.5Z" transform="translate(-25.175 6.043)"/></g><path class="ai" d="M94.2,69.631l5.975,7.682L114.344,66.9" transform="translate(-5.602 3.945)"/><path class="ai" d="M94.2,82.6l5.975,7.511L114.344,79.7" transform="translate(-5.602 12.995)"/><path class="ai" d="M94.2,95.331l5.975,7.682L114.344,92.6" transform="translate(-5.602 22.117)"/><path class="ai" d="M94.2,108.131l5.975,7.682L114.344,105.4" transform="translate(-5.602 31.168)"/><g transform="translate(241.896 147.152)"><path class="aj" d="M283.865,154.277H205.339A21.347,21.347,0,0,1,184,132.939h0A21.347,21.347,0,0,1,205.339,111.6h78.527A21.347,21.347,0,0,1,305.2,132.939h0A21.569,21.569,0,0,1,283.865,154.277Z" transform="translate(-184 -111.6)"/><text class="ak" transform="translate(44.083 20.328)"><tspan x="0" y="0">FREE</tspan></text><text class="al" transform="translate(38.311 29.802)"><tspan x="0" y="0">REGISTRATION</tspan></text></g><path class="o" d="M104.549,47.153l11.267,1.024a9.992,9.992,0,0,1-.341-2.219,16.011,16.011,0,0,0-10.413-3.243,13.177,13.177,0,0,0-2.561.341A30.5,30.5,0,0,0,104.549,47.153Z" transform="translate(0.267 -13.182)"/></g></g></svg>