<svg xmlns="http://www.w3.org/2000/svg" width="393.644" height="253.8" viewBox="0 0 393.644 253.8"><defs><style>.a{fill:#001e4f;}.b{fill:#1a954f;}.c,.f,.g,.k,.l{fill:#fff;}.c{opacity:0.19;}.d,.e{fill:#82acfe;}.e{opacity:0.46;}.f{opacity:0.1;}.h{fill:#ff8a47;}.i{fill:#ffb78a;}.j{fill:#fdda53;}.k{opacity:0.49;}.l{opacity:0.47;}.m{fill:none;stroke:#ff8a47;stroke-miterlimit:10;}.n{fill:#388923;}</style></defs><g transform="translate(-369.3 -389.6)"><g transform="translate(369.3 389.6)"><path class="a" d="M377.159,389.6H507.988a7.794,7.794,0,0,1,7.859,7.859v20.8a3.555,3.555,0,0,1,3.467,3.467v17.336a3.555,3.555,0,0,1-3.467,3.467v3.236a3.555,3.555,0,0,1,3.467,3.467v17.336a3.555,3.555,0,0,1-3.467,3.467V633.692a7.794,7.794,0,0,1-7.859,7.859H377.159a7.794,7.794,0,0,1-7.859-7.859V397.459A7.942,7.942,0,0,1,377.159,389.6Z" transform="translate(-369.3 -389.6)"/><path class="b" d="M474.3,618.313H400.338A27.819,27.819,0,0,1,372.6,590.575V421.838A27.819,27.819,0,0,1,400.338,394.1H474.3a27.819,27.819,0,0,1,27.738,27.738V590.575A27.819,27.819,0,0,1,474.3,618.313Z" transform="translate(-364.972 -383.698)"/><path class="c" d="M447.823,465.552c-19.648-18.723-47.848-32.823-75.123-30.512V554.775a10.755,10.755,0,0,0,10.633,10.633H490.354C487.118,527.962,475.329,491.672,447.823,465.552Z" transform="translate(-364.841 -330.331)"/><circle class="d" cx="5.779" cy="5.779" r="5.779" transform="translate(69.344 237.619)"/><path class="e" d="M393.634,457.3c14.793,5.316,31.667,6.241,46.692.925,12.482-4.392,19.185-13.638,24.964-24.964,5.085-10.17,10.17-20.572,19.648-27.275a37.848,37.848,0,0,1,15.718-6.472,10.5,10.5,0,0,0-9.015-5.316H383.233A10.755,10.755,0,0,0,372.6,404.833v39.3C378.841,449.675,385.544,454.3,393.634,457.3Z" transform="translate(-364.972 -383.567)"/><path class="a" d="M479.9,457.536H432.518a1.58,1.58,0,0,1-1.618-1.618h0a1.58,1.58,0,0,1,1.618-1.618H479.9a1.58,1.58,0,0,1,1.618,1.618h0A1.58,1.58,0,0,1,479.9,457.536Z" transform="translate(-288.513 -304.748)"/><path class="a" d="M467.49,460.036H432.818a1.58,1.58,0,0,1-1.618-1.618h0a1.58,1.58,0,0,1,1.618-1.618H467.49a1.58,1.58,0,0,1,1.618,1.618h0A1.58,1.58,0,0,1,467.49,460.036Z" transform="translate(-288.12 -301.469)"/><path class="a" d="M455.77,454.536H433.118a1.58,1.58,0,0,1-1.618-1.618h0a1.58,1.58,0,0,1,1.618-1.618H455.77a1.58,1.58,0,0,1,1.618,1.618h0A1.58,1.58,0,0,1,455.77,454.536Z" transform="translate(-287.726 -308.682)"/><g transform="translate(24.502 122.97)"><circle class="f" cx="39.064" cy="39.064" r="39.064" transform="translate(11.095 11.095)"/><circle class="f" cx="45.074" cy="45.074" r="45.074" transform="translate(5.085 5.085)"/><circle class="f" cx="50.159" cy="50.159" r="50.159"/><circle class="e" cx="32.592" cy="32.592" r="32.592" transform="translate(20.11 17.798)"/><g transform="translate(17.567 17.567)"><circle class="g" cx="32.592" cy="32.592" r="32.592"/><g transform="translate(5.085 5.085)"><path class="h" d="M417.207,507.613a27.507,27.507,0,1,1,27.507-27.507A27.425,27.425,0,0,1,417.207,507.613Zm0-54.089a26.582,26.582,0,1,0,26.582,26.582A26.3,26.3,0,0,0,417.207,453.525Z" transform="translate(-389.7 -452.6)"/></g><path class="h" d="M431.964,469.423l-16.411-10.4a2.5,2.5,0,0,0-2.774,4.161l9.246,6.01H395.443a2.543,2.543,0,1,0,0,5.085h28.431l-9.015,7.628a2.327,2.327,0,0,0-.231,3.467,2.1,2.1,0,0,0,1.849.925,2.5,2.5,0,0,0,1.618-.693l14.1-12.02a2.253,2.253,0,0,0,.925-2.08A2.428,2.428,0,0,0,431.964,469.423Z" transform="translate(-380.418 -439.605)"/></g></g><g transform="translate(68.651 19.879)"><g transform="translate(6.703 3.005)"><path class="i" d="M464.541,472.774c-17.336-12.251,13.869-19.416,13.869-19.416,15.718-16.411,1.849-32.13,1.849-32.13s-54.551-3.467-58.943-5.316c-2.543-1.156-12.02-9.477-19.416-16.411v61.947c11.326,15.949,42.531,27.275,42.531,27.275,17.1,12.944,27.275,18.492,33.285,20.11h.231c.693,0,1.387-.231,1.849,0h.462l2.774-.693h.231c.462-.231.693-.462,1.156-.693.231,0,.231-.231.462-.231l.925-.925c.231-.231.462-.462.462-.693a2.861,2.861,0,0,0-.462.693,4.059,4.059,0,0,1,.925-1.156,4.646,4.646,0,0,0,.925-1.849,3.387,3.387,0,0,1,.462-.925c.231-.693.462-1.156.693-1.849C490.892,486.874,464.541,472.774,464.541,472.774Z" transform="translate(-401.9 -399.5)"/><path class="i" d="M433.8,436.708s28.893,7.628,38.833,7.859l-1.387,29.818s4.623,7.628,10.864,2.774,14.793-43.225,10.864-46.692S441.66,412.9,441.66,412.9,427.1,432.085,433.8,436.708Z" transform="translate(-362.376 -381.926)"/><path class="i" d="M436.116,434.051s29.818-1.156,39.3-4.161l7.4,28.893s6.7,6.01,11.326-.693c4.623-6.472,1.387-45.536-3.467-47.848-4.854-2.08-54.088-1.618-54.088-1.618S428.257,431.508,436.116,434.051Z" transform="translate(-361.455 -387.59)"/></g><path class="j" d="M403.854,497.131h0A4.74,4.74,0,0,1,399,492.277V403.054a4.74,4.74,0,0,1,4.854-4.854h0a4.74,4.74,0,0,1,4.854,4.854v89.223A4.74,4.74,0,0,1,403.854,497.131Z" transform="translate(-399 -398.2)"/><g transform="translate(85.524 33.285)"><path class="h" d="M487.546,432.247c1.387,3.7-2.311,21.266-3.467,26.12l.693.693c.925-4.161,4.854-23.115,3.467-27.275-1.618-4.623-46.692-17.8-51.777-19.185-.231,0-.462,0-.462.231s0,.462.231.462C456.11,419.534,486.39,429.243,487.546,432.247Z" transform="translate(-436 -412.6)"/></g><g transform="translate(127.362 39.757)"><path class="h" d="M454.562,423.259h0c-.462-.231-.462-.462-.462-.693l2.774-6.934c0-.231.462-.231.462-.231.231,0,.231.462.231.462l-2.774,6.934C454.793,423.259,454.562,423.259,454.562,423.259Z" transform="translate(-454.1 -415.4)"/></g><g transform="translate(123.808 17.567)"><path class="h" d="M453.343,417.126h0c-.693-.231-.925-.462-.693-.925l2.311-9.708c0-.462.462-.693.925-.693s.693.462.693.925l-2.312,9.708A1.238,1.238,0,0,1,453.343,417.126Z" transform="translate(-452.562 -405.8)"/></g><g transform="translate(119.181 17.014)"><path class="h" d="M451.345,414.435h-.231c-.462-.231-.693-.693-.462-.925l2.312-7.4c.231-.462.693-.693.925-.462.462.231.693.693.462.925l-2.311,7.4C452.038,414.2,451.807,414.435,451.345,414.435Z" transform="translate(-450.561 -405.561)"/></g><g transform="translate(130.194 52.528)"><path class="h" d="M455.729,428.264H455.5a.433.433,0,0,1,0-.693l5.779-6.472a.49.49,0,1,1,.693.693l-5.779,6.472Z" transform="translate(-455.325 -420.925)"/></g><g transform="translate(133.43 54.377)"><path class="h" d="M457.13,426.984H456.9a.433.433,0,0,1,0-.693l3.7-4.392a.49.49,0,0,1,.693.693l-3.93,4.392Z" transform="translate(-456.725 -421.725)"/></g><g transform="translate(116.267 61.716)"><path class="h" d="M449.762,429.292h0c-.462-.231-.462-.462-.462-.693l2.08-3.467a.517.517,0,1,1,.925.462l-2.08,3.467A.806.806,0,0,1,449.762,429.292Z" transform="translate(-449.3 -424.9)"/></g><g transform="translate(67.322 89.512)"><path class="h" d="M428.529,445.42H428.3a.433.433,0,0,1,0-.693l5.316-7.628a.49.49,0,1,1,.693.693l-5.316,7.628Z" transform="translate(-428.125 -436.925)"/></g><g transform="translate(70.038 91.534)"><path class="h" d="M429.762,444.734h-.231a.849.849,0,0,1-.231-.693l3.93-6.01a.517.517,0,1,1,.925.462l-3.93,6.01A.806.806,0,0,1,429.762,444.734Z" transform="translate(-429.3 -437.8)"/></g><path class="k" d="M439.207,454.067s-9.015-4.854-4.623-10.633c4.392-5.547,12.482.462,12.482.462S447.76,452.449,439.207,454.067Z" transform="translate(-353.914 -341.96)"/><g transform="translate(4.392 0)"><rect class="h" width="0.925" height="98.931"/></g></g><g transform="translate(162.959 92.69)"><circle class="j" cx="23.346" cy="23.346" r="23.346"/><path class="l" d="M474.51,432.38a16.682,16.682,0,0,0-4.623-2.08L440.3,459.887a28.08,28.08,0,0,0,2.08,4.623Z" transform="translate(-439.144 -428.913)"/><path class="l" d="M477.747,435.618A7.022,7.022,0,0,0,476.592,434L444,466.592c.462.231.925.693,1.387.925C456.251,456.884,467.115,446.251,477.747,435.618Z" transform="translate(-434.292 -424.061)"/><circle class="m" cx="18.261" cy="18.261" r="18.261" transform="translate(5.085 5.085)"/><g transform="translate(17.105 13.638)"><path class="m" d="M453.21,456.172v-1.849a8.333,8.333,0,0,1-4.392-1.618c-1.156-.925-1.618-2.311-1.618-4.392h4.392a2.514,2.514,0,0,0,1.618,2.311v-3l-.925-.231a8.042,8.042,0,0,1-3.467-1.618,3.009,3.009,0,0,1-1.156-3,4.66,4.66,0,0,1,.693-2.543,5.457,5.457,0,0,1,2.08-1.849,11.443,11.443,0,0,1,3-.925V435.6h2.312v1.849a5.758,5.758,0,0,1,3.929,1.849,4.88,4.88,0,0,1,1.387,3.7h-4.392a1.561,1.561,0,0,0-.925-1.387v2.774h.462c1.849.462,3.236.925,3.93,1.849a4.025,4.025,0,0,1,1.156,3.236,3.649,3.649,0,0,1-1.618,3.467,6.886,6.886,0,0,1-4.161,1.618V456.4H453.21Zm.231-12.713v-2.311c-.231,0-.693.231-.693.462a.849.849,0,0,0-.231.693C452.285,442.766,452.748,443.228,453.441,443.459Zm2.08,6.934c.693-.231,1.156-.693,1.156-1.156a.849.849,0,0,0-.231-.693c-.231-.231-.462-.462-.693-.462Z" transform="translate(-447.2 -435.6)"/></g></g><g transform="translate(150.107 1.849)"><g transform="translate(65.784)"><path class="a" d="M482.559,390.4H613.388a7.794,7.794,0,0,1,7.859,7.859v20.8a3.555,3.555,0,0,1,3.467,3.467v17.336a3.555,3.555,0,0,1-3.467,3.467v3.236a3.555,3.555,0,0,1,3.467,3.467v17.336a3.555,3.555,0,0,1-3.467,3.467V634.492a7.794,7.794,0,0,1-7.859,7.859H482.559a7.794,7.794,0,0,1-7.859-7.859V398.259A7.942,7.942,0,0,1,482.559,390.4Z" transform="translate(-446.962 -390.4)"/><path class="b" d="M579.7,619.213H505.738A27.819,27.819,0,0,1,478,591.475V422.738A27.819,27.819,0,0,1,505.738,395H579.7a27.819,27.819,0,0,1,27.738,27.738V591.475A27.819,27.819,0,0,1,579.7,619.213Z" transform="translate(-442.634 -384.367)"/><path class="e" d="M597.966,531.563c-7.628-3.467-12.482-10.4-15.949-17.567-3.93-7.859-7.4-15.487-11.789-23.115-8.784-15.025-20.572-27.969-37.446-33.748-17.8-6.241-38.6-5.548-54.782,3.236v72.118a10.755,10.755,0,0,0,10.633,10.633H597.041a10.683,10.683,0,0,0,10.4-9.246A21.146,21.146,0,0,1,597.966,531.563Z" transform="translate(-442.634 -308.275)"/><path class="c" d="M525.631,495.056c19.648,18.723,47.848,32.823,75.123,30.511V405.833A10.755,10.755,0,0,0,590.121,395.2H483.1C486.336,432.415,498.125,468.7,525.631,495.056Z" transform="translate(-435.946 -384.105)"/><circle class="d" cx="5.779" cy="5.779" r="5.779" transform="translate(96.851 237.62)"/><path class="a" d="M465.474,402.048h55.475a2.671,2.671,0,0,0,2.774-2.774h0a2.671,2.671,0,0,0-2.774-2.774H465.474a2.671,2.671,0,0,0-2.774,2.774h0A2.811,2.811,0,0,0,465.474,402.048Z" transform="translate(-462.7 -382.4)"/><path class="a" d="M471.674,406.248h40.22a2.671,2.671,0,0,0,2.774-2.774h0a2.671,2.671,0,0,0-2.774-2.774h-40.22a2.671,2.671,0,0,0-2.774,2.774h0A2.811,2.811,0,0,0,471.674,406.248Z" transform="translate(-454.569 -376.892)"/><path class="a" d="M477.674,396.748h25.657a2.671,2.671,0,0,0,2.774-2.774h0a2.671,2.671,0,0,0-2.774-2.774H477.674a2.671,2.671,0,0,0-2.774,2.774h0A2.671,2.671,0,0,0,477.674,396.748Z" transform="translate(-446.7 -389.351)"/></g><g transform="translate(117.792 14.1)"><circle class="f" cx="39.064" cy="39.064" r="39.064" transform="translate(11.095 11.095)"/><circle class="f" cx="45.074" cy="45.074" r="45.074" transform="translate(5.085 5.085)"/><circle class="f" cx="50.159" cy="50.159" r="50.159"/><circle class="e" cx="32.592" cy="32.592" r="32.592" transform="translate(19.879 18.029)"/><g transform="translate(17.567 17.567)"><circle class="g" cx="32.592" cy="32.592" r="32.592"/><g transform="translate(5.085 5.085)"><path class="n" d="M522.506,461.313a27.507,27.507,0,1,1,27.507-27.507A27.425,27.425,0,0,1,522.506,461.313Zm0-54.089a26.582,26.582,0,1,0,26.582,26.582A26.586,26.586,0,0,0,522.506,407.225Z" transform="translate(-495 -406.3)"/></g><g transform="translate(17.825 17.241)"><path class="n" d="M511.811,444.939a2.624,2.624,0,0,1-1.849-.693l-8.784-9.477a2.457,2.457,0,1,1,3.7-3.236l6.472,6.934,13.869-25.657a2.38,2.38,0,0,1,4.161,2.311l-15.487,28.662a2.357,2.357,0,0,1-1.849,1.156Z" transform="translate(-500.512 -411.559)"/></g></g></g><g transform="translate(0 122.739)"><g transform="translate(0 7.859)"><path class="i" d="M564.261,490.125a60.165,60.165,0,0,0-3-5.548c-10.171-18.029-52.7-24.27-52.7-24.27-19.879-9.477-31.2-12.713-37.446-13.407h-.231a7.145,7.145,0,0,1-1.849.462h0c-.231,0-.231,0-.462.231-.925.231-1.849.925-2.774,1.156a.226.226,0,0,0-.231.231,1.8,1.8,0,0,0-.925.925l-.231.231a5.05,5.05,0,0,1-.693,1.156c-.231.231-.231.693-.462.693h0a1.012,1.012,0,0,0,.231-.693l-.693,1.387-.693,2.08c0,.231-.231.925-.231,1.156-.231.693-.231,1.387-.462,1.849.693,13.869,30.049,22.884,30.049,22.884,19.879,8.552-9.939,22.421-9.939,22.421-12.482,19.647,4.854,32.592,4.854,32.592s55.244-7.628,60.1-6.7c2.312.462,9.939,4.854,17.567,9.246V490.125Z" transform="translate(-398.621 -446.9)"/><path class="i" d="M523.37,507.823s-40.451,8.09-45.767,8.09c-5.316.231-39.988-34.441-43.225-41.607,0,0-1.387-6.934,4.623-6.7,6.01.462,37.908,27.738,37.908,27.738l40.451-3.467C517.36,492.1,530.3,504.124,523.37,507.823Z" transform="translate(-434.24 -419.756)"/><path class="i" d="M525.07,500.423s-40.451,8.09-45.767,8.09c-5.316.231-39.989-34.441-43.225-41.606,0,0-1.387-6.934,4.623-6.7,6.01.462,37.908,27.738,37.908,27.738l40.451-3.467C519.06,484.7,532,496.724,525.07,500.423Z" transform="translate(-432.011 -429.461)"/><path class="k" d="M470.175,447.5s9.015,4.854,4.623,10.633c-4.392,5.547-12.482-.462-12.482-.462S461.391,449.118,470.175,447.5Z" transform="translate(-397.456 -446.113)"/><g transform="translate(24.004 60.387)"><path class="h" d="M465.139,489.379h0L444.8,473.892a.49.49,0,0,1,.693-.693l19.879,15.256,43.687-2.774a.462.462,0,0,1,0,.925Z" transform="translate(-444.625 -473.025)"/></g><g transform="translate(84.507 14.331)"><path class="h" d="M471.262,460.034h0c-.462-.231-.462-.462-.462-.693l3.7-6.01a.517.517,0,0,1,.925.462l-3.7,6.01A.807.807,0,0,0,471.262,460.034Z" transform="translate(-470.8 -453.1)"/></g><g transform="translate(87.281 15.025)"><path class="h" d="M472.462,460.334h-.231a.849.849,0,0,1-.231-.693l3.93-6.01a.517.517,0,1,1,.925.462l-3.93,6.01C472.693,460.334,472.693,460.334,472.462,460.334Z" transform="translate(-472 -453.4)"/></g><g transform="translate(40.127 87.836)"><path class="h" d="M452.062,491.834h0c-.462-.231-.462-.462-.462-.693l2.311-6.01c0-.231.231-.231.462-.231s.231.231.231.462l-2.311,6.01C452.525,491.834,452.293,491.834,452.062,491.834Z" transform="translate(-451.6 -484.9)"/></g><g transform="translate(43.132 89.454)"><path class="h" d="M453.362,492.766h0c-.462-.231-.462-.462-.462-.693l2.312-6.241c0-.231.231-.231.462-.231s.231.231.231.462l-2.312,6.241C453.593,492.766,453.362,492.766,453.362,492.766Z" transform="translate(-452.9 -485.6)"/></g><g transform="translate(14.527 66.397)"><path class="h" d="M440.93,480.421H440.7a.433.433,0,0,1,0-.693l3.236-3.93a.49.49,0,0,1,.693.693l-3.236,3.929A.32.32,0,0,0,440.93,480.421Z" transform="translate(-440.525 -475.625)"/></g><g transform="translate(16.319 69.113)"><path class="h" d="M441.762,481.654h0c-.462-.231-.462-.462-.462-.693l2.311-3.929a.517.517,0,1,1,.925.462l-2.311,3.93C442.225,481.654,441.993,481.654,441.762,481.654Z" transform="translate(-441.3 -476.8)"/></g><g transform="translate(17.763 49.061)"><path class="h" d="M442.33,471.3a.226.226,0,0,1-.231-.231.433.433,0,0,1,0-.693l2.08-2.08a.49.49,0,0,1,.693.693l-2.08,2.08A.716.716,0,0,1,442.33,471.3Z" transform="translate(-441.925 -468.125)"/></g><g transform="translate(19.381 49.523)"><path class="h" d="M443.029,473.121c-.231,0-.231,0-.231-.231a.433.433,0,0,1,0-.693l3.93-3.7a.49.49,0,0,1,.693.693l-3.93,3.7A.807.807,0,0,0,443.029,473.121Z" transform="translate(-442.625 -468.325)"/></g><g transform="translate(44.287 68.188)"><path class="h" d="M453.862,484.952h0c-.462,0-.462-.462-.462-.693l2.774-7.628c0-.231.231-.231.462-.231s.231.231.231.462l-2.774,7.628C454.093,484.952,453.862,484.952,453.862,484.952Z" transform="translate(-453.4 -476.4)"/></g><g transform="translate(47.061 69.113)"><path class="h" d="M455.062,483.272h0c-.462-.231-.462-.462-.462-.693l2.312-5.547c0-.231.462-.231.462-.231.231,0,.231.462.231.462l-2.312,5.547C455.293,483.041,455.293,483.272,455.062,483.272Z" transform="translate(-454.6 -476.8)"/></g><g transform="translate(44.519 58.249)"><path class="h" d="M453.962,476.954h0c-.462-.231-.462-.462-.462-.693l1.618-3.929c0-.231.462-.231.462-.231.231,0,.231.462.231.462l-1.618,3.93C454.425,476.723,454.193,476.954,453.962,476.954Z" transform="translate(-453.5 -472.1)"/></g><path class="k" d="M441.085,472.164s7.628-4.392-3.236-10.864L436,465.461A22.779,22.779,0,0,0,441.085,472.164Z" transform="translate(-431.932 -428.015)"/><path class="k" d="M439.385,479.464s7.628-4.392-3.236-10.864l-1.849,4.161A22.782,22.782,0,0,0,439.385,479.464Z" transform="translate(-434.162 -418.441)"/></g><g transform="translate(162.173)"><path class="j" d="M509.254,542.531h0a4.74,4.74,0,0,1-4.854-4.854V448.454a4.74,4.74,0,0,1,4.854-4.854h0a4.74,4.74,0,0,1,4.854,4.854v89.223A4.882,4.882,0,0,1,509.254,542.531Z" transform="translate(-504.4 -443.369)"/><g transform="translate(4.623)"><rect class="h" width="0.925" height="99.162"/></g><rect class="j" width="7.628" height="7.628" transform="translate(12.251 85.756)"/><rect class="j" width="4.854" height="4.854" transform="translate(16.643 76.047)"/><rect class="j" width="4.854" height="4.854" transform="translate(24.039 80.67)"/></g></g></g></g></g></svg>