<svg xmlns="http://www.w3.org/2000/svg" width="390.6" height="331.353" viewBox="0 0 390.6 331.353"><defs><style>.a{fill:#73f9a9;opacity:0.24;}.b{fill:#a2d2ed;}.c{fill:#c0e6ff;}.d{opacity:0.25;}.e{opacity:0.47;}.f{fill:#fd5e5a;}.g{fill:#1a954f;}.h{fill:#341102;}.i{fill:#432c47;}.j{fill:#653870;}.k{fill:#70497a;}.l{fill:#375866;}.m{fill:#d24307;}.n{fill:#9e3205;opacity:0.57;}.o{fill:#692204;}.ap,.p{fill:#75260b;}.p{opacity:0.14;}.q{fill:#874e36;}.r{fill:#fc7575;}.s{fill:#3f1817;}.t{fill:#381a3f;}.u{fill:#172866;}.v{fill:#2f499f;}.w{fill:#fff;}.x{fill:#4f1a03;}.y{fill:#26253a;}.z{fill:#4c5063;}.aa{fill:#464f7c;}.ab{fill:#5d69a5;}.ac{fill:#b73e6b;}.ad{fill:#7d87b7;}.ae{fill:#5e6589;opacity:0.75;}.af{fill:#979fc5;}.ag{fill:#220d58;}.ah{fill:#f2b90c;}.ai{fill:#b65f2e;}.aj{fill:#f7931e;}.ak{fill:#591914;}.al{fill:#2d1175;}.am{fill:#b96e16;}.an{fill:#f8e000;}.ao{fill:#fabe78;}.aq{fill:#da8466;}</style></defs><g transform="translate(-26.2 -232.2)"><g transform="translate(26.2 232.2)"><path class="a" d="M371.659,506.929l10.819-60.437-23.69-17.907,2.238-79.463L142.6,297.266v52.6l-29.472,4.477.746-94.945-37.307,4.477L26.2,305.847l16.974,220.3,353.293,4.477,6.156-10.073Z" transform="translate(-26.2 -208.663)"/><path class="b" d="M155.268,246.1,100.8,284.339V428.716h91.588V281.541Z" transform="translate(38.354 -220.172)"/><rect class="c" width="91.588" height="18.28" transform="translate(139.154 199.777)"/><path class="c" d="M100.8,325.219V339.4l52.789-7.088,38.8,4.29V320.742L154.895,314.4Z" transform="translate(38.354 -161.07)"/><path class="a" d="M100.8,302.287v19.959l53.721-40.291,39.172,23.5V289.044L153.962,266.1Z" transform="translate(38.354 -202.865)"/><path class="a" d="M154.521,232.2,100.8,273.61v32.643l52.789-38.8,38.8,27.98V259.247Z" transform="translate(38.354 -232.2)"/><g class="d" transform="translate(139.154 12.871)"><path class="c" d="M100.8,267.648l9.886-17.348-8.954,6.9-.933,1.492Z" transform="translate(-100.8 -229.408)"/><path class="c" d="M124.49,249.359,100.8,291.143v9.14l4.1-2.985,33.016-58.2Z" transform="translate(-100.8 -239.1)"/></g><path class="b" d="M59.4,393.959V482H231.383V334.641L194.077,299.2Z" transform="translate(2.529 -174.223)"/><path class="a" d="M53.473,397.406,198.782,285.3l38.053,27.047v36.187l-38.8-27.793L75.67,410.464V422.4l122.739-73.867,38.426,22.2v14.736L198.782,364.39,75.67,432.288l.373,10.446L199.155,391.81l37.68,15.855v16.415l-37.68-12.311-123.112,40.1-.373,11.379L199.155,438.63l37.68,6.342v16.042l-38.8-4.477L75.67,473.325v11.938H236.835v18.094H53.1Z" transform="translate(-2.923 -186.251)"/><g class="e" transform="translate(50.364 111.92)"><path class="b" d="M94.581,360.106l31.9-56.706-8.954,6.9L86,366.262Z" transform="translate(-24.817 -282.508)"/><path class="b" d="M80.575,365.288,90.088,348.5l-7.648,4.663L73.3,369.392Z" transform="translate(-35.807 -243.482)"/><path class="c" d="M110.757,350.4l32.83-58.2-13.43,10.446L97.7,359.911Z" transform="translate(-14.693 -292.2)"/><path class="b" d="M63.748,416.045l10.259-18.094h-.933V386.2L56.1,416.045Z" transform="translate(-50.691 -210.859)"/><path class="b" d="M73.594,391.038,80.123,379.1l-8.581,1.679L65.2,392.157Z" transform="translate(-42.816 -217.003)"/><path class="b" d="M82.34,377.15l8.394-14.55-9.886,4.1L73.2,380.134Z" transform="translate(-35.893 -231.281)"/><path class="b" d="M94.305,359.467,104.751,341l-11.565,6.9L83.3,365.622Z" transform="translate(-27.154 -249.972)"/><path class="c" d="M80.807,337.3,53.2,385.987v8.954L89.76,330.4Z" transform="translate(-53.2 -259.144)"/></g><path class="c" d="M153.3,318.2v30.218l38.239,22.2V346.366Z" transform="translate(83.783 -157.782)"/><path class="c" d="M153.3,338v29.1l38.239,15.855V358.146Z" transform="translate(83.783 -140.648)"/><path class="c" d="M153.3,358.3v28.353l38.239,7.275v-22.2Z" transform="translate(83.783 -123.082)"/><path class="c" d="M153.3,378.6v28.726l38.239.56V384.2Z" transform="translate(83.783 -105.516)"/><path class="c" d="M153.3,396.6v10.446h37.307l.933-10.446Z" transform="translate(83.783 -89.94)"/><path class="a" d="M53.287,263.877,53.1,399.3l36.747-27.793L90.593,259.4Z" transform="translate(-2.923 -208.663)"/><path class="f" d="M164.866,322.721s-3.358-1.679-5.409-1.492c-2.611.373-9.513-1.679-10.819-2.8a65.571,65.571,0,0,0-5.783-3.731l-6.156,5.409s21.638,12.5,27.047,12.684c1.865,0-5.6-3.358-5.223-3.917s8.021,5.036,8.581,3.544-8.021-3.917-8.021-5.036,8.954,4.85,9.886,3.544c1.119-1.306-9.513-5.036-9.513-5.036s.373-.746,3.358,0,5.783,1.679,5.783.746-8.394-2.425-8.394-3.731C160.576,323.28,164.68,323.84,164.866,322.721Z" transform="translate(69.419 -160.81)"/><path class="g" d="M410.4,408.692c0,7.834-80.769-.746-184.295,9.886-110.054,11.379-192.5-2.238-192.5-9.886,0-7.834,84.313-13.99,188.4-13.99C326.084,394.515,410.4,400.857,410.4,408.692Z" transform="translate(-19.797 -91.586)"/><path class="h" d="M123.011,277.2s7.648,11.192,8.767,24.622c.373,5.6,3.544,15.3,8.581,26.115,2.611,5.6,23.5,21.265,23.5,21.265L156.4,360.953l-23.5-18.28-12.5-20.705Z" transform="translate(55.314 -193.26)"/><path class="i" d="M124.182,353.534,108.7,468.252l7.461-1.306,12.684-62.115s8.394-57.639,8.394-78.53Z" transform="translate(45.19 -150.773)"/><path class="i" d="M95.3,410.946h14.363l-8.954-5.782.933-4.663c-2.052,0-2.611,1.492-4.663,1.492C96.419,405.35,95.3,410.946,95.3,410.946Z" transform="translate(33.594 -86.565)"/><path class="i" d="M109.1,410.546h13.99l-8.954-5.783.933-4.663c-2.052,0-2.611,1.492-4.663,1.492C110.033,404.95,109.1,410.546,109.1,410.546Z" transform="translate(45.536 -86.911)"/><path class="j" d="M148.695,317.2c-15.3.373-21.638,9.513-36,13.8l.56,4.29-.933,73.494S97.585,460.457,94.6,477.618c0,0,8.394-.56,7.834-.56l24.809-61.369,11.192-56.146,9.14-21.824Z" transform="translate(32.989 -158.647)"/><path class="k" d="M134.714,340l-13.43,55.4L98.9,457.516l24.622-61.369Z" transform="translate(36.709 -138.918)"/><path class="l" d="M111.46,272.6l-.56,8.581,20.332-2.425-4.663-5.783Z" transform="translate(47.093 -197.241)"/><path class="m" d="M145.57,336.806c0-29.1-4.477-58.2-10.819-61.742,0,0-7.461-.56-11.192-.56-5.6-.187-10.073,2.611-14.736,18.653-2.985,10.073-5.969,34.509-5.6,55.96.187,9.513-1.306,18.28-1.119,25,16.042,0,27.793-.56,43.276-.56C145.57,368.33,145.57,345.946,145.57,336.806Z" transform="translate(39.471 -195.601)"/><path class="n" d="M144.264,333.427h0c-5.6-.187-11.192-.56-11.379-1.306-2.052-5.409-14.923-42.156-21.265-53.721a61.531,61.531,0,0,0-4.29,11.378A142.691,142.691,0,0,0,103.6,311.6c4.477,13.43,12.5,34.322,15.3,37.307,2.238,2.425,14.923.56,25.182-.933C144.078,342.567,144.264,336.785,144.264,333.427Z" transform="translate(40.776 -192.222)"/><path class="o" d="M130.024,309.122c0,.373-9.513-34.322-9.513-34.322a46.04,46.04,0,0,0-7.461,3.171c-4.29,2.238-6.156,19.4-6.156,19.4s-2.611,35.441-2.611,38.239c0,1.492-2.985,24.063-5.783,44.768l34.7,2.611C132.822,354.45,130.024,309.122,130.024,309.122Z" transform="translate(36.363 -195.337)"/><path class="p" d="M127.036,315.11c-6.342-16.042-15.109-36.747-17.534-36-1.306.373-2.985,2.238-4.477,4.85a99.2,99.2,0,0,0-1.679,9.886s-.373,5.223-.746,11.938c3.544,12.684,13.617,38.8,16.788,42.343,1.119,1.119,4.663,1.492,9.327,1.306C128.155,336.188,127.6,323.5,127.036,315.11Z" transform="translate(39.911 -191.625)"/><path class="o" d="M119.6,274.8s8.581,3.917,11.192,29.659c2.611,25.928,6.342,78.717,6.342,78.717H125.2s-1.306-75.546-1.306-80.582C123.7,297.371,119.6,274.8,119.6,274.8Z" transform="translate(54.622 -195.337)"/><path class="q" d="M119.3,272.8l4.663,37.307,1.679-18.653-1.679-2.052V278.583Z" transform="translate(54.362 -197.068)"/><path class="r" d="M108.1,294.4Z" transform="translate(44.67 -178.377)"/><path class="q" d="M122.842,311.026,115.007,272.6l-8.207,6.156L114.075,292l-.56,4.1Z" transform="translate(43.546 -197.241)"/><g transform="translate(150.959 33.557)"><path class="s" d="M126.353,262.827,109.938,270.1l-2.238-.933.373-3.358,5.969-5.036,14.923-6.156,8.207-1.119.373.933-1.119,2.052Z" transform="translate(-106.635 -247.325)"/><path class="t" d="M116.667,281.261c-.373-.187-4.663-11.005-4.663-11.005s-2.985-8.207-1.119-9.513,6.342-6.156,10.259-6.342a17.091,17.091,0,0,1,6.9,1.306,46.556,46.556,0,0,1,2.984,4.477s-1.119-1.492-1.865,3.917C128.605,269.509,116.667,281.261,116.667,281.261Z" transform="translate(-104.41 -246.546)"/><path class="r" d="M124.723,272.494c-.373,1.306-.187,11.379-.56,13.8s-11.565,6.342-11.752-2.611.746-19.586.746-19.586Z" transform="translate(-102.579 -238.153)"/><path class="f" d="M124.625,272.494h0l-3.917-2.8-7.834-5.6h0v.187a8.565,8.565,0,0,1-.187,1.865h0v.56h0a9.858,9.858,0,0,1-.187,2.238v.746h0v.373h0v.187h0v.186c1.492,4.85,7.088,10.073,11.752,10.632v-.933A58.351,58.351,0,0,1,124.625,272.494Z" transform="translate(-102.481 -238.153)"/><path class="r" d="M112.843,261.894c-1.492,3.544-1.492,10.073,1.865,15.109s8.207,7.461,11.565,5.036,4.29-18.094,1.865-22.2S115.081,256.3,112.843,261.894Z" transform="translate(-103.011 -244.154)"/><path class="j" d="M116.961,282.852s-.746-5.223-2.8-6.342c-2.052-1.306-2.8-2.052-3.171-3.917s-4.663-5.6-3.731-8.581c1.119-2.985,3.917-1.865,6.529-7.088s5.409-8.021,11.565-6.156,6.9,5.6,6.9,5.6,2.611-.56,4.29,2.8c1.679,3.171.373,5.036-.56,6.529,0,0,.187-4.29-1.306-3.917s0,5.036,0,5.036a42.36,42.36,0,0,1-4.477-4.477c-2.238-2.8-1.679.56-1.119,3.917.746,3.544-4.477.187-6.715-2.425s-5.6-.186-6.715,3.358C114.723,271.1,119.946,276.7,116.961,282.852Z" transform="translate(-107.129 -250.19)"/><path class="r" d="M114.776,263.853s-2.238-3.731-3.358-2.052-.187,6.342,2.238,6.342S114.776,263.853,114.776,263.853Z" transform="translate(-103.824 -240.517)"/><path class="f" d="M113.134,263.537s0-2.052-1.119-1.492c-1.119.746,0,4.1,1.119,4.1S113.134,263.537,113.134,263.537Z" transform="translate(-103.302 -240.015)"/><path class="u" d="M119.333,262.3a18.336,18.336,0,0,1,.933,2.985,8.063,8.063,0,0,1,0,3.358c-.187,0-.933-.187-1.865-.373h1.679l-.187.187C120.079,266.4,119.519,264.352,119.333,262.3Z" transform="translate(-97.376 -239.71)"/><ellipse class="v" cx="0.933" cy="1.119" rx="0.933" ry="1.119" transform="matrix(0.98, -0.198, 0.198, 0.98, 17.069, 22.419)"/><ellipse class="v" cx="0.933" cy="1.119" rx="0.933" ry="1.119" transform="translate(23.602 21.475) rotate(-11.444)"/><path class="u" d="M115.4,262.68a4.514,4.514,0,0,1,2.611-2.052c1.679-.373,1.119,1.119.746,1.119C118.385,261.934,115.4,262.493,115.4,262.68Z" transform="translate(-99.972 -241.209)"/><path class="u" d="M119.711,260.2s1.865.56,2.238,1.492c0,0-2.052-.186-2.425-.746C119.338,260.573,119.711,260.2,119.711,260.2Z" transform="translate(-96.448 -241.527)"/><path class="w" d="M116.1,267s5.036,1.865,7.834,0c0,0-.746,2.611-1.492,2.985C120.95,270.917,117.406,270.358,116.1,267Z" transform="translate(-99.366 -235.643)"/></g><path class="x" d="M112.181,337.646h0a8.558,8.558,0,0,1-8.581-8.581V317.5h16.974v11.565A8.289,8.289,0,0,1,112.181,337.646Z" transform="translate(40.776 -158.387)"/><path class="y" d="M200.389,375.4c-.746-.746-33.389,6.156-33.389,6.156l7.275-51.67,6.529-31.151,9.327-22.384s12.5-3.731,13.244-2.425l4.1,39.918Z" transform="translate(95.638 -196.331)"/><path class="z" d="M198.948,397.5l.933,5.409s-2.425,8.207-6.342,11.938c-3.731,3.731-11.938,4.1-11.938.746,0-3.171,8.581-13.244,8.581-17.161S198.948,397.5,198.948,397.5Z" transform="translate(108.272 -90.098)"/><path class="z" d="M187.99,399.923l1.492,9.886H164.3s.746-2.425,8.021-3.917,7.648-3.917,7.648-3.917l-.56-6.342,6.715-.933Z" transform="translate(93.302 -91.584)"/><path class="aa" d="M197.484,349.607l-14.736,52.229,5.409,62.862h-9.7L165.4,398.105,178.457,322Z" transform="translate(94.254 -154.493)"/><path class="ab" d="M172.4,320.987l8.767,29.659s13.617,44.208,15.669,69.95c2.238,25.555,0,43.089,0,43.089l12.125,1.865s6.9-53.162,4.29-71.069.56-61.369.56-61.369L208.774,320.8H172.4Z" transform="translate(100.311 -155.532)"/><path class="ac" d="M209.839,278.5s-15.669-8.394-25.742,1.865c-10.073,10.073-11.005,38.8-11.005,38.8v33.016L171.6,366.917l38.053-4.477-5.036-50.55Z" transform="translate(99.619 -194.933)"/><path class="ad" d="M174.7,327.789,199.509,275l16.042,5.6-5.6,47.193L220.4,380.764s-40.664-3.544-45.7,1.492V327.789Z" transform="translate(102.301 -195.164)"/><path class="ae" d="M209.955,310.655,211.82,294.8c-6.9,9.327-20.892,19.959-25.182,24.436-1.679,1.679-6.342,3.917-11.938,5.969v16.6c11.005-3.544,22.011-6.9,24.436-8.207,2.238-1.119,7.461-7.088,12.5-15.3Z" transform="translate(102.301 -178.03)"/><path class="ad" d="M187.992,278s-9.327,29.286-9.327,38.239S171.39,377.8,171.39,377.8H167.1l6.156-61.556,7.461-28.167Z" transform="translate(95.725 -192.568)"/><path class="af" d="M185.211,275.1,172.9,328.635l2.8-38.053,2.425-2.425-1.865.373,4.85-10.446Z" transform="translate(100.744 -195.077)"/><path class="r" d="M147.088,325.527c6.529-.56,9.513-.746,9.513-1.306-.373-.373-1.865-.373-6.529-.187-2.611.187-7.088-.186-7.648-.56-.933-.933,1.492-1.119,2.8-1.119.187,0,13.8.187,14.55-1.865s-3.171-2.052-5.6-1.865c-2.425,0-3.917-1.679-3.171-2.238.933-.56,3.731,1.306,7.648.933a68.106,68.106,0,0,1,10.259-.373l2.238.933,5.969-1.679.746,5.969-4.477,2.052a104.425,104.425,0,0,1-12.871,6.529,29.113,29.113,0,0,1-9.327,2.052.4.4,0,0,1-.187-.746,27.263,27.263,0,0,1,3.731-.933c3.544-.933,4.663-1.865,4.85-2.611-.56-.373-2.052-.187-7.088,1.119-2.238.56-5.409,1.492-5.969,1.306-2.238-.933,2.8-2.238,5.223-2.611s5.036-.746,5.223-1.865c0-.373-3.171-.187-7.088.373C135.523,329.257,140,326.273,147.088,325.527Z" transform="translate(72.647 -159.512)"/><path class="af" d="M229.136,278s2.611,0,4.85,15.669c2.8,19.4-18.094,47.006-23.13,49.431s-48.685,14.923-48.685,14.923L159,344.033s34.882-9.14,39.918-14.363c5.223-5.223,19.026-25.555,22.011-35.068C223.354,286.394,229.136,278,229.136,278Z" transform="translate(88.716 -192.568)"/><g transform="translate(269.465 35.255)"><path class="ag" d="M194.177,258.944c-1.119,0-2.425-.187-3.917-.187h0c-3.358-.186-6.529-.373-9.513,1.119,1.306,2.238-.373,5.409-.746,8.021,4.29.933,9.513,1.679,13.617,0a27.7,27.7,0,0,0,2.425-7.834C195.482,259.69,194.736,259.317,194.177,258.944Z" transform="translate(-162.578 -244.581)"/><path class="ah" d="M190.742,252.759c0,.187-1.306,11.005-1.306,10.819A129.6,129.6,0,0,0,174.7,263.2c.187-1.865.56-4.85,2.052-6.156,1.865-1.865,5.223-5.036,8.581-5.409A8.677,8.677,0,0,1,190.742,252.759Z" transform="translate(-167.164 -250.707)"/><path class="ah" d="M191.653,252.779c0,.187-1.306,11.192-1.306,11.005-4.663-.373-12.871-.933-17.348-.933a18.244,18.244,0,0,1,1.679-5.409,13.094,13.094,0,0,1,5.223-4.85,12.028,12.028,0,0,1,6.156-1.492,15.23,15.23,0,0,1,5.036,1.119C191.467,252.779,191.653,252.779,191.653,252.779Z" transform="translate(-168.635 -251.1)"/><path class="ai" d="M192.028,252.906l-2.238,10.819c-.187,0-5.969-.56-13.99-.56,0-2.8.187-5.783,1.865-8.021a9.786,9.786,0,0,1,7.275-3.544,7.57,7.57,0,0,1,3.544.746A10.1,10.1,0,0,1,192.028,252.906Z" transform="translate(-166.212 -250.667)"/><path class="aj" d="M198.412,267.38c-2.985-4.477-15.482-4.663-21.078-4.663,0-1.492-.373-5.036.56-6.715,3.544-6.156,16.788-5.6,20.146,3.171C198.785,261.038,198.6,265.141,198.412,267.38Z" transform="translate(-164.948 -250.405)"/><g transform="translate(24.697 4.663)"><path class="ak" d="M186.138,254.533h0l-2.052-.56-.187-.187a.183.183,0,0,1,.187-.187l2.052.56v.373Z" transform="translate(-183.9 -253.6)"/></g><g transform="translate(24.511 5.783)"><path class="ak" d="M185.852,255.133h0l-1.865-.56-.187-.187.187-.187,1.865.56c.187,0,.187.187,0,.373Z" transform="translate(-183.8 -254.2)"/></g><g transform="translate(29.091 6.073)"><path class="ak" d="M188.2,255.371h0l-1.865-.746s-.187-.187,0-.187c0,0,.187-.187.187,0l1.865.746-.187.187Z" transform="translate(-186.256 -254.356)"/></g><g transform="translate(29.091 7.005)"><path class="ak" d="M188.2,255.871h0l-1.865-.746s-.187-.187,0-.187c0,0,.187-.187.187,0l1.865.746-.187.187Z" transform="translate(-186.256 -254.856)"/></g><g transform="translate(27.682 5.969)"><circle class="ak" cx="0.373" cy="0.373" r="0.373"/></g><path class="r" d="M175.917,259.307a1.239,1.239,0,0,0-.933.746,10.513,10.513,0,0,0-.746,2.238c-.933,5.036-2.238,13.244-2.238,13.244h2.238s1.679,4.663,1.679,7.648,4.85,1.306,7.461,1.306c2.8,0,8.954-2.238,11.752-10.819a57.144,57.144,0,0,0,2.425-10.446c-3.171-.746-6.156-2.611-9.327-3.171C184.125,259.121,180.021,259.307,175.917,259.307Z" transform="translate(-169.5 -244.011)"/><path class="r" d="M194.742,289.1s-16.415,4.85-15.482,4.1c.746-.746-.373-11.565-.56-15.109.56-1.492,5.409-12.5,5.036-11.752h0l.933-2.238Z" transform="translate(-163.703 -239.851)"/><path class="al" d="M181.213,259.7c.187,2.985-2.238,7.648-.933,9.886l2.425.56s.56-1.492,1.492-1.492,1.119,7.648,2.8,7.648,5.036-6.342,6.529-9.327l.56-1.119a3.283,3.283,0,0,0-1.306-3.544C189.42,260.633,186.249,260.26,181.213,259.7Z" transform="translate(-162.671 -243.658)"/><path class="al" d="M185.5,260.6c.187,0,.56.187.746.187C185.873,260.787,185.687,260.6,185.5,260.6Z" transform="translate(-157.818 -242.879)"/><path class="al" d="M186.9,261.2c.187,0,.187.187.373.187A.652.652,0,0,1,186.9,261.2Z" transform="translate(-156.607 -242.36)"/><path class="al" d="M186.2,260.9l1.119.56A1.612,1.612,0,0,0,186.2,260.9Z" transform="translate(-157.213 -242.62)"/><path class="al" d="M187.4,261.8c0,.187.187.187,0,0C187.587,261.987,187.4,261.987,187.4,261.8Z" transform="translate(-156.174 -241.841)"/><path class="al" d="M187.3,261.6l.187.187A.183.183,0,0,1,187.3,261.6Z" transform="translate(-156.261 -242.014)"/><path class="al" d="M187.1,261.4l.187.186A.183.183,0,0,0,187.1,261.4Z" transform="translate(-156.434 -242.187)"/><path class="al" d="M187.6,262.9Z" transform="translate(-156.001 -240.889)"/><path class="al" d="M181.6,259.8h0Z" transform="translate(-161.193 -243.572)"/><path class="al" d="M184.8,260.4c.187,0,.373.187.56.187C185.173,260.587,184.987,260.4,184.8,260.4Z" transform="translate(-158.424 -243.052)"/><path class="al" d="M182.5,259.9a.685.685,0,0,1,.56.187C182.873,260.087,182.687,259.9,182.5,259.9Z" transform="translate(-160.414 -243.485)"/><path class="al" d="M184.1,260.2c.187,0,.373.187.56.187C184.473,260.387,184.287,260.2,184.1,260.2Z" transform="translate(-159.03 -243.226)"/><path class="al" d="M183.3,260.1a.685.685,0,0,1,.56.187A.685.685,0,0,0,183.3,260.1Z" transform="translate(-159.722 -243.312)"/><path class="al" d="M187.6,262.4Z" transform="translate(-156.001 -241.322)"/><path class="al" d="M187.6,262.6Z" transform="translate(-156.001 -241.149)"/><path class="f" d="M187.017,260.046c-3.171-.56-4.663-.746-12.311-.746-.746,0-.933.746-1.306,1.492,2.8.187,8.021.746,13.244,1.492C186.83,261.352,187.017,260.046,187.017,260.046Z" transform="translate(-168.289 -244.004)"/><path class="al" d="M187.5,262.1Z" transform="translate(-156.088 -241.581)"/><path class="al" d="M182.379,259.887c-.56,0-1.119-.186-1.679-.186h0C181.26,259.7,181.819,259.887,182.379,259.887Z" transform="translate(-161.972 -243.658)"/><path class="al" d="M183.6,260.1c.187,0,.56.187.746.187A1.41,1.41,0,0,1,183.6,260.1Z" transform="translate(-159.462 -243.312)"/><path class="al" d="M187.5,261.9c0,.187,0,.187.187.373C187.5,262.273,187.5,262.087,187.5,261.9Z" transform="translate(-156.088 -241.754)"/><path class="al" d="M187.6,263.073v0Z" transform="translate(-156.001 -241.062)"/><path class="al" d="M182.8,260c.373,0,.56.187.933.187A1.682,1.682,0,0,0,182.8,260Z" transform="translate(-160.155 -243.399)"/><path class="al" d="M181.9,259.8a8.082,8.082,0,0,1,.933.187A2.028,2.028,0,0,1,181.9,259.8Z" transform="translate(-160.934 -243.572)"/><path class="al" d="M184.4,260.3c.187,0,.56.187.746.187A1.121,1.121,0,0,0,184.4,260.3Z" transform="translate(-158.77 -243.139)"/><path class="al" d="M186.965,261.2Z" transform="translate(-156.672 -242.36)"/><path class="al" d="M187,261.3Z" transform="translate(-156.52 -242.274)"/><path class="al" d="M187.6,262.2v0Z" transform="translate(-156.001 -241.495)"/><path class="al" d="M187.4,261.7a.183.183,0,0,0,.187.187A.183.183,0,0,1,187.4,261.7Z" transform="translate(-156.174 -241.927)"/><path class="al" d="M187.2,261.5a.183.183,0,0,0,.187.187Z" transform="translate(-156.347 -242.101)"/><path class="al" d="M185.1,260.5c.187,0,.56.187.746.187C185.66,260.687,185.287,260.5,185.1,260.5Z" transform="translate(-158.164 -242.966)"/><path class="al" d="M187.6,262.4v0Z" transform="translate(-156.001 -241.322)"/><path class="al" d="M185.9,260.7c.187,0,.373.187.56.187A.686.686,0,0,1,185.9,260.7Z" transform="translate(-157.472 -242.793)"/><path class="ag" d="M180.687,259.7a9.082,9.082,0,0,1-.187,2.238c11.192,1.679,12.5,2.611,13.244,3.731C194.3,261.192,186.656,260.446,180.687,259.7Z" transform="translate(-162.145 -243.658)"/><path class="al" d="M174.687,261.8l-.187,1.119a4.5,4.5,0,0,1,3.171.933l1.306,1.306S178.6,262.546,174.687,261.8Z" transform="translate(-167.337 -241.841)"/><path class="al" d="M175.722,265.438c-1.306,0-1.119-2.238,0-2.238C176.282,263.2,176.842,265.438,175.722,265.438Z" transform="translate(-167.067 -240.63)"/><path class="al" d="M174.7,270.909a3.2,3.2,0,0,0,2.8-1.119c.187-.373.373-1.119.373-.933,0-.56.746-.373.746.187A3.367,3.367,0,0,1,174.7,270.909Z" transform="translate(-167.164 -236.027)"/><path class="f" d="M184.2,278.53a36.627,36.627,0,0,1-5.223,3.358c-.187-2.8-.373-4.85-.373-4.85s1.306,1.306,5.036-11.938h0C183.823,266.406,185.315,277.6,184.2,278.53Z" transform="translate(-163.789 -238.985)"/><path class="al" d="M174.26,276.192s-.373,1.865-.56,2.985c0,1.119,2.8,2.425,5.223,1.865a20.3,20.3,0,0,0,6.9-2.985c.933-.746,1.865-12.5,1.865-12.5l-2.238-.56s-1.306,7.461-2.238,8.394C182.467,274.327,174.26,276.192,174.26,276.192Z" transform="translate(-168.029 -239.072)"/><path class="r" d="M181.205,264.315s-.187,5.036.933,5.036,3.917-2.8,3.544-5.783S181.765,260.771,181.205,264.315Z" transform="translate(-161.545 -242.117)"/><path class="f" d="M181.731,263.144s-.746,2.052.187,2.985,2.611-1.119,1.679-2.8C182.85,261.652,182.1,262.025,181.731,263.144Z" transform="translate(-161.324 -241.506)"/><path class="am" d="M203.657,262.609h0c-2.8-4.477-14.55-4.477-20.146-4.663-2.985-.187-12.311-1.119-12.311,1.492,0,.933,2.238,2.052,4.1,2.425.187-.373.187-1.119,1.119-1.119,6.715.187,17.907.56,23.876,3.544.933.373,1.492,2.052,1.492,2.985A2.988,2.988,0,0,0,203.657,262.609Z" transform="translate(-170.193 -245.448)"/><path class="an" d="M204.311,262.991c-3.731-6.529-30.032-7.275-33.2-4.477-1.306,1.119.373,2.8,3.358,3.731-1.492-.56-2.052-1.119-2.238-1.492-2.611-3.917,22.011-2.052,27.98.187a8.043,8.043,0,0,1,3.544,2.425h0a4.222,4.222,0,0,1,.56,1.865,3.151,3.151,0,0,1-.56,1.865C205.8,265.789,204.311,262.991,204.311,262.991Z" transform="translate(-170.66 -246.017)"/></g><g transform="translate(284.908 138.748)"><ellipse class="am" cx="9.513" cy="4.104" rx="9.513" ry="4.104" transform="matrix(-0.949, 0.316, -0.316, -0.949, 20.646, 7.786)"/><g transform="translate(2.026 2.83)"><path class="ao" d="M189.118,315.188h0c.373-.373.746-.373,1.119-.56h.187v.187c-.373.187-.746.187-.933.373Zm-.933.373a2.365,2.365,0,0,1-1.119.187.187.187,0,1,1,0-.373,8.077,8.077,0,0,0,.933-.187c.187,0,.373.187.187.373.187-.187.187,0,0,0Zm2.985-1.119c-.187-.187,0-.187,0,0a1.7,1.7,0,0,1,.933-.56h.187v.187a2.65,2.65,0,0,0-1.119.373Zm-5.036,1.492c-.373,0-.746.187-1.119.187a.187.187,0,1,1,0-.373,2.365,2.365,0,0,0,1.119-.187c0,.187.187.187,0,.373Zm6.9-2.611h0a3.274,3.274,0,0,1,.933-.746h.187v.187a1.613,1.613,0,0,1-1.119.56Zm-8.954,2.8h-1.119a.187.187,0,1,1,0-.373h1.119v.373Zm10.632-3.917h0c.373-.373.56-.746.746-.933h.187v.187a4.067,4.067,0,0,1-.933.746Zm-12.871,3.917a2.652,2.652,0,0,1-1.119-.373v-.187h.187c.187.187.56.187.933.373.187-.186.187,0,0,.187Zm14.177-5.409h0a3.282,3.282,0,0,0,.187-1.119v-.186h.187c.186.373.186.746-.373,1.306.187-.187.187,0,0,0ZM180.165,315h0a1.189,1.189,0,0,1,0-1.119h.187v.187a8.075,8.075,0,0,0-.187.933c.186-.186.186,0,0,0Zm15.482-6.156c-.187-.187-.56-.187-.933-.373a.187.187,0,0,1,0-.373,2.65,2.65,0,0,1,1.119.373c-.187.186,0,.373-.187.373Zm-14.736,4.29h0a4.07,4.07,0,0,1,.746-.933h.187v.187c-.373.187-.56.56-.746.746Zm12.684-4.663h-1.119a.187.187,0,0,1,0-.373H193.6c0,.187.187.187,0,.373ZM182.4,311.644h0a3.275,3.275,0,0,1,.933-.746h.187v.187a6.219,6.219,0,0,1-1.119.56h0C182.59,311.831,182.59,311.644,182.4,311.644Zm9.14-3.171a2.367,2.367,0,0,0-1.119.186.187.187,0,1,1,0-.373c.373,0,.746-.187,1.119-.187v.373Zm-7.275,2.052h0a1.7,1.7,0,0,1,.933-.56h.187v.187a2,2,0,0,1-1.119.373h0C184.455,310.712,184.269,310.712,184.269,310.525Zm5.036-1.679a8.079,8.079,0,0,0-.933.187h-.187v-.187a2.366,2.366,0,0,1,1.119-.187c.187,0,.187,0,0,.187Zm-3.171.933h0c.373-.373.746-.373,1.119-.56h0v0h.187v.187a11.933,11.933,0,0,1-1.306.373Z" transform="translate(-180.025 -308.1)"/></g></g><path class="af" d="M174.7,328.914l22.757-34.7-2.425-5.036,5.036.187,7.088-10.819L196.9,273.7Z" transform="translate(102.301 -196.289)"/><path class="r" d="M152.492,301.407s-3.544,1.306-4.663,2.8c-1.492,2.052-7.648,5.783-9.327,5.969a68.328,68.328,0,0,0-6.715,1.679l-.187,8.208s23.876-7.275,27.793-11.192c1.306-1.306-6.342,1.865-6.342,1.119,0-.56,9.14-2.425,8.394-3.917s-8.394,3.171-9.14,2.425,9.513-3.171,9.327-4.85-10.259,3.731-10.259,3.731-.373-.746,2.425-2.425c2.611-1.679,5.223-3.171,4.663-3.731-.746-.56-7.461,4.477-8.581,3.544C149.88,304.764,153.238,302.153,152.492,301.407Z" transform="translate(65.006 -172.513)"/><path class="m" d="M129.5,307.119,137.894,306l1.865,8.394-8.954,1.865Z" transform="translate(63.188 -168.339)"/><path class="ap" d="M110.253,276.609c-3.544,1.119-9.7,15.855-8.021,24.436,1.679,8.394,14.176,39.358,17.907,43.089s38.8-2.611,38.8-2.611l-1.306-10.632s-22.757,0-23.317-1.306C131.7,323.429,113.8,275.49,110.253,276.609Z" transform="translate(39.347 -193.788)"/><path class="aq" d="M153.693,330.784c-5.6.187-17.907.56-23.317-.746-.373,0-1.306-2.611-1.119-2.425-10.632-26.488-19.959-51.3-22.757-51.11,4.477-.746,25.742,56.146,24.249,51.856l.187.56C131.122,330.225,147.351,330.6,153.693,330.784Z" transform="translate(43.286 -193.869)"/><path class="a" d="M97.426,279.7,78.4,293.69v41.6L97.426,332.3Z" transform="translate(18.97 -191.097)"/></g></g></svg>