<svg xmlns="http://www.w3.org/2000/svg" xmlns:xlink="http://www.w3.org/1999/xlink" width="275.244" height="344.014" viewBox="0 0 275.244 344.014"><defs><style>.a{fill:#1a954f;}.b{fill:url(#a);}.c{fill:#e0e8ee;}.d{fill:#fff;}.e{fill:#ffe07d;}.f{fill:#ffd064;}.g{fill:#e8ae4d;}.h{fill:#e5a32e;}.i{fill:#303030;font-size:11px;font-family:BebasNeue-Regular, Bebas Neue;}</style><linearGradient id="a" x1="0.5" y1="1.309" x2="0.5" y2="0.981" gradientUnits="objectBoundingBox"><stop offset="0" stop-color="#e0e8ee"/><stop offset="1" stop-color="#fcf8f4"/></linearGradient></defs><g transform="translate(-403.3 -180.7)"><g transform="translate(403.3 182.33)"><path class="a" d="M532.693,524.085h0A129.4,129.4,0,0,0,662.085,394.692v-83.6A129.4,129.4,0,0,0,532.693,181.7h0A129.4,129.4,0,0,0,403.3,311.092v83.763A129.256,129.256,0,0,0,532.693,524.085Z" transform="translate(-403.3 -181.7)"/></g><path class="b" d="M664.189,180.863c-47.259,2.933-48.237,54.43-48.237,54.43v245.1H426.1V235.13s-.163-51.333,48.4-54.43l189.689.163Z" transform="translate(14.356 0)"/><rect class="c" width="155.629" height="15.481" transform="translate(449.092 239.041)"/><rect class="c" width="66.815" height="14.504" transform="translate(449.092 264.952)"/><rect class="c" width="69.096" height="14.504" transform="translate(535.626 264.952)"/><rect class="c" width="106.415" height="10.267" transform="translate(449.092 292.818)"/><rect class="c" width="119.941" height="5.704" transform="translate(449.092 318.566)"/><rect class="c" width="144.222" height="5.704" transform="translate(449.092 344.315)"/><g transform="translate(448.604 369.411)"><path class="c" d="M498.893,328.93H431.1V296.5h67.792Zm-66.815-.815h65.837V297.478H432.078Z" transform="translate(-431.1 -296.5)"/></g><rect class="c" width="60.622" height="7.496" transform="translate(532.692 370.063)"/><rect class="c" width="43.022" height="7.496" transform="translate(532.692 385.707)"/><rect class="c" width="118.8" height="5.704" transform="translate(449.092 421.559)"/><rect class="c" width="68.281" height="5.704" transform="translate(449.092 447.307)"/><g transform="translate(582.847 284.964)"><path class="d" d="M524.759,278.283a5.977,5.977,0,0,1-3.422-1.467,4.307,4.307,0,0,1-1.63-3.422,26.1,26.1,0,0,0-1.63-7.007,12.206,12.206,0,1,1,14.667.326,23.332,23.332,0,0,0-1.63,6.681c0,2.607-2.607,4.889-5.7,4.889Zm1.63-32.593a11.165,11.165,0,0,0-12.059,10.267,10.966,10.966,0,0,0,4.237,9.615l.163.163v.163a29.772,29.772,0,0,1,1.793,7.5h0a4.017,4.017,0,0,0,1.3,2.77,4.7,4.7,0,0,0,3.259,1.141c2.607,0,4.726-1.63,4.726-3.911h0a27.1,27.1,0,0,1,1.793-7.17v-.163l.163-.163a11.715,11.715,0,0,0,4.889-8.311A11.031,11.031,0,0,0,526.389,245.69Z" transform="translate(-513.477 -244.68)"/><g transform="translate(7.371 16.166)"><path class="d" d="M519.63,267.8,518,254.6l2.77,2.281,1.793-1.956,1.467,1.793,2.607-2.118-1.63,13.2h-.978l1.3-10.919-1.467,1.3-1.467-1.63-1.467,1.63-1.63-1.3,1.3,10.919Z" transform="translate(-518 -254.6)"/></g><g transform="translate(7.253 32.178)"><rect class="d" width="8.637" height="3.422" transform="translate(8.637 3.48) rotate(-179.614)"/></g><g transform="translate(5.942 28.744)"><rect class="d" width="11.407" height="5.541" transform="matrix(-1, -0.007, 0.007, -1, 11.407, 5.618)"/></g></g><g transform="translate(565.733 408.603)"><g transform="translate(5.792 42.126)"><path class="e" d="M517.726,378.178l11.57-27.867-9.289-3.911-13.363,32.1a1.715,1.715,0,0,0,2.119,2.281l7.5-2.281c.163,0,.489-.163.652,0Z" transform="translate(-506.529 -346.4)"/><path class="f" d="M524.733,348.6,513,377.118a1.239,1.239,0,0,1,1.3.978l3.748,7.007a1.716,1.716,0,0,0,3.1-.163l13.363-32.1Z" transform="translate(-502.456 -345.015)"/><path class="e" d="M530.241,348.5l-9.941,4.074,13.363,32.1a1.717,1.717,0,0,0,3.1.163l3.748-7.007.489-.489.978-1.141Z" transform="translate(-497.859 -345.078)"/><path class="f" d="M548.841,378.5l-13.363-32.1-9.778,4.074,11.733,28.518a1.9,1.9,0,0,1,1.63-.326l7.5,2.281A1.9,1.9,0,0,0,548.841,378.5Z" transform="translate(-494.459 -346.4)"/></g><path class="g" d="M539.356,321.772a5.387,5.387,0,0,0,4.889.978,5.207,5.207,0,0,1,6.193,2.444,5.236,5.236,0,0,0,4.237,2.607,5.372,5.372,0,0,1,4.889,4.563,5.662,5.662,0,0,0,3.1,4.074,5.469,5.469,0,0,1,2.933,6.03,5.818,5.818,0,0,0,1.3,4.889,5.409,5.409,0,0,1,.652,6.682,5.55,5.55,0,0,0-.489,5.052,5.575,5.575,0,0,1-1.793,6.518,5.489,5.489,0,0,0-2.281,4.563,5.574,5.574,0,0,1-4.074,5.378,5.63,5.63,0,0,0-3.748,3.422,5.7,5.7,0,0,1-5.7,3.585,5.614,5.614,0,0,0-4.726,1.793,5.289,5.289,0,0,1-6.518,1.3,5.526,5.526,0,0,0-5.052,0,5.249,5.249,0,0,1-6.518-1.3,5.614,5.614,0,0,0-4.726-1.793,5.311,5.311,0,0,1-5.7-3.585,5.63,5.63,0,0,0-3.748-3.422,5.435,5.435,0,0,1-4.074-5.378,5.711,5.711,0,0,0-2.281-4.563,5.512,5.512,0,0,1-1.793-6.518,5.55,5.55,0,0,0-.489-5.052,5.409,5.409,0,0,1,.652-6.682,4.941,4.941,0,0,0,1.3-4.889,5.469,5.469,0,0,1,2.933-6.03,5.662,5.662,0,0,0,3.1-4.074A5.372,5.372,0,0,1,516.7,327.8a5.386,5.386,0,0,0,4.237-2.607,5.582,5.582,0,0,1,6.193-2.444,5.3,5.3,0,0,0,4.889-.978c2.608-1.63,5.378-1.63,7.333,0Z" transform="translate(-502.975 -320.55)"/><g transform="translate(9.329 8.719)"><path class="e" d="M547.159,349.63A24.823,24.823,0,0,0,530.211,326a23.734,23.734,0,0,0,0,47.259,25.037,25.037,0,0,0,16.948-23.63Z" transform="translate(-508.7 -325.837)"/><path class="f" d="M525.315,325.9a18.31,18.31,0,0,0-5.215.652,23.747,23.747,0,0,1,0,46.281,26.844,26.844,0,0,0,5.215.652,23.716,23.716,0,0,0,23.792-23.793A24.033,24.033,0,0,0,525.315,325.9Z" transform="translate(-501.522 -325.9)"/><path class="g" d="M530.423,356.017l8.148,5.541a1.078,1.078,0,0,0,.978.163c.326-.326.489-.815.815-1.141v-.163l-2.771-9.452a1.267,1.267,0,0,1,.326-1.3l6.193-4.889c-.163-1.141-.326-2.281-.489-3.259l-8.474-.326a1.033,1.033,0,0,1-.978-.815l-3.422-9.289a1.253,1.253,0,0,0-2.282,0l-3.422,9.289a1.2,1.2,0,0,1-.978.815l-9.941.326a1.181,1.181,0,0,0-.652,2.119l7.822,6.03a1.267,1.267,0,0,1,.326,1.3l-2.77,9.452a1.176,1.176,0,0,0,1.793,1.3l8.148-5.541a1.263,1.263,0,0,1,1.63-.163Z" transform="translate(-505.979 -323.098)"/><g transform="translate(32.104 18.089)"><path class="h" d="M528.889,350.7a1.154,1.154,0,0,0,1.793-1.3l-.489-1.793a26.542,26.542,0,0,1-1.793,2.77Z" transform="translate(-528.4 -330.326)"/><path class="h" d="M533.833,337.163,530.9,337a20.543,20.543,0,0,1,.652,4.563l2.933-2.281a1.147,1.147,0,0,0-.652-2.119Z" transform="translate(-526.826 -337)"/></g></g></g><text class="i" transform="translate(510.515 249.826)"><tspan x="0" y="0">certificate</tspan></text></g></svg>