<svg width="20" height="20" viewBox="0 0 22 24" fill="none" xmlns="http://www.w3.org/2000/svg">
<path d="M0.6875 5.62519H9.59375V0.46875C9.59375 0.209906 9.80361 0 10.0625 0H21.3125C21.5714 0 21.7812 0.209906 21.7812 0.46875V23.5312C21.7812 23.79 21.5714 24 21.3125 24H10.0625H0.6875C0.42861 24 0.21875 23.79 0.21875 23.5312V6.09394C0.21875 5.83505 0.428656 5.62519 0.6875 5.62519ZM9.59375 6.56269H1.15625V18.375H9.59375V6.56269ZM17.0938 23.0625V19.3125H14.2812V23.0625H17.0938ZM13.8125 18.375H17.5625C17.8214 18.375 18.0312 18.5849 18.0312 18.8437V23.0625H20.8438V0.9375H10.5312V23.0625H13.3438V18.8437C13.3438 18.5849 13.5537 18.375 13.8125 18.375ZM9.5938 23.0625V19.3125H1.1563V23.0625H9.5938Z" fill="#1A954F"/>
<path d="M16.1562 3.75H15.2189C14.96 3.75 14.7501 3.54014 14.7501 3.28125V2.34375C14.7501 2.08486 14.96 1.875 15.2189 1.875H16.1562C16.4151 1.875 16.625 2.08486 16.625 2.34375V3.28125C16.625 3.54014 16.4151 3.75 16.1562 3.75Z" fill="#1A954F"/>
<path d="M16.1562 7.03126H15.2189C14.96 7.03126 14.7501 6.8214 14.7501 6.5625V5.625C14.7501 5.36611 14.96 5.15625 15.2189 5.15625H16.1562C16.4151 5.15625 16.625 5.36611 16.625 5.625V6.5625C16.625 6.8214 16.4151 7.03126 16.1562 7.03126Z" fill="#1A954F"/>
<path d="M16.1562 10.3125H15.2189C14.96 10.3125 14.7501 10.1026 14.7501 9.84375V8.90625C14.7501 8.64736 14.96 8.4375 15.2189 8.4375H16.1562C16.4151 8.4375 16.625 8.64736 16.625 8.90625V9.84375C16.625 10.1026 16.4151 10.3125 16.1562 10.3125Z" fill="#1A954F"/>
<path d="M16.1562 13.5938H15.2189C14.96 13.5938 14.7501 13.3839 14.7501 13.125V12.1875C14.7501 11.9286 14.96 11.7188 15.2189 11.7188H16.1562C16.4151 11.7188 16.625 11.9286 16.625 12.1875V13.125C16.625 13.3839 16.4151 13.5938 16.1562 13.5938Z" fill="#1A954F"/>
<path d="M16.1562 16.875H15.2189C14.96 16.875 14.7501 16.6651 14.7501 16.4062V15.4688C14.7501 15.2099 14.96 15 15.2189 15H16.1562C16.4151 15 16.625 15.2099 16.625 15.4688V16.4062C16.625 16.6651 16.4151 16.875 16.1562 16.875Z" fill="#1A954F"/>
<path d="M19.4375 3.75H18.5001C18.2412 3.75 18.0314 3.54014 18.0314 3.28125V2.34375C18.0314 2.08486 18.2412 1.875 18.5001 1.875H19.4375C19.6964 1.875 19.9062 2.08486 19.9062 2.34375V3.28125C19.9062 3.54014 19.6964 3.75 19.4375 3.75Z" fill="#1A954F"/>
<path d="M19.4375 7.03126H18.5001C18.2412 7.03126 18.0314 6.8214 18.0314 6.5625V5.625C18.0314 5.36611 18.2412 5.15625 18.5001 5.15625H19.4375C19.6964 5.15625 19.9062 5.36611 19.9062 5.625V6.5625C19.9062 6.8214 19.6964 7.03126 19.4375 7.03126Z" fill="#1A954F"/>
<path d="M19.4375 10.3125H18.5001C18.2412 10.3125 18.0314 10.1026 18.0314 9.84375V8.90625C18.0314 8.64736 18.2412 8.4375 18.5001 8.4375H19.4375C19.6964 8.4375 19.9062 8.64736 19.9062 8.90625V9.84375C19.9062 10.1026 19.6964 10.3125 19.4375 10.3125Z" fill="#1A954F"/>
<path d="M19.4375 13.5938H18.5001C18.2412 13.5938 18.0314 13.3839 18.0314 13.125V12.1875C18.0314 11.9286 18.2412 11.7188 18.5001 11.7188H19.4375C19.6964 11.7188 19.9062 11.9286 19.9062 12.1875V13.125C19.9062 13.3839 19.6964 13.5938 19.4375 13.5938Z" fill="#1A954F"/>
<path d="M19.4375 16.875H18.5001C18.2412 16.875 18.0314 16.6651 18.0314 16.4062V15.4688C18.0314 15.2099 18.2412 15 18.5001 15H19.4375C19.6964 15 19.9062 15.2099 19.9062 15.4688V16.4062C19.9062 16.6651 19.6964 16.875 19.4375 16.875Z" fill="#1A954F"/>
<path d="M11.9376 1.875H12.875C13.1339 1.875 13.3438 2.08486 13.3438 2.34375V3.28125C13.3438 3.54014 13.1339 3.75 12.875 3.75H11.9376C11.6788 3.75 11.4689 3.54014 11.4689 3.28125V2.34375C11.4689 2.08486 11.6788 1.875 11.9376 1.875Z" fill="#1A954F"/>
<path d="M11.9376 5.15625H12.875C13.1339 5.15625 13.3438 5.36611 13.3438 5.625V6.5625C13.3438 6.82139 13.1339 7.03125 12.875 7.03125H11.9376C11.6788 7.03125 11.4689 6.82139 11.4689 6.5625V5.625C11.4689 5.36616 11.6788 5.15625 11.9376 5.15625Z" fill="#1A954F"/>
<path d="M11.9376 8.4375H12.875C13.1339 8.4375 13.3438 8.64736 13.3438 8.90625V9.84375C13.3438 10.1026 13.1339 10.3125 12.875 10.3125H11.9376C11.6788 10.3125 11.4689 10.1026 11.4689 9.84375V8.90625C11.4689 8.64741 11.6788 8.4375 11.9376 8.4375Z" fill="#1A954F"/>
<path d="M11.9376 11.7188H12.875C13.1339 11.7188 13.3438 11.9286 13.3438 12.1875V13.125C13.3438 13.3839 13.1339 13.5938 12.875 13.5938H11.9376C11.6788 13.5938 11.4689 13.3839 11.4689 13.125V12.1875C11.4689 11.9287 11.6788 11.7188 11.9376 11.7188Z" fill="#1A954F"/>
<path d="M11.9376 15H12.875C13.1339 15 13.3438 15.2099 13.3438 15.4688V16.4062C13.3438 16.6651 13.1339 16.875 12.875 16.875H11.9376C11.6788 16.875 11.4689 16.6651 11.4689 16.4062V15.4688C11.4689 15.2099 11.6788 15 11.9376 15Z" fill="#1A954F"/>
<path d="M3.26577 8.4375H4.20313C4.46202 8.4375 4.67188 8.64736 4.67188 8.90625V9.84375C4.67188 10.1026 4.46202 10.3125 4.20313 10.3125H3.26577C3.00688 10.3125 2.79702 10.1026 2.79702 9.84375V8.90625C2.79702 8.64741 3.00692 8.4375 3.26577 8.4375Z" fill="#1A954F"/>
<path d="M3.26577 11.7188H4.20313C4.46202 11.7188 4.67188 11.9286 4.67188 12.1875V13.125C4.67188 13.3839 4.46202 13.5938 4.20313 13.5938H3.26577C3.00688 13.5938 2.79702 13.3839 2.79702 13.125V12.1875C2.79702 11.9287 3.00692 11.7188 3.26577 11.7188Z" fill="#1A954F"/>
<path d="M3.26577 15H4.20313C4.46202 15 4.67188 15.2099 4.67188 15.4688V16.4062C4.67188 16.6651 4.46202 16.875 4.20313 16.875H3.26577C3.00688 16.875 2.79702 16.6651 2.79702 16.4062V15.4688C2.79702 15.2099 3.00692 15 3.26577 15Z" fill="#1A954F"/>
<path d="M6.54702 8.4375H7.48438C7.74327 8.4375 7.95312 8.64736 7.95312 8.90625V9.84375C7.95312 10.1026 7.74327 10.3125 7.48438 10.3125H6.54702C6.28813 10.3125 6.07827 10.1026 6.07827 9.84375V8.90625C6.07827 8.64741 6.28817 8.4375 6.54702 8.4375Z" fill="#1A954F"/>
<path d="M6.54702 11.7188H7.48438C7.74327 11.7188 7.95312 11.9286 7.95312 12.1875V13.125C7.95312 13.3839 7.74327 13.5938 7.48438 13.5938H6.54702C6.28813 13.5938 6.07827 13.3839 6.07827 13.125V12.1875C6.07827 11.9287 6.28817 11.7188 6.54702 11.7188Z" fill="#1A954F"/>
<path d="M6.54702 15H7.48438C7.74327 15 7.95312 15.2099 7.95312 15.4688V16.4062C7.95312 16.6651 7.74327 16.875 7.48438 16.875H6.54702C6.28813 16.875 6.07827 16.6651 6.07827 16.4062V15.4688C6.07827 15.2099 6.28817 15 6.54702 15Z" fill="#1A954F"/>
</svg>
