<svg width="344" height="303" viewBox="0 0 344 303" fill="none" xmlns="http://www.w3.org/2000/svg">
<path d="M143.802 299.337C136.375 288.03 104.671 240.486 95.394 239.215C86.3532 237.976 54.2255 286.049 45.5353 299.337H143.802Z" fill="#0D0D0D" stroke="#0D0D0D" stroke-linecap="round" stroke-linejoin="round"/>
<path d="M184.456 21.5353V131.174" stroke="#0D0D0D" stroke-width="3" stroke-linecap="round" stroke-linejoin="round"/>
<path d="M197.484 24.4783V131.174" stroke="#0D0D0D" stroke-width="3" stroke-linecap="round" stroke-linejoin="round"/>
<path d="M211.766 82.8641V186.209" stroke="#0D0D0D" stroke-width="3" stroke-linecap="round" stroke-linejoin="round"/>
<path d="M226.889 24.4783V186.209" stroke="#0D0D0D" stroke-width="3" stroke-linecap="round" stroke-linejoin="round"/>
<path d="M242.011 24.4783V134.117" stroke="#0D0D0D" stroke-width="3" stroke-linecap="round" stroke-linejoin="round"/>
<path d="M173.117 36.2337H242.435" stroke="#0D0D0D" stroke-width="3" stroke-linecap="round" stroke-linejoin="round"/>
<path d="M173.117 60.6005H248.288" stroke="#0D0D0D" stroke-width="3" stroke-linecap="round" stroke-linejoin="round"/>
<path d="M171.861 82.8641H255.454" stroke="#0D0D0D" stroke-width="3" stroke-linecap="round" stroke-linejoin="round"/>
<path d="M170.598 107.655H255.454" stroke="#0D0D0D" stroke-width="3" stroke-linecap="round" stroke-linejoin="round"/>
<path d="M186.56 134.533H250.831" stroke="#0D0D0D" stroke-width="3" stroke-linecap="round" stroke-linejoin="round"/>
<path d="M203.361 160.579H245.37" stroke="#0D0D0D" stroke-width="3" stroke-linecap="round" stroke-linejoin="round"/>
<path d="M92.769 31.9456L107.598 43.5543" stroke="#0D0D0D" stroke-width="2" stroke-linecap="round" stroke-linejoin="round"/>
<path d="M122.427 19.7011L127.587 27.4375" stroke="#0D0D0D" stroke-width="2" stroke-linecap="round" stroke-linejoin="round"/>
<path d="M148.864 1L153.38 15.1848" stroke="#0D0D0D" stroke-width="2" stroke-linecap="round" stroke-linejoin="round"/>
<path d="M233.467 183.283H209.011V125.133H175.831V22.1467C161.848 22.2848 148.135 26.0176 136.011 32.9864C123.887 39.9551 113.76 49.9255 106.602 61.939C99.4447 73.9525 95.4979 87.6053 95.1411 101.585C94.7844 115.564 98.0297 129.401 104.565 141.764C107.223 147.951 113.467 163.106 119.72 182.704C125.5 200.793 128.516 218.981 128.516 221.728C128.516 221.997 128.516 222.274 128.516 222.543C128.488 223.361 128.624 224.176 128.917 224.94C129.211 225.704 129.655 226.401 130.223 226.99C130.791 227.579 131.472 228.047 132.225 228.367C132.978 228.687 133.788 228.853 134.606 228.853H218.777C219.595 228.852 220.404 228.685 221.157 228.365C221.909 228.044 222.59 227.576 223.158 226.988C223.726 226.399 224.17 225.702 224.463 224.939C224.757 224.176 224.894 223.361 224.867 222.543C224.867 222.25 224.867 221.973 224.867 221.728C224.85 219.014 227.81 201.177 233.467 183.283Z" fill="white" stroke="#0D0D0D" stroke-width="2" stroke-linecap="round" stroke-linejoin="round"/>
<path d="M148.204 35.288C150.563 34.2244 152.983 33.3016 155.451 32.5245" stroke="#0D0D0D" stroke-width="2" stroke-linecap="round" stroke-linejoin="round"/>
<path d="M121.057 55.9457C121.057 55.9457 127.701 45.3478 142.302 38.2147" stroke="#0D0D0D" stroke-width="2" stroke-linecap="round" stroke-linejoin="round"/>
<path d="M122.802 173.272C125.826 183.152 129.829 196.84 131.215 204.486C133.562 217.383 132.03 224.052 137.084 225.201" stroke="#0D0D0D" stroke-width="2" stroke-linecap="round" stroke-linejoin="round"/>
<path d="M119.101 161.484C119.101 161.484 119.916 164.133 121.228 168.193" stroke="#0D0D0D" stroke-width="2" stroke-linecap="round" stroke-linejoin="round"/>
<path d="M171.527 228.063V150.128C171.527 150.128 174.788 129.747 164.19 129.747C153.592 129.747 154.408 140.345 166.636 151.758C178.864 163.171 197.614 152.573 200.06 143.606C202.505 134.639 195.984 130.563 191.908 137.899C187.831 145.236 191.908 228.389 191.908 228.389" stroke="#0D0D0D" stroke-width="2" stroke-linecap="round" stroke-linejoin="round"/>
<path d="M220.905 228.38H132.935V248.793H220.905V228.38Z" fill="white" stroke="#0D0D0D" stroke-width="2" stroke-linecap="round" stroke-linejoin="round"/>
<path d="M220.905 253.652H132.935V274.065H220.905V253.652Z" fill="white" stroke="#0D0D0D" stroke-width="2" stroke-linecap="round" stroke-linejoin="round"/>
<path d="M220.905 248.793H132.935V253.652H220.905V248.793Z" fill="#0D0D0D" stroke="#0D0D0D" stroke-linecap="round" stroke-linejoin="round"/>
<path d="M220.905 278.924H132.935V299.337H220.905V278.924Z" fill="white" stroke="#0D0D0D" stroke-width="2" stroke-linecap="round" stroke-linejoin="round"/>
<path d="M211.701 246.062H218.239" stroke="#0D0D0D" stroke-linecap="round" stroke-linejoin="round"/>
<path d="M136.391 246.062H208.554" stroke="#0D0D0D" stroke-linecap="round" stroke-linejoin="round"/>
<path d="M194.744 271.734H215.818" stroke="#0D0D0D" stroke-linecap="round" stroke-linejoin="round"/>
<path d="M149.451 271.734H192.323" stroke="#0D0D0D" stroke-linecap="round" stroke-linejoin="round"/>
<path d="M142.432 271.734H146.06" stroke="#0D0D0D" stroke-linecap="round" stroke-linejoin="round"/>
<path d="M220.905 274.065H132.935V278.924H220.905V274.065Z" fill="#0D0D0D" stroke="#0D0D0D" stroke-linecap="round" stroke-linejoin="round"/>
<path d="M174.503 283.399H144.389V299.076H174.503V283.399Z" fill="white" stroke="#0D0D0D" stroke-linecap="round" stroke-linejoin="round"/>
<path d="M213.69 283.399H183.576V299.076H213.69V283.399Z" fill="white" stroke="#0D0D0D" stroke-linecap="round" stroke-linejoin="round"/>
<path d="M240.78 299.337C235.008 294.274 210.364 272.989 203.19 272.435C196.163 271.872 171.217 293.402 164.467 299.337H240.78Z" fill="#0D0D0D" stroke="#0D0D0D" stroke-linecap="round" stroke-linejoin="round"/>
<path d="M335.924 299.337H343" stroke="#0D0D0D" stroke-linecap="round" stroke-linejoin="round"/>
<path d="M12.0055 299.337H328.848" stroke="#0D0D0D" stroke-linecap="round" stroke-linejoin="round"/>
<path d="M1 299.337H6.50272" stroke="#0D0D0D" stroke-linecap="round" stroke-linejoin="round"/>
<path d="M321.682 252.813H300.527V282.486H309.291H321.682H330.454V267.649L321.682 252.813Z" fill="#0D0D0D" stroke="#0D0D0D" stroke-linecap="round" stroke-linejoin="round"/>
<path d="M330.454 282.486H320.761V289.228H330.454V282.486Z" fill="white" stroke="#0D0D0D" stroke-linecap="round" stroke-linejoin="round"/>
<path d="M284.802 282.152C284.802 282.152 295.399 276.446 291.731 247.913L278.28 240.576L255.046 236.908L234.258 237.723V249.543C234.258 249.543 246.079 259.734 247.302 262.995C248.069 265.226 248.481 267.564 248.524 269.924V281.337L284.802 282.152Z" fill="white" stroke="#0D0D0D" stroke-linecap="round" stroke-linejoin="round"/>
<path d="M291.731 247.913L284.802 282.152" stroke="#0D0D0D" stroke-linecap="round" stroke-linejoin="round"/>
<path d="M278.28 240.576L270.535 282.152" stroke="#0D0D0D" stroke-linecap="round" stroke-linejoin="round"/>
<path d="M255.046 236.908L249.34 267.886" stroke="#0D0D0D" stroke-linecap="round" stroke-linejoin="round"/>
<path d="M235.073 247.913C235.073 247.913 248.524 253.62 253.823 257.288C259.122 260.957 258.307 268.701 258.307 268.701" stroke="#0D0D0D" stroke-linecap="round" stroke-linejoin="round"/>
<path d="M300.715 282.698H237.511V287.997H300.715V282.698Z" fill="white" stroke="#0D0D0D" stroke-linecap="round" stroke-linejoin="round"/>
<path d="M313.334 269.109H326.533L319.448 256.88H313.334V269.109Z" fill="white" stroke="#0D0D0D" stroke-linecap="round" stroke-linejoin="round"/>
<path d="M311.296 256.88H305.59V269.109H311.296V256.88Z" fill="white" stroke="#0D0D0D" stroke-linecap="round" stroke-linejoin="round"/>
<path d="M276.323 282.486H237.845V291.674H276.323V282.486Z" fill="white" stroke="#0D0D0D" stroke-linecap="round" stroke-linejoin="round"/>
<path d="M312.775 299.188C317.175 298.393 320.097 294.182 319.302 289.783C318.507 285.383 314.296 282.461 309.897 283.256C305.497 284.051 302.575 288.261 303.37 292.661C304.164 297.061 308.375 299.983 312.775 299.188Z" fill="#0D0D0D" stroke="#0D0D0D" stroke-linecap="round" stroke-linejoin="round"/>
<path d="M311.321 295.97C313.927 295.97 316.041 293.857 316.041 291.25C316.041 288.643 313.927 286.53 311.321 286.53C308.714 286.53 306.601 288.643 306.601 291.25C306.601 293.857 308.714 295.97 311.321 295.97Z" fill="white" stroke="#0D0D0D" stroke-linecap="round" stroke-linejoin="round"/>
<path d="M250.384 299.205C254.787 298.426 257.723 294.225 256.944 289.823C256.165 285.42 251.964 282.484 247.562 283.263C243.159 284.042 240.222 288.243 241.002 292.645C241.781 297.048 245.982 299.985 250.384 299.205Z" fill="#0D0D0D" stroke="#0D0D0D" stroke-linecap="round" stroke-linejoin="round"/>
<path d="M248.957 295.97C251.563 295.97 253.677 293.857 253.677 291.25C253.677 288.643 251.563 286.53 248.957 286.53C246.35 286.53 244.236 288.643 244.236 291.25C244.236 293.857 246.35 295.97 248.957 295.97Z" fill="white" stroke="#0D0D0D" stroke-linecap="round" stroke-linejoin="round"/>
<path d="M273.977 297.178C277.27 294.154 277.488 289.033 274.464 285.74C271.44 282.447 266.319 282.229 263.026 285.253C259.733 288.276 259.515 293.397 262.539 296.69C265.563 299.983 270.683 300.202 273.977 297.178Z" fill="#0D0D0D" stroke="#0D0D0D" stroke-linecap="round" stroke-linejoin="round"/>
<path d="M268.497 295.97C271.104 295.97 273.217 293.857 273.217 291.25C273.217 288.643 271.104 286.53 268.497 286.53C265.89 286.53 263.777 288.643 263.777 291.25C263.777 293.857 265.89 295.97 268.497 295.97Z" fill="white" stroke="#0D0D0D" stroke-linecap="round" stroke-linejoin="round"/>
<path d="M265.848 268.293H245.467C244.004 268.293 242.818 269.48 242.818 270.943V279.503C242.818 280.966 244.004 282.152 245.467 282.152H265.848C267.311 282.152 268.497 280.966 268.497 279.503V270.943C268.497 269.48 267.311 268.293 265.848 268.293Z" fill="#0D0D0D" stroke="#0D0D0D" stroke-linecap="round" stroke-linejoin="round"/>
<path d="M232.628 282.152V241.84H240.78V282.152" stroke="#0D0D0D" stroke-linecap="round" stroke-linejoin="round"/>
<path d="M232.685 247.179H240.69" stroke="#0D0D0D" stroke-linecap="round" stroke-linejoin="round"/>
<path d="M232.685 253.473H240.69" stroke="#0D0D0D" stroke-linecap="round" stroke-linejoin="round"/>
<path d="M232.685 259.766H240.69" stroke="#0D0D0D" stroke-linecap="round" stroke-linejoin="round"/>
<path d="M232.685 266.068H240.69" stroke="#0D0D0D" stroke-linecap="round" stroke-linejoin="round"/>
<path d="M232.685 272.361H240.69" stroke="#0D0D0D" stroke-linecap="round" stroke-linejoin="round"/>
<path d="M232.685 278.655H240.69" stroke="#0D0D0D" stroke-linecap="round" stroke-linejoin="round"/>
<path d="M69.5761 300.128H54.9022V44.1495L69.5761 61.212V300.128Z" stroke="#0D0D0D" stroke-linecap="round" stroke-linejoin="round"/>
<path d="M55.0489 246.323H69.4375L55.0489 232.408H69.4375L55.0489 246.323Z" stroke="#0D0D0D" stroke-linecap="round" stroke-linejoin="round"/>
<path d="M55.0489 232.057H69.4375L55.0489 218.141H69.4375L55.0489 232.057Z" stroke="#0D0D0D" stroke-linecap="round" stroke-linejoin="round"/>
<path d="M55.0489 217.791H69.4375L55.0489 203.875H69.4375L55.0489 217.791Z" stroke="#0D0D0D" stroke-linecap="round" stroke-linejoin="round"/>
<path d="M55.0489 203.524H69.4375L55.0489 189.609H69.4375L55.0489 203.524Z" stroke="#0D0D0D" stroke-linecap="round" stroke-linejoin="round"/>
<path d="M55.0489 189.258H69.4375L55.0489 175.342H69.4375L55.0489 189.258Z" stroke="#0D0D0D" stroke-linecap="round" stroke-linejoin="round"/>
<path d="M55.0489 174.992H69.4375L55.0489 161.076H69.4375L55.0489 174.992Z" stroke="#0D0D0D" stroke-linecap="round" stroke-linejoin="round"/>
<path d="M55.0489 160.726H69.4375L55.0489 146.81H69.4375L55.0489 160.726Z" stroke="#0D0D0D" stroke-linecap="round" stroke-linejoin="round"/>
<path d="M55.0489 146.459H69.4375L55.0489 132.543H69.4375L55.0489 146.459Z" stroke="#0D0D0D" stroke-linecap="round" stroke-linejoin="round"/>
<path d="M55.0489 132.193H69.4375L55.0489 118.277H69.4375L55.0489 132.193Z" stroke="#0D0D0D" stroke-linecap="round" stroke-linejoin="round"/>
<path d="M55.0489 117.927H69.4375L55.0489 104.011H69.4375L55.0489 117.927Z" stroke="#0D0D0D" stroke-linecap="round" stroke-linejoin="round"/>
<path d="M55.0489 103.66H69.4375L55.0489 89.7446H69.4375L55.0489 103.66Z" stroke="#0D0D0D" stroke-linecap="round" stroke-linejoin="round"/>
<path d="M55.0489 89.394H69.4375L55.0489 75.4783H69.4375L55.0489 89.394Z" stroke="#0D0D0D" stroke-linecap="round" stroke-linejoin="round"/>
<path d="M55.0489 75.1277H69.4375L55.0489 61.212H69.4375L55.0489 75.1277Z" stroke="#0D0D0D" stroke-linecap="round" stroke-linejoin="round"/>
<path d="M137.704 75.5109L130.595 71.0353H79.8641L73.6685 75.5109H137.704Z" stroke="#0D0D0D" stroke-linecap="round" stroke-linejoin="round"/>
<path d="M138.878 75.1277H14.9647V78.3886H138.878V75.1277Z" fill="#0D0D0D" stroke="#0D0D0D" stroke-linecap="round" stroke-linejoin="round"/>
<path d="M130.595 71.0353L54.9022 44.1495L79.8641 71.0353" stroke="#0D0D0D" stroke-linecap="round" stroke-linejoin="round"/>
<path d="M54.9103 44.1495L14.9647 75.1277" stroke="#0D0D0D" stroke-linecap="round" stroke-linejoin="round"/>
<path d="M80.182 82.0571H49.6114V101.622H80.182V82.0571Z" fill="#0D0D0D" stroke="#0D0D0D" stroke-linecap="round" stroke-linejoin="round"/>
<path d="M73.8071 86.1331H55.9783V91.8397H73.8071V86.1331Z" fill="white" stroke="#0D0D0D" stroke-linecap="round" stroke-linejoin="round"/>
<path d="M138.878 78.3886V113.541" stroke="#0D0D0D" stroke-linecap="round" stroke-linejoin="round"/>
<path d="M143.524 125.549H134.467V135.812H143.524V125.549Z" fill="#0D0D0D" stroke="#0D0D0D" stroke-linecap="round" stroke-linejoin="round"/>
<path d="M134.467 125.549L139 112.872L143.533 125.549" stroke="#0D0D0D" stroke-linecap="round" stroke-linejoin="round"/>
<path d="M114.446 249.405L134.011 280.334L138.902 276.755L124.505 247.962C123.858 246.668 122.863 245.579 121.632 244.819C120.401 244.059 118.982 243.656 117.535 243.658C116.871 243.67 116.222 243.859 115.655 244.205C115.088 244.551 114.623 245.042 114.308 245.627C113.994 246.212 113.841 246.871 113.865 247.535C113.889 248.198 114.089 248.844 114.446 249.405Z" fill="white" stroke="#0D0D0D" stroke-linecap="round" stroke-linejoin="round"/>
<path d="M137.182 272.728L117.054 287.043C117.054 287.043 118.848 294.641 130.473 294.193C142.098 293.745 141.658 281.671 141.658 281.671L137.182 272.728Z" fill="#0D0D0D" stroke="white" stroke-linecap="round" stroke-linejoin="round"/>
<path d="M81.2744 263.337L117.731 246.91C118.933 246.369 120.285 246.256 121.56 246.59C122.836 246.924 123.958 247.684 124.742 248.745C125.199 249.364 125.528 250.069 125.709 250.817C125.89 251.566 125.919 252.343 125.794 253.103C125.67 253.863 125.394 254.59 124.984 255.242C124.573 255.893 124.036 256.456 123.405 256.897L83.5163 284.818L81.2744 263.337Z" fill="white" stroke="#0D0D0D" stroke-linecap="round" stroke-linejoin="round"/>
<path d="M75.9104 283.465H38.337V289.277H75.9104V283.465Z" fill="white" stroke="#0D0D0D" stroke-linecap="round" stroke-linejoin="round"/>
<path d="M57.5679 266.916H24.9184V280.334H57.5679V266.916Z" fill="#0D0D0D" stroke="#0D0D0D" stroke-linecap="round" stroke-linejoin="round"/>
<path d="M53.3206 251.704H81.038C81.6866 251.704 82.3087 251.961 82.7673 252.42C83.226 252.879 83.4837 253.501 83.4837 254.149V280.318H50.8668V254.149C50.8668 253.828 50.9303 253.509 51.0538 253.212C51.1772 252.914 51.358 252.644 51.586 252.417C51.814 252.19 52.0845 252.01 52.3822 251.888C52.6799 251.765 52.9988 251.703 53.3206 251.704Z" fill="white" stroke="#0D0D0D" stroke-linecap="round" stroke-linejoin="round"/>
<path d="M24.5843 299.337H78.0381C79.7267 299.337 81.3461 298.666 82.5401 297.472C83.7341 296.278 84.4049 294.659 84.4049 292.97C84.4049 291.281 83.7344 289.66 82.5406 288.465C81.3468 287.27 79.7274 286.597 78.0381 286.595H24.5843C22.8949 286.597 21.2755 287.27 20.0817 288.465C18.8879 289.66 18.2174 291.281 18.2174 292.97C18.2174 294.659 18.8882 296.278 20.0822 297.472C21.2762 298.666 22.8957 299.337 24.5843 299.337Z" fill="#0D0D0D" stroke="#0D0D0D" stroke-linecap="round" stroke-linejoin="round"/>
<path d="M32.6386 299.337H86.0843C87.7736 299.337 89.3939 298.666 90.5892 297.473C91.7845 296.279 92.4571 294.659 92.4593 292.97C92.4593 291.279 91.7876 289.658 90.5921 288.462C89.3965 287.267 87.775 286.595 86.0843 286.595H32.6386C30.9479 286.595 29.3263 287.267 28.1308 288.462C26.9353 289.658 26.2636 291.279 26.2636 292.97C26.2658 294.659 26.9384 296.279 28.1337 297.473C29.329 298.666 30.9493 299.337 32.6386 299.337Z" fill="white" stroke="#0D0D0D" stroke-linecap="round" stroke-linejoin="round"/>
<path d="M83.5081 280.334H24.9184V284.81H83.5081V280.334Z" fill="white" stroke="#0D0D0D" stroke-linecap="round" stroke-linejoin="round"/>
<path d="M37 292.97C37 293.767 36.7638 294.545 36.3213 295.207C35.8787 295.87 35.2498 296.386 34.5139 296.691C33.778 296.996 32.9683 297.075 32.1871 296.92C31.4059 296.765 30.6884 296.381 30.1252 295.818C29.5619 295.255 29.1784 294.537 29.023 293.756C28.8676 292.975 28.9474 292.165 29.2522 291.429C29.557 290.693 30.0731 290.064 30.7354 289.622C31.3977 289.179 32.1763 288.943 32.9728 288.943C34.0409 288.943 35.0652 289.367 35.8204 290.122C36.5757 290.878 37 291.902 37 292.97Z" fill="#0D0D0D" stroke="#0D0D0D" stroke-linecap="round" stroke-linejoin="round"/>
<path d="M43.7092 296.997C45.9333 296.997 47.7364 295.194 47.7364 292.97C47.7364 290.746 45.9333 288.943 43.7092 288.943C41.485 288.943 39.682 290.746 39.682 292.97C39.682 295.194 41.485 296.997 43.7092 296.997Z" fill="#0D0D0D" stroke="#0D0D0D" stroke-linecap="round" stroke-linejoin="round"/>
<path d="M54.4375 296.997C56.6616 296.997 58.4646 295.194 58.4646 292.97C58.4646 290.746 56.6616 288.943 54.4375 288.943C52.2133 288.943 50.4103 290.746 50.4103 292.97C50.4103 295.194 52.2133 296.997 54.4375 296.997Z" fill="#0D0D0D" stroke="#0D0D0D" stroke-linecap="round" stroke-linejoin="round"/>
<path d="M69.2011 292.97C69.2011 293.767 68.9649 294.545 68.5224 295.207C68.0799 295.87 67.4509 296.386 66.7151 296.691C65.9792 296.996 65.1695 297.075 64.3883 296.92C63.6071 296.765 62.8895 296.381 62.3263 295.818C61.7631 295.255 61.3795 294.537 61.2241 293.756C61.0688 292.975 61.1485 292.165 61.4533 291.429C61.7581 290.693 62.2743 290.064 62.9366 289.622C63.5988 289.179 64.3774 288.943 65.1739 288.943C66.242 288.943 67.2663 289.367 68.0216 290.122C68.7768 290.878 69.2011 291.902 69.2011 292.97Z" fill="#0D0D0D" stroke="#0D0D0D" stroke-linecap="round" stroke-linejoin="round"/>
<path d="M79.9375 292.97C79.9375 293.767 79.7013 294.545 79.2588 295.207C78.8163 295.87 78.1873 296.386 77.4515 296.691C76.7156 296.996 75.9059 297.075 75.1247 296.92C74.3435 296.765 73.6259 296.381 73.0627 295.818C72.4995 295.255 72.1159 294.537 71.9605 293.756C71.8051 292.975 71.8849 292.165 72.1897 291.429C72.4945 290.693 73.0107 290.064 73.6729 289.622C74.3352 289.179 75.1138 288.943 75.9103 288.943C76.9784 288.943 78.0027 289.367 78.758 290.122C79.5132 290.878 79.9375 291.902 79.9375 292.97Z" fill="#0D0D0D" stroke="#0D0D0D" stroke-linecap="round" stroke-linejoin="round"/>
<path d="M90.6657 292.97C90.6657 293.767 90.4293 294.546 89.9865 295.208C89.5436 295.871 88.9142 296.387 88.1778 296.691C87.4415 296.996 86.6313 297.075 85.8499 296.919C85.0685 296.763 84.3509 296.379 83.788 295.815C83.2251 295.251 82.8422 294.532 82.6878 293.751C82.5333 292.969 82.6142 292.159 82.9203 291.423C83.2263 290.688 83.7438 290.059 84.4071 289.618C85.0705 289.176 85.8499 288.941 86.6467 288.943C87.1752 288.943 87.6985 289.047 88.1866 289.25C88.6748 289.452 89.1182 289.749 89.4915 290.123C89.8648 290.497 90.1607 290.941 90.3622 291.43C90.5637 291.918 90.6668 292.442 90.6657 292.97Z" fill="#0D0D0D" stroke="#0D0D0D" stroke-linecap="round" stroke-linejoin="round"/>
<path d="M121.978 251.704C121.978 251.26 121.847 250.826 121.6 250.457C121.353 250.089 121.003 249.801 120.592 249.632C120.182 249.462 119.731 249.418 119.296 249.506C118.861 249.593 118.461 249.807 118.148 250.121C117.835 250.436 117.622 250.836 117.537 251.271C117.451 251.707 117.497 252.158 117.668 252.567C117.838 252.977 118.127 253.326 118.497 253.572C118.867 253.817 119.301 253.947 119.745 253.946C120.039 253.946 120.33 253.888 120.601 253.775C120.873 253.662 121.119 253.497 121.327 253.289C121.534 253.08 121.699 252.833 121.811 252.561C121.922 252.289 121.979 251.998 121.978 251.704Z" fill="#0D0D0D" stroke="#0D0D0D" stroke-linecap="round" stroke-linejoin="round"/>
<path d="M78.5924 255.283H54.8859V269.598H78.5924V255.283Z" fill="white" stroke="#0D0D0D" stroke-linecap="round" stroke-linejoin="round"/>
<path d="M78.5924 255.283H65.6223V269.598H78.5924V255.283Z" fill="white" stroke="#0D0D0D" stroke-linecap="round" stroke-linejoin="round"/>
</svg>
