<svg width="25" height="25" viewBox="0 0 34 34" fill="none" xmlns="http://www.w3.org/2000/svg">
<path d="M31.5972 24.9688L33.4305 20.3851L32.444 19.9904L30.4528 24.9688H30.2812V18.5938H29.2188V10.0938H27.0938V7.96875H26.0312V10.0938H24.9688V6.90625H23.9062V10.0938H22.8438V7.96875H21.7812V10.0938H19.6562V16.4688H17.5312V19.1935C16.2791 17.6561 14.5701 16.5362 12.6305 16.023L12.3893 15.3C13.1638 15.0859 13.8003 14.5382 14.1185 13.8125H14.3438C15.5157 13.8125 16.4688 12.8594 16.4688 11.6875V9.03125C17.0547 9.03125 17.5312 8.55472 17.5312 7.96875V6.90625C17.5312 6.32028 17.0547 5.84375 16.4688 5.84375H16.3763C15.8679 2.78375 13.251 0.53125 10.0938 0.53125C6.93653 0.53125 4.31959 2.78375 3.81119 5.84375H3.71875C3.13278 5.84375 2.65625 6.32028 2.65625 6.90625V7.96875C2.65625 8.55472 3.13278 9.03125 3.71875 9.03125V11.6875C3.71875 12.8594 4.67181 13.8125 5.84375 13.8125H6.069C6.38775 14.5382 7.02366 15.0864 7.79822 15.3L7.55703 16.023C3.40531 17.1179 0.53125 20.8293 0.53125 25.1504V25.5C0.53125 27.7652 1.82963 29.7293 3.71875 30.6988V33.4688H19.6562V29.2188H21.3037C21.5507 30.4295 22.6233 31.3438 23.9062 31.3438C25.1892 31.3438 26.2618 30.4295 26.5088 29.2188H29.1752C31.3082 29.2188 33.1112 27.6914 33.4618 25.5877L33.5649 24.9688H31.5972ZM24.9688 24.9688V19.6562H29.2188V24.9688H24.9688ZM20.7188 11.1562H28.1562V18.5938H24.9688V16.4688H20.7188V11.1562ZM23.9062 17.5312V24.9688H18.5938V17.5312H23.9062ZM17.5312 21.0779V24.9688H17.3597L15.368 19.9899L14.3815 20.3846L16.2153 24.9688H14.2481L14.3512 25.5877C14.492 26.4323 14.8697 27.1819 15.4062 27.7791V32.4062H12.75V31.3438C13.6287 31.3438 14.3438 30.6287 14.3438 29.75C14.3438 28.8713 13.6287 28.1562 12.75 28.1562V17.1737C14.7757 17.8176 16.4889 19.2073 17.5312 21.0779ZM11.3045 15.4062L11.6322 16.3901L10.0938 18.6984L8.55472 16.3901L8.88303 15.4062H11.3045ZM11.6875 20.7979L10.7514 19.6276L11.6875 18.2235V20.7979ZM8.5 20.7979V18.2235L9.43606 19.6276L8.5 20.7979ZM8.5 22.4984L10.0938 20.5062L11.6875 22.4984V27.1873C11.5207 27.1283 11.3427 27.0938 11.1562 27.0938H10.5342C10.1086 27.0938 9.70806 27.2595 9.40684 27.5607L8.86178 28.1058L8.5 28.025V22.4984ZM9.5625 28.9074L10.158 28.3119C10.2584 28.2115 10.3923 28.1562 10.5342 28.1562H11.1562C11.449 28.1562 11.6875 28.3948 11.6875 28.6875V29.2188H12.75C13.0427 29.2188 13.2812 29.4573 13.2812 29.75C13.2812 30.0427 13.0427 30.2812 12.75 30.2812H9.5625V28.9074ZM11.6875 31.3438V32.4062H8.5V31.3438H11.6875ZM14.3438 12.75V10.625C14.9297 10.625 15.4062 11.1015 15.4062 11.6875C15.4062 12.2735 14.9297 12.75 14.3438 12.75ZM15.4062 9.85787C15.0923 9.67513 14.7326 9.5625 14.3438 9.5625V9.03125H15.4062V9.85787ZM15.2979 5.84375H11.6875V1.83706C13.5123 2.40284 14.9122 3.91637 15.2979 5.84375ZM10.625 1.62031V5.84375H9.5625V1.62031C9.73728 1.60331 9.91419 1.59375 10.0938 1.59375C10.2733 1.59375 10.4502 1.60331 10.625 1.62031ZM8.5 1.83706V5.84375H4.88963C5.27531 3.91637 6.67516 2.40284 8.5 1.83706ZM3.71822 6.90625H3.71875H16.4688V7.96875H3.71875L3.71822 6.90625ZM5.84375 9.03125V9.5625C5.45487 9.5625 5.09522 9.67513 4.78125 9.85787V9.03125H5.84375ZM4.78125 11.6875C4.78125 11.1015 5.25778 10.625 5.84375 10.625V12.75C5.25778 12.75 4.78125 12.2735 4.78125 11.6875ZM6.90625 12.75V9.03125H13.2812V12.75C13.2812 13.6287 12.5662 14.3438 11.6875 14.3438H8.5C7.62131 14.3438 6.90625 13.6287 6.90625 12.75ZM1.59375 25.5V25.1504C1.59375 21.4529 3.96525 18.2612 7.4375 17.1663V27.7897L6.86109 27.6617C5.63656 27.3891 4.78125 26.3229 4.78125 25.0681V22.8438H3.71875V25.0681C3.71875 26.8244 4.91619 28.3172 6.63053 28.6981L8.5 29.1136V30.2812H6.375C3.73894 30.2812 1.59375 28.1361 1.59375 25.5ZM4.78125 31.1174C5.28859 31.2614 5.82197 31.3438 6.375 31.3438H7.4375V32.4062H4.78125V31.1174ZM16.4688 32.4062V28.6418C17.0972 29.0031 17.8234 29.2092 18.5938 29.2172V32.4062H16.4688ZM23.9062 30.2812C23.0276 30.2812 22.3125 29.5662 22.3125 28.6875C22.3125 28.3948 22.551 28.1562 22.8438 28.1562H24.9688C25.2615 28.1562 25.5 28.3948 25.5 28.6875C25.5 29.5662 24.7849 30.2812 23.9062 30.2812ZM29.1747 28.1562H26.4642C26.2443 27.5395 25.6599 27.0938 24.9682 27.0938H22.8432C22.1515 27.0938 21.5672 27.5395 21.3472 28.1562H18.6368C17.2428 28.1562 16.0358 27.293 15.5635 26.0312H32.2469C31.7757 27.293 30.5692 28.1562 29.1747 28.1562Z" fill="#1A954F"/>
<path d="M26.0312 12.2188H27.0938V13.2812H26.0312V12.2188Z" fill="#1A954F"/>
<path d="M23.9062 12.2188H24.9688V13.2812H23.9062V12.2188Z" fill="#1A954F"/>
<path d="M21.7812 12.2188H22.8438V13.2812H21.7812V12.2188Z" fill="#1A954F"/>
<path d="M26.0312 14.3438H27.0938V15.4062H26.0312V14.3438Z" fill="#1A954F"/>
<path d="M21.7812 14.3438H22.8438V15.4062H21.7812V14.3438Z" fill="#1A954F"/>
<path d="M23.9062 14.3438H24.9688V15.4062H23.9062V14.3438Z" fill="#1A954F"/>
<path d="M26.0312 16.4688H27.0938V17.5312H26.0312V16.4688Z" fill="#1A954F"/>
<path d="M19.6562 18.5938H20.7188V23.9062H19.6562V18.5938Z" fill="#1A954F"/>
<path d="M21.7812 18.5938H22.8438V23.9062H21.7812V18.5938Z" fill="#1A954F"/>
<path d="M26.0312 20.7188H28.1562V21.7812H26.0312V20.7188Z" fill="#1A954F"/>
<path d="M26.0312 22.8438H28.1562V23.9062H26.0312V22.8438Z" fill="#1A954F"/>
</svg>
