<svg width="25" height="25" viewBox="0 0 36 36" fill="none" xmlns="http://www.w3.org/2000/svg">
<path d="M35.4727 3.49397H19.0381V0.527344C19.0381 0.236109 18.8021 0 18.5107 0H15.2206C14.9294 0 14.6933 0.236109 14.6933 0.527344V3.49397H8.23985C7.94862 3.49397 7.71251 3.73008 7.71251 4.02131V8.5552C7.36446 8.74069 7.03463 8.98453 6.75689 9.26522V7.71532C6.75689 6.75928 5.80577 5.97424 4.39109 5.71359V4.56884C4.39109 4.2776 4.15498 4.04149 3.86374 4.04149C2.93013 4.04149 1.98091 4.40044 1.25944 5.02629C0.447328 5.73082 0 6.70873 0 7.7798V9.98923C0 10.671 1.05469 10.671 1.05469 9.98923V7.7798C1.05469 6.62548 1.9137 5.38931 3.3364 5.14104V25.3702C2.50882 25.4737 1.66366 25.8047 1.0568 26.3879C1.05567 25.6698 1.05469 12.7915 1.05469 12.7915C1.05469 12.1096 0 12.1096 0 12.7915V29.1718C0 29.2014 0.00302344 29.2302 0.00773438 29.2585C0.0595547 30.8053 1.49062 31.9613 3.37845 31.9613C4.29244 31.9613 5.11017 31.7011 5.71254 31.2724L5.71282 33.2111C5.7131 34.9931 7.49531 36 9.09176 36C10.7863 35.9997 12.4697 35.0454 12.4697 33.21L12.4685 25.7542H27.4866L16.5437 35.0712C16.1779 35.3826 16.4051 36 16.8855 36H32.7669C33.0582 36 33.2942 35.7639 33.2942 35.4727V32.9145C33.2942 32.2327 32.2395 32.2327 32.2395 32.9145V34.9453H18.3184L32.2395 23.0928V30.0053C32.2395 30.6871 33.2942 30.6871 33.2942 30.0053V25.7543H35.4727C35.764 25.7543 36 25.5182 36 25.227V17.8664V4.02131C36 3.73008 35.764 3.49397 35.4727 3.49397ZM34.9453 4.54866V17.3391H22.5948V4.54866H34.9453ZM17.9834 1.05469V14.5508H15.748V13.2031H16.1309C16.8127 13.2031 16.8127 12.1485 16.1309 12.1485H15.748V10.7666H16.6231C17.3049 10.7666 17.3049 9.71191 16.6231 9.71191H15.748V8.33006H16.1309C16.4221 8.33006 16.6582 8.09395 16.6582 7.80272C16.6582 7.51148 16.4221 7.27537 16.1309 7.27537H15.748V5.89352H16.6231C17.3049 5.89352 17.3049 4.83884 16.6231 4.83884H15.748V3.45705H16.1309C16.8127 3.45705 16.8127 2.40237 16.1309 2.40237H15.748V1.05469H17.9834ZM8.32922 9.40641C8.55689 9.29869 8.79567 9.22317 9.04549 9.17979L9.04873 29.409C8.46127 29.4825 7.51163 29.7133 6.76927 30.427C6.76807 29.7188 6.76694 29.1705 6.76694 29.1556L6.76413 11.8189C6.76399 10.874 7.33985 9.87441 8.32922 9.40641ZM11.4148 31.6712C11.397 31.661 11.3791 31.651 11.3609 31.641C10.7561 31.309 9.96638 31.1238 9.13296 31.1179L9.13289 30.4623C9.38559 30.4275 9.55533 30.4301 9.55941 30.4301C9.88959 30.408 10.0709 30.2323 10.1034 29.9029L10.1004 10.8341C10.7994 11.0071 11.4116 11.3614 11.4116 11.7537L11.4148 31.6712ZM5.7022 7.71532V25.1167V27.6257C5.1146 27.2883 4.32056 27.0852 3.42049 27.0792V26.4234C3.67334 26.3886 3.84307 26.3913 3.84701 26.3914C4.1772 26.3693 4.35853 26.1936 4.39109 25.8643V6.79212C5.19434 6.98442 5.7022 7.38323 5.7022 7.71532ZM5.7022 29.4216C5.7022 30.2265 4.63802 30.9066 3.37845 30.9066C2.05671 30.9066 1.05996 30.1608 1.05996 29.1718C1.05996 28.1703 1.42298 27.2217 2.3658 26.7427V27.6293C2.40335 27.9743 2.59566 28.1493 2.94265 28.1543C3.67545 28.0853 4.48552 28.1673 5.14069 28.527C5.51876 28.7347 5.733 28.9984 5.7022 29.4216ZM9.09162 34.9453C9.09141 34.9453 9.09134 34.9453 9.09105 34.9453C7.76967 34.9453 6.77292 34.1997 6.77278 33.211C6.77264 32.2095 7.13545 31.2607 8.07827 30.7815L8.07841 31.6683C8.11603 32.0131 8.30834 32.1881 8.65526 32.1931C9.54984 32.109 11.458 32.2526 11.4151 33.4599C11.4152 34.2649 10.3512 34.9452 9.09162 34.9453ZM12.4663 11.7534C12.4662 10.8041 11.5119 10.0144 10.1002 9.75262L10.1 8.60738C10.0697 8.28598 9.89395 8.1102 9.57256 8.0801C9.3034 8.08017 9.03312 8.11097 8.7672 8.16848V4.54866H14.6933V15.0781C14.6933 15.3693 14.9294 15.6054 15.2206 15.6054H18.5107C18.8021 15.6054 19.0381 15.3693 19.0381 15.0781V4.54866H21.5401V17.8664V24.6996H12.4684L12.4663 11.7534ZM32.988 21.4725C32.8013 21.3862 32.5815 21.4163 32.425 21.5497L28.7253 24.6996H22.5948V18.3938H34.9453V24.6996H33.2942V21.9512C33.2942 21.7456 33.1747 21.5587 32.988 21.4725Z" fill="#1A954F"/>
<path d="M25.1251 15.1114H29.984C30.1228 15.1114 30.2595 15.0545 30.3575 14.9563L32.7869 12.5288C32.8859 12.4298 32.9415 12.2956 32.9415 12.1557L32.9408 7.30364C32.9408 7.01831 32.6987 6.77637 32.4134 6.77637L27.5538 6.77693C27.4141 6.77693 27.2799 6.83248 27.1812 6.93127L24.7527 9.35782C24.6547 9.45555 24.5977 9.59294 24.5977 9.73125V14.584C24.5977 14.8753 24.8338 15.1114 25.1251 15.1114ZM25.6524 10.2586H29.4567V14.0567H25.6524V10.2586ZM30.5114 13.3116V9.94985L31.8865 8.57595L31.887 11.9373L30.5114 13.3116ZM27.7723 7.83162L31.1396 7.8312L29.7658 9.20391H26.3989L27.7723 7.83162Z" fill="#1A954F"/>
<path d="M27.62 22.084H25.8727C25.1909 22.084 25.1909 23.1387 25.8727 23.1387H27.62C28.3018 23.1387 28.3018 22.084 27.62 22.084Z" fill="#1A954F"/>
<path d="M30.35 19.9854H25.8727C25.1909 19.9854 25.1909 21.04 25.8727 21.04H30.35C31.0318 21.04 31.0318 19.9854 30.35 19.9854Z" fill="#1A954F"/>
<path d="M29.8643 27.0915L23.4972 32.5126C23.1315 32.824 23.3586 33.4414 23.839 33.4414H30.2062C30.4975 33.4414 30.7335 33.2053 30.7335 32.9141V27.493C30.7335 27.0921 30.2271 26.7825 29.8643 27.0915ZM29.6788 32.3867H25.2719L29.6788 28.6346V32.3867Z" fill="#1A954F"/>
</svg>
