<svg width="20" height="20" viewBox="0 0 24 24" fill="none" xmlns="http://www.w3.org/2000/svg">
<path d="M19.875 19.875H20.625V22.125H19.875V19.875Z" fill="#1A954F"/>
<path d="M18.375 20.625H19.125V22.125H18.375V20.625Z" fill="#1A954F"/>
<path d="M22.875 19.6035V15.375H23.6749L22.8311 8.625H20.1675L19.2716 5.04112C19.8675 4.55963 20.25 3.82387 20.25 3C20.25 1.5525 19.0721 0.375 17.625 0.375C16.1779 0.375 15 1.5525 15 3C15 3.82387 15.3825 4.55963 15.9784 5.04112L15.0825 8.625H12.6158C11.8868 7.80975 10.9856 7.13887 9.94875 6.67762L7.875 5.75625V5.625H9.375V4.875H7.875V4.125H8.625V3.375H7.875V2.556C8.19263 2.44275 8.44275 2.19263 8.556 1.875H9.375V2.625H10.125V1.875H10.875V1.125H10.125V0.375H9.375V1.125H8.556C8.40075 0.689625 7.98825 0.375 7.5 0.375C7.01175 0.375 6.59925 0.689625 6.444 1.125H5.625V0.375H4.875V1.125H4.125V1.875H4.875V2.625H5.625V1.875H6.444C6.55725 2.19263 6.80738 2.44275 7.125 2.556V3.375H6.375V4.125H7.125V4.875H5.625V5.625H7.125V5.75625L5.05163 6.67762C2.211 7.94025 0.375 10.7651 0.375 13.8743V14.625C0.375 15.0386 0.711375 15.375 1.125 15.375H1.875V23.625H23.625V21.6952C23.625 21.1826 23.5039 20.6693 23.2744 20.2106C23.1641 19.9894 23.0261 19.7899 22.875 19.6035ZM7.5 1.125C7.707 1.125 7.875 1.29338 7.875 1.5C7.875 1.70662 7.707 1.875 7.5 1.875C7.293 1.875 7.125 1.70662 7.125 1.5C7.125 1.29338 7.293 1.125 7.5 1.125ZM17.625 7.64325L18.8246 8.625H16.4254L17.625 7.64325ZM16.0129 7.9935L16.3594 6.60787L17.0329 7.15912L16.0129 7.9935ZM18.2171 7.15912L18.8906 6.60787L19.2371 7.9935L18.2171 7.15912ZM15.75 3C15.75 1.96613 16.5911 1.125 17.625 1.125C18.6589 1.125 19.5 1.96613 19.5 3C19.5 4.03387 18.6589 4.875 17.625 4.875C16.5911 4.875 15.75 4.03387 15.75 3ZM17.625 5.625C17.9689 5.625 18.2966 5.55675 18.5978 5.436L18.6896 5.8035L17.625 6.67462L16.5604 5.8035L16.6523 5.436C16.9534 5.55675 17.2811 5.625 17.625 5.625ZM22.1689 9.375L22.8251 14.625H14.625V13.8743C14.625 12.2314 14.1083 10.6706 13.2056 9.375H22.1689ZM1.125 14.625V13.8743C1.125 11.0614 2.78588 8.50575 5.35613 7.3635L7.5 6.41025L9.64388 7.36312C12.2141 8.50537 13.875 11.0614 13.875 13.8743V14.625H13.125V13.8334C13.125 11.403 11.7746 9.21825 9.60113 8.13113L7.5 7.08075L5.39888 8.13113C3.22538 9.21825 1.875 11.403 1.875 13.8334V14.625H1.125ZM12.375 13.875H9.375V10.875C9.375 10.4614 9.03863 10.125 8.625 10.125H6.375C5.96138 10.125 5.625 10.4614 5.625 10.875V13.875H2.625V13.8334C2.625 11.6891 3.81675 9.76125 5.7345 8.802L7.5 7.91925L9.2655 8.802C11.1833 9.76087 12.375 11.6888 12.375 13.8334V13.875ZM8.625 12.375H6.375V10.875H8.625V12.375ZM6.375 13.125H7.125V13.875H6.375V13.125ZM7.875 13.125H8.625V13.875H7.875V13.125ZM2.625 14.625H12.375V15.375H2.625V14.625ZM10.125 22.875H7.875V18.375H10.125V22.875ZM7.125 22.875H4.875V18.375H7.125V22.875ZM10.875 22.875V17.625H4.125V22.875H2.625V16.125H12.375V22.875H10.875ZM16.875 21.6952V22.875H13.125V15.375H22.125V18.9206C21.6818 18.6296 21.1699 18.4493 20.625 18.3975V16.875H17.625V19.6035C17.4739 19.7899 17.3359 19.9894 17.2256 20.2103C16.9961 20.6693 16.875 21.1826 16.875 21.6952ZM19.875 18.3971C19.3301 18.4492 18.8183 18.6296 18.375 18.9202V17.625H19.875V18.3971ZM22.875 22.875H22.125V21.375H21.375V22.875H17.625V21.6952C17.625 21.2985 17.7188 20.901 17.8965 20.5459C18.3345 19.6695 19.2154 19.125 20.1953 19.125H20.3044C21.2843 19.125 22.1655 19.6695 22.6035 20.5459C22.7813 20.901 22.875 21.2985 22.875 21.6952V22.875Z" fill="#1A954F"/>
<path d="M13.875 19.875H16.875V16.875H13.875V19.875ZM14.625 17.625H16.125V19.125H14.625V17.625Z" fill="#1A954F"/>
<path d="M16.4993 13.875C17.1049 13.875 17.6494 13.5387 17.9202 12.9968L17.9596 12.9177L17.2887 12.582L17.2493 12.6615C17.1064 12.9473 16.8192 13.125 16.4993 13.125C16.1794 13.125 15.8922 12.9473 15.7493 12.6615L15.7099 12.5824L15.0391 12.918L15.0784 12.9968C15.3492 13.5387 15.8937 13.875 16.4993 13.875Z" fill="#1A954F"/>
<path d="M20.2493 13.875C20.8549 13.875 21.3994 13.5387 21.6702 12.9968L21.7096 12.9177L21.0387 12.582L20.9993 12.6615C20.8564 12.9473 20.5692 13.125 20.2493 13.125C19.9294 13.125 19.6422 12.9473 19.4993 12.6615L19.4599 12.5824L18.7891 12.918L18.8284 12.9968C19.0992 13.5387 19.6437 13.875 20.2493 13.875Z" fill="#1A954F"/>
<path d="M16.4993 11.625C17.1049 11.625 17.6494 11.2887 17.9202 10.7468L17.9596 10.6677L17.2887 10.332L17.2493 10.4115C17.1064 10.6973 16.8192 10.875 16.4993 10.875C16.1794 10.875 15.8922 10.6973 15.7493 10.4115L15.7099 10.3324L15.0391 10.668L15.0784 10.7468C15.3492 11.2887 15.8937 11.625 16.4993 11.625Z" fill="#1A954F"/>
<path d="M20.2493 11.625C20.8549 11.625 21.3994 11.2887 21.6702 10.7468L21.7096 10.6677L21.0387 10.332L20.9993 10.4115C20.8564 10.6973 20.5692 10.875 20.2493 10.875C19.9294 10.875 19.6422 10.6973 19.4993 10.4115L19.4599 10.3324L18.7891 10.668L18.8284 10.7468C19.0992 11.2887 19.6437 11.625 20.2493 11.625Z" fill="#1A954F"/>
<path d="M17.625 4.125C18.2452 4.125 18.75 3.62025 18.75 3C18.75 2.37975 18.2452 1.875 17.625 1.875C17.0048 1.875 16.5 2.37975 16.5 3C16.5 3.62025 17.0048 4.125 17.625 4.125ZM17.625 2.625C17.832 2.625 18 2.79338 18 3C18 3.20662 17.832 3.375 17.625 3.375C17.418 3.375 17.25 3.20662 17.25 3C17.25 2.79338 17.418 2.625 17.625 2.625Z" fill="#1A954F"/>
</svg>
