<svg width="704" height="356" viewBox="0 0 704 356" fill="none" xmlns="http://www.w3.org/2000/svg">
<path d="M350.253 120.652C350.253 120.652 341.184 125.327 339.124 124.735C337.064 124.143 329.253 122.646 328.137 123.176C328.137 123.176 326.878 125.327 327.822 126.761C328.766 128.195 336.377 132.028 339.124 132.184C341.87 132.309 352.313 130.252 354.516 128.382L350.253 120.652Z" fill="#FB847D"/>
<path d="M328.424 123.208C328.424 123.208 324.933 121.618 323.789 123.395C322.644 125.171 321.986 126.948 322.129 127.852C322.272 128.756 324.618 129.161 325.563 128.444C326.507 127.727 328.853 126.761 328.853 126.761L328.424 123.208Z" fill="#FB847D"/>
<path d="M332.944 125.295C332.944 125.295 336.978 143.062 342.958 156.34C344.618 160.08 346.449 163.446 348.394 165.971C349.338 167.186 350.283 168.215 351.255 168.994C361.441 177.067 377.52 164.194 377.52 164.194C378.092 156.371 365.103 143.249 356.777 135.425C353.516 132.339 350.969 130.095 350.254 129.285C348.881 127.726 345.934 126.76 342.872 126.199C338.037 125.264 332.944 125.295 332.944 125.295Z" fill="#AA4B47"/>
<path d="M311.715 344.85C311.715 344.85 313.632 348.248 313.689 352.206C313.689 353.079 313.031 353.796 312.23 353.796H300.214C299.041 353.796 298.182 352.611 298.468 351.365C299.041 348.965 300.214 345.349 302.617 343.136C306.48 339.614 311.715 344.85 311.715 344.85Z" fill="#060632"/>
<path d="M330.741 341.359C330.741 341.359 331.428 353.515 333.602 353.671C333.888 353.702 344.532 353.702 344.532 353.702H358.265C358.265 353.702 358.036 350.056 354.059 349.276C350.082 348.528 343.416 345.474 341.013 339.739C338.495 333.754 330.741 341.359 330.741 341.359Z" fill="#060632"/>
<path d="M324.991 266.305C325.477 273.068 325.534 278.367 324.905 280.923C322.072 292.237 330.026 343.23 330.026 343.23C335.891 346.284 344.217 343.199 344.217 343.199C343.702 336.123 346.792 272.85 349.653 234.263C350.855 218.055 351.742 206.709 351.742 206.709L316.636 202.252C316.636 202.283 323.331 242.865 324.991 266.305Z" fill="#FA7269"/>
<path d="M316.636 202.285C316.636 202.285 323.331 242.867 324.991 266.306L349.653 234.264C350.855 218.056 351.742 206.711 351.742 206.711L316.636 202.285Z" fill="#FA7269"/>
<path d="M333.86 210.917C333.86 210.917 316.092 323.656 313.031 345.474C313.031 345.474 306.365 347.5 299.584 344.352C299.584 344.352 298.697 291.957 301.043 276.185C303.36 260.414 299.813 211.634 303.561 207.083C307.28 202.564 333.86 210.917 333.86 210.917Z" fill="#FB8780"/>
<path d="M332.029 114.792C332.029 114.792 333.402 124.797 332.801 127.789C332.2 130.781 323.073 132.402 319.24 129.94C315.406 127.477 316.579 126.542 316.579 126.542C316.579 126.542 317.151 115.072 317.695 114.262C318.238 113.451 332.029 114.792 332.029 114.792Z" fill="#FC9290"/>
<path d="M301.472 212.506C301.472 212.506 304.047 214.158 310.485 215.53C315.206 216.558 322.044 217.431 331.485 217.431C348.738 217.431 354.402 212.07 354.402 212.07C355.318 212.101 351.141 185.95 351.141 163.665C351.141 143.031 345.59 127.602 336.034 125.794C334.175 125.451 332.916 125.233 332.916 125.296C332.916 126.979 330.455 130.127 326.679 130.376C322.187 130.688 316.636 128.101 316.636 125.296C316.636 125.171 306.193 125.857 302.846 146.771C301.701 153.909 301.386 163.353 302.617 175.945C303.046 180.278 300.042 212.475 301.472 212.506Z" fill="#AA4B47"/>
<path d="M301.472 212.507C301.472 212.507 304.047 214.159 310.485 215.53C319.411 211.229 337.093 200.102 337.78 181.431C338.695 156.59 310.857 141.815 310.857 141.815C310.857 141.815 307.137 144.091 302.846 146.74C301.701 153.878 301.386 163.322 302.617 175.914C303.046 180.278 300.042 212.476 301.472 212.507Z" fill="#9E332E"/>
<path d="M332.172 115.945C332.172 115.945 328.624 121.399 324.876 121.431C321.128 121.493 317.294 116.038 317.294 116.038L332.172 115.945Z" fill="#FB847D"/>
<path d="M332.514 115.664C331.542 116.506 329.339 117.659 327.536 118.438C326.163 119.03 324.675 119.062 323.302 118.532C321.242 117.752 318.095 116.537 317.322 116.007C315.434 114.76 315.577 112.267 315.462 108.776C315.348 104.661 314.976 101.42 315.377 99.0199C315.892 96.1835 317.522 94.5627 322.186 94.1264C330.712 93.316 334.26 95.6537 334.403 98.7394C334.431 99.5809 334.489 100.36 334.489 101.139C334.832 110.833 334.145 114.262 332.514 115.664Z" fill="#FC9290"/>
<path d="M334.46 99.8929C334.46 99.8929 333.058 97.6488 330.455 98.5215C327.822 99.3943 327.565 101.825 323.073 101.451C318.581 101.046 317.523 98.7397 316.721 99.8929C315.92 101.046 315.463 107.872 315.463 107.872C315.463 107.872 306.45 85.4929 324.704 85.4929C324.704 85.4929 343.501 84.2461 334.46 106.999V99.8929Z" fill="#12123C"/>
<path d="M367.621 121.088C367.592 121.12 367.621 121.088 367.621 121.088V121.088Z" fill="#FC9290"/>
<path d="M377.435 89.1397C377.578 88.7657 377.692 88.5164 377.692 88.5164C377.606 88.6722 377.52 88.8904 377.435 89.1397Z" fill="#E75755"/>
<path d="M325.591 189.878C325.591 189.878 327.966 191.935 331.485 191.935C331.485 191.935 335.062 187.665 338.037 183.52C339.983 180.839 341.699 178.221 342.043 176.849C342.93 173.39 359.695 172.423 361.755 169.961C363.815 167.53 353.43 161.39 353.43 161.39C353.43 161.39 336.406 164.226 333.86 167.873C332.83 169.338 331.313 173.109 329.883 177.13C327.68 183.208 325.591 189.878 325.591 189.878Z" fill="#FB847D"/>
<path d="M349.424 139.041C349.424 139.041 346.191 132.215 344.617 132.434C343.015 132.621 348.279 146.553 348.766 153.317C349.224 160.081 349.424 139.041 349.424 139.041Z" fill="#9E332E"/>
<path d="M339.325 186.013C341.556 191.904 344.475 197.296 344.818 197.982C344.847 198.044 344.847 198.044 344.847 198.044C344.847 198.044 344.875 198.044 344.904 198.044C345.448 198.044 350.111 197.919 350.569 195.893C350.569 195.893 350.712 188.818 350.454 183.208C350.34 180.683 350.14 178.47 349.825 177.317C349.825 177.317 375.174 177.13 374.716 169.337C374.259 161.514 361.012 157.4 353.401 161.452C353.401 161.452 343.302 165.441 337.98 170.74C335.405 173.265 337.007 179.935 339.325 186.013Z" fill="#FC9290"/>
<path d="M374.001 158.335C374.001 158.335 377.377 163.727 376.576 168.777C375.775 173.826 366.162 176.507 359.438 176.818C359.438 176.818 340.183 172.018 343.159 163.634C343.817 161.764 374.001 158.335 374.001 158.335Z" fill="#17135D"/>
<path d="M366.992 91.9755C366.992 91.9755 370.053 84.9624 377.435 89.1391C384.816 93.3157 377.635 109.212 381.497 113.139C385.388 117.067 380.095 119.654 380.868 122.459C381.669 125.264 379.409 128.474 374.23 128.1C369.052 127.726 363.616 128.038 361.269 123.113C358.923 118.189 359.467 107.342 360.354 105.815C361.298 104.256 366.992 91.9755 366.992 91.9755Z" fill="#A83F3F"/>
<path d="M355.003 129.347L367.564 121.088C367.506 121.056 367.249 120.651 366.305 117.69C365.904 116.412 365.704 115.321 365.589 114.449C365.589 114.355 365.561 114.293 365.561 114.199C365.418 112.921 365.532 112.204 365.532 112.204L362.786 113.295L357.693 115.29C357.75 116.693 357.578 117.69 357.292 118.376C356.634 120.028 355.375 120.028 355.347 120.028L355.003 129.347Z" fill="#FC9290"/>
<path d="M357.293 118.407C362.214 118.874 364.989 115.352 365.59 114.48C365.676 114.355 365.733 114.293 365.733 114.293C365.733 114.293 365.676 114.261 365.562 114.23C365.161 114.106 364.074 113.732 362.786 113.326L357.694 115.321C357.751 116.724 357.579 117.721 357.293 118.407Z" fill="#FB8A82"/>
<path d="M357.063 116.475C357.063 116.475 367.993 117.784 368.222 109.742C368.451 101.7 370.053 97.9914 362.499 97.2745C354.946 96.5576 353.144 99.5187 352.715 102.262C351.284 110.74 353.973 116.101 357.063 116.475Z" fill="#FC9290"/>
<path d="M361.899 101.201C365.762 100.141 364.302 107.591 365.275 107.092C366.362 106.531 368.251 106.531 367.965 107.965C367.678 109.398 367.249 109.928 367.02 110.801C366.792 111.705 367.02 113.482 367.907 113.108C368.794 112.765 377.177 102.354 371.255 94.2503C365.361 86.1463 347.737 91.1334 353.287 99.6113C354.26 101.107 359.152 101.949 361.899 101.201Z" fill="#A83F3F"/>
<path d="M347.851 161.389C347.851 161.389 351.141 163.29 356.32 163.197C359.61 163.134 366.62 161.576 371.111 159.799C373.686 158.802 375.432 157.711 375.203 156.807C374.888 155.498 372.714 145.524 370.682 136.298C368.823 127.851 367.106 120.027 367.106 120.027C367.106 120.027 361.985 123.986 359.009 122.583C356.034 121.181 356.405 119.591 356.405 119.591C356.405 119.591 352.886 119.124 351.942 119.248C350.426 119.435 345.047 121.586 345.047 121.586C345.047 121.586 344.332 123.737 346.22 127.134C347.765 129.939 349.281 130.469 349.281 130.469C349.281 130.469 344.875 145.586 347.851 161.389Z" fill="#010117"/>
<path d="M364.302 147.924C364.302 147.924 361.155 147.269 359.896 148.173C358.666 149.046 358.294 150.417 359.181 151.01C361.956 152.786 364.788 150.823 364.788 150.823L364.302 147.924Z" fill="#FC9290"/>
<path d="M371.111 159.83C373.686 158.833 375.432 157.742 375.203 156.838C374.888 155.529 372.714 145.555 370.682 136.329C370.081 135.144 369.709 134.427 369.709 134.427C369.709 134.427 365.847 153.596 371.111 159.83Z" fill="#BED2FA"/>
<path d="M366.992 121.119C366.992 121.119 376.72 123.363 380.553 139.82C380.925 141.441 380.553 143.155 379.523 144.402C377.75 146.521 373.859 149.638 364.817 150.792C363.816 150.916 363.702 148.173 363.702 148.173C363.787 148.392 369.853 143.934 372.428 141.503C372.886 141.067 372.886 140.163 372.542 139.602C371.684 138.168 370.225 135.643 369.739 134.365C368.995 132.527 364.274 121.991 366.992 121.119Z" fill="#FC9290"/>
<path d="M367.106 120.059C367.106 120.059 372.829 120.495 377.492 127.29C377.492 127.29 375.919 133.524 368.508 135.176C368.508 135.176 363.931 123.955 367.106 120.059Z" fill="#010117"/>
<path d="M339.324 186.013C341.556 191.904 344.474 197.296 344.818 197.982C344.846 198.013 344.875 198.044 344.903 198.044C345.447 198.044 350.111 197.92 350.568 195.894C350.568 195.894 350.711 188.818 350.454 183.208C349.739 183.956 346.877 186.294 339.324 186.013Z" fill="#3A49CD"/>
<path d="M325.591 189.878C325.591 189.878 327.966 191.935 331.485 191.935C331.485 191.935 335.062 187.665 338.037 183.52C334.661 181.93 331.085 178.408 329.854 177.161C327.68 183.208 325.591 189.878 325.591 189.878Z" fill="#3A49CD"/>
<path d="M337.665 205.681C337.78 206.336 338.352 206.741 338.953 206.616C340.355 206.304 342.873 205.712 343.931 205.307C345.419 204.715 348.28 202.876 349.768 202.284C350.283 202.065 351.513 201.535 352.314 201.193C352.743 201.006 352.972 200.507 352.829 200.039C352.572 199.042 352.057 197.359 351.313 195.956C351.17 195.707 350.969 195.489 350.683 195.364C349.911 196.05 348.681 196.767 347.05 196.798C345.705 196.798 344.618 196.455 343.788 196.05C343.674 196.268 341.642 200.725 340.212 201.317C338.953 201.785 337.236 203.125 337.665 205.681Z" fill="#17135D"/>
<path d="M316.408 189.909C316.121 190.501 316.35 191.218 316.894 191.499C318.181 192.185 320.499 193.431 321.558 193.837C323.074 194.366 326.336 194.865 327.852 195.395C328.367 195.582 329.654 195.987 330.456 196.237C330.885 196.361 331.342 196.143 331.514 195.676C331.857 194.709 332.43 193.057 332.659 191.468C332.716 191.187 332.659 190.875 332.516 190.564C331.514 190.564 330.141 190.346 328.853 189.255C327.795 188.351 327.137 187.322 326.708 186.449C326.507 186.574 322.359 188.694 320.928 188.164C319.641 187.727 317.523 187.634 316.408 189.909Z" fill="#17135D"/>
<path d="M336.921 180.995C336.921 180.995 337.637 185.608 340.412 187.727C340.412 187.727 351.57 186.044 361.956 183.176C369.595 181.088 376.805 178.314 378.894 175.135C383.786 167.592 376.347 158.397 376.347 158.397C376.347 158.397 362.013 165.94 346.506 175.166C343.302 177.067 340.069 179.031 336.921 180.995Z" fill="#AA4B47"/>
<path d="M353.688 187.728C353.688 187.728 357.006 188.008 358.265 189.379C359.524 190.751 361.413 194.709 360.068 196.299C358.723 197.889 352.257 194.429 352.085 193.868C351.914 193.276 353.688 187.728 353.688 187.728Z" fill="#FC9290"/>
<path d="M336.921 180.995C336.921 180.995 337.637 185.608 340.412 187.727C340.412 187.727 351.57 186.044 361.956 183.176C357.063 178.563 350.683 176.257 346.506 175.166C343.302 177.067 340.069 179.031 336.921 180.995Z" fill="#9E332E"/>
<path d="M354.145 186.481C338.552 174.138 327.508 169.649 327.194 169.681C325.219 160.673 323.417 146.678 315.949 125.358C315.949 125.358 301.272 125.576 299.04 131.343C295.865 139.602 293.547 166.345 317.809 183.613C317.952 183.707 318.095 183.831 318.267 183.956C318.324 184.018 318.41 184.049 318.467 184.112C325.963 188.912 352.829 195.364 352.829 195.364C355.776 191.343 354.145 186.481 354.145 186.481Z" fill="#AA4B47"/>
<path d="M403.699 118.439C403.613 117.878 402.383 111.737 393.685 112.797C393.685 112.797 398.006 112.672 399.036 114.605C399.036 114.605 395.803 112.548 393.542 113.732C391.282 114.916 390.51 119.654 390.681 121.119C390.853 122.615 392.798 127.166 394.372 127.353C394.973 127.415 395.602 127.259 396.175 127.072C395.86 127.82 395.574 128.631 395.316 129.504C392.884 137.763 397.462 144.745 400.266 143.467C402.068 142.626 403.07 146.023 403.07 146.023L419.149 127.072C419.149 127.072 410.451 113.046 403.699 118.439Z" fill="#12123C"/>
<path d="M424.642 346.627L420.722 348.217C420.722 348.217 403.727 322.565 401.639 299.967C401.267 295.946 401.381 292.019 402.211 288.435C402.211 288.435 402.039 287.406 401.753 285.567C401.61 284.726 401.467 283.697 401.267 282.513C400.723 279.053 399.951 274.346 399.093 268.985C397.09 256.642 394.515 240.84 392.483 229.213L393.542 228.839L404.929 224.819L407.275 216.652L415.773 214.221C415.773 214.221 417.661 218.273 419.378 237.349C419.692 239.842 419.978 242.616 420.179 245.608C420.837 254.741 420.894 266.086 419.378 279.053C418.977 282.357 418.491 285.785 417.89 289.307C417.432 291.894 417.375 295.416 417.575 299.437C418.433 317.952 424.642 346.627 424.642 346.627Z" fill="#17135D"/>
<path d="M420.208 245.64L401.782 285.567C401.639 284.726 401.496 283.697 401.296 282.513C400.752 279.053 399.98 274.346 399.121 268.985C397.119 256.642 394.544 240.84 392.512 229.213L393.571 228.839L404.958 224.819L407.304 216.652L415.801 214.221C415.801 214.221 417.69 218.273 419.406 237.349C419.693 239.904 419.979 242.647 420.208 245.64Z" fill="#0D0D38"/>
<path d="M412.082 219.395C412.082 219.395 412.082 219.426 412.054 219.489C411.996 219.738 411.825 220.548 411.567 221.702C410.337 227.187 407.362 240.528 407.161 240.528C405.53 253.027 403.041 269.235 399.98 281.702C398.349 288.279 396.575 293.827 394.63 297.224C393.972 298.378 393.256 300.341 392.484 302.804C388.049 317.422 382.584 350.461 382.584 350.461L380.095 351.552C380.095 351.552 370.511 321.848 378.808 297.723C379.666 295.261 380.696 292.861 381.926 290.554C382.069 290.274 382.155 289.993 382.127 289.681C382.012 288.684 381.755 286.159 381.44 282.637C380.582 272.881 379.781 239.904 379.351 232.143C379.18 229.213 379.294 226.595 379.552 224.258C380.095 219.738 381.268 216.341 382.441 213.972C383.929 210.98 385.36 209.608 385.36 209.608C385.36 209.608 404.472 217.463 411.596 215.374L412.082 219.395Z" fill="#17135D"/>
<path d="M412.054 221.359C411.911 221.483 411.739 221.608 411.567 221.702C404.987 225.909 381.869 224.413 379.609 224.257C380.152 219.738 381.326 216.341 382.499 213.972C392.369 214.938 408.763 216.87 412.054 219.457C412.826 220.081 412.883 220.704 412.054 221.359Z" fill="#0B0754"/>
<path d="M448.933 212.849L447.76 216.59C447.76 216.59 447.531 216.559 447.131 216.434C445.872 216.091 442.782 215.281 439.32 214.19C434.113 212.569 427.99 210.325 425.758 208.143C422.354 204.87 417.375 195.862 414.6 187.291C414.514 187.073 414.457 186.886 414.4 186.667C412.969 182.117 412.14 177.753 412.569 174.449C412.826 172.423 413.313 170.771 413.914 169.337C414.743 167.467 415.802 166.065 416.832 165.067C416.975 164.911 417.118 164.724 417.318 164.6C419.006 163.073 420.208 162.013 420.208 162.013C420.952 161.826 421.953 162.917 422.583 163.976C422.583 163.976 423.613 166.096 424.042 167.623C424.07 167.654 424.099 167.686 424.07 167.717C424.156 168.028 424.271 168.371 424.385 168.745C424.442 168.808 424.442 168.932 424.471 168.995C424.671 169.774 424.872 170.615 425.043 171.457C427.218 180.652 428.906 194.304 431.452 198.761C432.539 200.694 438.261 205.151 442.839 208.548C446.215 211.01 448.933 212.849 448.933 212.849Z" fill="#FB8A82"/>
<path d="M418.291 171.021C416.231 172.486 413.627 173.67 410.423 174.387C398.349 177.036 394.057 165.847 392.512 158.242C394.172 157.275 395.717 157.088 396.604 156.995C397.462 156.901 398.377 156.87 399.15 156.839C400.523 155.748 402.64 151.229 403.27 144.091L403.842 144.278L413.226 147.395C413.226 147.395 412.711 150.667 412.425 153.753C412.196 156.153 412.111 158.491 412.511 159.052C413.255 159.239 413.684 159.364 413.684 159.364C413.799 159.613 416.402 164.6 418.291 171.021Z" fill="#FC9290"/>
<path d="M422.496 179.218C422.439 179.498 422.382 179.779 422.296 180.06C420.179 187.758 418.462 218.616 418.462 218.616C419.978 223.883 381.182 223.416 380.438 218.553C378.407 213.566 383.385 204.247 386.246 199.54C386.618 198.948 386.904 198.325 387.162 197.67C387.82 196.049 388.134 194.273 388.049 192.496C387.791 185.452 386.675 178.969 386.189 175.01C386.79 174.356 387.362 173.763 387.905 173.202C388.735 172.33 389.45 171.519 389.965 170.709C390.538 169.836 390.824 168.995 390.767 168.122C390.709 167.467 390.595 166.782 390.452 166.127C390.395 165.815 390.309 165.504 390.223 165.192C389.307 161.919 387.619 159.052 387.619 159.052C390.681 157.088 396.603 157.026 396.603 157.026C396.603 157.026 396.632 157.368 396.718 157.961C397.004 160.267 397.805 166.189 398.635 167.218C399.665 168.496 416.03 172.143 416.602 170.117C417.174 168.122 413.77 159.737 413.655 159.426C419.149 160.828 421.266 162.418 421.266 162.418C418.433 165.036 423.984 171.831 422.496 179.218Z" fill="#17135D"/>
<path d="M413.227 147.394C413.227 147.394 412.712 150.636 412.426 153.753C407.075 153.005 404.758 147.363 403.871 144.309L413.227 147.394Z" fill="#FB8A82"/>
<path d="M414.744 150.512C414.744 150.512 402.069 149.358 402.842 140.756C403.614 132.153 402.498 126.231 410.652 126.605C418.778 126.979 420.065 130.439 420.437 133.369C420.809 136.298 418.063 150.574 414.744 150.512Z" fill="#FC9290"/>
<path d="M420.493 128.537C418.777 125.732 417.232 126.137 416.345 126.823C409.793 121.929 404.786 127.571 404.786 127.571C403.384 133.649 398.978 136.735 398.978 136.735C398.978 136.735 401.152 138.543 406.589 137.639C408.248 137.358 409.822 136.267 411.195 134.865C408.677 138.574 405.501 141.067 405.501 141.067C412.139 138.574 415.601 129.223 415.944 128.226C416.66 129.067 418.033 130.875 418.348 132.527C418.777 134.771 418.634 139.322 419.864 139.291C419.807 139.291 423.068 132.745 420.493 128.537Z" fill="#12123C"/>
<path d="M406.904 210.169C399.408 211.26 391.94 203.811 387.162 197.639C387.82 196.018 388.135 194.242 388.049 192.465C387.792 185.421 386.676 178.938 386.189 174.979C386.79 174.325 387.362 173.733 387.906 173.171C388.736 172.299 389.451 171.488 389.966 170.678C397.634 180.995 417.061 208.673 406.904 210.169Z" fill="#0D0D38"/>
<path d="M433.053 212.974L434.369 217.868C434.369 217.868 431.022 217.026 428.933 216.808C428.304 216.746 427.932 216.683 427.932 216.683C426.244 216.496 424.241 216.185 422.038 215.873H422.009C418.233 215.25 414.027 214.502 410.451 213.535C407.933 212.85 405.73 212.039 404.213 211.198C404.07 211.104 403.927 211.042 403.784 210.917C400.122 208.517 395.373 200.881 391.51 192.559C390.967 191.405 390.452 190.252 389.965 189.161C388.134 184.985 386.618 180.87 385.645 177.286C385.016 175.135 384.586 173.172 384.386 171.551C384.3 170.99 384.243 170.429 384.214 169.93C384.186 169.618 384.186 169.338 384.157 169.057C385.645 167.655 389.05 165.005 393.713 165.286C393.799 165.473 393.914 165.66 393.999 165.847C396.002 169.836 398.205 175.01 400.294 180.216C401.438 183.052 402.554 185.888 403.67 188.507C404.299 190.096 404.929 191.592 405.501 192.964C406.617 195.582 407.618 197.67 408.476 198.979C409.02 199.821 410.479 200.974 412.396 202.19C415.715 204.372 420.522 206.928 424.699 208.985C426.444 209.857 428.075 210.637 429.42 211.291C431.623 212.289 433.053 212.974 433.053 212.974Z" fill="#FB8A82"/>
<path d="M394 165.815C388.192 164.662 384.186 169.899 384.186 169.899C383.528 160.579 387.677 158.927 387.677 158.927C389.336 157.961 391.568 161.015 394 165.815Z" fill="#17135D"/>
<path d="M394.601 353.765H374.917C374.917 353.765 374.43 350.492 375.46 348.029C376.433 345.661 377.978 344.57 377.606 341.702C378.865 343.105 380.896 344.663 383.757 344.258C384.101 344.881 386.018 348.185 387.162 349.089C388.478 350.055 394.2 349.713 394.601 353.765Z" fill="#0D0D38"/>
<path d="M436.888 353.765H417.204C417.204 353.765 416.46 350.336 417.747 348.03C418.892 345.973 418.462 344.788 417.604 343.105C418.491 343.51 419.664 343.853 420.923 343.791C421.896 343.728 422.954 343.23 423.841 342.669C424.7 343.728 428.305 348.217 429.449 349.09C430.736 350.056 436.487 349.713 436.888 353.765Z" fill="#0D0D38"/>
<path d="M411.71 145.524C411.71 145.524 411.882 146.677 414.457 146.677C414.457 146.677 416.603 146.677 416.632 145.431C416.632 145.431 414.6 144.433 411.71 145.524Z" fill="white"/>
<path d="M478.031 181.618C477.201 181.275 476.171 185.109 475.542 185.233C474.912 185.358 475.17 184.174 474.597 183.987C474.025 183.8 473.768 187.104 474.197 188.382C474.655 189.659 474.569 191.156 474.569 191.156C474.569 191.156 470.763 207.176 469.934 208.984C469.104 210.792 455.686 223.821 455.686 223.821L458.632 234.2C458.632 234.2 474.454 218.273 475.799 214.532C477.144 210.792 477.745 191.561 477.745 191.561C477.745 191.561 478.918 188.787 479.175 186.013C479.461 183.27 478.86 181.992 478.031 181.618Z" fill="#FC9290"/>
<path d="M436.974 222.699C436.974 222.699 427.675 209.577 423.126 205.493C423.126 205.493 416.918 188.849 416.431 187.758C416.403 187.696 416.374 187.665 416.345 187.634C416.288 187.26 416.059 185.857 416.288 184.579C416.574 183.083 415.687 179.467 415.087 179.81C414.486 180.122 414.972 181.4 414.257 181.369C413.513 181.337 411.711 177.317 410.852 177.878C409.994 178.439 409.536 179.997 410.337 183.021C410.995 185.545 412.34 187.914 412.769 188.662C412.741 188.662 412.741 188.693 412.741 188.693C412.741 188.693 415.029 204.87 417.404 209.67C419.807 214.47 427.246 230.553 432.511 231.177C437.718 231.738 436.974 222.699 436.974 222.699Z" fill="#FC9290"/>
<path d="M465.07 346.253C465.07 346.253 466.128 348.497 468.446 349.027C469.905 349.37 471.164 350.211 471.965 351.364C472.623 352.362 471.993 353.733 470.878 353.733H459.061C458.06 353.733 457.259 352.798 457.373 351.707C457.459 350.741 457.545 349.65 457.602 348.777C457.688 346.907 459.405 345.411 459.405 345.411L465.07 346.253Z" fill="#ED6966"/>
<path d="M465.356 346.814C465.356 346.814 462.524 348.653 457.717 347.531C457.717 347.531 449.563 324.809 449.076 314.086C449.048 313.65 449.048 313.245 449.048 312.871C449.22 302.803 440.693 276.59 442.982 271.229C445.271 265.868 463.868 273.629 463.868 273.629L464.24 291.894L465.356 346.814Z" fill="#1C1860"/>
<path d="M464.24 291.925L449.076 314.117C449.048 313.681 449.048 313.276 449.048 312.902C449.22 302.834 440.693 276.621 442.982 271.26C445.271 265.899 463.868 273.66 463.868 273.66L464.24 291.925Z" fill="#12123C"/>
<path d="M434.542 346.253C434.542 346.253 435.601 348.497 437.918 349.027C439.377 349.37 440.636 350.211 441.437 351.364C442.095 352.362 441.466 353.733 440.35 353.733H428.534C427.533 353.733 426.731 352.798 426.846 351.707C426.932 350.741 427.018 349.65 427.075 348.777C427.161 346.907 428.877 345.411 428.877 345.411L434.542 346.253Z" fill="#ED6966"/>
<path d="M452.996 274.096C452.996 274.096 436.573 340.892 436.058 347.437C436.058 347.437 432.854 349.214 427.647 346.066C427.647 346.066 424.614 316.143 427.647 307.946C430.679 299.78 427.046 275.031 434.742 269.452C442.439 263.873 452.996 274.096 452.996 274.096Z" fill="#1C1860"/>
<path d="M454.97 221.172L444.871 226.782L442.839 219.146C442.839 219.146 444.127 216.496 444.699 212.195C444.928 210.387 445.071 208.268 444.899 205.93L453.111 210.512C453.111 210.512 452.91 211.354 452.796 212.569C452.653 213.878 452.596 215.655 452.939 217.369C453.254 218.803 453.855 220.174 454.97 221.172Z" fill="#FC9290"/>
<path d="M463.353 230.834C463.41 229.93 468.446 226.19 468.446 226.19C469.504 219.239 465.442 214.252 465.442 214.252L459.348 218.958C458.175 219.021 457.66 219.488 457.66 219.488C456.658 219.208 453.654 219.457 453.654 219.457C453.711 221.047 453.311 222.512 450.764 222.886C447.388 223.353 444.356 220.86 442.811 219.145C442.811 219.145 440.751 218.958 438.176 219.862C438.176 219.862 436.917 219.177 435.601 219.114L430.622 214.252C430.622 214.252 424.786 216.091 423.87 225.66C423.87 225.66 430.422 231.083 430.88 235.385L431.051 237.005L431.681 242.772L432.797 252.87L429.478 272.974C429.449 273.161 429.421 273.317 429.421 273.504C429.421 274.845 430.279 276.06 431.509 276.372C431.509 276.372 431.795 276.434 432.31 276.496C435.829 277.026 450.135 278.896 461.379 275.561C463.897 274.813 465.556 272.195 465.356 269.359L462.981 236.912C463.067 236.943 463.296 231.769 463.353 230.834Z" fill="#AA4B47"/>
<path d="M436.945 261.348C436.716 268.361 436.086 274.315 432.396 276.528C431.881 276.434 431.594 276.403 431.594 276.403C430.364 276.091 429.506 274.876 429.506 273.535C429.506 273.348 429.534 273.193 429.563 273.006L432.882 252.902L431.766 242.803C431.823 242.616 431.852 242.522 431.852 242.522C431.852 242.522 437.231 252.34 436.945 261.348Z" fill="#9E332E"/>
<path d="M452.967 217.338C448.304 217.213 444.728 212.195 444.728 212.195L452.824 212.569C452.681 213.878 452.624 215.655 452.967 217.338Z" fill="#FB8A82"/>
<path d="M455.227 214.501C455.227 214.501 445.9 217.182 442.696 209.109C439.234 200.382 443.039 194.054 446.186 193.618C452.509 192.777 456.171 195.395 457.287 198.169C458.403 200.943 460.377 213.068 455.227 214.501Z" fill="#FC9290"/>
<path d="M451.537 209.951C451.537 209.951 451.937 211.01 454.398 210.418C454.398 210.418 456.458 209.919 456.229 208.735C456.229 208.735 454.083 208.236 451.537 209.951Z" fill="white"/>
<path d="M444.355 211.946C444.355 211.946 443.268 208.455 443.383 206.585C443.383 206.585 440.951 203.218 442.381 202.377C443.812 201.535 444.556 203.53 444.899 203.156C445.214 202.751 445.729 196.112 447.445 196.33C449.162 196.548 455.542 198.699 458.317 196.081C461.121 193.463 454.34 183.208 442.868 187.166C431.395 191.094 433.741 204.995 444.355 211.946Z" fill="#12123C"/>
<path d="M437.202 192.59C437.202 192.59 436.687 190.907 437.23 189.691C437.23 189.691 437.259 191.343 437.86 192.091C438.46 192.839 437.202 192.59 437.202 192.59Z" fill="#12123C"/>
<path d="M437.431 191.405C437.431 191.405 436 191.218 435.342 192.434C435.342 192.434 436.344 191.686 437.345 192.465L437.431 191.405Z" fill="#12123C"/>
<path d="M433.054 212.974C433.054 212.974 438.834 214.283 439.349 214.938C439.864 215.624 443.497 220.299 441.838 220.86C440.15 221.421 437.317 219.27 436.402 218.803C435.486 218.335 434.399 217.899 434.399 217.899L433.054 212.974Z" fill="#FB8A82"/>
</svg>
