<svg width="72" height="84" viewBox="0 0 72 84" fill="none" xmlns="http://www.w3.org/2000/svg">
<path d="M19 39.6407H17V43.6407H19V39.6407ZM53 43.6407H55V39.6407H53V43.6407ZM19.0022 56.6297L17.0022 56.6275L16.9978 60.6275L18.9978 60.6297L19.0022 56.6297ZM52.9978 60.6667L54.9978 60.6688L55.0022 56.6688L53.0022 56.6667L52.9978 60.6667ZM19.0013 22.6518L17.0013 22.6505L16.9987 26.6505L18.9987 26.6518L19.0013 22.6518ZM41.6654 26.6667L43.6654 26.668L43.668 22.668L41.668 22.6667L41.6654 26.6667ZM53 2L54.4142 0.585786L53.8284 0H53V2ZM70 19H72V18.1716L71.4142 17.5858L70 19ZM19 43.6407H53V39.6407H19V43.6407ZM18.9978 60.6297L52.9978 60.6667L53.0022 56.6667L19.0022 56.6297L18.9978 60.6297ZM18.9987 26.6518L41.6654 26.6667L41.668 22.6667L19.0013 22.6518L18.9987 26.6518ZM64.3333 79.3333H7.66667V83.3333H64.3333V79.3333ZM4 75.6667V7.66667H0V75.6667H4ZM7.66667 4H53V0H7.66667V4ZM68 19V75.6667H72V19H68ZM51.5858 3.41421L68.5858 20.4142L71.4142 17.5858L54.4142 0.585786L51.5858 3.41421ZM7.66667 79.3333C5.64162 79.3333 4 77.6917 4 75.6667H0C0 79.9008 3.43248 83.3333 7.66667 83.3333V79.3333ZM64.3333 83.3333C68.5675 83.3333 72 79.9008 72 75.6667H68C68 77.6917 66.3584 79.3333 64.3333 79.3333V83.3333ZM4 7.66667C4 5.64162 5.64162 4 7.66667 4V0C3.43248 0 0 3.43249 0 7.66667H4Z" fill="#1A954F"/>
</svg>
