<svg width="209" height="307" viewBox="0 0 209 307" fill="none" xmlns="http://www.w3.org/2000/svg">
<path d="M60.7599 40.2031C60.7599 40.2031 50.3926 45.5474 48.0379 44.8705C45.6832 44.1935 36.7549 42.4833 35.4794 43.089C35.4794 43.089 34.0404 45.5474 35.1196 47.1863C36.1989 48.8252 44.8983 53.2076 48.0379 53.3857C51.1775 53.5282 63.1147 51.1767 65.6329 49.039L60.7599 40.2031Z" fill="#FB847D"/>
<path d="M35.807 43.1247C35.807 43.1247 31.8171 41.3077 30.5089 43.3385C29.2007 45.3693 28.4485 47.4002 28.612 48.4334C28.7755 49.4666 31.4573 49.9298 32.5365 49.1103C33.6158 48.2909 36.2976 47.1864 36.2976 47.1864L35.807 43.1247Z" fill="#FB847D"/>
<path d="M40.9751 45.5111C40.9751 45.5111 45.5864 65.8194 52.4217 80.9972C54.3185 85.2726 56.4116 89.1205 58.6355 92.0064C59.7147 93.3959 60.794 94.5717 61.9059 95.4624C73.5487 104.69 91.9286 89.9756 91.9286 89.9756C92.5827 81.0328 77.7349 66.0332 68.2179 57.0904C64.4896 53.5632 61.5789 50.9979 60.7613 50.0716C59.1915 48.2902 55.8229 47.1857 52.3235 46.5444C46.7965 45.4755 40.9751 45.5111 40.9751 45.5111Z" fill="#AA4B47"/>
<path d="M16.7079 296.479C16.7079 296.479 18.8991 300.363 18.9645 304.888C18.9645 305.885 18.2123 306.705 17.2966 306.705H3.56072C2.21983 306.705 1.23871 305.351 1.56575 303.926C2.21984 301.182 3.56072 297.049 6.3079 294.52C10.723 290.494 16.7079 296.479 16.7079 296.479Z" fill="#060632"/>
<path d="M38.4565 292.489C38.4565 292.489 39.2414 306.384 41.727 306.562C42.054 306.598 54.2201 306.598 54.2201 306.598H69.9182C69.9182 306.598 69.6566 302.429 65.1107 301.539C60.5647 300.684 52.9446 297.192 50.1974 290.636C47.3195 283.796 38.4565 292.489 38.4565 292.489Z" fill="#060632"/>
<path d="M31.8837 206.695C32.4396 214.427 32.5051 220.484 31.7856 223.405C28.5478 236.338 37.6396 294.627 37.6396 294.627C44.3441 298.118 53.8611 294.591 53.8611 294.591C53.2724 286.504 56.8045 214.177 60.0749 170.069C61.4485 151.542 62.4623 138.574 62.4623 138.574L22.334 133.479C22.334 133.514 29.9868 179.903 31.8837 206.695Z" fill="#FA7269"/>
<path d="M22.3335 133.516C22.3335 133.516 29.9863 179.904 31.8832 206.697L60.0744 170.071C61.448 151.544 62.4618 138.575 62.4618 138.575L22.3335 133.516Z" fill="#FA7269"/>
<path d="M42.0212 143.384C42.0212 143.384 21.7117 272.252 18.2124 297.192C18.2124 297.192 10.5922 299.508 2.84127 295.91C2.84127 295.91 1.82742 236.018 4.50919 217.99C7.15825 199.962 3.10287 144.203 7.38715 139.001C11.6387 133.835 42.0212 143.384 42.0212 143.384Z" fill="#FB8780"/>
<path d="M39.9279 33.5046C39.9279 33.5046 41.4977 44.9414 40.8109 48.3617C40.1241 51.7821 29.6914 53.6348 25.309 50.8201C20.9266 48.0054 22.2675 46.9366 22.2675 46.9366C22.2675 46.9366 22.9216 33.8253 23.5429 32.8989C24.1643 31.9726 39.9279 33.5046 39.9279 33.5046Z" fill="#FC9290"/>
<path d="M5.0002 145.2C5.0002 145.2 7.9436 147.088 15.3021 148.656C20.6983 149.832 28.5147 150.829 39.3072 150.829C59.028 150.829 65.5034 144.701 65.5034 144.701C66.55 144.737 61.7751 114.844 61.7751 89.37C61.7751 65.7838 55.4304 48.1477 44.5071 46.0812C42.3814 45.6893 40.9424 45.4399 40.9424 45.5112C40.9424 47.4351 38.1298 51.0336 33.8128 51.3186C28.6782 51.6749 22.3336 48.7177 22.3336 45.5112C22.3336 45.3686 10.3964 46.1525 6.56999 70.0593C5.26181 78.2182 4.90209 89.0137 6.30838 103.408C6.79894 108.36 3.36498 145.164 5.0002 145.2Z" fill="#AA4B47"/>
<path d="M5.0002 145.201C5.0002 145.201 7.9436 147.089 15.3021 148.657C25.5059 143.74 45.7172 131.02 46.5022 109.679C47.5487 81.283 15.7272 64.395 15.7272 64.395C15.7272 64.395 11.4757 66.9959 6.56999 70.0244C5.26181 78.1833 4.90209 88.9788 6.30838 103.373C6.79894 108.361 3.36498 145.165 5.0002 145.201Z" fill="#9E332E"/>
<path d="M40.0918 34.823C40.0918 34.823 36.0364 41.058 31.7521 41.0936C27.4678 41.1649 23.0854 34.9299 23.0854 34.9299L40.0918 34.823Z" fill="#FB847D"/>
<path d="M40.4831 34.5021C39.3712 35.464 36.8529 36.7823 34.7925 37.673C33.2227 38.3499 31.5221 38.3856 29.9523 37.7799C27.5976 36.8892 24.0001 35.4996 23.1171 34.894C20.9586 33.4688 21.1221 30.6185 20.9913 26.6281C20.8605 21.9251 20.4353 18.2198 20.8932 15.4764C21.4818 12.2342 23.346 10.3815 28.6768 9.88269C38.4228 8.95634 42.4781 11.6285 42.6416 15.1557C42.6743 16.1177 42.7397 17.0084 42.7397 17.8991C43.1322 28.9796 42.3473 32.8988 40.4831 34.5021Z" fill="#FC9290"/>
<path d="M42.7075 16.4743C42.7075 16.4743 41.105 13.909 38.1289 14.9066C35.1201 15.9042 34.8258 18.6833 29.6912 18.2557C24.5566 17.7925 23.3465 15.156 22.4308 16.4743C21.5151 17.7925 20.9918 25.5952 20.9918 25.5952C20.9918 25.5952 10.6899 0.0139017 31.5553 0.0139017C31.5553 0.0139017 53.0421 -1.41124 42.7075 24.5976V16.4743V16.4743Z" fill="#12123C"/>
<path d="M80.6132 40.7021C80.5804 40.7378 80.6132 40.7021 80.6132 40.7021V40.7021Z" fill="#FC9290"/>
<path d="M91.8311 4.18254C91.9946 3.755 92.1254 3.46997 92.1254 3.46997C92.0273 3.64811 91.9292 3.89751 91.8311 4.18254Z" fill="#E75755"/>
<path d="M32.5693 119.334C32.5693 119.334 35.2838 121.686 39.3065 121.686C39.3065 121.686 43.3945 116.805 46.7958 112.066C49.0197 109.002 50.9819 106.009 51.3744 104.442C52.3882 100.487 71.553 99.3823 73.9078 96.5676C76.2625 93.7886 64.3908 86.7698 64.3908 86.7698C64.3908 86.7698 44.9316 90.012 42.0209 94.1805C40.8436 95.8551 39.1102 100.166 37.475 104.762C34.9568 111.71 32.5693 119.334 32.5693 119.334Z" fill="#FB847D"/>
<path d="M59.8121 61.2242C59.8121 61.2242 56.1165 53.4215 54.3178 53.6709C52.4863 53.8847 58.5039 69.8106 59.0599 77.542C59.5832 85.2734 59.8121 61.2242 59.8121 61.2242Z" fill="#9E332E"/>
<path d="M48.2683 114.916C50.8193 121.65 54.1552 127.814 54.5476 128.598C54.5803 128.669 54.5803 128.669 54.5803 128.669C54.5803 128.669 54.613 128.669 54.6457 128.669C55.2671 128.669 60.5979 128.526 61.1212 126.21C61.1212 126.21 61.2847 118.123 60.9904 111.71C60.8596 108.824 60.6306 106.294 60.2709 104.976C60.2709 104.976 89.247 104.762 88.7238 95.8549C88.2005 86.9122 73.0583 82.2092 64.3589 86.8409C64.3589 86.8409 52.8143 91.4014 46.7312 97.4582C43.7878 100.344 45.6193 107.969 48.2683 114.916Z" fill="#FC9290"/>
<path d="M87.906 83.2778C87.906 83.2778 91.7652 89.4416 90.8494 95.2134C89.9337 100.985 78.945 104.049 71.2595 104.406C71.2595 104.406 49.2494 98.9188 52.6506 89.3347C53.4028 87.197 87.906 83.2778 87.906 83.2778Z" fill="#17135D"/>
<path d="M79.8932 7.42403C79.8932 7.42403 83.3925 -0.592417 91.8303 4.18181C100.268 8.95604 92.0592 27.1266 96.4743 31.6158C100.922 36.105 94.8718 39.0622 95.7548 42.2688C96.6705 45.4754 94.0869 49.1451 88.1674 48.7175C82.2479 48.29 76.034 48.6463 73.3523 43.017C70.6705 37.3877 71.2919 24.9889 72.3057 23.2431C73.3849 21.4617 79.8932 7.42403 79.8932 7.42403Z" fill="#A83F3F"/>
<path d="M66.1899 50.1428L80.5472 40.7013C80.4818 40.6656 80.1874 40.2025 79.1082 36.8178C78.6503 35.357 78.4214 34.11 78.2906 33.1124C78.2906 33.0055 78.2579 32.9342 78.2579 32.8274C78.0944 31.3666 78.2252 30.5471 78.2252 30.5471L75.0855 31.7941L69.2642 34.0744C69.3296 35.6776 69.1333 36.8178 68.8063 37.6016C68.0541 39.4899 66.6151 39.4899 66.5824 39.4899L66.1899 50.1428Z" fill="#FC9290"/>
<path d="M68.8071 37.637C74.4323 38.1715 77.6046 34.1455 78.2914 33.1479C78.3895 33.0053 78.4549 32.9341 78.4549 32.9341C78.4549 32.9341 78.3895 32.8984 78.2587 32.8628C77.8009 32.7203 76.5581 32.2928 75.0864 31.8296L69.265 34.1098C69.3304 35.7131 69.1342 36.8532 68.8071 37.637Z" fill="#FB8A82"/>
<path d="M68.5443 35.4286C68.5443 35.4286 81.0374 36.9251 81.2991 27.7329C81.5607 18.5407 83.3922 14.3009 74.7582 13.4815C66.1242 12.662 64.0638 16.0467 63.5733 19.182C61.9381 28.873 65.0123 35.0011 68.5443 35.4286Z" fill="#FC9290"/>
<path d="M74.0719 17.9694C78.487 16.758 76.8191 25.2732 77.9311 24.7032C79.1739 24.0619 81.3324 24.0619 81.0053 25.7008C80.6783 27.3397 80.1877 27.9454 79.926 28.943C79.6644 29.9762 79.926 32.007 80.9399 31.5795C81.9537 31.1876 91.5361 19.2876 84.7663 10.0242C78.0292 0.76078 57.8833 6.46136 64.2279 16.1523C65.3399 17.8625 70.9323 18.8245 74.0719 17.9694Z" fill="#A83F3F"/>
<path d="M58.0137 86.7687C58.0137 86.7687 61.7747 88.9421 67.6942 88.8352C71.4552 88.7639 79.4678 86.9825 84.6024 84.9517C87.5458 83.8115 89.5408 82.5645 89.2791 81.5313C88.9194 80.0349 86.4339 68.6338 84.1118 58.0877C81.9861 48.4324 80.0238 39.4896 80.0238 39.4896C80.0238 39.4896 74.1697 44.0144 70.7684 42.4111C67.3672 40.8078 67.7923 38.9908 67.7923 38.9908C67.7923 38.9908 63.7697 38.4564 62.6904 38.5989C60.9571 38.8126 54.8086 41.271 54.8086 41.271C54.8086 41.271 53.9911 43.7294 56.1495 47.6129C57.9156 50.8195 59.6489 51.4252 59.6489 51.4252C59.6489 51.4252 54.6124 68.705 58.0137 86.7687Z" fill="#010117"/>
<path d="M76.819 71.3773C76.819 71.3773 73.2215 70.6291 71.7825 71.6623C70.3762 72.6599 69.951 74.2276 70.9649 74.9045C74.1372 76.9353 77.3749 74.6908 77.3749 74.6908L76.819 71.3773Z" fill="#FC9290"/>
<path d="M84.6021 84.987C87.5455 83.8469 89.5404 82.5999 89.2788 81.5666C88.919 80.0702 86.4335 68.6691 84.1115 58.123C83.4247 56.7692 82.9995 55.9497 82.9995 55.9497C82.9995 55.9497 78.5844 77.8613 84.6021 84.987Z" fill="#BED2FA"/>
<path d="M79.8938 40.7371C79.8938 40.7371 91.0133 43.3023 95.3957 62.1142C95.8209 63.9669 95.3957 65.9265 94.2183 67.3516C92.1907 69.7744 87.7429 73.3372 77.4083 74.6555C76.2636 74.798 76.1328 71.6627 76.1328 71.6627C76.2309 71.9121 83.1643 66.8172 86.1077 64.0381C86.6309 63.5393 86.6309 62.5061 86.2385 61.8648C85.2574 60.2259 83.5894 57.34 83.0334 55.8792C82.1831 53.7771 76.7869 41.7347 79.8938 40.7371Z" fill="#FC9290"/>
<path d="M80.0242 39.5254C80.0242 39.5254 86.5651 40.0242 91.8959 47.7912C91.8959 47.7912 90.0971 54.9169 81.6267 56.8053C81.6267 56.8053 76.394 43.979 80.0242 39.5254Z" fill="#010117"/>
<path d="M48.2676 114.916C50.8185 121.65 54.1544 127.814 54.5469 128.598C54.5796 128.633 54.6122 128.669 54.6449 128.669C55.2663 128.669 60.5972 128.526 61.1204 126.211C61.1204 126.211 61.284 118.123 60.9896 111.71C60.172 112.565 56.9016 115.237 48.2676 114.916Z" fill="#3A49CD"/>
<path d="M32.5693 119.334C32.5693 119.334 35.2838 121.686 39.3065 121.686C39.3065 121.686 43.3945 116.805 46.7958 112.066C42.9366 110.249 38.8486 106.223 37.4423 104.798C34.9568 111.71 32.5693 119.334 32.5693 119.334Z" fill="#3A49CD"/>
<path d="M46.3713 137.398C46.5021 138.146 47.1562 138.61 47.843 138.467C49.4455 138.111 52.3235 137.434 53.5336 136.971C55.2342 136.294 58.5046 134.192 60.2053 133.515C60.7939 133.265 62.2002 132.66 63.116 132.268C63.6065 132.054 63.8682 131.484 63.7047 130.95C63.4103 129.809 62.8216 127.885 61.9713 126.282C61.8078 125.997 61.5789 125.748 61.2518 125.605C60.3688 126.389 58.9625 127.209 57.0983 127.244C55.5612 127.244 54.3185 126.852 53.3701 126.389C53.2392 126.638 50.9172 131.733 49.282 132.41C47.843 132.945 45.8807 134.477 46.3713 137.398Z" fill="#17135D"/>
<path d="M22.0723 119.37C21.7452 120.047 22.0069 120.866 22.6283 121.187C24.1 121.971 26.749 123.396 27.9591 123.859C29.6924 124.465 33.4207 125.035 35.1541 125.64C35.7427 125.854 37.2144 126.317 38.1302 126.602C38.6207 126.745 39.144 126.496 39.3402 125.961C39.7327 124.857 40.3868 122.968 40.6484 121.151C40.7138 120.831 40.6484 120.474 40.4849 120.118C39.3402 120.118 37.7704 119.869 36.2987 118.622C35.0886 117.588 34.3364 116.413 33.8459 115.415C33.6169 115.558 28.8748 117.98 27.2396 117.375C25.7679 116.876 23.3478 116.769 22.0723 119.37Z" fill="#17135D"/>
<path d="M45.521 109.18C45.521 109.18 46.3386 114.453 49.5109 116.875C49.5109 116.875 62.2657 114.951 74.1374 111.674C82.8695 109.286 91.111 106.116 93.4984 102.481C99.0909 93.8593 90.5877 83.3489 90.5877 83.3489C90.5877 83.3489 74.2028 91.971 56.477 102.517C52.8141 104.69 49.1185 106.935 45.521 109.18Z" fill="#AA4B47"/>
<path d="M64.6861 116.876C64.6861 116.876 68.4798 117.196 69.9188 118.764C71.3578 120.332 73.5163 124.857 71.9792 126.674C70.4421 128.491 63.0509 124.536 62.8547 123.895C62.6585 123.218 64.6861 116.876 64.6861 116.876Z" fill="#FC9290"/>
<path d="M45.521 109.18C45.521 109.18 46.3386 114.453 49.5109 116.875C49.5109 116.875 62.2657 114.951 74.1374 111.674C68.5449 106.401 61.2518 103.764 56.477 102.517C52.8141 104.69 49.1185 106.935 45.521 109.18Z" fill="#9E332E"/>
<path d="M65.2089 115.451C47.385 101.342 34.7611 96.2112 34.4014 96.2469C32.1447 85.9502 30.0843 69.953 21.5485 45.583C21.5485 45.583 4.77111 45.8324 2.22017 52.4237C-1.41003 61.8653 -4.05909 92.4346 23.6743 112.173C23.8378 112.28 24.0013 112.422 24.1975 112.565C24.2629 112.636 24.3611 112.672 24.4265 112.743C32.9951 118.23 63.7045 125.605 63.7045 125.605C67.0731 121.009 65.2089 115.451 65.2089 115.451Z" fill="#AA4B47"/>
<path d="M121.853 37.6734C121.755 37.0321 120.348 30.0133 110.406 31.2247C110.406 31.2247 115.344 31.0822 116.522 33.2911C116.522 33.2911 112.826 30.9396 110.243 32.2935C107.659 33.6474 106.776 39.063 106.972 40.7375C107.168 42.4477 109.392 47.6495 111.191 47.8632C111.878 47.9345 112.597 47.7563 113.251 47.5426C112.892 48.3976 112.565 49.324 112.27 50.3216C109.49 59.7632 114.723 67.744 117.928 66.2832C119.988 65.3212 121.133 69.2047 121.133 69.2047L139.513 47.5426C139.513 47.5426 129.571 31.5097 121.853 37.6734Z" fill="#12123C"/>
<path d="M145.792 298.511L141.311 300.328C141.311 300.328 121.885 271.005 119.498 245.175C119.072 240.579 119.203 236.089 120.152 231.992C120.152 231.992 119.956 230.816 119.628 228.714C119.465 227.752 119.301 226.577 119.072 225.223C118.451 221.268 117.568 215.888 116.587 209.76C114.298 195.651 111.354 177.587 109.032 164.298L110.242 163.87L123.259 159.274L125.94 149.939L135.654 147.16C135.654 147.16 137.812 151.792 139.774 173.597C140.134 176.447 140.461 179.618 140.69 183.038C141.442 193.478 141.508 206.446 139.774 221.268C139.317 225.044 138.761 228.964 138.074 232.99C137.551 235.947 137.485 239.973 137.714 244.569C138.695 265.732 145.792 298.511 145.792 298.511Z" fill="#17135D"/>
<path d="M140.723 183.074L119.661 228.714C119.498 227.752 119.334 226.577 119.105 225.223C118.484 221.268 117.601 215.888 116.62 209.76C114.33 195.651 111.387 177.587 109.065 164.298L110.275 163.87L123.291 159.274L125.973 149.939L135.686 147.16C135.686 147.16 137.845 151.792 139.807 173.597C140.134 176.518 140.461 179.654 140.723 183.074Z" fill="#0D0D38"/>
<path d="M131.435 153.075C131.435 153.075 131.435 153.11 131.403 153.182C131.337 153.467 131.141 154.393 130.847 155.711C129.44 161.982 126.039 177.231 125.81 177.231C123.946 191.518 121.101 210.045 117.601 224.296C115.737 231.814 113.709 238.156 111.486 242.039C110.733 243.358 109.916 245.602 109.033 248.417C103.964 265.127 97.717 302.893 97.717 302.893L94.8717 304.14C94.8717 304.14 83.9157 270.186 93.4 242.609C94.3811 239.795 95.5585 237.051 96.9648 234.415C97.1283 234.094 97.2264 233.774 97.1937 233.417C97.0629 232.277 96.7686 229.391 96.4088 225.365C95.4277 214.213 94.5119 176.518 94.0214 167.647C93.8251 164.298 93.956 161.305 94.2503 158.633C94.8717 153.467 96.2126 149.583 97.5535 146.875C99.2541 143.455 100.889 141.887 100.889 141.887C100.889 141.887 122.736 150.866 130.879 148.479L131.435 153.075Z" fill="#17135D"/>
<path d="M131.403 155.319C131.239 155.462 131.043 155.604 130.847 155.711C123.325 160.521 96.8996 158.811 94.3159 158.633C94.9373 153.467 96.2782 149.583 97.6191 146.875C108.902 147.98 127.642 150.189 131.403 153.146C132.286 153.858 132.351 154.571 131.403 155.319Z" fill="#0B0754"/>
<path d="M173.559 145.592L172.218 149.868C172.218 149.868 171.956 149.832 171.498 149.69C170.059 149.298 166.527 148.371 162.57 147.124C156.618 145.272 149.619 142.706 147.068 140.212C143.176 136.471 137.486 126.175 134.313 116.377C134.215 116.127 134.15 115.914 134.084 115.664C132.449 110.463 131.501 105.475 131.991 101.698C132.286 99.382 132.842 97.4937 133.528 95.8548C134.477 93.7171 135.687 92.1138 136.864 90.9737C137.028 90.7955 137.191 90.5818 137.42 90.4393C139.35 88.6935 140.723 87.4821 140.723 87.4821C141.574 87.2683 142.718 88.5153 143.438 89.7267C143.438 89.7267 144.615 92.1494 145.106 93.8952C145.138 93.9309 145.171 93.9665 145.138 94.0021C145.237 94.3584 145.367 94.7503 145.498 95.1779C145.564 95.2491 145.564 95.3916 145.596 95.4629C145.825 96.3536 146.054 97.3156 146.25 98.2775C148.736 108.788 150.665 124.393 153.576 129.488C154.819 131.697 161.36 136.792 166.593 140.676C170.452 143.49 173.559 145.592 173.559 145.592Z" fill="#FB8A82"/>
<path d="M138.532 97.7789C136.177 99.4535 133.201 100.807 129.538 101.627C115.737 104.655 110.831 91.8646 109.065 83.1712C110.962 82.0667 112.728 81.853 113.742 81.7461C114.723 81.6392 115.769 81.6036 116.652 81.5679C118.222 80.3209 120.642 75.1548 121.362 66.9958L122.016 67.2096L132.743 70.7725C132.743 70.7725 132.154 74.5135 131.827 78.0407C131.566 80.7841 131.467 83.4563 131.925 84.0976C132.776 84.3113 133.266 84.4539 133.266 84.4539C133.397 84.7389 136.373 90.4394 138.532 97.7789Z" fill="#FC9290"/>
<path d="M143.339 107.149C143.274 107.47 143.208 107.79 143.11 108.111C140.69 116.911 138.728 152.184 138.728 152.184C140.461 158.205 96.114 157.67 95.2637 152.112C92.9417 146.412 98.6322 135.759 101.903 130.379C102.328 129.702 102.655 128.989 102.949 128.241C103.701 126.388 104.061 124.358 103.963 122.327C103.669 114.275 102.393 106.864 101.837 102.339C102.524 101.591 103.178 100.914 103.8 100.273C104.748 99.2751 105.566 98.3488 106.154 97.4224C106.808 96.4248 107.135 95.4629 107.07 94.4653C107.005 93.7171 106.874 92.9332 106.71 92.185C106.645 91.8287 106.547 91.4725 106.449 91.1162C105.402 87.3752 103.472 84.0974 103.472 84.0974C106.972 81.8528 113.742 81.7815 113.742 81.7815C113.742 81.7815 113.774 82.1734 113.873 82.8504C114.2 85.4869 115.115 92.2563 116.064 93.432C117.241 94.8928 135.948 99.0614 136.602 96.7455C137.256 94.4653 133.364 84.8812 133.234 84.5249C139.513 86.1282 141.933 87.9452 141.933 87.9452C138.695 90.938 145.04 98.7051 143.339 107.149Z" fill="#17135D"/>
<path d="M132.744 70.7724C132.744 70.7724 132.155 74.4777 131.828 78.0406C125.712 77.1855 123.063 70.7367 122.049 67.2451L132.744 70.7724Z" fill="#FB8A82"/>
<path d="M134.477 74.3353C134.477 74.3353 119.989 73.017 120.872 63.1836C121.755 53.3501 120.479 46.5806 129.8 47.0082C139.088 47.4357 140.56 51.3905 140.985 54.7396C141.41 58.0887 138.271 74.4066 134.477 74.3353Z" fill="#FC9290"/>
<path d="M141.05 49.2169C139.088 46.0103 137.322 46.4735 136.308 47.2573C128.818 41.6636 123.095 48.1124 123.095 48.1124C121.493 55.06 116.456 58.5872 116.456 58.5872C116.456 58.5872 118.942 60.6537 125.155 59.6205C127.052 59.2998 128.851 58.0528 130.421 56.4495C127.543 60.6893 123.913 63.5396 123.913 63.5396C131.5 60.6893 135.457 50.0007 135.85 48.8606C136.667 49.8226 138.237 51.889 138.597 53.7774C139.088 56.3426 138.924 61.5444 140.33 61.5088C140.265 61.5088 143.993 54.0268 141.05 49.2169Z" fill="#12123C"/>
<path d="M125.515 142.529C116.947 143.776 108.411 135.26 102.949 128.206C103.702 126.353 104.061 124.322 103.963 122.292C103.669 114.24 102.393 106.829 101.837 102.304C102.524 101.556 103.178 100.879 103.8 100.237C104.748 99.2399 105.566 98.3136 106.154 97.3872C114.919 109.18 137.126 140.818 125.515 142.529Z" fill="#0D0D38"/>
<path d="M155.407 145.735L156.911 151.329C156.911 151.329 153.085 150.367 150.697 150.117C149.978 150.046 149.552 149.975 149.552 149.975C147.623 149.761 145.334 149.405 142.815 149.048H142.783C138.466 148.336 133.658 147.481 129.57 146.376C126.692 145.592 124.174 144.666 122.44 143.704C122.277 143.597 122.113 143.526 121.95 143.384C117.764 140.64 112.335 131.911 107.92 122.398C107.298 121.08 106.71 119.762 106.154 118.515C104.061 113.741 102.327 109.038 101.215 104.94C100.496 102.482 100.005 100.237 99.7763 98.3846C99.6781 97.7433 99.6127 97.102 99.58 96.5319C99.5473 96.1756 99.5474 95.855 99.5146 95.5343C101.215 93.931 105.107 90.9026 110.438 91.2233C110.536 91.4371 110.667 91.6508 110.765 91.8646C113.054 96.4251 115.573 102.339 117.96 108.289C119.268 111.532 120.544 114.774 121.819 117.767C122.539 119.584 123.258 121.294 123.912 122.861C125.188 125.854 126.332 128.241 127.313 129.738C127.935 130.7 129.603 132.018 131.794 133.408C135.588 135.902 141.082 138.823 145.857 141.175C147.852 142.172 149.716 143.063 151.253 143.811C153.771 144.951 155.407 145.735 155.407 145.735Z" fill="#FB8A82"/>
<path d="M110.765 91.829C104.126 90.5107 99.5477 96.4963 99.5477 96.4963C98.7955 85.8434 103.538 83.955 103.538 83.955C105.434 82.8506 107.985 86.3422 110.765 91.829Z" fill="#17135D"/>
<path d="M111.453 306.669H88.952C88.952 306.669 88.396 302.928 89.5734 300.113C90.6853 297.406 92.4513 296.159 92.0262 292.881C93.4652 294.484 95.7872 296.266 99.0576 295.802C99.4501 296.515 101.641 300.292 102.949 301.325C104.454 302.429 110.995 302.037 111.453 306.669Z" fill="#0D0D38"/>
<path d="M159.789 306.669H137.289C137.289 306.669 136.438 302.75 137.91 300.114C139.218 297.762 138.728 296.408 137.747 294.484C138.761 294.948 140.101 295.339 141.54 295.268C142.652 295.197 143.862 294.627 144.876 293.986C145.857 295.197 149.978 300.327 151.286 301.325C152.758 302.43 159.332 302.038 159.789 306.669Z" fill="#0D0D38"/>
<path d="M131.01 68.6344C131.01 68.6344 131.207 69.9526 134.15 69.9526C134.15 69.9526 136.603 69.9526 136.635 68.5275C136.635 68.5275 134.313 67.3874 131.01 68.6344Z" fill="white"/>
<path d="M206.82 109.892C205.872 109.5 204.694 113.883 203.975 114.025C203.255 114.168 203.55 112.814 202.895 112.6C202.241 112.386 201.947 116.163 202.438 117.624C202.961 119.084 202.863 120.795 202.863 120.795C202.863 120.795 198.513 139.108 197.565 141.174C196.616 143.241 181.278 158.133 181.278 158.133L184.646 169.998C184.646 169.998 202.732 151.791 204.269 147.516C205.806 143.241 206.493 121.258 206.493 121.258C206.493 121.258 207.834 118.087 208.128 114.916C208.455 111.781 207.768 110.32 206.82 109.892Z" fill="#FC9290"/>
<path d="M159.889 156.851C159.889 156.851 149.26 141.851 144.06 137.184C144.06 137.184 136.963 118.158 136.407 116.911C136.374 116.84 136.342 116.804 136.309 116.769C136.244 116.341 135.982 114.738 136.244 113.277C136.571 111.567 135.557 107.434 134.87 107.826C134.183 108.182 134.739 109.643 133.922 109.607C133.071 109.572 131.011 104.975 130.03 105.617C129.049 106.258 128.525 108.04 129.441 111.495C130.193 114.381 131.73 117.089 132.221 117.944C132.188 117.944 132.188 117.98 132.188 117.98C132.188 117.98 134.805 136.471 137.519 141.958C140.266 147.445 148.769 165.829 154.787 166.542C160.739 167.183 159.889 156.851 159.889 156.851Z" fill="#FC9290"/>
<path d="M192.004 298.082C192.004 298.082 193.214 300.648 195.863 301.253C197.531 301.645 198.97 302.607 199.886 303.925C200.638 305.066 199.919 306.633 198.643 306.633H185.136C183.992 306.633 183.076 305.564 183.207 304.317C183.305 303.213 183.403 301.966 183.468 300.968C183.567 298.831 185.529 297.12 185.529 297.12L192.004 298.082Z" fill="#ED6966"/>
<path d="M192.332 298.724C192.332 298.724 189.094 300.826 183.6 299.543C183.6 299.543 174.279 273.57 173.723 261.314C173.69 260.815 173.69 260.352 173.69 259.924C173.887 248.416 164.141 218.453 166.757 212.325C169.373 206.196 190.631 215.068 190.631 215.068L191.056 235.946L192.332 298.724Z" fill="#1C1860"/>
<path d="M191.056 235.982L173.723 261.349C173.69 260.85 173.69 260.387 173.69 259.96C173.887 248.452 164.141 218.488 166.757 212.36C169.373 206.232 190.631 215.103 190.631 215.103L191.056 235.982Z" fill="#12123C"/>
<path d="M157.109 298.082C157.109 298.082 158.319 300.648 160.968 301.253C162.636 301.645 164.075 302.607 164.991 303.925C165.743 305.066 165.024 306.633 163.748 306.633H150.241C149.097 306.633 148.181 305.564 148.312 304.317C148.41 303.213 148.508 301.966 148.573 300.968C148.672 298.831 150.634 297.12 150.634 297.12L157.109 298.082Z" fill="#ED6966"/>
<path d="M178.203 215.602C178.203 215.602 159.431 291.954 158.842 299.436C158.842 299.436 155.179 301.467 149.227 297.868C149.227 297.868 145.761 263.665 149.227 254.295C152.694 244.96 148.54 216.671 157.338 210.293C166.135 203.916 178.203 215.602 178.203 215.602Z" fill="#1C1860"/>
<path d="M180.46 155.105L168.915 161.519L166.593 152.79C166.593 152.79 168.065 149.761 168.719 144.844C168.981 142.778 169.144 140.355 168.948 137.683L178.334 142.921C178.334 142.921 178.105 143.882 177.974 145.272C177.811 146.768 177.745 148.799 178.138 150.759C178.498 152.398 179.184 153.965 180.46 155.105Z" fill="#FC9290"/>
<path d="M190.043 166.15C190.108 165.116 195.864 160.841 195.864 160.841C197.074 152.896 192.43 147.195 192.43 147.195L185.464 152.575C184.123 152.646 183.535 153.181 183.535 153.181C182.39 152.86 178.956 153.145 178.956 153.145C179.021 154.962 178.564 156.637 175.653 157.064C171.794 157.599 168.327 154.749 166.561 152.789C166.561 152.789 164.206 152.575 161.263 153.608C161.263 153.608 159.824 152.825 158.319 152.753L152.629 147.195C152.629 147.195 145.957 149.297 144.911 160.235C144.911 160.235 152.4 166.435 152.923 171.352L153.119 173.204L153.839 179.795L155.114 191.339L151.321 214.32C151.288 214.533 151.255 214.711 151.255 214.925C151.255 216.457 152.236 217.847 153.643 218.203C153.643 218.203 153.97 218.274 154.558 218.346C158.581 218.951 174.933 221.089 187.786 217.277C190.664 216.422 192.561 213.429 192.332 210.187L189.618 173.097C189.716 173.133 189.977 167.219 190.043 166.15Z" fill="#AA4B47"/>
<path d="M159.855 201.03C159.594 209.047 158.874 215.852 154.655 218.381C154.067 218.274 153.739 218.239 153.739 218.239C152.333 217.883 151.352 216.493 151.352 214.961C151.352 214.747 151.385 214.569 151.417 214.355L155.211 191.375L153.936 179.831C154.001 179.617 154.034 179.51 154.034 179.51C154.034 179.51 160.182 190.734 159.855 201.03Z" fill="#9E332E"/>
<path d="M178.171 150.723C172.84 150.58 168.752 144.844 168.752 144.844L178.007 145.272C177.844 146.768 177.778 148.799 178.171 150.723Z" fill="#FB8A82"/>
<path d="M180.754 147.48C180.754 147.48 170.092 150.544 166.429 141.317C162.472 131.341 166.821 124.108 170.419 123.609C177.647 122.647 181.833 125.64 183.108 128.811C184.384 131.982 186.64 145.841 180.754 147.48Z" fill="#FC9290"/>
<path d="M176.535 142.278C176.535 142.278 176.993 143.49 179.806 142.813C179.806 142.813 182.16 142.243 181.899 140.889C181.899 140.889 179.446 140.319 176.535 142.278Z" fill="white"/>
<path d="M168.327 144.559C168.327 144.559 167.084 140.569 167.215 138.431C167.215 138.431 164.435 134.583 166.07 133.621C167.705 132.659 168.555 134.94 168.948 134.512C169.308 134.049 169.896 126.46 171.859 126.709C173.821 126.959 181.114 129.417 184.286 126.424C187.491 123.432 179.74 111.71 166.626 116.235C153.511 120.724 156.193 136.614 168.327 144.559Z" fill="#12123C"/>
<path d="M160.149 122.434C160.149 122.434 159.56 120.51 160.182 119.12C160.182 119.12 160.215 121.008 160.901 121.864C161.588 122.719 160.149 122.434 160.149 122.434Z" fill="#12123C"/>
<path d="M160.411 121.08C160.411 121.08 158.776 120.866 158.024 122.256C158.024 122.256 159.169 121.401 160.313 122.291L160.411 121.08Z" fill="#12123C"/>
<path d="M155.408 145.735C155.408 145.735 162.015 147.231 162.603 147.98C163.192 148.764 167.345 154.108 165.448 154.749C163.519 155.39 160.281 152.932 159.235 152.398C158.188 151.863 156.945 151.364 156.945 151.364L155.408 145.735Z" fill="#FB8A82"/>
</svg>
