<svg width="25" height="25" viewBox="0 0 40 40" fill="none" xmlns="http://www.w3.org/2000/svg">
<path d="M30 20.625C28.42 20.625 26.9325 21.0219 25.625 21.715V18.2856C26.9325 18.9781 28.42 19.375 30 19.375C35.1694 19.375 39.375 15.1694 39.375 10C39.375 4.83063 35.1694 0.625 30 0.625C26.3356 0.625 23.1644 2.74313 21.6231 5.81438L15.2488 1.11687C14.3863 0.481875 13.1137 0.48125 12.2512 1.1175L0.625 9.68437V13.125H1.875V25.3425C1.08438 26.7169 0.625 28.3044 0.625 30C0.625 35.1694 4.83063 39.375 10 39.375C15.1694 39.375 19.375 35.1694 19.375 30C19.375 29.3581 19.3094 28.7313 19.1863 28.125H20.8144C20.6906 28.7313 20.625 29.3581 20.625 30C20.625 35.1694 24.8306 39.375 30 39.375C35.1694 39.375 39.375 35.1694 39.375 30C39.375 24.8306 35.1694 20.625 30 20.625ZM30 1.875C34.48 1.875 38.125 5.52 38.125 10C38.125 14.48 34.48 18.125 30 18.125C25.52 18.125 21.875 14.48 21.875 10C21.875 5.52 25.52 1.875 30 1.875ZM20.6569 10.625C20.685 11.0487 20.7313 11.4681 20.8144 11.875H14.375V10.625H20.6569ZM17.2137 4.1175L15.625 6.02375V8.125H16.875V7.26125L18.4706 8.05875L19.03 6.94062L17.2362 6.04375L18.2225 4.86L21.1269 7C20.8713 7.75375 20.7125 8.54937 20.6575 9.37437H14.375V2.05687C14.4181 2.08062 14.4675 2.09375 14.5075 2.12313L17.2137 4.1175ZM12.9925 2.12375C13.0325 2.09438 13.0813 2.08125 13.125 2.0575V9.375H3.15125L7.70375 6.02063L8.305 7.42312L11.7525 8.11312L11.9981 6.8875L9.19563 6.3275L8.7375 5.25938L12.9925 2.12375ZM1.875 10.625H13.125V11.875H1.875V10.625ZM3.125 13.125H13.125V21.1719C12.7188 21.0275 12.3044 20.9012 11.875 20.8137V14.375H4.375V22.5175C3.925 22.8569 3.50688 23.2344 3.125 23.6475V13.125ZM10.625 20.6569C10.4175 20.6431 10.2113 20.625 10 20.625C8.42 20.625 6.9325 21.0219 5.625 21.715V15.625H10.625V20.6569ZM10 38.125C5.52 38.125 1.875 34.48 1.875 30C1.875 25.52 5.52 21.875 10 21.875C14.48 21.875 18.125 25.52 18.125 30C18.125 34.48 14.48 38.125 10 38.125ZM18.8281 26.875C18.0381 24.65 16.4375 22.8081 14.375 21.715V13.125H21.1719C21.4937 14.0306 21.9494 14.8713 22.5175 15.625H15.625V21.875H23.125V16.3525C23.5069 16.7656 23.925 17.1431 24.375 17.4825V22.5181C22.9181 23.6156 21.7938 25.125 21.1719 26.875H18.8281ZM21.875 16.875V20.625H16.875V16.875H21.875ZM30 38.125C25.52 38.125 21.875 34.48 21.875 30C21.875 25.52 25.52 21.875 30 21.875C34.48 21.875 38.125 25.52 38.125 30C38.125 34.48 34.48 38.125 30 38.125Z" fill="#1A954F"/>
<path d="M13.75 24.375H8.75C7.93625 24.375 7.24875 24.8994 6.99 25.625H4.375V29.2381L9.375 30.4881V31.99C8.64937 32.2487 8.125 32.9362 8.125 33.75V35C8.125 36.0337 8.96625 36.875 10 36.875C11.0338 36.875 11.875 36.0337 11.875 35V33.75C11.875 32.9362 11.3506 32.2487 10.625 31.99V29.5112L5.625 28.2612V26.875H6.99C7.24875 27.6006 7.93625 28.125 8.75 28.125H13.75C14.7837 28.125 15.625 27.2838 15.625 26.25C15.625 25.2162 14.7837 24.375 13.75 24.375ZM10.625 35C10.625 35.345 10.3444 35.625 10 35.625C9.65562 35.625 9.375 35.345 9.375 35V33.75C9.375 33.405 9.65562 33.125 10 33.125C10.3444 33.125 10.625 33.405 10.625 33.75V35ZM13.75 26.875H8.75C8.40562 26.875 8.125 26.595 8.125 26.25C8.125 25.905 8.40562 25.625 8.75 25.625H13.75C14.0944 25.625 14.375 25.905 14.375 26.25C14.375 26.595 14.0944 26.875 13.75 26.875Z" fill="#1A954F"/>
<path d="M27.5 11.875C27.8238 11.875 28.1475 11.8312 28.4669 11.7431L31.7994 15.0756C32.1531 15.43 32.6244 15.625 33.125 15.625C33.6256 15.625 34.0969 15.4294 34.4506 15.0756C34.805 14.7219 35 14.2506 35 13.75C35 13.2494 34.805 12.7781 34.4506 12.4244L31.1181 9.09188C31.2056 8.7725 31.25 8.44938 31.25 8.125C31.25 6.05687 29.5681 4.375 27.5 4.375H27.2412L25.9912 5.625L27.4775 7.11125C27.3819 7.61188 26.9863 8.00687 26.4869 8.1025L25 6.61625L23.75 7.86625V8.125C23.75 10.1931 25.4319 11.875 27.5 11.875ZM25.9912 9.375H26.25C27.6288 9.375 28.75 8.25375 28.75 6.875V6.61625L27.7737 5.63937C29.0237 5.77625 30 6.83875 30 8.125C30 8.42688 29.94 8.73313 29.8225 9.03312L29.6725 9.41375L33.5669 13.3075C33.6863 13.4275 33.75 13.5806 33.75 13.75C33.75 13.9194 33.6863 14.0725 33.5669 14.1919C33.3269 14.4313 32.9231 14.4313 32.6831 14.1919L28.7894 10.2981L28.4087 10.4475C28.1075 10.565 27.8019 10.625 27.5 10.625C26.2137 10.625 25.1519 9.64875 25.015 8.39875L25.9912 9.375Z" fill="#1A954F"/>
<path d="M28.1169 26.2056L27.0119 26.6462L29.7412 29.375L28.2975 30.8194C27.6031 30.5063 26.7288 30.62 26.175 31.1744L24.925 32.4244C24.57 32.7781 24.375 33.2494 24.375 33.75C24.375 34.2506 24.57 34.7219 24.9244 35.0756C25.2781 35.43 25.7494 35.625 26.25 35.625C26.7506 35.625 27.2219 35.4294 27.5756 35.0756L28.8256 33.8256C29.18 33.4719 29.375 33.0006 29.375 32.5C29.375 32.2162 29.3063 31.9456 29.1875 31.6969L30.625 30.2594L33.3531 32.9875L33.795 31.8837C34.5944 29.8831 35 27.7775 35 25.625V25H34.375C32.2206 25 30.115 25.4056 28.1169 26.2056ZM27.9419 32.9419L26.6919 34.1919C26.4519 34.4313 26.0481 34.4313 25.8081 34.1919C25.6887 34.0725 25.625 33.9194 25.625 33.75C25.625 33.5806 25.6887 33.4275 25.8081 33.3081L27.0581 32.0581C27.1781 31.9387 27.3306 31.875 27.5 31.875C27.6694 31.875 27.8219 31.9387 27.9419 32.0581C28.0613 32.1775 28.125 32.3306 28.125 32.5C28.125 32.6694 28.0613 32.8225 27.9419 32.9419ZM32.8844 30.75L29.25 27.1156C30.6987 26.6106 32.2031 26.325 33.7375 26.2631C33.675 27.7969 33.3894 29.3013 32.8844 30.75Z" fill="#1A954F"/>
</svg>
