<svg width="77" height="77" viewBox="0 0 77 77" fill="none" xmlns="http://www.w3.org/2000/svg">
<mask id="mask0" mask-type="alpha" maskUnits="userSpaceOnUse" x="0" y="0" width="77" height="77">
<circle cx="38.47" cy="38.47" r="38.47" fill="#C4C4C4"/>
</mask>
<g mask="url(#mask0)">
<path d="M21.1514 63.621L29.7199 61.4783L30.4491 58.5617C28.1565 56.2916 26.5864 53.1737 26.1212 49.9753C24.8508 49.6174 23.8667 48.5281 23.6967 47.1616L23.1376 42.6883C23.019 41.7444 23.3099 40.7894 23.9361 40.0737C24.3029 39.6531 24.7659 39.3356 25.2781 39.141L25.0723 34.9294L24.2357 34.0906C22.9765 32.7509 21.932 30.4539 24.115 27.1213C25.7924 24.5605 28.6418 23.261 32.5872 23.261C34.1439 23.261 37.727 23.261 41.064 25.5021C50.5921 25.7012 51.8893 30.1274 51.8893 34.4442C51.8893 35.4485 51.6456 37.7097 51.4845 39.074C52.0594 39.2552 52.5804 39.5907 52.9875 40.0536C53.625 40.7761 53.9202 41.7356 53.8016 42.6906L53.2425 47.1639C53.0592 48.6222 51.952 49.7696 50.5519 50.0425C50.0889 53.1178 48.5993 56.135 46.4387 58.3672L47.2171 61.4828L55.7856 63.6255C61.395 65.0233 65.3091 70.0378 65.3091 75.8218C65.3091 76.4391 64.808 76.9401 64.1907 76.9401H12.7483C12.131 76.9401 11.63 76.4347 11.63 75.8173C11.6301 70.0378 15.5441 65.0233 21.1514 63.621Z" fill="#3D3D3D"/>
</g>
</svg>
