<svg width="84" height="84" viewBox="0 0 84 84" fill="none" xmlns="http://www.w3.org/2000/svg">
<path d="M30.3333 64.2927L31.9971 63.1828C31.6261 62.6267 31.0018 62.2927 30.3333 62.2927V64.2927ZM41.6667 81.2816L40.0029 82.3915C40.3739 82.9476 40.9982 83.2816 41.6667 83.2816C42.3352 83.2816 42.9594 82.9476 43.3304 82.3915L41.6667 81.2816ZM53 64.2927V62.2927C52.3315 62.2927 51.7072 62.6267 51.3362 63.1828L53 64.2927ZM38.8333 44.5L37.4191 45.9142L38.9308 47.4258L40.3385 45.817L38.8333 44.5ZM28.6696 65.4026L40.0029 82.3915L43.3304 80.1717L31.9971 63.1828L28.6696 65.4026ZM43.3304 82.3915L54.6638 65.4026L51.3362 63.1828L40.0029 80.1717L43.3304 82.3915ZM53 66.2927H75.6667V62.2927H53V66.2927ZM75.6667 66.2927C79.9037 66.2927 83.3333 62.8671 83.3333 58.6297H79.3333C79.3333 60.6555 77.697 62.2927 75.6667 62.2927V66.2927ZM83.3333 58.6297V7.66297H79.3333V58.6297H83.3333ZM83.3333 7.66297C83.3333 3.42555 79.9037 0 75.6667 0V4C77.697 4 79.3333 5.63715 79.3333 7.66297H83.3333ZM75.6667 0H7.66667V4H75.6667V0ZM7.66667 0C3.42966 0 0 3.42555 0 7.66297H4C4 5.63715 5.63634 4 7.66667 4V0ZM0 7.66297V58.6297H4V7.66297H0ZM0 58.6297C0 62.8671 3.42966 66.2927 7.66667 66.2927V62.2927C5.63634 62.2927 4 60.6555 4 58.6297H0ZM7.66667 66.2927H30.3333V62.2927H7.66667V66.2927ZM26.0858 34.5809L37.4191 45.9142L40.2475 43.0858L28.9142 31.7524L26.0858 34.5809ZM40.3385 45.817L60.1718 23.1503L57.1615 20.5163L37.3282 43.183L40.3385 45.817Z" fill="#1A954F"/>
</svg>
