<svg width="84" height="84" viewBox="0 0 84 84" fill="none" xmlns="http://www.w3.org/2000/svg">
<path d="M19 30.0495L17.3127 28.9758L17 29.4671V30.0495H19ZM34.2864 6.02799L35.9738 7.10174L34.2864 6.02799ZM49.3991 14.5846L47.6103 13.6902L49.3991 14.5846ZM41.6667 30.0495L39.8778 29.1551C39.5678 29.7751 39.601 30.5113 39.9654 31.101C40.3298 31.6906 40.9735 32.0495 41.6667 32.0495V30.0495ZM81.3333 58.3829L82.9333 59.5829L83.3333 59.0495V58.3829H81.3333ZM67.7333 76.5162L69.3333 77.7162V77.7162L67.7333 76.5162ZM46.0956 3.24021L47.1246 1.52523V1.52523L46.0956 3.24021ZM0 27.2162V83.8829H4V27.2162H0ZM20.6873 31.1233L35.9738 7.10174L32.5991 4.95424L17.3127 28.9758L20.6873 31.1233ZM47.6103 13.6902L39.8778 29.1551L43.4555 30.9439L51.188 15.4791L47.6103 13.6902ZM41.6667 32.0495H70V28.0495H41.6667V32.0495ZM79.3333 41.3829V58.3829H83.3333V41.3829H79.3333ZM79.7333 57.1828L66.1333 75.3162L69.3333 77.7162L82.9333 59.5829L79.7333 57.1828ZM58.6667 79.0495H30.3333V83.0495H58.6667V79.0495ZM21 69.7162V30.0495H17V69.7162H21ZM70 32.0495C75.1547 32.0495 79.3333 36.2282 79.3333 41.3829H83.3333C83.3333 34.0191 77.3638 28.0495 70 28.0495V32.0495ZM30.3333 79.0495C25.1787 79.0495 21 74.8708 21 69.7162H17C17 77.08 22.9695 83.0495 30.3333 83.0495V79.0495ZM45.0666 4.9552C48.0664 6.7551 49.1748 10.5612 47.6103 13.6902L51.188 15.4791C53.6872 10.4805 51.9167 4.4005 47.1246 1.52523L45.0666 4.9552ZM66.1333 75.3162C64.3707 77.6664 61.6044 79.0495 58.6667 79.0495V83.0495C62.8634 83.0495 66.8153 81.0736 69.3333 77.7162L66.1333 75.3162ZM35.9738 7.10174C37.922 4.04014 41.9548 3.08813 45.0666 4.9552L47.1246 1.52523C42.1536 -1.45735 35.7114 0.0634533 32.5991 4.95424L35.9738 7.10174Z" fill="#1A954F"/>
</svg>
