<svg width="71" height="24" viewBox="0 0 71 24" fill="none" xmlns="http://www.w3.org/2000/svg">
<path d="M34.1668 12.5856V15.0559H38.2555C37.3824 16.4401 36.0621 17.1216 34.1455 17.1216C31.6539 17.1216 29.2901 15.0133 29.2901 11.8616C29.2901 8.70985 31.5475 6.77196 34.2307 6.77196C36.9139 6.77196 38.6601 8.56078 38.8518 9.85981H46.3052C45.9219 4.45075 41.386 0 34.4436 0C29.1198 0 24.7968 3.00266 23.008 7.36823C21.9403 4.81762 20.0224 2.71537 17.5803 1.41875C15.1381 0.122135 12.3223 -0.288857 9.61135 0.255626C6.90045 0.800108 4.4617 2.26647 2.70956 4.40551C0.957423 6.54456 0 9.22431 0 11.9894C0 14.7544 0.957423 17.4342 2.70956 19.5732C4.4617 21.7122 6.90045 23.1786 9.61135 23.7231C12.3223 24.2676 15.1381 23.8566 17.5803 22.56C20.0224 21.2633 21.9403 19.1611 23.008 16.6105C24.7968 20.9973 29.0985 24 34.4436 24C41.4711 24 46.2626 18.7187 46.3265 12.5856H34.1668ZM11.9343 16.291C11.0784 16.2953 10.2405 16.0453 9.52683 15.5729C8.81312 15.1004 8.25572 14.4267 7.92526 13.6372C7.59479 12.8477 7.50614 11.9778 7.67053 11.1378C7.83492 10.2978 8.24496 9.52557 8.84868 8.91886C9.4524 8.31215 10.2226 7.8983 11.0618 7.72976C11.9009 7.56123 12.7712 7.64559 13.5624 7.97215C14.3536 8.29871 15.03 8.85277 15.5059 9.56414C15.9819 10.2755 16.236 11.1121 16.236 11.9681C16.236 13.1109 15.7835 14.2073 14.9774 15.0174C14.1713 15.8275 13.0772 16.2854 11.9343 16.291Z" fill="#0D0D0D"/>
<path d="M69.496 11.9042C70.3947 13.1747 70.8783 14.6922 70.8802 16.2485C70.8802 20.8909 68.0053 23.6167 63.2777 23.6167H46.6672V0.36203H63.2777C68.0053 0.36203 70.8802 3.06656 70.8802 7.70897C70.8714 9.21813 70.387 10.6861 69.496 11.9042ZM54.4401 6.45254V8.9654H62.149C62.8731 8.9654 63.4055 8.47561 63.4055 7.66638C63.4055 6.85715 62.8731 6.45254 62.149 6.45254H54.4401ZM63.4055 16.2485C63.4147 16.081 63.3885 15.9135 63.3287 15.7569C63.2688 15.6003 63.1766 15.4581 63.058 15.3395C62.9394 15.2209 62.7972 15.1287 62.6406 15.0688C62.484 15.009 62.3165 14.9828 62.149 14.992H54.4401V17.5475H62.149C62.3194 17.5539 62.4892 17.5243 62.6474 17.4607C62.8056 17.3971 62.9487 17.3009 63.0672 17.1784C63.1857 17.0558 63.2771 16.9097 63.3354 16.7495C63.3937 16.5892 63.4176 16.4185 63.4055 16.2485Z" fill="#0D0D0D"/>
</svg>
