<svg width="220" height="220" viewBox="0 0 220 220" fill="none" xmlns="http://www.w3.org/2000/svg">
<path d="M110 203.867C161.841 203.867 203.867 161.841 203.867 110C203.867 58.1588 161.841 16.1333 110 16.1333C58.1588 16.1333 16.1333 58.1588 16.1333 110C16.1333 161.841 58.1588 203.867 110 203.867Z" fill="#1A954F"/>
<path d="M160.277 72.6587H59.7227C58.1917 72.6587 56.9507 73.8998 56.9507 75.4307V144.569C56.9507 146.1 58.1917 147.341 59.7227 147.341H160.277C161.808 147.341 163.049 146.1 163.049 144.569V75.4307C163.049 73.8998 161.808 72.6587 160.277 72.6587Z" fill="#D5D6DB"/>
<path d="M61.0134 76.3108H159.001V143.689H61.0134V76.3108Z" fill="#EBF0F3"/>
<path d="M76.6187 112.787H143.381V115.823H76.6187V112.787Z" fill="#D5D6DB"/>
<path d="M81.6052 120.267H138.409V123.303H81.6052V120.267Z" fill="#D5D6DB"/>
<path d="M86.416 127.732H113.813V130.768H86.416V127.732Z" fill="#D5D6DB"/>
<path d="M127.512 133.115C127.448 133.115 127.387 133.091 127.341 133.047C127.294 133.003 127.266 132.944 127.263 132.88C127.261 132.847 127.265 132.814 127.276 132.783C127.287 132.752 127.303 132.724 127.325 132.699C127.347 132.675 127.373 132.655 127.403 132.64C127.433 132.626 127.465 132.618 127.497 132.616L136.4 132.103H136.767V132.015C136.767 132.015 136.767 132.015 136.532 132.015C135.911 132.016 135.294 131.927 134.699 131.751C134.265 131.623 133.871 131.385 133.555 131.061C133.335 131.193 133.088 131.27 132.832 131.286C132.577 131.301 132.321 131.254 132.088 131.149L131.824 132.22L131.619 132.411L131.355 132.279C131.002 131.603 130.726 130.89 130.533 130.152C130.33 130.689 130.032 131.186 129.653 131.619H129.287V131.267C129.873 130.595 130.241 129.761 130.343 128.876L130.592 128.641L130.841 128.876C130.941 129.745 131.169 130.595 131.516 131.399L131.692 130.68L131.868 130.489H132.103C132.205 130.576 132.325 130.642 132.453 130.682C132.581 130.722 132.717 130.737 132.851 130.724C132.995 130.709 133.135 130.664 133.261 130.592V130.475C133.102 130.155 133.05 129.792 133.114 129.441C133.177 129.089 133.352 128.768 133.613 128.524C133.825 128.353 134.089 128.26 134.361 128.26C134.513 128.265 134.659 128.313 134.784 128.399C134.909 128.485 135.007 128.604 135.065 128.744C135.116 128.942 135.116 129.149 135.065 129.347C135.013 129.544 134.913 129.725 134.772 129.873C134.556 130.167 134.316 130.442 134.053 130.695C134.303 130.927 134.598 131.107 134.919 131.223C135.474 131.371 136.045 131.449 136.62 131.457C136.748 131.442 136.877 131.463 136.994 131.517C137.111 131.571 137.21 131.658 137.28 131.765C137.344 131.899 137.356 132.051 137.312 132.193C137.269 132.334 137.173 132.454 137.045 132.528C136.863 132.634 136.655 132.689 136.444 132.689L127.6 133.115H127.512ZM134.317 128.715L133.951 128.876C133.775 129.045 133.658 129.266 133.619 129.507C133.579 129.747 133.618 129.994 133.731 130.211C133.959 129.986 134.165 129.741 134.347 129.477C134.493 129.272 134.655 129.023 134.581 128.847L134.317 128.685V128.715Z" fill="#3A556A"/>
<path d="M127.967 135.139H127.6C126.006 135.129 124.472 134.534 123.288 133.467C122.699 132.918 122.275 132.214 122.065 131.437C121.855 130.659 121.867 129.838 122.1 129.067C122.365 128.297 122.906 127.652 123.618 127.257C124.33 126.862 125.163 126.743 125.957 126.925C126.368 127.064 126.739 127.299 127.04 127.61C127.341 127.921 127.563 128.3 127.688 128.715C127.823 129.077 127.867 129.468 127.816 129.851C127.765 130.235 127.62 130.6 127.395 130.915H127.043V130.563C127.213 130.312 127.322 130.025 127.36 129.724C127.399 129.423 127.365 129.118 127.263 128.832C127.159 128.485 126.97 128.17 126.714 127.914C126.458 127.658 126.143 127.469 125.796 127.365C125.128 127.214 124.428 127.316 123.832 127.652C123.235 127.989 122.785 128.535 122.569 129.184C122.37 129.857 122.363 130.573 122.55 131.249C122.736 131.926 123.109 132.537 123.625 133.012C124.702 133.962 126.09 134.484 127.527 134.479C129.017 134.503 130.503 134.291 131.927 133.848C131.958 133.839 131.992 133.837 132.024 133.841C132.057 133.845 132.089 133.855 132.117 133.872C132.146 133.888 132.171 133.91 132.191 133.936C132.211 133.962 132.226 133.992 132.235 134.024C132.243 134.056 132.246 134.089 132.242 134.122C132.238 134.155 132.227 134.186 132.211 134.215C132.195 134.244 132.173 134.269 132.146 134.289C132.12 134.309 132.09 134.324 132.059 134.332C130.739 134.792 129.362 135.063 127.967 135.139Z" fill="#3A556A"/>
<path d="M137.397 107.463C133.062 103.504 127.917 100.537 122.32 98.7653L124.667 91.5786C131.296 93.6645 137.391 97.1678 142.531 101.845C140.529 101.692 138.519 101.692 136.517 101.845C136.942 103.695 137.236 105.572 137.397 107.463Z" fill="#D15241"/>
<path d="M82.6026 107.463C86.9382 103.504 92.0829 100.537 97.6799 98.7653L95.3332 91.5786C88.7043 93.6645 82.6087 97.1678 77.4692 101.845C79.4707 101.692 81.4811 101.692 83.4826 101.845C83.0579 103.695 82.7639 105.572 82.6026 107.463Z" fill="#D15241"/>
<path d="M130.9 98.2667C124.463 94.8496 117.287 93.0628 110 93.0628C102.713 93.0628 95.5364 94.8496 89.0999 98.2667L85.5505 91.608C93.0789 87.6068 101.474 85.5144 110 85.5144C118.525 85.5144 126.921 87.6068 134.449 91.608L130.9 98.2667Z" fill="#E56353"/>
<path d="M110 97.7678L111.775 101.346L115.735 101.933L112.86 104.72L113.549 108.665L110 106.802L106.451 108.665L107.14 104.72L104.265 101.933L108.225 101.346L110 97.7678Z" fill="#D5D6DB"/>
</svg>
