<svg width="220" height="220" viewBox="0 0 220 220" fill="none" xmlns="http://www.w3.org/2000/svg">
<path d="M110 203.867C161.841 203.867 203.867 161.841 203.867 110C203.867 58.1588 161.841 16.1333 110 16.1333C58.1588 16.1333 16.1333 58.1588 16.1333 110C16.1333 161.841 58.1588 203.867 110 203.867Z" fill="#1A954F"/>
<path d="M72.6881 138.717C86.7257 138.717 98.1054 127.338 98.1054 113.3C98.1054 99.2624 86.7257 87.8827 72.6881 87.8827C58.6505 87.8827 47.2708 99.2624 47.2708 113.3C47.2708 127.338 58.6505 138.717 72.6881 138.717Z" fill="#EBF0F3"/>
<path d="M152.314 59.1506C148.116 59.1506 144.013 60.3953 140.523 62.7273C137.033 65.0593 134.313 68.3738 132.706 72.2517C131.1 76.1297 130.68 80.3968 131.499 84.5136C132.317 88.6304 134.339 92.412 137.307 95.38C140.275 98.348 144.056 100.369 148.173 101.188C152.29 102.007 156.557 101.587 160.435 99.9805C164.313 98.3742 167.628 95.654 169.96 92.164C172.292 88.6739 173.536 84.5707 173.536 80.3733C173.536 74.7447 171.3 69.3466 167.32 65.3666C163.34 61.3866 157.942 59.1506 152.314 59.1506Z" fill="#EBF0F3"/>
<path d="M152.783 118.697C148.678 118.697 144.666 119.915 141.253 122.195C137.84 124.475 135.18 127.717 133.609 131.509C132.039 135.301 131.628 139.474 132.428 143.499C133.229 147.525 135.206 151.223 138.108 154.126C141.01 157.028 144.708 159.005 148.734 159.805C152.76 160.606 156.933 160.195 160.725 158.624C164.517 157.054 167.758 154.394 170.039 150.981C172.319 147.568 173.536 143.555 173.536 139.451C173.536 136.725 172.999 134.027 171.956 131.509C170.914 128.991 169.385 126.703 167.458 124.776C165.531 122.849 163.243 121.32 160.725 120.277C158.207 119.234 155.508 118.697 152.783 118.697Z" fill="#EBF0F3"/>
<path d="M152.607 116.879C147.669 116.89 142.871 118.517 138.946 121.513C135.021 124.508 132.184 128.707 130.871 133.467C111.467 125.664 103.151 122.54 99.3667 121.513C101.51 114.516 100.815 106.956 97.4307 100.467L130.768 86.152C132.217 91.6835 135.719 96.4553 140.561 99.4963C145.403 102.537 151.222 103.619 156.834 102.522C162.446 101.424 167.429 98.2296 170.769 93.5883C174.109 88.9469 175.554 83.2074 174.812 77.5377C174.07 71.8679 171.196 66.6939 166.774 63.0685C162.352 59.4431 156.715 57.6387 151.01 58.0224C145.305 58.4061 139.96 60.9491 136.063 65.134C132.167 69.3189 130.011 74.8312 130.035 80.5493C130.035 81.268 130.035 81.9426 130.137 82.632L95.6121 97.46C92.1115 92.3898 87.0293 88.6227 81.1602 86.7478C75.2912 84.8729 68.9662 84.9958 63.1745 87.0975C57.3828 89.1992 52.4509 93.161 49.1501 98.3635C45.8492 103.566 44.3656 109.716 44.9312 115.851C45.4967 121.986 48.0796 127.761 52.2759 132.272C56.4722 136.784 62.0453 139.777 68.1236 140.784C74.2019 141.792 80.4427 140.757 85.8701 137.84C91.2975 134.924 95.6054 130.291 98.1201 124.667C102.608 125.987 119.196 132.513 130.181 136.928C130.088 137.756 130.039 138.588 130.035 139.421C130.032 143.89 131.354 148.259 133.835 151.975C136.316 155.692 139.843 158.589 143.971 160.3C148.099 162.012 152.641 162.46 157.024 161.589C161.407 160.718 165.433 158.567 168.593 155.407C171.752 152.247 173.904 148.222 174.775 143.839C175.646 139.456 175.197 134.913 173.486 130.786C171.775 126.658 168.877 123.13 165.161 120.65C161.444 118.169 157.075 116.846 152.607 116.849V116.879ZM152.607 61.468C156.378 61.468 160.064 62.5862 163.2 64.6813C166.335 66.7763 168.779 69.7542 170.222 73.2381C171.665 76.7221 172.043 80.5558 171.307 84.2543C170.571 87.9529 168.755 91.3503 166.089 94.0168C163.422 96.6833 160.025 98.4992 156.326 99.2349C152.628 99.9706 148.794 99.593 145.31 98.1499C141.826 96.7068 138.848 94.263 136.753 91.1275C134.658 87.992 133.54 84.3057 133.54 80.5346C133.54 75.4778 135.549 70.6282 139.125 67.0525C142.7 63.4768 147.55 61.468 152.607 61.468ZM72.7027 137.735C67.8723 137.74 63.1486 136.314 59.1292 133.634C55.1099 130.955 51.9753 127.144 50.1221 122.683C48.2689 118.223 47.7802 113.312 48.718 108.574C49.6557 103.835 51.9777 99.4814 55.3903 96.0627C58.8029 92.6439 63.1527 90.3141 67.8895 89.3678C72.6264 88.4215 77.5374 88.9013 82.0016 90.7465C86.4657 92.5917 90.2823 95.7193 92.9687 99.7339C95.6551 103.748 97.0905 108.47 97.0934 113.3C97.0895 119.769 94.519 125.972 89.9461 130.548C85.3733 135.123 79.1717 137.698 72.7027 137.705V137.735ZM132.44 134.127L132 133.951L132.396 134.112L132.44 134.127ZM152.607 158.532C148.836 158.532 145.149 157.414 142.014 155.319C138.878 153.224 136.435 150.246 134.991 146.762C133.548 143.278 133.171 139.444 133.906 135.746C134.642 132.047 136.458 128.65 139.125 125.983C141.791 123.317 145.188 121.501 148.887 120.765C152.586 120.029 156.419 120.407 159.903 121.85C163.387 123.293 166.365 125.737 168.46 128.872C170.555 132.008 171.673 135.694 171.673 139.465C171.673 144.522 169.665 149.372 166.089 152.947C162.513 156.523 157.664 158.532 152.607 158.532Z" fill="#2F4859"/>
<path d="M86.2986 128.48C86.1079 124.696 85.6679 120.193 84.7146 118.404C83.4239 115.94 79.3466 114.855 77.2639 114.459L76.5159 114.312H76.2666H76.0173H75.5039H75.2693L73.8026 114.209L71.8813 115.075L69.9599 114.209L68.4933 114.312H68.2439H67.7453H67.4666H67.2466H66.7919H66.6306C64.6066 114.693 60.3679 115.779 59.0479 118.287C58.2413 120.267 57.8013 124.667 57.5959 128.48H86.2986Z" fill="#D15241"/>
<path d="M69.1973 110.323H74.6973V114.943H69.1973V110.323Z" fill="#F7BE56"/>
<path d="M65.9999 103.781C66.5279 103.708 67.0705 104.5 67.2465 105.556C67.4225 106.612 67.1439 107.551 66.6305 107.624C66.1172 107.697 65.5599 106.92 65.3839 105.864C65.2079 104.808 65.4865 103.869 65.9999 103.781Z" fill="#FCD462"/>
<path d="M77.8947 103.781C77.3813 103.708 76.824 104.5 76.6627 105.556C76.5013 106.612 76.7653 107.551 77.2787 107.624C77.792 107.697 78.3493 106.92 78.5253 105.864C78.7013 104.808 78.408 103.869 77.8947 103.781Z" fill="#FCD462"/>
<path d="M71.9548 96.8733C68.8454 96.8733 66.3228 100.379 66.3228 104.705C66.3228 109.032 68.8454 112.552 71.9548 112.552C75.0641 112.552 77.5867 109.032 77.5867 104.705C77.5867 100.379 75.0641 96.8733 71.9548 96.8733Z" fill="#FCD462"/>
<path d="M77.8067 96.5508C76.9375 95.9563 75.9243 95.6067 74.8734 95.5388C73.9787 93.0161 68.5374 94.6588 66.8947 96.1108C64.9734 97.8121 66.2201 103.327 66.3374 105.336C66.3373 105.382 66.3465 105.427 66.3644 105.469C66.3823 105.511 66.4084 105.548 66.4413 105.58C66.4742 105.611 66.5132 105.636 66.5558 105.652C66.5984 105.668 66.6439 105.675 66.6894 105.673C66.7786 105.671 66.8642 105.637 66.9312 105.578C66.9982 105.52 67.0424 105.439 67.0561 105.351C67.1881 103.884 67.1587 100.217 67.8627 99.9241C69.7694 103.209 73.7294 97.0934 76.2961 102.036C76.8235 103.056 77.0953 104.188 77.0881 105.336C77.0918 105.427 77.1306 105.513 77.1962 105.576C77.2618 105.638 77.3492 105.674 77.4401 105.673C77.4856 105.675 77.531 105.668 77.5737 105.652C77.6163 105.636 77.6552 105.611 77.6881 105.58C77.721 105.548 77.7472 105.511 77.7651 105.469C77.7829 105.427 77.7921 105.382 77.7921 105.336C77.8507 103.327 79.0827 97.6361 77.8067 96.5508Z" fill="#3A556A"/>
<path d="M70.576 128.48H73.3333L72.6 118.36L74.14 116.204L71.9546 114.957L69.7546 116.204L71.3093 118.36L70.576 128.48Z" fill="#27A2DB"/>
<path d="M74.6972 112.743L71.9546 114.957L74.2866 117.524L76.0319 114.253L74.6972 112.743Z" fill="#E56353"/>
<path d="M69.1974 112.743L71.9548 114.957L69.3734 117.465L67.8774 114.253L69.1974 112.743Z" fill="#E56353"/>
<path d="M164.531 92.8253C164.369 89.672 164.003 85.932 163.225 84.4506C162.155 82.412 158.752 81.5173 157.021 81.1653L156.391 81.0479H156.215H155.995H155.379L154.205 80.96L152.607 81.6786L151.067 80.8719L149.908 80.96H149.292H149.057H148.881H148.485H148.368C146.667 81.2826 143.161 82.1773 142.061 84.26C141.269 85.7266 140.917 89.4813 140.741 92.6346L164.531 92.8253Z" fill="#2D93BA"/>
<path d="M150.333 77.7333H154.909V81.576H150.333V77.7333Z" fill="#F7BE56"/>
<path d="M147.679 72.3066C148.104 72.3066 148.559 72.8933 148.705 73.7733C148.852 74.6533 148.617 75.4306 148.192 75.504C147.767 75.5773 147.297 74.9026 147.151 74.0373C147.004 73.172 147.239 72.38 147.679 72.3066Z" fill="#FCD462"/>
<path d="M157.549 72.3066C157.124 72.3066 156.669 72.8933 156.523 73.7733C156.376 74.6533 156.611 75.4306 157.036 75.504C157.461 75.5773 157.931 74.9026 158.063 74.0373C158.195 73.172 157.975 72.38 157.549 72.3066Z" fill="#FCD462"/>
<path d="M152.607 66.5573C150.025 66.5573 147.943 69.4906 147.943 73.0692C147.943 76.6479 150.025 79.5812 152.607 79.5812C155.188 79.5812 157.285 76.6479 157.285 73.0692C157.285 69.4906 155.188 66.5573 152.607 66.5573Z" fill="#FCD462"/>
<path d="M156.933 66.5572C156.416 65.9439 155.78 65.4402 155.065 65.0756C154.35 64.7111 153.569 64.493 152.769 64.4343C151.968 64.3755 151.164 64.4773 150.403 64.7335C149.642 64.9898 148.941 65.3954 148.339 65.9266C146.74 67.3932 147.781 71.9106 147.884 73.5826C147.884 73.6204 147.892 73.6579 147.907 73.6927C147.922 73.7275 147.943 73.7589 147.971 73.785C147.998 73.8111 148.031 73.8313 148.066 73.8444C148.102 73.8575 148.14 73.8632 148.177 73.8612C148.214 73.8654 148.252 73.8616 148.287 73.8502C148.323 73.8388 148.356 73.8201 148.383 73.7951C148.411 73.7702 148.433 73.7396 148.448 73.7055C148.463 73.6714 148.471 73.6345 148.471 73.5972C148.603 70.3119 147.312 68.5666 152.504 68.6252C155.305 68.6252 156.669 68.5079 156.611 70.6786C156.743 71.6319 156.772 72.9372 156.816 73.6119C156.823 73.6845 156.857 73.7518 156.912 73.8006C156.966 73.8494 157.036 73.8763 157.109 73.8759C157.147 73.8779 157.185 73.8722 157.221 73.8591C157.256 73.846 157.289 73.8257 157.316 73.7997C157.343 73.7736 157.365 73.7422 157.38 73.7074C157.395 73.6726 157.403 73.6351 157.403 73.5972C157.52 71.8666 157.843 67.6132 156.933 66.5572Z" fill="#3A556A"/>
<path d="M151.463 92.8252H153.765L153.149 84.4066L154.44 82.6172L152.607 81.5906L150.788 82.6172L152.079 84.4066L151.463 92.8252Z" fill="#E1E6E9"/>
<path d="M154.895 79.7573L152.607 81.5907L154.543 83.7173L155.995 81.004L154.895 79.7573Z" fill="#27A2DB"/>
<path d="M150.333 79.7573L152.607 81.5907L150.465 83.6733L149.233 81.004L150.333 79.7573Z" fill="#27A2DB"/>
<path d="M164.267 151.316C164.105 148.265 163.753 144.657 163.005 143.22C161.964 141.255 158.605 140.375 157.021 140.052L156.405 139.949H156.229H156.024H155.628H155.467H154.337L152.871 140.639L151.404 139.949H150.275H150.069H149.673H149.453H149.277H148.911H148.793C147.151 140.257 143.763 141.123 142.707 143.132C141.944 144.599 141.592 148.177 141.431 151.228L164.267 151.316Z" fill="#2D93BA"/>
<path d="M150.583 136.752H154.997V140.463H150.583V136.752Z" fill="#F7BE56"/>
<path d="M148.016 131.501C148.427 131.501 148.881 132.073 149.013 132.968C149.145 133.863 148.925 134.552 148.515 134.625C148.104 134.699 147.649 134.053 147.517 133.159C147.385 132.264 147.605 131.56 148.016 131.501Z" fill="#FCD462"/>
<path d="M157.549 131.501C157.139 131.501 156.699 132.073 156.552 132.968C156.405 133.863 156.64 134.552 157.051 134.625C157.461 134.699 157.916 134.053 158.048 133.159C158.18 132.264 157.975 131.56 157.549 131.501Z" fill="#FCD462"/>
<path d="M152.783 125.957C150.289 125.957 148.265 128.759 148.265 132.235C148.265 135.711 150.289 138.527 152.783 138.527C155.276 138.527 157.3 135.711 157.3 132.235C157.3 128.759 155.276 125.957 152.783 125.957Z" fill="#FCD462"/>
<path d="M151.683 151.316H153.897L153.311 143.191L154.543 141.46L152.783 140.463L151.023 141.46L152.269 143.191L151.683 151.316Z" fill="#E1E6E9"/>
<path d="M154.997 138.688L152.783 140.463L154.645 142.516L156.053 139.891L154.997 138.688Z" fill="#27A2DB"/>
<path d="M150.583 138.688L152.783 140.463L150.715 142.472L149.512 139.891L150.583 138.688Z" fill="#27A2DB"/>
<path d="M156.933 125.957C156.43 125.372 155.817 124.891 155.128 124.543C154.439 124.195 153.688 123.987 152.918 123.929C152.148 123.872 151.374 123.967 150.642 124.21C149.909 124.452 149.231 124.837 148.647 125.341C147.107 126.705 148.104 131.12 148.192 132.675C148.199 132.749 148.233 132.818 148.286 132.869C148.34 132.92 148.411 132.95 148.485 132.953C148.558 132.954 148.629 132.927 148.683 132.878C148.737 132.829 148.771 132.762 148.779 132.689C148.632 131.452 148.687 130.199 148.94 128.979C149.798 129.067 150.663 129.067 151.521 128.979C154.205 128.788 154.88 128.128 155.012 127.952C156.127 128.084 156.669 128.495 156.625 129.844C156.757 130.768 156.787 132.029 156.831 132.675C156.834 132.746 156.865 132.813 156.917 132.862C156.969 132.911 157.038 132.939 157.109 132.939C157.185 132.939 157.257 132.91 157.312 132.858C157.366 132.806 157.399 132.735 157.403 132.66C157.52 131.12 157.843 126.969 156.933 125.957Z" fill="#3A556A"/>
</svg>
