<svg width="220" height="220" viewBox="0 0 220 220" fill="none" xmlns="http://www.w3.org/2000/svg">
<path d="M110 203.867C161.841 203.867 203.867 161.841 203.867 110C203.867 58.1588 161.841 16.1333 110 16.1333C58.1588 16.1333 16.1333 58.1588 16.1333 110C16.1333 161.841 58.1588 203.867 110 203.867Z" fill="#1A954F"/>
<path d="M162.683 119.431H57.3174L66.308 92.6787H153.692L162.683 119.431Z" fill="#44C4A1"/>
<path d="M64.7533 115.984L70.8986 95.1426H149.101L155.247 115.984H64.7533Z" fill="#3EA69B"/>
<path d="M67.6427 114.649L72.7907 96.1547H147.209L152.357 114.649H67.6427Z" fill="#44C4A1"/>
<path d="M110 98.1199C102.667 98.1199 96.3747 101.053 96.0813 104.764C95.788 108.475 101.948 111.965 110 111.965C118.052 111.965 124.241 108.665 123.919 104.764C123.596 100.863 117.333 98.1199 110 98.1199Z" fill="#3EA69B"/>
<path d="M135.857 101.992C132.733 101.992 130.372 103.239 130.607 104.808C130.841 106.377 133.657 107.741 136.913 107.741C140.169 107.741 142.501 106.421 142.149 104.808C141.797 103.195 138.981 101.992 135.857 101.992Z" fill="#3EA69B"/>
<path d="M84.1426 101.992C81.0186 101.992 78.2759 103.239 77.8506 104.808C77.4252 106.377 79.8306 107.741 83.0866 107.741C86.3426 107.741 89.1732 106.421 89.3932 104.808C89.6132 103.195 87.2666 101.992 84.1426 101.992Z" fill="#3EA69B"/>
<path d="M57.3174 119.431H162.683V155.98H57.3174V119.431Z" fill="#3EA69B"/>
<path d="M57.3174 121.367H162.683V122.115H57.3174V121.367Z" fill="#44C4A1"/>
<path d="M57.3174 123.992H162.683V124.74H57.3174V123.992Z" fill="#44C4A1"/>
<path d="M57.3174 126.632H162.683V127.38H57.3174V126.632Z" fill="#44C4A1"/>
<path d="M57.3174 129.272H162.683V130.02H57.3174V129.272Z" fill="#44C4A1"/>
<path d="M57.3174 131.912H162.683V132.66H57.3174V131.912Z" fill="#44C4A1"/>
<path d="M57.3174 134.552H162.683V135.3H57.3174V134.552Z" fill="#44C4A1"/>
<path d="M57.3174 137.177H162.683V137.925H57.3174V137.177Z" fill="#44C4A1"/>
<path d="M57.3174 139.817H162.683V140.565H57.3174V139.817Z" fill="#44C4A1"/>
<path d="M57.3174 142.457H162.683V143.205H57.3174V142.457Z" fill="#44C4A1"/>
<path d="M57.3174 145.097H162.683V145.845H57.3174V145.097Z" fill="#44C4A1"/>
<path d="M57.3174 147.737H162.683V148.485H57.3174V147.737Z" fill="#44C4A1"/>
<path d="M57.3174 150.363H162.683V151.111H57.3174V150.363Z" fill="#44C4A1"/>
<path d="M57.3174 153.003H162.683V153.751H57.3174V153.003Z" fill="#44C4A1"/>
<path d="M119.079 119.548H100.188L102.285 92.6787H116.967L119.079 119.548Z" fill="#E1E6E9"/>
<path d="M100.188 119.548H119.079V155.98H100.188V119.548Z" fill="#D5D6DB"/>
<path d="M125.737 83.732V103.561H142.208V83.732H152.357L133.965 64.02L115.573 83.732H125.737Z" fill="#FE7058"/>
</svg>
