<svg xmlns="http://www.w3.org/2000/svg" width="262.073" height="208.051" viewBox="0 0 262.073 208.051"><defs><style>.a{fill:#e0f3ff;}.b{fill:none;}.c{fill:#99c498;}.d{fill:#c5e2c4;}.e{fill:#df85f6;}.f{fill:#f1befe;}.g{fill:#c6e3c6;}.h{fill:#e6e7e8;}.i{fill:#62c0c4;}.i,.j{fill-rule:evenodd;}.j{fill:#18888c;}.k{fill:#a5bbaa;}.l{fill:#fdd246;}.m{fill:#566359;}.n{fill:#b8b8b8;}.o{fill:#464646;}.p{fill:#495381;}.q{fill:#936347;}.r{fill:#454545;}.s{fill:#f7b58e;}.t{fill:#e59e7e;}.u{fill:#626262;}.v{fill:#e7e5e7;}.w{fill:#393939;}.x{fill:#d1d8fe;}.y{fill:#485387;}.z{fill:#686767;}.aa{fill:#fbd247;}.ab{fill:#5b5b5b;}.ac{fill:#484d64;}.ad{fill:#d7cfcf;}.ae{fill:#626263;}.af{fill:#fff;}.ag{fill:#636363;}.ah{fill:#fcd246;}.ai{fill:#494d63;}.aj{fill:#fcfcfc;}.ak{fill:#606060;}.al{fill:#5e5e5e;}.am{fill:#a9b3e8;}.an{fill:#d1d9fe;}.ao{fill:#3b3b3b;}.ap{fill:#cfd7fd;}.aq{fill:#e25959;}.ar{fill:#d1d9ff;}.as{fill:#a9b4ea;}.at{fill:#626ea3;}.au{fill:#e25a5a;}</style></defs><g transform="translate(-333.552 -145.477)"><path class="a" d="M347,216.1c-32.7,42.7-2.2,119.4,53.1,133.7s91.8-17.1,125.5-17.8c41.9-.9,73.6-16.3,69.7-70.3C589.9,187.1,400.6,146.1,347,216.1Z"/><path class="b" d="M575.9,279.3Z"/><path class="b" d="M574.6,285.5Z"/><path class="c" d="M569.2,293.3a4.1,4.1,0,0,0,2,1.9c.2,0,.3-.2.4-.4a12.094,12.094,0,0,0,.5-1.8c.3-.7.4-1.5.7-2.2a.972.972,0,0,0-.1-.9c-.6-1.1-1.1-2.2-1.7-3.3-.4-.8-.9-1.7-1.3-2.5-.1-.2-.3-.4-.2-.7.2,0,.3.2.4.4.8,1.6,1.5,3.1,2.3,4.7.2.5.5.9.7,1.4.3-.2.3-.5.4-.7.3-1,.5-2,.8-2.9.5-1.7,1-3.5,1.5-5.2a2.491,2.491,0,0,0-.2-1.9c-.9-1.5-1.8-3.1-2.7-4.7l-.1-.1c0-.1-.2-.3,0-.4.1-.1.2.1.3.2.4.8.9,1.5,1.3,2.3.5,1,1.2,1.8,1.7,3h0a13.134,13.134,0,0,0,.5-1.5,54.379,54.379,0,0,1,1.5-5.4c.4-1.5.8-3,1.3-4.5.2-.8.5-1.6.7-2.4.1-.2.1-.5.4-.6a3.2,3.2,0,0,1-.3,1.4c-.5,1.9-1.1,3.7-1.6,5.6-.1.3-.2.5-.3.8v.3a.139.139,0,0,0,.2,0,12.9,12.9,0,0,0,1.6-.9c.3-.2.7-.3,1-.5.1.3,0,.3-.2.4a12.748,12.748,0,0,0-2.5,1.5c-.2.2-.4.3-.5.6-.6,2-1.1,4.1-1.7,6.1-.3,1-.5,2-.9,3-.2.7-.4,1.4-.7,2.3h0c2-1.5,3.9-2.8,5.9-4.1.1.2,0,.3-.1.4-1.1.8-2.3,1.6-3.4,2.4-.8.6-1.6,1.1-2.4,1.8a2.512,2.512,0,0,0-.6,1.4c-.4,1.6-.9,3.2-1.4,4.8-.2.7-.4,1.5-.6,2.2l-.3.9a3.812,3.812,0,0,0,1.5.1,6.154,6.154,0,0,0,2.3-.7,9.346,9.346,0,0,0,2.8-2.8,19.812,19.812,0,0,0,2.1-4.1,7.86,7.86,0,0,0,.8-2.6l.6-3.9a42.1,42.1,0,0,0,.4-5v-3.2c0-1.7-.2-3.4-.3-5.1-.1-1.5-.2-3.1-.4-4.6-.1-.7-.2-.7-.7-.4a1.794,1.794,0,0,0-.7.5l-1.5,1.2a25.06,25.06,0,0,0-4.5,4.7,31.666,31.666,0,0,0-3.8,7,40.975,40.975,0,0,0-1.9,6.6c-.2,1.2-.3,2.4-.4,3.6a16.168,16.168,0,0,0,.2,3.8A18.934,18.934,0,0,0,569.2,293.3Z"/><path class="d" d="M573.4,288.9l.3-.9a2.354,2.354,0,0,0-.2.8Z"/><path class="d" d="M578.5,273c-.2.1-.3.2-.5.1a.367.367,0,0,1-.1-.3c-.2.6-.3,1.2-.5,1.7A4.176,4.176,0,0,1,578.5,273Z"/><path class="d" d="M571.8,294.4c0-.2.1-.3.1-.5a2.921,2.921,0,0,0-.2.9C571.7,294.7,571.8,294.5,571.8,294.4Z"/><path class="d" d="M579.9,272.3c-.3.2-.6.3-.9.5a.1.1,0,0,0,.1-.1A5.933,5.933,0,0,0,579.9,272.3Z"/><path class="d" d="M575.9,280.1c-.1.4-.2.8-.3,1.1.1-.3.2-.6.3-1Z"/><path class="d" d="M577.4,274.5c-.1.2-.1.4-.2.6,0,.2-.1.3-.1.5.1-.2.1-.5.2-.7A.6.6,0,0,0,577.4,274.5Z"/><path class="d" d="M579.9,272.3a1.382,1.382,0,0,0,.4-.3C580.2,272.1,580,272.2,579.9,272.3Z"/><path class="d" d="M579,272.8c-.2.1-.3.2-.5.2a.1.1,0,0,0,.1-.1C578.7,272.9,578.9,272.8,579,272.8Z"/><path class="d" d="M572.5,289.2c.1.1.1.3.2.4l-.3-.6C572.4,289.1,572.4,289.1,572.5,289.2Z"/><path class="d" d="M578,272.4c0,.1-.1.3-.1.4.1-.3.1-.5.2-.8C578.1,272.2,578.1,272.3,578,272.4Z"/><path class="d" d="M573,289.7a.367.367,0,0,1-.3-.1.1.1,0,0,0,.1.1,1.146,1.146,0,0,1,.1,1c-.3,1.1-.6,2.2-1,3.3a.9.9,0,0,0,.1-.5c.4-1.5.9-3,1.3-4.5a.1.1,0,0,1-.1.1A.445.445,0,0,1,573,289.7Z"/><path class="d" d="M578.1,272c.5-1.6.9-3.1,1.3-4.7C579,268.9,578.6,270.5,578.1,272Z"/><path class="d" d="M572.4,289l-1.8-3.6A30.2,30.2,0,0,0,572.4,289Z"/><path class="d" d="M570.5,285.4c-.3-.6-.6-1.1-.9-1.6A8.27,8.27,0,0,1,570.5,285.4Z"/><path class="d" d="M573.7,288c.2-.6.3-1.1.5-1.7-.1.2-.1.3-.2.5C573.9,287.3,573.8,287.6,573.7,288Z"/><path class="d" d="M573.7,275.9a9.006,9.006,0,0,1-.5-.9C573.3,275.2,573.5,275.5,573.7,275.9Z"/><path class="d" d="M575.8,279.3a1.2,1.2,0,0,1,.2.8l1.2-4.5c-.3,1.1-.6,2.2-.9,3.2-.1.2-.1.4-.3.4v.1h-.2c0-.1-.1-.1-.1-.2C575.7,279.2,575.7,279.3,575.8,279.3Z"/><path class="d" d="M575.5,278.9c0,.1.1.2.2.3-.1-.1-.2-.3-.3-.4A.1.1,0,0,0,575.5,278.9Z"/><path class="d" d="M575.4,278.8c-.6-1-1.2-2.1-1.7-2.9C574.2,276.7,574.8,277.7,575.4,278.8Z"/><path class="d" d="M575.2,285.2c.1-.1.3-.2.4-.3a5.548,5.548,0,0,0-.8.6c.1,0,.1-.1.2-.1Z"/><path class="d" d="M571.2,295.2c.1.2.3.1.5.1v-.5C571.6,295,571.5,295.2,571.2,295.2Z"/><path class="d" d="M574.5,285c-.1.4-.3.9-.4,1.3a2.178,2.178,0,0,1,.7-.9.187.187,0,0,1-.3,0h0Z"/><path class="d" d="M577.4,283.6c.8-.6,1.6-1,2.2-1.5A20.957,20.957,0,0,1,577.4,283.6Z"/><path class="d" d="M575,283.3c.2-.7.4-1.3.6-2-.4,1.2-.7,2.5-1.1,3.7v-.1A9.826,9.826,0,0,0,575,283.3Z"/><path class="d" d="M577.4,283.6c-.5.4-1.1.8-1.7,1.2.1,0,.1-.1.2-.1C576.4,284.3,576.9,284,577.4,283.6Z"/><path class="d" d="M571.7,294.8a2.919,2.919,0,0,1,.2-.9c.3-1.1.6-2.2,1-3.3a1.645,1.645,0,0,0-.1-1,.1.1,0,0,0-.1-.1c-.1-.1-.1-.2-.2-.4a.349.349,0,0,0-.1-.2l-1.8-3.6c-.3-.5-.6-1.1-.9-1.6.3.5.6,1.1.9,1.6l1.8,3.6.3.6a.367.367,0,0,0,.3.1c.2,0,.3-.3.4-.5a.1.1,0,0,1,.1-.1v-.2a2.354,2.354,0,0,0,.2-.8c.1-.4.2-.7.3-1.1a.764.764,0,0,1,.2-.5c.1-.4.3-.9.4-1.3h0c.4-1.2.7-2.5,1.1-3.7.1-.4.2-.8.3-1.1a1.2,1.2,0,0,0-.2-.8c0-.1-.1-.1-.1-.2-.1-.1-.1-.2-.2-.3,0-.1-.1-.1-.1-.2-.6-1-1.2-2-1.7-2.9-.2-.4-.4-.7-.5-.9a4.052,4.052,0,0,0,.5.9c.5.8,1.1,1.8,1.7,2.9.1.1.2.3.3.4s.1.1.2.1c-.5-1.1-1.2-2-1.7-3-.4-.8-.8-1.5-1.3-2.3-.1-.1-.2-.3-.3-.2-.2.1,0,.2,0,.4a.1.1,0,0,0,.1.1c.9,1.6,1.8,3.1,2.7,4.7a1.828,1.828,0,0,1,.2,1.9c-.5,1.7-1,3.5-1.5,5.2-.3,1-.5,1.9-.8,2.9-.1.3-.1.5-.4.7a9.145,9.145,0,0,1-.7-1.4c-.8-1.6-1.5-3.1-2.3-4.7-.1-.2-.2-.4-.4-.4-.1.3.1.5.2.7.4.8.9,1.7,1.3,2.5.6,1.1,1.1,2.2,1.7,3.3a.972.972,0,0,1,.1.9,18.665,18.665,0,0,1-.7,2.2c-.2.6-.3,1.3-.5,1.8-.1.2-.1.4-.4.4C571.5,295.2,571.6,295,571.7,294.8Z"/><path class="d" d="M574.5,285Z"/><path class="d" d="M576.2,278.8c.4-1.1.6-2.2.9-3.2,0-.2.1-.3.1-.5a1.421,1.421,0,0,1,.2-.6c.2-.6.3-1.2.5-1.7,0-.1.1-.3.1-.4s.1-.2.1-.4c.4-1.6.9-3.1,1.3-4.7.2-.6.3-1.2.5-1.7-.2.6-.3,1.2-.5,1.7-.4,1.6-.9,3.1-1.3,4.7-.1.3-.1.5-.2.8a.367.367,0,0,0,.1.3c.2.1.3,0,.5-.1a.764.764,0,0,1,.5-.2c.3-.2.6-.3.9-.5a1.382,1.382,0,0,0,.4-.3c-.1.1-.3.2-.4.3a5.939,5.939,0,0,1-.8.4.1.1,0,0,0-.1.1c-.1.1-.2.1-.4.2a.1.1,0,0,0-.1.1,3.269,3.269,0,0,0-1.1,1.5c0,.1-.1.2-.1.3-.1.2-.1.5-.2.7l-1.2,4.5v.2c-.1.3-.2.6-.3,1-.2.7-.4,1.3-.6,2-.2.5-.3,1.1-.5,1.6v.1h0c0,.1-.1.3.1.4a15.459,15.459,0,0,1,.7-2.3l.9-3c.5-2.1,1.1-4.1,1.7-6.1.1-.3.2-.5.5-.6.8-.6,1.7-1,2.5-1.5.1-.1.2-.1.2-.4a9.288,9.288,0,0,0-1,.5,12.9,12.9,0,0,0-1.6.9c-.1,0-.2.1-.2,0a.188.188,0,0,1,0-.3c.1-.3.2-.5.3-.8.5-1.9,1-3.7,1.6-5.6a3.194,3.194,0,0,0,.3-1.4c-.3.1-.3.4-.4.6a21.723,21.723,0,0,1-.7,2.4c-.5,1.5-.8,3-1.3,4.5l-1.5,5.4a13.134,13.134,0,0,1-.5,1.5A1.035,1.035,0,0,0,576.2,278.8Z"/><path class="d" d="M572.6,292.1c.4-1.6,1-3.2,1.4-4.8a2.246,2.246,0,0,1,.6-1.4,21.447,21.447,0,0,1,2.4-1.8c1.1-.8,2.3-1.6,3.4-2.4.1-.1.2-.2.1-.4-1.9,1.3-3.9,2.6-5.9,4.1.1.1.2,0,.3,0a5.548,5.548,0,0,0,.8-.6c.6-.4,1.1-.8,1.7-1.2.8-.6,1.6-1.1,2.2-1.5-.6.4-1.3.9-2.2,1.5a14.308,14.308,0,0,0-1.5,1.1c-.1,0-.1.1-.2.1-.1.1-.3.2-.4.3s-.1.1-.2.1-.1.1-.2.1a2.178,2.178,0,0,0-.7.9c-.2.6-.3,1.1-.5,1.7l-.3.9v.1c-.4,1.5-.9,3-1.3,4.5,0,.2-.1.3-.1.5s-.1.3-.1.5c0,.1-.1.3-.1.4v.5l.3-.9A18.93,18.93,0,0,1,572.6,292.1Z"/><path class="b" d="M566.6,272.7Z"/><path class="e" d="M560.2,265.2a18.4,18.4,0,0,0,.8,4.2c.2.7.5,1.4.7,2.2-.3-.2-.6-.3-.9-.5a1.613,1.613,0,0,0-.9-.3q-.75,0-.9,1.2a8,8,0,0,0,.3,3.1,22.018,22.018,0,0,0,1.7,4.5.4.4,0,0,1,.1.5,3.568,3.568,0,0,0-1.7-1.1,1.344,1.344,0,0,0-1.8.9,5.254,5.254,0,0,0,0,3.5c.4,1.4.9,2.8,1.3,4.2.5,1.6,1.1,3.2,1.7,4.9a11.067,11.067,0,0,0,1.8,3.6c.8,1,1.3,1.1,2.3.7a4.281,4.281,0,0,0,1.8-1.5c0-1.5-.1-2.9-.1-4.4a.984.984,0,0,0-.3-.8c-1-1-1.9-2-2.8-2.9-1.1-1-2-2.2-3-3.2a3.178,3.178,0,0,0-1-1c-.1-.1-.1-.1,0-.2a.31.31,0,0,1,.2-.1c.1.1.3.2.4.3a57.886,57.886,0,0,0,4.8,5.1l1.7,1.7a3.752,3.752,0,0,0,.1-1v-6.1a1.613,1.613,0,0,0-.3-.9c-1.5-2.1-3-4.2-4.6-6.3a13.024,13.024,0,0,1-1-1.5c.3-.1.3,0,.4.2.4.6.9,1.2,1.3,1.8.6.8,1.2,1.5,1.8,2.3.6.9,1.3,1.7,1.9,2.6a.821.821,0,0,0,.5.5,4.486,4.486,0,0,0,.1-1.1V274a.735.735,0,0,0-.2-.6c-.7-1-1.3-2-1.9-3-.7-1.1-1.6-2.2-2.3-3.3-.1-.2-.3-.3-.2-.7a10.614,10.614,0,0,1,1.6,2.1l1.5,2.1c.5.7.9,1.5,1.5,2.2.1-1.2,0-2.5,0-3.7v-7.4a23.187,23.187,0,0,1,.1-3.7c.3,4.9,0,9.9.3,14.9h0a68.445,68.445,0,0,1,4.9-7.8,1.777,1.777,0,0,1-.4,1c-.8,1.2-1.6,2.4-2.3,3.6s-1.3,2.4-2,3.5a1.446,1.446,0,0,0-.2.7v7.3a1.088,1.088,0,0,0,.1.5c1.2-1.7,2.3-3.4,3.4-5.1s2.4-3.3,3.5-5c.2.2.1.3,0,.4-.4.6-.9,1.3-1.3,1.9-1.2,1.8-2.5,3.5-3.6,5.3a18.825,18.825,0,0,1-1.6,2.3,3.1,3.1,0,0,0-.6,2.3c0,1.8,0,3.5.1,5.3a1.077,1.077,0,0,0,.2.8c.9-1,1.7-2.1,2.6-3.2s1.7-2.2,2.5-3.2a35.845,35.845,0,0,1,2.5-3.3c.1.4-.1.5-.2.7-.9,1.2-1.7,2.5-2.7,3.7-1,1.3-1.9,2.6-3,3.8-.5.6-1,1.3-1.6,1.9a1.135,1.135,0,0,0-.3.8c0,1.2,0,2.3.1,3.5a.75.75,0,0,0,.1.5h0c.9-1,1.8-2,2.6-3a25.6,25.6,0,0,0,2-2.6,33.358,33.358,0,0,0,2.5-4,20.657,20.657,0,0,0,1.5-3.4,6.447,6.447,0,0,0,.3-2,1.149,1.149,0,0,0-.6-1.1,1.9,1.9,0,0,0-1.3-.1c-.6.2-1.2.3-1.8.5a1.445,1.445,0,0,1,.2-.7c.5-.8.9-1.6,1.3-2.4a16.573,16.573,0,0,0,1.4-3.7,4.067,4.067,0,0,0,0-1.9.778.778,0,0,0-1.1-.7,3.465,3.465,0,0,0-1.6.8,8.647,8.647,0,0,1-1,.7c0-.2,0-.3.1-.4.4-1.3,1-2.6,1.3-4a11.7,11.7,0,0,0,.4-2.6c0-1-.6-1.4-1.4-1.1l-.6.3a10.218,10.218,0,0,0-1.8,1.8.1.1,0,0,0-.1-.1v-1.3a20.245,20.245,0,0,0-.6-6.5,3.607,3.607,0,0,0-.8-1.5,1.533,1.533,0,0,0-1.9-.3A3.447,3.447,0,0,0,565,257a9.347,9.347,0,0,0-1.2,2.9,18.794,18.794,0,0,0-.5,4.7c0,.3.2.5,0,.8-.2-.1-.3-.3-.5-.5-.4-.4-.7-.8-1.2-.9-.6-.2-1,.2-1.1.8C560.2,264.8,560.2,265,560.2,265.2Z"/><path class="f" d="M565.5,271.9c.1.1.1.2.2.3a2.186,2.186,0,0,0,.3.5,3.507,3.507,0,0,0-.5-.8Z"/><path class="f" d="M566.6,294.6h0c0,.3,0,.5-.1.6.2,0,.3-.2.4-.3h0C566.7,294.8,566.7,294.7,566.6,294.6Z"/><path class="f" d="M566.4,272.2c-.1-2.7-.1-5.5-.1-8.2,0-1.9,0-3.7-.1-5.6.1,3.1,0,6.3,0,9.4,0,1.4,0,2.8.1,4.1,0,.3.1.6-.2.7h-.2a3.167,3.167,0,0,1,.4,1.6V274a2.5,2.5,0,0,1,.4-1.4c1-1.7,1.9-3.4,2.9-5,.5-.8,1-1.5,1.4-2.1-1,1.4-2,3-2.9,4.5-.4.7-.9,1.5-1.3,2.2-.1.2-.2.4-.4.4h0C566.3,272.6,566.4,272.3,566.4,272.2Z"/><path class="f" d="M562,266.9l1.5,2.1c-.5-.7-.9-1.3-1.4-1.9C562.1,267,562.1,266.9,562,266.9Z"/><path class="f" d="M566.4,283.8v-1.1a2.719,2.719,0,0,0,0,.9Z"/><path class="f" d="M573.3,271.9c.1,0,0,.1,0,0-.4.6-.7,1.1-1.1,1.6a5.715,5.715,0,0,0,1.1-1.6Z"/><path class="f" d="M567.3,281c.3-.5.6-1,.9-1.4-.2.4-.5.7-.7,1.1-.2.3-.3.5-.5.8,0-.1.1-.1.1-.2C567.2,281.1,567.2,281,567.3,281Z"/><path class="f" d="M565.9,281.2c-.1-.2-.2-.3-.3-.5A2.184,2.184,0,0,0,565.9,281.2Z"/><path class="f" d="M569.2,278c-.3.5-.7,1-1,1.5.9-1.4,1.9-2.9,2.8-4.3C570.4,276.2,569.8,277.1,569.2,278Z"/><path class="f" d="M571.7,274.2c-.2.3-.5.7-.7,1,.4-.6.8-1.2,1.2-1.7A3.04,3.04,0,0,1,571.7,274.2Z"/><path class="f" d="M566.6,291.1v-.2h0Z"/><path class="f" d="M566.5,289.1h0v0Z"/><path class="f" d="M566.6,294.3c0-1,0-2.1-.1-3.1.1,1,.1,2.1.1,3.1Z"/><path class="f" d="M566.5,289.1v0Z"/><path class="f" d="M566.4,289.6c-.3.1-.4-.1-.6-.3-1.9-2-3.9-3.9-5.7-6-.1-.1-.2-.3-.3-.3,1.9,2.4,4.2,4.5,6.3,6.7a1.606,1.606,0,0,1,.5,1.1v.1a1.689,1.689,0,0,1,.3-1c.2-.3.5-.6.7-.9l-.3.3c-.2.2-.3.5-.6.4a.55.55,0,0,1-.3-.5C566.5,289.4,566.5,289.5,566.4,289.6Z"/><path class="f" d="M562.1,276c1.2,1.6,2.3,3.1,3.5,4.7h0C564.5,279.1,563.3,277.6,562.1,276Z"/><path class="f" d="M566.2,281.3c-.1.1-.2,0-.3,0,.1.1.1.2.2.3a1.4,1.4,0,0,1,.3.9v.3a5.022,5.022,0,0,1,.5-1.3c-.1.1-.2.2-.3.1-.2-.1-.2-.3-.2-.5h0S566.4,281.2,566.2,281.3Z"/><path class="f" d="M565,271.2c.1.2.3.5.4.7a9.063,9.063,0,0,0-1.1-1.6A5.5,5.5,0,0,1,565,271.2Z"/><path class="f" d="M566.4,280.9V279A12.037,12.037,0,0,1,566.4,280.9Z"/><path class="f" d="M564.4,270.3c-.3-.4-.6-.9-.9-1.3A14.64,14.64,0,0,1,564.4,270.3Z"/><path class="f" d="M566.4,275.9v0Z"/><path class="f" d="M562.1,276a19.23,19.23,0,0,0-1.3-1.7C561.3,274.9,561.7,275.5,562.1,276Z"/><path class="f" d="M573.4,281.5c-1.4,1.9-2.8,3.8-4.3,5.7a10.474,10.474,0,0,0-.8,1.1l4.2-5.4C572.8,282.4,573.1,282,573.4,281.5Z"/><path class="f" d="M566.4,276.2v0Z"/><path class="f" d="M566.6,294.7h0v-.3c0-1.1,0-2.2-.1-3.2V291h0v-.1a1.433,1.433,0,0,0-.5-1.1c-2.1-2.3-4.4-4.4-6.3-6.7l.3.3a81.818,81.818,0,0,0,5.7,6c.2.2.3.4.6.3a.367.367,0,0,0,.1-.3v-7.1a1.613,1.613,0,0,0-.3-.9c-.1-.1-.1-.2-.2-.3a2.186,2.186,0,0,1-.3-.5c-1.1-1.6-2.3-3.1-3.5-4.7a19.23,19.23,0,0,0-1.3-1.7,19.23,19.23,0,0,0,1.3,1.7,50.871,50.871,0,0,1,3.4,4.7h0c.1.2.2.3.3.5a.187.187,0,0,0,.3,0c.1-.1.2-.2.2-.3v-6.6a4.192,4.192,0,0,0-.4-1.6c-.2-.1-.2-.3-.3-.5-.1-.1-.1-.2-.2-.3a1.612,1.612,0,0,1-.4-.7c-.2-.3-.4-.7-.6-1-.3-.4-.6-.9-.9-1.3l-1.5-2.1c.1,0,.1.1.1.2.5.6.9,1.3,1.4,1.9.3.4.6.9.9,1.3.4.5.7,1.1,1.1,1.6v.1a4.233,4.233,0,0,1,.5.7h.2c.3-.1.2-.5.2-.7,0-1.4-.1-2.8-.1-4.1,0-3.1.1-6.3,0-9.4.1,1.9.1,3.7.1,5.6,0,2.7,0,5.5.1,8.2,0,.2-.1.5.2.5h0c-.3-5.1,0-10-.3-14.9a22.566,22.566,0,0,0-.1,3.7v7.4c0,1.2.1,2.5,0,3.7-.5-.7-1-1.4-1.5-2.2l-1.5-2.1a14.62,14.62,0,0,0-1.6-2.1,1.165,1.165,0,0,0,.2.7c.8,1.1,1.6,2.2,2.3,3.3.6,1,1.3,2,1.9,3,.1.2.1.4.2.6V280a3.751,3.751,0,0,1-.1,1.1c-.2-.1-.3-.3-.5-.5-.6-.9-1.2-1.7-1.9-2.6-.6-.8-1.2-1.5-1.8-2.3-.4-.6-.9-1.2-1.3-1.8-.1-.1-.2-.3-.4-.2a13.024,13.024,0,0,0,1,1.5c1.6,2,3.1,4.1,4.6,6.3a1.4,1.4,0,0,1,.3.9v6.1a3.752,3.752,0,0,1-.1,1l-1.7-1.7c-1.6-1.6-3.3-3.3-4.8-5.1-.1-.1-.3-.2-.4-.3s-.2,0-.2.1a.139.139,0,0,0,0,.2,9.425,9.425,0,0,1,1,1c1,1.1,1.9,2.2,3,3.2,1,.9,1.9,2,2.8,2.9a1.135,1.135,0,0,1,.3.8c0,1.5.1,2.9.1,4.4C566.6,295,566.7,294.9,566.6,294.7Z"/><path class="f" d="M566.8,294.4c0-1.2,0-2.3-.1-3.5a1.135,1.135,0,0,1,.3-.8c.6-.6,1.1-1.3,1.6-1.9,1-1.2,2-2.6,3-3.8.9-1.2,1.8-2.4,2.7-3.7a1.166,1.166,0,0,0,.2-.7c-.9,1.1-1.6,2.3-2.5,3.3-.8,1.1-1.7,2.2-2.5,3.2-.9,1.1-1.7,2.2-2.6,3.2a1.077,1.077,0,0,1-.2-.8c0-1.8,0-3.5-.1-5.3a3.624,3.624,0,0,1,.6-2.3,18.828,18.828,0,0,0,1.6-2.3c1.1-1.8,2.4-3.6,3.6-5.3.4-.6.9-1.3,1.3-1.9.1-.1.2-.3,0-.4-1.1,1.7-2.3,3.3-3.5,5-1.1,1.7-2.2,3.5-3.4,5.1a.9.9,0,0,1-.1-.5v-7.3a1.445,1.445,0,0,1,.2-.7c.7-1.1,1.3-2.3,2-3.5s1.5-2.4,2.3-3.6a1.777,1.777,0,0,0,.4-1,60.665,60.665,0,0,0-4.9,7.8c.2,0,.3-.2.4-.4a15.92,15.92,0,0,1,1.3-2.2,38.764,38.764,0,0,1,2.9-4.5c-.5.7-1,1.4-1.4,2.1-1,1.7-2,3.4-2.9,5a2.89,2.89,0,0,0-.4,1.4V281h0c0,.2,0,.5.2.5.1.1.2,0,.3-.1.2-.3.3-.5.5-.8a6.728,6.728,0,0,0,.7-1.1c.3-.5.7-1,1-1.5l1.8-2.7c.2-.3.5-.7.7-1a3.038,3.038,0,0,0,.5-.7,13.024,13.024,0,0,0,1-1.5V272h0a9.063,9.063,0,0,1-1.1,1.6c-.4.6-.8,1.2-1.2,1.7-1,1.4-1.9,2.9-2.8,4.3-.3.5-.6,1-.9,1.4-.1.1-.1.2-.2.3,0,.1-.1.1-.1.2a2.947,2.947,0,0,0-.5,1.3v6.4h0v.2a.55.55,0,0,0,.3.5c.3.1.4-.2.6-.4l.3-.3a5.716,5.716,0,0,1,.7-.8c.3-.4.5-.7.8-1.1,1.5-1.9,2.9-3.7,4.3-5.7.2-.3.4-.6.7-1-.2.3-.4.6-.7,1s-.6.9-.9,1.3c-1.4,1.8-2.8,3.7-4.2,5.4a5.716,5.716,0,0,1-.7.8c-.2.3-.5.6-.7.9a1.689,1.689,0,0,0-.3,1v.2c0,1,.1,2.1.1,3.1v.3a.319.319,0,0,0,.3.3C566.8,294.7,566.8,294.6,566.8,294.4Z"/><path class="c" d="M546.9,267.3c0,1.3-.1,2.5-.1,3.8V274c0,1.2.1,2.4.2,3.6.1,1.3.4,2.6.6,3.9a23.047,23.047,0,0,0,2.1,6.9,16.346,16.346,0,0,0,3.3,4.5,5.649,5.649,0,0,0,5.3,1.5c-.7-2.4-1.6-4.8-2.4-7.1-.2-.5-.3-1-.5-1.5a1.242,1.242,0,0,0-.6-.8c-1.3-.9-2.7-1.8-4.1-2.6a8.467,8.467,0,0,1-1.9-1.4,17.79,17.79,0,0,1,3,1.7l3,1.8c.1-.2,0-.3,0-.4-.5-1.5-1.1-3-1.6-4.5-.3-1.1-.7-2.1-1-3.2-.3-1-.6-2-1-3a1.344,1.344,0,0,0-.6-.7c-.9-.4-1.8-.9-2.7-1.4.6-.2,1,.2,1.5.4s.9.5,1.5.8l-2.7-8.1c.4,0,.4.3.5.5.5,1.6,1.1,3.3,1.7,4.9.3.9.6,1.9.9,2.8.4,1.1.7,2.3,1.1,3.4a12.933,12.933,0,0,0,.7,2.1c0,.1,0,.2.2.3,1-1.9,2-3.8,3-5.8.1.4.1.6-.1.8-.7,1.4-1.5,2.8-2.2,4.2a3.881,3.881,0,0,1-.6,1.1.846.846,0,0,0,0,.7c.4,1.2.8,2.5,1.2,3.7.5,1.6,1,3.1,1.6,4.7a3.551,3.551,0,0,0,.4.9,19.643,19.643,0,0,0,1.5-3.3c.5-1.1,1-2.2,1.6-3.4a1.645,1.645,0,0,1-.1,1c-.8,1.6-1.5,3.3-2.2,5a2.01,2.01,0,0,1-.4.8.909.909,0,0,0-.1,1.1c.4,1.2.9,2.5,1.3,3.7.1.2.2.5.4.6h0a4.285,4.285,0,0,0,2.1-2.1,9.61,9.61,0,0,0,.8-2.9,18.893,18.893,0,0,0,.1-4.1,31.385,31.385,0,0,0-2.3-9,30.451,30.451,0,0,0-3.2-5.9,21.741,21.741,0,0,0-3.1-3.7,33.249,33.249,0,0,0-4.7-3.7,5.583,5.583,0,0,1-.8-.5c-.2-.1-.4,0-.4.3-.1.5-.1,1-.2,1.5Z"/><path class="g" d="M559.6,283.1c-.2.3-.3.7-.5,1a9.735,9.735,0,0,0,.5-1.1C559.7,283,559.7,283.1,559.6,283.1Z"/><path class="g" d="M555.5,285.8c0,.1.1.2.1.4a6.889,6.889,0,0,0,.3.8l-.3-.9A.367.367,0,0,0,555.5,285.8Z"/><path class="g" d="M558.3,293.9a.454.454,0,0,1,0,.5c.2,0,.3,0,.4-.1C558.5,294.3,558.4,294.1,558.3,293.9Z"/><path class="g" d="M554.9,283.9c.1.2.1.3.2.5-.1-.2-.1-.3-.2-.5Z"/><path class="g" d="M559.7,283Z"/><path class="g" d="M557.3,288.3c-.1.1-.1.3-.2.4.1-.1.1-.2.2-.3Z"/><path class="g" d="M557.8,287.3a4.669,4.669,0,0,1-.5,1c.7-1.4,1.3-2.8,1.9-4.2C558.7,285.2,558.2,286.2,557.8,287.3Z"/><path class="g" d="M553.5,279.9c0,.1,0,.1.1.2,0-.1-.1-.2-.1-.4Z"/><path class="g" d="M552.8,277.5c-.1-.4-.3-.8-.4-1.2A5.639,5.639,0,0,0,552.8,277.5Z"/><path class="g" d="M554.9,283.9c-.4-1.3-.9-2.6-1.3-3.9C554,281.3,554.5,282.6,554.9,283.9Z"/><path class="g" d="M550.6,272.6c.1,0,.2.1.3.1-.1-.1-.2-.1-.4-.2A.1.1,0,0,0,550.6,272.6Z"/><path class="g" d="M558.3,293.8Z"/><path class="g" d="M556.4,288.4c0,.1,0,.1.1.2-.1-.2-.1-.3-.2-.5A.367.367,0,0,1,556.4,288.4Z"/><path class="g" d="M555,284.6c-.2.2-.4,0-.6-.1-1.6-1.1-3.4-2.1-5-3.1,1.8,1.1,3.6,2.2,5.3,3.3a2.445,2.445,0,0,1,.9,1.1c-.2-.5-.3-1-.5-1.4A.31.31,0,0,1,555,284.6Z"/><path class="g" d="M548.7,265.1c.4,1.1.8,2.2,1.1,3.3.4,1.3.8,2.5,1.2,3.8,0,.1,0,.1.1.2l-1.5-4.5C549.3,266.9,549,266,548.7,265.1Z"/><path class="g" d="M551.1,272.4a.367.367,0,0,1-.1.3c-.1.1-.1.1-.2.1h.1c.3.1.4.4.5.7.3.9.6,1.9.9,2.8-.1-.3-.2-.7-.3-1A24.568,24.568,0,0,0,551.1,272.4Z"/><path class="g" d="M554.2,277.4c-.1.2-.3.5-.4.7.8-1.5,1.6-3.1,2.3-4.5C555.5,274.8,554.9,276.1,554.2,277.4Z"/><path class="g" d="M553.9,278.1a.764.764,0,0,0-.2.5h0c.1-.1.1-.2.2-.3A.138.138,0,0,1,553.9,278.1Z"/><path class="g" d="M549.3,272c-.2-.1-.3-.2-.4-.2A.758.758,0,0,1,549.3,272Z"/><path class="g" d="M550.5,272.6l-1.2-.6A6.721,6.721,0,0,1,550.5,272.6Z"/><path class="g" d="M553.6,278.6c-.1.1-.1.1-.2.1-.2,0-.3-.3-.3-.5-.1-.2-.2-.5-.3-.7.2.6.4,1.2.6,1.9,0,.1.1.2.1.3A1.417,1.417,0,0,1,553.6,278.6Z"/><path class="g" d="M557,289a.349.349,0,0,1,.1-.2c-.1.1-.1.1-.2.1-.2,0-.3-.1-.4-.3.5,1.6,1.1,3.2,1.6,4.8,0,.1.1.2.1.3-.5-1.3-.9-2.6-1.3-3.9A.755.755,0,0,1,557,289Z"/><path class="g" d="M558.4,293.6c-.4-1.2-.9-2.5-1.3-3.7a1.417,1.417,0,0,1,.1-1.1,2.011,2.011,0,0,0,.4-.8c.8-1.7,1.4-3.4,2.2-5a1.454,1.454,0,0,0,.1-1c-.6,1.2-1,2.3-1.6,3.4a33.1,33.1,0,0,1-1.5,3.3,1.8,1.8,0,0,1-.4-.9c-.5-1.6-1.1-3.1-1.6-4.7-.4-1.2-.8-2.5-1.2-3.7a.854.854,0,0,1,0-.7,5.97,5.97,0,0,0,.6-1.1c.7-1.4,1.5-2.8,2.2-4.2a.989.989,0,0,0,.1-.8c-1,2-2,3.9-3,5.8-.1-.1-.2-.2-.2-.3a17.237,17.237,0,0,1-.7-2.1,33.813,33.813,0,0,1-1.1-3.4c-.3-.9-.6-1.9-.9-2.8-.6-1.6-1.1-3.3-1.7-4.9-.1-.2-.1-.5-.5-.5l2.7,8.1c-.6-.2-1-.6-1.5-.8s-.9-.6-1.5-.4c.9.5,1.8,1,2.7,1.4.3.1.4.3.6.7.4,1,.7,2,1,3,.3,1.1.7,2.1,1,3.2.5,1.5,1,3,1.6,4.5,0,.1.1.2,0,.4-1-.6-2-1.3-3-1.8a17.793,17.793,0,0,0-3-1.7,8.466,8.466,0,0,0,1.9,1.4c1.4.8,2.7,1.7,4.1,2.6a1.242,1.242,0,0,1,.6.8,8.8,8.8,0,0,0,.5,1.5c.9,2.3,1.7,4.7,2.4,7.1a.446.446,0,0,0,0-.5v-.2c0-.1-.1-.2-.1-.3-.5-1.6-1.1-3.2-1.6-4.8,0-.1,0-.1-.1-.2,0-.1-.1-.2-.1-.3-.1-.4-.3-.8-.4-1.1a6.889,6.889,0,0,0-.3-.8c0-.1-.1-.2-.1-.4a2.445,2.445,0,0,0-.9-1.1c-1.7-1.1-3.6-2.2-5.3-3.3,1.7,1.1,3.4,2,5,3.1.2.1.4.3.6.1a.367.367,0,0,0,.1-.3c-.1-.2-.1-.3-.2-.5-.5-1.3-.9-2.6-1.3-3.9,0-.1,0-.1-.1-.2,0-.1,0-.1-.1-.2,0-.1-.1-.2-.1-.3-.2-.6-.4-1.2-.6-1.9-.1-.4-.3-.8-.4-1.2-.3-.9-.6-1.9-.9-2.8a1.157,1.157,0,0,0-.5-.7H551c-.1,0-.2-.1-.3-.1a.1.1,0,0,1-.1-.1l-1.2-.6c-.2-.1-.3-.2-.4-.2.1.1.3.1.4.2a6.658,6.658,0,0,0,1.2.6c.1.1.2.1.4.2.1,0,.1,0,.2-.1a.367.367,0,0,0,.1-.3h0c0-.1-.1-.1-.1-.2-.4-1.3-.8-2.5-1.2-3.8-.4-1.1-.8-2.2-1.1-3.3.3.9.6,1.8,1,2.8l1.5,4.5h0c.3,1,.6,1.9,1,2.9.1.3.2.7.3,1,.1.4.3.8.4,1.2.1.2.2.5.3.7s.1.4.3.5c.1,0,.2,0,.2-.1h0c.1-.2.2-.3.2-.5a1.612,1.612,0,0,1,.4-.7c.7-1.3,1.3-2.6,2-3.8-.7,1.5-1.5,3-2.3,4.5v.1c0,.1-.1.3-.2.3a1.417,1.417,0,0,0-.1,1.1c0,.1.1.2.1.4.4,1.3.9,2.6,1.3,3.9h0a.6.6,0,0,1,.1.4c.2.5.3,1,.5,1.4,0,.1.1.2.1.3l.3.9c.1.4.3.8.4,1.1.1.2.1.3.2.5s.2.3.4.3a.349.349,0,0,0,.2-.1c.1-.1.1-.3.2-.4a4.669,4.669,0,0,1,.5-1c.5-1.1.9-2.2,1.4-3.2.2-.3.3-.7.5-1a.1.1,0,0,1,.1-.1v0a11.734,11.734,0,0,1-.5,1.1c-.6,1.4-1.2,2.8-1.9,4.2a.1.1,0,0,1-.1.1c0,.1-.1.2-.2.3a.349.349,0,0,1-.1.2,1.1,1.1,0,0,0,0,.8c.4,1.3.9,2.6,1.3,3.9,0,.1,0,.1.1.2.1.2.2.4.4.4h0C558.6,294.1,558.5,293.9,558.4,293.6Z"/><ellipse class="h" cx="16.7" cy="3.2" rx="16.7" ry="3.2" transform="translate(547.8 311.1)"/><path class="i" d="M577.6,298.5c-.6,3.9-1.5,7.7-4,10.8a12.33,12.33,0,0,1-8.1,4.5,11.4,11.4,0,0,1-7-1.2,10,10,0,0,1-4.8-5.3,39.037,39.037,0,0,1-2.2-7.6,5.284,5.284,0,0,1-.1-1.3c.2-.3.5-.2.8-.3a22.572,22.572,0,0,1,4.5.1,58.151,58.151,0,0,0,5.9.2h8c2.1,0,4.1,0,6.2-.1C577.1,298.3,577.4,298.2,577.6,298.5Z"/><path class="j" d="M577.6,298.5c-3.3.2-6.6.1-9.9.1h-4.2q-4.2,0-8.4-.3a22.878,22.878,0,0,0-3.7.1,18.336,18.336,0,0,1-.2-4.7c0-1.8.1-1.8,1.7-2h.2c2.1-.1,4.3-.2,6.4-.3.2-.2.4-.1.6,0a.367.367,0,0,1,.3.1c2.5,0,5-.4,7.6-.3.2-.2.4-.2.7,0a46.851,46.851,0,0,1,5.3,0,8.6,8.6,0,0,0,1.6.1,10.868,10.868,0,0,1,1.8.1c.2,0,.5,0,.5.4A38.41,38.41,0,0,1,577.6,298.5Z"/><ellipse class="h" cx="91.5" cy="9.7" rx="91.5" ry="9.7" transform="translate(360.4 315.3)"/><path class="b" d="M422.3,229.5Z"/><path class="b" d="M461.4,321.7c-.1,0-.2-.1-.4-.1C461.2,321.6,461.3,321.7,461.4,321.7Z"/><path class="b" d="M427.4,310.3c-.1.1-.2.1-.2.2,0-.1.1-.1.1-.2Z"/><path class="k" d="M492.6,233.7a35.282,35.282,0,0,0-9.2,7.7c-5.5,6-10.1,12.9-15.7,18.9a7.088,7.088,0,0,1-3.8,2.4h-.2c-3.1.2-3.3.7-1.7,3.6,1.8,3.2,3.6,6.3,5.4,9.5.3.6.6,1.2,1.4,1.2a2.107,2.107,0,0,0,.3,1.7c.9,1.4,1.7,2.8,2.6,4.2h0a70.472,70.472,0,0,1-.8,7.9,35.016,35.016,0,0,1-6.2,4.1c-.2.3-.5.6-.7.9h0c-.8-.8-1.2-2.1-2.5-2.2-.6-2.3-2.4-3.6-3.6-5.5-.7-1.1-1.7-2-2.4-3.1-.3-.5-.7-1.3-1.5-.7h0c-.2-.6.1-1.3-.6-1.6-.5,0-.5.5-.7.9-2.2,5.3-4.5,10.5-6.6,15.8a3.892,3.892,0,0,1-2.5,2.5h0c-1.4-.6-2.9-1.3-4.3-1.9-1.3-.5-2.2-1.7-3.7-1.9h0c-.7-.8-1.7-1-2.5-1.6-1.2-.8-1.4-1.2-.9-2.6.7-2,1.5-3.9,2.3-5.9a7.536,7.536,0,0,0,.7-3.3c.7-.3.5-.9.4-1.4,1.2-1,1.3-2.6,1.6-4.1.5-.4.4-1,.5-1.5a4.887,4.887,0,0,0,1.1-3.1V274c1.2-2.5,1.8-5.2,2.8-7.8a.962.962,0,0,0-.4-1.2,27.166,27.166,0,0,1-2.1-4.6h0c0-1.1.1-2.3,0-3.4a5.956,5.956,0,0,1,1.6-4.5,61.99,61.99,0,0,1,8.7-8.3c2.9-2.4,5.9-4.7,8.8-7.1,4.4.7,8.5,2.5,12.7,3.9.9.3,1.9.6,2.8.9.9.4,1.3-.2,1.4-1,0-.2.1-.5.1-.7a90.813,90.813,0,0,1,.5-9.1c.1-1.8,0-1.9-1.7-1.9-1.3,0-2.4-.4-3.7-.5-1.1,0-1.6-.7-1.7-1.9a11.074,11.074,0,0,0-.4-3.6h0a22.081,22.081,0,0,0-.5-6.3c.1-2.1.2-2.2,2-2.3,2.4-.2,4.8-.4,7.2-.5a2.078,2.078,0,0,0,2.2-1.8c.1.5-.1,1.2.6,1.3s.6-.6.8-1.1c.6-1.3.4-2.7.6-4,.4-2.9.9-5.7,1.5-8.5a41.927,41.927,0,0,0,.3-5c.1-.8-.2-1.7.4-2.4v2.3c.6-.1.5-.5.6-.8,1.9-6.1,3.9-12.2,5.8-18.3a13.3,13.3,0,0,1,2.5-4.7,2.031,2.031,0,0,1,2-1h0a10.936,10.936,0,0,0,5.3,4.9,4.054,4.054,0,0,0,.9.5,18.774,18.774,0,0,1,9.4,9.8c1.8,4.1,3.9,8.2,4.2,12.8.3,3.5.2,7,.2,10.5-.1,5.5,1.3,10.7,2.4,15.9a12.8,12.8,0,0,1-4.2,1.3A73.22,73.22,0,0,0,492.6,233.7Z"/><path class="l" d="M510.4,269.3h0c-.7-.4-1.3,0-1.9.4h-.3a30.188,30.188,0,0,0-6-.3,200.961,200.961,0,0,1-20.5-1c-2.3-.2-4.5-.6-6.8-.9a.593.593,0,0,0-.9-.3h0c-.6,0-1.1-.1-1.7-.1-1.7-.5-3.5-1-5.2-1.6a4.426,4.426,0,0,1-3.2-2.6c3.6-.5,5.5-3.8,7.5-6.5,4.3-5.6,8.9-11.1,13.5-16.4a32.152,32.152,0,0,1,10.9-7.8c5.8-2.7,11.6-5.2,17.9-6.5.9-.2,2.2-.1,2.6-1.5,2.7-.5,5.4-1.1,8.1-1.6,4.5-.8,6.2,1.3,5.4,6.2-1,6.3-3.1,12.3-4.7,18.5a55.646,55.646,0,0,1-5.4,13.1c-2.1,3.9-4.7,7.1-8.8,8.4,0,.3-.2.4-.5.5Z"/><path class="l" d="M514,225.9c-6.2,1.3-12.1,3.9-17.9,6.5a31.211,31.211,0,0,0-10.9,7.8c-4.6,5.3-9.2,10.8-13.5,16.4-2.1,2.7-3.9,5.9-7.5,6.5-.1-.1-.1-.3-.2-.5a7.088,7.088,0,0,0,3.8-2.4c5.6-5.9,10.2-12.8,15.7-18.9a35.281,35.281,0,0,1,9.2-7.7,78.8,78.8,0,0,1,19.8-7.9,12.8,12.8,0,0,0,4.2-1.3C516.1,225.8,514.9,225.7,514,225.9Z"/><path class="m" d="M416.6,185.8h0a34.187,34.187,0,0,0,.8,8.4,35.011,35.011,0,0,0,.6,7.2,13.552,13.552,0,0,1,.2,2h0c-3.4-2.2-6.9-1.4-10.4-.7-1.5.3-3.2.1-4.6,1.1-.2.8.5.9.9,1.3a81.087,81.087,0,0,1,9.2,8.4h0c-.2.2-.5.3-.7.5a4.188,4.188,0,0,1-3.8,1.6c-2.2-1-3.9-.4-5.6,1.5a17.553,17.553,0,0,1-3,2.4c-1,.8-2.1.6-3.2.6-1,0-2-.2-2.3,1.3-.1.6-.6.5-1,.5H381.5a9.572,9.572,0,0,1-.8-3.8,16.006,16.006,0,0,1,2.4-8.1c1.7-2.9,3.8-5.5,5.6-8.2a44.592,44.592,0,0,1,5.9-7,25.768,25.768,0,0,0,3.6-3.8,31.474,31.474,0,0,1,13.3-10.8C414.2,181,414.9,183.9,416.6,185.8Z"/><path class="n" d="M396.2,311.7c.4-.2.8-.3,1.2-.5.9.1.7-1,1.2-1.4.1,1.1.8,1.1,1.5.9a68.83,68.83,0,0,1,7.9-1.5,27.128,27.128,0,0,1,3.8-.6c1.3-.1,1.5-.8,1.3-1.9a.812.812,0,0,0,.4-.8c0-3.3.3-6.5,0-9.8,0-.1-.1-.3-.1-.4.4-6.4-.7-12.8-.4-19.2.2-4.3.2-8.5,0-12.8-.3-5.7-.3-11.4-.3-17.1a9.253,9.253,0,0,1,.2-2.9c.3-.8-.2-1.2-.7-1.7,1-.1.9-1,.9-1.7V229.6h0c2.4-.1,4.8-.3,7.2-.4.6,0,1.3-.3,1.9.3H420c-1.4.1-1.6.2-1.4,1.8.1,1.7.4,3.4.4,5.2v7.7a61.1,61.1,0,0,0-.1,12.1c.2,5.3.1,10.5.1,15.8,0,8,.1,16,.1,24h0c-.2,3.3-.3,6.5-.4,9.8-.1,1.9.1,2.1,1.7,2.6,1.7.5,3.5.9,5.2,1.4a4.8,4.8,0,0,0,1.7.5c0,.1-.1.1-.1.2-1.7,1.3-3.4,2.6-5.2,3.9-2-.9-4-1.7-6.3-1a7.82,7.82,0,0,0-2.6,1.7c-4.6,3.6-9.4,6.9-13.2,11.7-.1.2-.3.3-.5.5a1.845,1.845,0,0,1-2.5,0c-.8-.8-.6-1.6-.1-2.5a11.383,11.383,0,0,1,1.8-2.5c1.4-1.3,2.8-2.5,4.1-3.9,1.2-1.3,2.8-2.1,4-3.9a15.983,15.983,0,0,0-2.2,0c-2,.4-3.9,1-5.9,1.2-1,.1-1.4.8-1.8,1.5.1-1-.5-.7-1-.8-1-.1-.5.8-.7,1.2-.4-.7-.9-1.1-1.7-.9-3.9,1-8,1.3-11.9,2.5a9.992,9.992,0,0,0-4.5,2.2,2.276,2.276,0,0,1-1.6.4c-1,0-2,0-2.5-1.2-.3-.7.4-1.7,1.6-2.4a13.089,13.089,0,0,1,3.7-1.5c5.2-1.5,10.4-3,15.6-4.4a2.3,2.3,0,0,0,1.7-1.6C395.4,311.3,395.5,311.8,396.2,311.7Z"/><path class="o" d="M462.5,319.8a4.417,4.417,0,0,1-2.2-5.2c.4-1.9.7-3.8,1.1-5.7h0a.819.819,0,0,0,.4-1c0-.3.1-.6.1-.8a1.436,1.436,0,0,0,.3-1.4.6.6,0,0,1,.1-.4c.5-.4.4-.9.3-1.5,0-.3.1-.5.1-.8.5-.4.4-.9.3-1.4a.6.6,0,0,1,.1-.4c.5-.4.4-.9.3-1.5,0-.3.1-.5.1-.8.5-.4.4-.9.3-1.5s.5-1,.2-1.6a1.8,1.8,0,0,0,.9-.6c.1.6-.6,1.3-.2,1.9,0,.3-.1.6-.1.8-.5.4-.4.9-.3,1.5,0,.3-.1.5-.1.8-.5.4-.4.9-.3,1.4a.6.6,0,0,1-.1.4c-.5.4-.4.9-.3,1.5,0,.3-.1.5-.1.8-.5.4-.4.9-.3,1.4a.6.6,0,0,1-.1.4,1.4,1.4,0,0,0-.3,1.5c0,.3-.1.5-.1.8-.6.5-.4,1.2-.4,1.9.1.4.2.9.3,1.3a6.469,6.469,0,0,0-1,5.2c.3,1.4,1.5,1.7,2.5,2s1.7-.2,2.1-1.2c.3-.6,1-1,1-1.9.9-.4.8-1.3,1-2.1.5-3.3,1-6.6,1.6-9.8.1-.2.3-.4.3-.6-.2-4.2,1-8.3.9-12.4a2.181,2.181,0,0,1,.4-.5,28.126,28.126,0,0,0,.8-7.1,3.583,3.583,0,0,0-.4-1.1c.5-3.5,1-6.9,1.6-10.4.2-1.3.5-2.6.7-3.9h0a2.353,2.353,0,0,1,.8.2,66.659,66.659,0,0,0-1.2,7.8,54.338,54.338,0,0,1-.9,5.6c-.6.6-.4,1.3-.3,2V285a32.874,32.874,0,0,0-.5,5.4c-.1,2.3-.7,4.6-.6,6.9,0,2.6-1.1,5-.9,7.6-.1,1.8-.3,3.7-.4,5.8,1.5-1.6,1.6-3.7,2.5-5.4,1,.1,1.9,1.2,3.1.5a5.717,5.717,0,0,0,2.6-3.1,14.19,14.19,0,0,0,.5-2.2c.2-.8.5-1.6,1.4-1.7,2.1,2,4.6,3.3,6.6,5.5,4.6,5,4.4,5.5-.1,9.9a15.473,15.473,0,0,1-3.3,2.4c-.5.3-1,.6-1.5-.1-.5-.8-1-.6-1.5,0-.9.9-1.9,1.8-2.8,2.7-.1.1-.1.3-.2.5a2.851,2.851,0,0,0,1.6.2c7,.4,13.9.9,20.9,1.2,5.1.2,10.2.2,15.3.2,2.8,0,5.7,0,8.5.1a7.457,7.457,0,0,0,2.6-.4c1.9-.8,2.4-1.9,1.6-3.9-1.2-3.1-2.4-6.2-3.8-9.2-3.8-8-7.2-16.2-10.7-24.3-1.7-3.9-3.3-7.9-4.9-11.9a3.942,3.942,0,0,1-.5-1.4,4.331,4.331,0,0,0,.5-.1c2.2,3.6,3.6,7.7,5.3,11.6,3.8,8.8,7.5,17.5,11.5,26.2a54.507,54.507,0,0,1,3.6,9c.8,2.9.3,3.8-2.3,5.2a5.924,5.924,0,0,1-3.2.6c-9.2-.1-18.4-.1-27.5-.6-5.9-.3-11.8-.9-17.8-1-2.7,0-2.7,0-5.2,2.6,4.8-.4,9.4.6,13.9,1.1,6.6.7,13.3.4,19.9.9,6.8.5,13.5.2,20.3.2a18.437,18.437,0,0,0,5.1-1c1.6-.4,2.2-1.5,2.1-3.4a15.222,15.222,0,0,0-1.7-5.6c-5-9.6-9.2-19.6-14.1-29.3-2.6-5.1-5.1-10.1-7.6-15.2-.3-.5-.8-1-.7-1.7h.1a.953.953,0,0,0,.8-.8c2.6,5.3,5.3,10.5,7.9,15.8,5,10,9.4,20.4,14.7,30.3a15.634,15.634,0,0,1,1.9,6c.2,2.7-.8,4.4-3.1,5.2a19.422,19.422,0,0,1-6.3,1.1c-7.2-.2-14.5,0-21.8-.4-9.2-.4-18.4-.8-27.5-1.8a22.868,22.868,0,0,0-6.4,0,20.5,20.5,0,0,1-4.9.3c-2.7-.2-3.1-.8-3-3.6C463.7,320.5,463.7,320.5,462.5,319.8Z"/><path class="o" d="M471.7,282.7h0c0-.2.1-.4.1-.6.1.4.3.7.4,1.1-.2,2.4-.1,4.8-.8,7.1a2.181,2.181,0,0,1-.4.5v-.3C471.3,288,471.6,285.3,471.7,282.7Z"/><path class="o" d="M464,295.6h0c.2-.3.5-.6.7-.9a1.332,1.332,0,0,1,.3.5c-.3.2-.5.5-.9.6a.31.31,0,0,1-.1-.2Z"/><path class="o" d="M510.4,269.7h0c-.1-.1,0-.2,0-.4h0a3,3,0,0,0,.8-.4A.953.953,0,0,1,510.4,269.7Z"/><path class="o" d="M474.2,267.3a.593.593,0,0,1,.9.3c0,.1-.1.3-.1.4a2.353,2.353,0,0,0-.8-.2h0v-.5Z"/><path class="o" d="M508.3,269.7h.3c.1.1.1.3.2.4a1.087,1.087,0,0,1-.5.1c-.1-.1,0-.3,0-.5Z"/><path class="l" d="M370.7,222.6c3.4-.3,6.7-.8,10.1-.8a2.46,2.46,0,0,0,1.1.4,2.953,2.953,0,0,0,1.3.2h9.9c7.5-.1,15.1-.8,22.6-.5q16.2.6,32.4.9a16.078,16.078,0,0,0,3.1-.1c2.4,1.3,5.1.9,7.7,1.4.7.1,1.4-.2,1.9.5v1.8c-.1,2.3-.8,3.2-2.9,3.2a59.09,59.09,0,0,1-9.4-.3,1.163,1.163,0,0,0-1,.2c-2.5-.1-5-.2-7.5-.2h0c-3.4-.1-6.7-.4-10.1.2-2.5.1-5.1-.6-7.6,0h-.1c0-1-.8-1-1.3-1a29.206,29.206,0,0,0-7.8.9.1.1,0,0,1-.1.1,6.054,6.054,0,0,0-1.9,0c-6.4-.1-12.8-.2-19.2-.4h0c-4.7-.7-9.4,0-14,.1a28.921,28.921,0,0,1-7.2-.1c-2.3-.5-3-2-2.2-4.5C368.9,223.6,369.4,222.7,370.7,222.6Z"/><path class="l" d="M382.8,222.2h5c1.8.1,3.6.1,5.4.1h0c-.1.1-.3,0-.4,0h-9.5a2.745,2.745,0,0,1-1.3-.2A2.485,2.485,0,0,0,382.8,222.2Z"/><path class="l" d="M420.4,229.2c-2.4.1-4.8.2-7.2.4h-.1a.1.1,0,0,1,.1-.1c2.6-.9,5.2-.8,7.8-.9.5,0,1.3,0,1.3,1C421.8,228.9,421.1,229.1,420.4,229.2Z"/><path class="m" d="M451.2,215.3c-.8-2.2-1.8-4.1-4-4.8-1.4-.4-2.9-1-4.1.7h0c-1.1-.1-2-.9-3-1.4-3.3-1.8-4.7-1.8-7.5,2.4h-.2c-.6-6.7-1.2-13.4-1.9-20.1,0-.4-.2-.7-.2-1.1,0-1.2,0-2.4-.1-3.6a37.8,37.8,0,0,0,1.7-7.4h0c1.9.5,3.9,1,5.8,1.5,3.2.8,6.3,1.5,9.5,2.3,2,.5,2.5,1.3,2.8,3.4v1.4a5.158,5.158,0,0,0,1.1,3.6,3.963,3.963,0,0,1,.8,3.8,8.164,8.164,0,0,0,.2,4.1c.4,1.5.9,2.9,1.4,4.3,1.2,3.3,2.9,6.4,3.9,9.8h0C455.3,213.5,453.2,214.3,451.2,215.3Z"/><path class="m" d="M411,230.2h.2a13.787,13.787,0,0,1-1.4,6.6,6.153,6.153,0,0,0-.7,3.3,2.068,2.068,0,0,0-1,1.4,6.276,6.276,0,0,1-3.5,4.5,6.316,6.316,0,0,0-3.4,5,24.091,24.091,0,0,1-1.6,5.4c-.6,1.4,0,1.9.9,2.4-1.4.2-1.4.2-1.8,2.4h0c-.2.5-.5.9-.7,1.4a37.821,37.821,0,0,1-6.6,9.7,1.707,1.707,0,0,1-2,.7c-.7-.3-.7-1.1-.6-1.8,0-1,0-2,.1-3,.2-3.6.5-7.2.4-10.7a33.668,33.668,0,0,1,1.9-13,19.991,19.991,0,0,0,1.4-9.4,58.451,58.451,0,0,1-.4-5.9c1.9,1,4,.9,6.1,1C402.3,230.4,406.7,230.4,411,230.2Z"/><path class="p" d="M411.2,229.6v.6H411c-4.3.1-8.7.2-13,0-2-.1-4.1,0-6.1-1h0C398.4,229.3,404.8,229.4,411.2,229.6Z"/><path class="q" d="M486.2,171.7c-1.2-.1-2.3-.9-3.5-1.2a2.241,2.241,0,0,1-1.4-2.7,3.858,3.858,0,0,0-.5-2.8,2.161,2.161,0,0,0-2.2-1,2.045,2.045,0,0,0-1.5,1.7,11.27,11.27,0,0,0-.3,1.8c-.1.7-.2,1.4-.9,1.5-.8.1-1.7.3-2.2-.7a15.846,15.846,0,0,1-1.5-3.8c-.1-.4-.2-.7-.3-1.1-.7-2.3-1.4-2.8-3.5-2.5a8.735,8.735,0,0,0-2.2.5,3.894,3.894,0,0,1-3-.2h0a3.98,3.98,0,0,1-1.1-3.1,12.518,12.518,0,0,1,1.8-6.2c2.6-4.1,6.2-6.7,11-6.4.6,0,1.1.1,1.7.1,5.8.1,9.4,3.8,11.9,9.1a3.079,3.079,0,0,1,.3,1.3c.3,3.9.5,7.7.8,11.6h0A10.431,10.431,0,0,0,486.2,171.7Z"/><path class="r" d="M427.1,310.5c.1-.1.2-.1.2-.2h0a14.619,14.619,0,0,1,2-.5c1.5,0,2.3,1.2,3,2.4a7.6,7.6,0,0,0,4.4,3.5c1.7.4,2.3.2,3.1-1.6.3-.7.6-.9,1.2-.6.3.5.5.9.8,1.4.6,1.6.3,3.3.4,5,0,1.1,0,2.3-.1,3.4-.1.9-.2,1.8-1.3,2.1-3.6.8-7.2,1.7-10.8.4a4.925,4.925,0,0,0-2.4-.2,53.328,53.328,0,0,1-13.8-.7,5.579,5.579,0,0,1-2.7-1c-.9-.7-1.8-1.3-1.6-2.7.1-1.2,1-1.7,1.9-2.1a5.834,5.834,0,0,1,2.6-.6,12.822,12.822,0,0,0,8-4A8.759,8.759,0,0,0,427.1,310.5Z"/><path class="r" d="M422,314.4c1.7-1.3,3.4-2.6,5.2-3.9A8.691,8.691,0,0,1,422,314.4Z"/><path class="s" d="M465.5,162.1c.9-.1,1.8-.4,2.6-.5,1.9-.3,2.7.2,3.3,2.2A19.215,19.215,0,0,0,473,168a2.245,2.245,0,0,0,2.3,1.5,2.142,2.142,0,0,0,1.9-2c.1-.4.2-.7.3-1.1.3-.8.6-1.6,1.6-1.6,1,.1,1.4.9,1.6,1.8.9,4.4,1.3,4.8,5.3,5.5l.2-.2c-1.1,3.4-2.5,6.8-3.4,10.3a1.386,1.386,0,0,1-1.1,1.1,9.364,9.364,0,0,0-1.6.4c-1.2-.1-2.2.6-3.4.9-3.2.8-4.7.3-6.4-2.8a22.482,22.482,0,0,0-3.3-4.6,6.832,6.832,0,0,1-1.9-4.2,59.948,59.948,0,0,0-1.4-8.3,10.817,10.817,0,0,1-.5-3.6h0A2.013,2.013,0,0,0,465.5,162.1Z"/><path class="s" d="M466.2,161.3a8.735,8.735,0,0,1,2.2-.5c2.1-.3,2.8.2,3.5,2.5.1.4.2.7.3,1.1a17.677,17.677,0,0,0,1.5,3.8c.5,1.1,1.4.9,2.2.7.8-.1.9-.8.9-1.5a11.274,11.274,0,0,1,.3-1.8,2.045,2.045,0,0,1,1.5-1.7,2.239,2.239,0,0,1,2.2,1,3.431,3.431,0,0,1,.5,2.8c-.1,1.4.5,2.5,1.4,2.7,1.2.3,2.2,1.2,3.5,1.2,0,.1,0,.1-.1.2l-.2.2c-4-.6-4.4-1-5.3-5.5-.2-1-.6-1.8-1.6-1.8-.9-.1-1.3.7-1.6,1.6-.1.4-.2.7-.3,1.1a2.06,2.06,0,0,1-1.9,2,2.245,2.245,0,0,1-2.3-1.5,21.37,21.37,0,0,1-1.6-4.2c-.6-2.1-1.4-2.5-3.3-2.2-.9.1-1.8.4-2.6.5a2.2,2.2,0,0,1-2.4-1h0A3.644,3.644,0,0,0,466.2,161.3Z"/><path class="t" d="M429.7,188.1c-2.6,3.5-6.4,3.8-9.8.7a25.228,25.228,0,0,0-3-2.7,20.124,20.124,0,0,0-3-5.1,2.392,2.392,0,0,0-2.4-1c-.3-.7-.7-1.5-1-2.3-.3-1-.6-2.1.5-2.8a1.948,1.948,0,0,1,1.7,1.2,1.066,1.066,0,0,0,1.4.6c.6-.2.7-.9.7-1.5a17.7,17.7,0,0,0-.1-2.3c-.3-2.5.9-3.8,3-3.2a6.967,6.967,0,0,0,5.8-.7,13.9,13.9,0,0,1,2.1-1.1c1.9-.8,3.4,0,3.8,2.1.2,1,.4,1.8,1.5,1.7h0c.3,2.7.9,5.4,1,8.2h0c-1.3,2.3-1.6,5-2.3,7.5A1.953,1.953,0,0,1,429.7,188.1Z"/><path class="t" d="M414,181a23.579,23.579,0,0,1,3,5.1,1.381,1.381,0,0,0-.4-.3h0c-1.7-1.9-2.4-4.9-5-5.8A2.392,2.392,0,0,1,414,181Z"/><path class="t" d="M429.7,188.1v-.7c.7-2.5.9-5.2,2.3-7.5a44.291,44.291,0,0,1-1.7,7.4A5.547,5.547,0,0,1,429.7,188.1Z"/><path class="u" d="M425.4,167.5c-2.7,1.4-5.4,2.2-8.4,1.6-1.6-.3-2.8,1.2-2.9,3.1,0,.6.1,1.2.1,1.8,0,1.8-.3,2-1.7,1.2-.5-.3-.9-.7-1.5-.2-.5-3-1.5-5.8-1.2-9,.4-4.6,2.6-8,6.6-9.4a13.12,13.12,0,0,1,8.3-.2,7.963,7.963,0,0,1,5.9,6.3,24.72,24.72,0,0,1,.2,9h0a7.561,7.561,0,0,1-1.1-2.2C428.9,167.2,427.4,166.4,425.4,167.5Z"/><path class="u" d="M429.5,170c-.3-2.1-1.9-2.9-3.8-2.1a21.159,21.159,0,0,0-2.1,1.1,7.408,7.408,0,0,1-5.8.7c-2.2-.6-3.4.7-3,3.2a17.7,17.7,0,0,1,.1,2.3c0,.6-.1,1.3-.7,1.5a1.066,1.066,0,0,1-1.4-.6,2.137,2.137,0,0,0-1.7-1.2c.6-.5,1-.1,1.5.2,1.4.8,1.7.6,1.7-1.2a10.868,10.868,0,0,1-.1-1.8c.1-1.9,1.3-3.4,2.9-3.1a11.9,11.9,0,0,0,8.4-1.6c2-1.1,3.5-.2,4.5,2.1a9.06,9.06,0,0,0,1.1,2.2C429.9,171.8,429.6,171,429.5,170Z"/><path class="v" d="M407.4,216.9c-1,2.1-.4,3.1,1.7,3.1,4,0,8,0,12,.1a44.054,44.054,0,0,0,5.2.3c.8,0,1.5.1,2-.9,4.9-.8,9.8-.4,14.6-.4h2.5c1.5,0,2.1-.6,2.3-2.3.5-3.2-.8-5.1-3.9-5.5,2.7-.9,4.7,0,6.2,2.8.3.5.5,1.1,1,1.4a3.983,3.983,0,0,0-.7,3.8c.2,1,.6,1.9.9,2.9a16.2,16.2,0,0,0-2.2-.1c-8.6.3-17.3-.2-25.9-.6a258.262,258.262,0,0,0-29.2.6c3-1.6,6.8-1.2,9.4-4.2a5.078,5.078,0,0,1,4.9-1.9C407.8,216.1,407.6,216.5,407.4,216.9Z"/><path class="v" d="M380.8,221.8c.2,0,.4-.1.6-.1,0,.1.1.1.1.2A1.483,1.483,0,0,0,380.8,221.8Z"/><path class="v" d="M394.6,221.2c.4-1.4,1.4-1.2,2.3-1.3,1.1,0,2.2.2,3.2-.6a17.554,17.554,0,0,0,3-2.4c1.6-1.9,3.4-2.5,5.6-1.5h0a2.182,2.182,0,0,0-.5.4,5.078,5.078,0,0,0-4.9,1.9c-2.5,2.9-6.3,2.6-9.4,4.2h0a84.17,84.17,0,0,1-12.3-.1c0-.1-.1-.1-.1-.2h12.2C394,221.7,394.5,221.8,394.6,221.2Z"/><path class="v" d="M382,222.2a1.5,1.5,0,0,1-1.1-.4h.7A.781.781,0,0,0,382,222.2Z"/><path class="v" d="M423.1,221.3c8.6.4,17.3.9,25.9.6a16.2,16.2,0,0,1,2.2.1c.1.2.1.4.2.6a16.079,16.079,0,0,1-3.1.1q-16.2-.3-32.4-.9c-7.5-.3-15.1.5-22.6.5.2-.1.4-.3.6-.4C403.6,221.4,413.3,220.9,423.1,221.3Z"/><path class="v" d="M381.6,221.9a100.964,100.964,0,0,0,12.3.1h0a2.092,2.092,0,0,0-.6.4c-1.8,0-3.6,0-5.4-.1-1.7-.1-3.3,0-5,0H382Z"/><path class="v" d="M450,214c-1.5-2.8-3.5-3.7-6.2-2.8-.2,0-.5-.1-.7-.1h0c1.2-1.6,2.7-1.1,4.1-.7,2.2.7,3.2,2.6,4,4.8l-.2.2C450.5,215.1,450.3,214.5,450,214Z"/><path class="w" d="M450,317.7a4.169,4.169,0,0,1-2.2-1.5c-.3-2.6-.8-5.2,0-7.8.3-1.1.7-2.2,2-2.2a5.416,5.416,0,0,0,3.7.9,4.329,4.329,0,0,1,1.6.1,3.309,3.309,0,0,0,4.2-1,3.145,3.145,0,0,1,1.7,1.7c.1.2.1.3.2.5a2.353,2.353,0,0,0-.2.8,38.774,38.774,0,0,0-1.1,4.9c-.4,2.4-.2,4.6,1.9,6a1.88,1.88,0,0,1,.8,1.7,4.869,4.869,0,0,1-1.2-.1c-.1-.1-.2-.1-.4-.1C457.4,320.3,453.7,319,450,317.7Z"/><path class="w" d="M461.8,320.1c-2.1-1.4-2.3-3.6-1.9-6a43.112,43.112,0,0,1,1.1-4.9,2.353,2.353,0,0,0,.2-.8c.1.2.1.3.2.5-.4,1.9-.7,3.8-1.1,5.7a4.664,4.664,0,0,0,2.2,5.2c1.2.7,1.2.7.1,2A1.88,1.88,0,0,0,461.8,320.1Z"/><path class="s" d="M467.9,223a.367.367,0,0,0,.1.3,9.081,9.081,0,0,1-4.3.7,5.4,5.4,0,0,0-2.5.3c-.5-.9-1.4-.9-2.2-1-2.5-.4-5-.4-7.4-1.2a1.062,1.062,0,0,0-.1-.8,8.929,8.929,0,0,1-.4-5.8h.1a37.45,37.45,0,0,0,6.4-1.6h0c2.5,1.5,5,2.8,7.9,2.4.8-.1,1.6.4,2.4.5h0C467.4,218.9,468,220.9,467.9,223Z"/><path class="s" d="M468.4,223.1h0c-.2.1-.3.1-.5.2a.367.367,0,0,0-.1-.3c.1-2.1-.5-4.1,0-6.2h0A14.914,14.914,0,0,1,468.4,223.1Z"/><path class="s" d="M459,223.4c.8.1,1.7.1,2.2,1-.1,0-.2.1-.3.2-.5-.7-1.3-.3-1.9-.5-2.5-.5-5.2-.1-7.7-1.4.1-.1.2-.3.3-.4C454,222.9,456.5,223,459,223.4Z"/><path class="s" d="M451.1,215.5a.367.367,0,0,1,.1-.3,10.334,10.334,0,0,1,6.4-1.3,36.3,36.3,0,0,1-6.5,1.6Z"/><path class="s" d="M451.2,222.1c-.3-.9-.6-1.9-.9-2.9a3.983,3.983,0,0,1,.7-3.8l.1.1a9.583,9.583,0,0,0,.4,5.8,2.2,2.2,0,0,1,.1.8Z"/><path class="s" d="M451.2,222.1c.1,0,.3.1.4.1,0,.2-.1.3-.3.4a.75.75,0,0,0-.1-.5Z"/><path class="s" d="M451.2,215.3a.367.367,0,0,1-.1.3l-.1-.1C451.1,215.4,451.1,215.3,451.2,215.3Z"/><path class="x" d="M483.6,194a2.92,2.92,0,0,1,.2-.9A6.378,6.378,0,0,1,483.6,194Z"/><path class="x" d="M491.2,171.3c-1.7,2.2-2.4,5-3.1,7.6-1.3,4.9-3.5,9.5-4.3,14.1a.867.867,0,0,0-.4-.7,17.531,17.531,0,0,0,.8-5.1c0-1.5-.4-1.8-1.7-1.9-1.2,0-1.4.2-1.5,1.7a1.7,1.7,0,0,1-.1.7,14.2,14.2,0,0,1-.8-4.1,2.092,2.092,0,0,0,3.1-1.2c1.2-3.2,2.2-6.5,3.3-9.7a1.232,1.232,0,0,0-.2-1,11.207,11.207,0,0,0,3.2-4.2h0c1.7.4,2.9,1.9,4.6,2.4h0C492.7,169.3,492,170.3,491.2,171.3Z"/><path class="x" d="M492.2,170.9a15.126,15.126,0,0,0-2.5,4.7c-1.9,6.1-3.8,12.2-5.8,18.3-.1.3,0,.7-.6.8v-2.3h0a1.27,1.27,0,0,1,.4.7c-.1.3-.1.6-.2.9a4.12,4.12,0,0,0,.2-.9c.8-4.6,3-9.2,4.3-14.1.7-2.7,1.4-5.4,3.1-7.6.8-1,1.5-2.1,2.9-1.4C493.3,169.8,492.7,170.2,492.2,170.9Z"/><path class="x" d="M486.3,171.8h0a9.109,9.109,0,0,1,3.2-4.2A11.207,11.207,0,0,1,486.3,171.8Z"/><path class="x" d="M482.8,182.2c.9-3.5,2.3-6.8,3.4-10.3l.1-.1a1.163,1.163,0,0,1,.2,1c-1.2,3.2-2.1,6.5-3.3,9.7a2.092,2.092,0,0,1-3.1,1.2,9.362,9.362,0,0,1,1.6-.4A1.386,1.386,0,0,0,482.8,182.2Z"/><path class="x" d="M486.2,171.7c0,.1.1.1,0,0,0,.1,0,.1-.1.2C486.2,171.9,486.2,171.8,486.2,171.7Z"/><path class="n" d="M442.4,315.1h0c1.4.5,2.8.9,4.2,1.4.4.1.7.2,1,0a4.145,4.145,0,0,0,2.2,1.7c2.9,1.1,5.8,2.1,8.6,3.2.9.3,1.8,0,2.7.2.1,0,.2.1.4.1-.3.3-1.2-.4-.8.9.5,1.4-.3,2.3-1.7,2.3a5.84,5.84,0,0,1-1.8-.4c-2.2-.8-4.4-1.6-6.7-2.3-2.7-.8-5.3-2-8.2-2.3C443.3,318.3,442.9,316.7,442.4,315.1Z"/><path class="n" d="M442.4,315.1h0c.5,1.6.9,3.2-.1,4.8-.1-1.7.2-3.4-.4-5C442,315,442.2,315,442.4,315.1Z"/><path class="n" d="M447.8,316.2a4.169,4.169,0,0,0,2.2,1.5c3.7,1.3,7.3,2.6,11,3.9-.9-.2-1.8.1-2.7-.2-2.9-1.1-5.8-2.1-8.6-3.2a3.716,3.716,0,0,1-2.2-1.7Z"/><path class="y" d="M481.2,187.3c.3-.7.7-1.4,1.6-1s.8,1.2.8,2.1c-.1,1.3-.6,2.6-.2,4l-.1-.1c-1,.4-.9,1.5-.9,2.3.1,5.6-1.8,10.9-2.2,16.4,0,.6-.2,1.2-1,1.1-.1-5.4.7-10.8,1.3-16.1a44.682,44.682,0,0,0,.3-8.2A1,1,0,0,0,481.2,187.3Z"/><path class="y" d="M480.2,211c.4-5.5,2.3-10.8,2.2-16.4,0-.8-.2-1.9.9-2.3l.1.1h0c-.6.7-.3,1.6-.4,2.4a41.933,41.933,0,0,1-.3,5c-.6,2.8-1.1,5.6-1.5,8.5-.2,1.3,0,2.8-.6,4-.2.4-.1,1.2-.8,1.1s-.4-.8-.6-1.3C480,212.2,480.2,211.6,480.2,211Z"/><path class="y" d="M482.4,185.4c1.4.1,1.7.4,1.7,1.9a14.719,14.719,0,0,1-.8,5.1h0c-.4-1.4.1-2.7.2-4,.1-.8.2-1.7-.8-2.1-.8-.3-1.3.3-1.6,1a1,1,0,0,1-.4.5,1.7,1.7,0,0,1,.1-.7C481,185.6,481.2,185.3,482.4,185.4Z"/><path class="y" d="M483.4,192.4Z"/><path class="o" d="M399.4,290.3c-1.2,6.9-2.1,13.8-3.1,20.7h-.1c-.3,0-.6-.3-.9-.3,1.1-6.6,2.2-13.2,3.2-19.8.8-5.2,1.9-10.3,2.3-15.5a71.511,71.511,0,0,1,1.6-11.3,2.181,2.181,0,0,1,.5.4C401.7,273.1,400.9,281.8,399.4,290.3Z"/><path class="z" d="M396.3,311c0,.2-.1.4-.1.6-.7.1-.9-.4-.9-1,.4.2.6.4,1,.4Z"/><path class="aa" d="M400.5,258.9l6,3.3c1.6.9,1.8,1.6,1,3.6-1.5.1-2.8-.8-4.2-1.3h0c-.2-.3-.3-.8-.8-.4-1.2-1-2.8-1.3-3.8-2.8C399.4,260.7,399.7,259.6,400.5,258.9Z"/><path class="aa" d="M400.4,258.9h0c-.7.7-1,1.8-1.8,2.4h0C399,259.1,399,259.1,400.4,258.9Z"/><path class="aa" d="M403.2,264.5h0a.367.367,0,0,1-.3-.1,2.181,2.181,0,0,1-.5-.4C402.9,263.8,403.1,264.2,403.2,264.5Z"/><path class="ab" d="M396.7,317.2c-.8,1.7-.9,1.8-1.7.5C395.5,317.3,396,316.8,396.7,317.2Z"/><path class="ab" d="M395.7,316.4c.5,0,1.2-.3,1,.8-.7-.4-1.2.1-1.7.5C395.1,317.2,394.7,316.3,395.7,316.4Z"/><path class="m" d="M451.4,234.7c2.2.8,4.6,1,6.7,2.1a.349.349,0,0,0-.2.1c-5.1,4.1-10.4,8-15.2,12.6a11.764,11.764,0,0,0-3.8,10.7v.1c-4.7,0-9.5,0-14.2.3-1.6.1-1.9.3-2,2.2a9.253,9.253,0,0,0,.2,2.9h0c-.3,2.4-.5,4.8-.8,7.3.3.6.8.4,1.3.4,3,.1,6.1.2,9.1.3,1.4,0,1.4,0,1.4-1.6-.1-2.1-.3-4.3-.4-6.4.2-.1.4-.1.6-.2h0c.2,2.3.5,4.6.7,6.9.1,1,.3,1.5,1.3,1.5s1.3-.5,1.3-1.5c0-.4.1-.7.1-1.1h0c.1.1.2.3.4.4h0c.1.8-.1,1.9.8,2.2,0,.2-.1.4-.1.6v.1c-.4,0-.7.2-.7.9v1.4c-.1.3-.2.5-.3.8-.1.2-.1.3-.2.5a13.4,13.4,0,0,0-.1-2c0-1.6,0-1.7-1.5-1.6a2.353,2.353,0,0,0-.8.2c.3,2.7.5,5.3.7,8-.1.1-.1.2-.2.3a2.016,2.016,0,0,1-.3,1.1,63.906,63.906,0,0,1-.9-7.5c-.2-2.2-.2-2.1-2.2-2.2-3-.1-5.9-.2-8.9-.4-.9-.1-1.4.1-1.4,1.3.1,2.7,0,5.5.3,8.2a37.544,37.544,0,0,1-.3,8.2,1.16,1.16,0,0,1-.4,1c-1.2.6-.8,1.7-.7,2.8h0a3.7,3.7,0,0,1-1.1.5v-.4c.1-12.9.2-25.7,0-38.6-.1-4.2-.5-8.3,0-12.5v-.1c1.1.5,2.2,1.1,3.5.7h0a9.161,9.161,0,0,0,1.7,5.1c.9,1.5,2,3,3,4.4.9,1.3,1.5,1.2,2-.4.9-3,2-5.9,1.7-9.1a2.768,2.768,0,0,1,.1-.9c1.2.1,2.1-.6,3.1-1.2,1.9-1.1,3.6-2.5,5.4-3.7a2.377,2.377,0,0,0,1-2.5c-.3-2.4-.7-4.8-.8-7.2,2.5.1,4.9.8,7.4.3h.1C447.9,233.5,448.1,233.5,451.4,234.7Z"/><path class="ac" d="M438.5,274.5h0c0-.2.1-.4.1-.6.1,0,.2.1.4.1v.6A1.087,1.087,0,0,0,438.5,274.5Z"/><path class="ac" d="M438.9,260.2c-.6-4.4.8-7.7,3.8-10.7,4.8-4.6,10-8.5,15.2-12.6.1-.1.1-.1.2-.1.1.1.3.1.4.2h0c-2.9,2.4-5.9,4.7-8.8,7.1a61.99,61.99,0,0,0-8.7,8.3,6.1,6.1,0,0,0-1.6,4.5v3.4h0a.9.9,0,0,1-.5-.1Z"/><path class="ac" d="M437.5,277.7c.1-.3.2-.5.3-.8v.8c-.1.5,0,1.1-.5,1.5v-1C437.4,278,437.4,277.8,437.5,277.7Z"/><path class="ac" d="M435.5,283.1c.1-.1.1-.2.2-.3v.5c.1.6.2,1.1-.4,1.4a.6.6,0,0,0-.1-.4C435.4,283.8,435.6,283.5,435.5,283.1Z"/><path class="ac" d="M419.6,244.5c-.5,4.2-.1,8.3,0,12.5.2,12.9.1,25.7,0,38.6v.4c-.2,0-.3.1-.5,0h0c0-8-.1-16-.1-24,0-5.3.1-10.5-.1-15.8a81.459,81.459,0,0,1,.1-12.1,5.924,5.924,0,0,1,.6.4Z"/><path class="ac" d="M447.6,230.1c-2.5.5-5-.2-7.4-.3v-.5c2.5.1,5,.2,7.5.2a1.268,1.268,0,0,1-.1.6Z"/><path class="ad" d="M466.6,224.4a2.666,2.666,0,0,0,1.4-.7,2.768,2.768,0,0,1,.1.9c.5,4.2.6,4.4,4.5,5,2.8.4,2.9.6,2.5,3.8a30.952,30.952,0,0,0-.2,4.3c0,3.5-.3,3.7-3.4,2.6-2.6-1-5.3-1.8-7.9-2.7a20.8,20.8,0,0,0-4.8-1.1c-.2,0-.3.1-.5.1-.4-.9-1.3-1-2-1.2a50.837,50.837,0,0,0-5.2-1.5c-1.8-.5-2.9-1.4-2.9-3.5a.367.367,0,0,0-.1-.3c3,.1,6,.2,9.1.1,3.6-.1,4.8-1.7,4.2-5.7A13.015,13.015,0,0,0,466.6,224.4Z"/><path class="ad" d="M458.3,236.6a.9.9,0,0,1,.5-.1,12.957,12.957,0,0,1,4.8,1.1c2.6.9,5.3,1.8,7.9,2.7,3.1,1.1,3.3.9,3.4-2.6a30.952,30.952,0,0,1,.2-4.3c.5-3.2.3-3.4-2.5-3.8-3.8-.6-4-.8-4.5-5,0-.3-.1-.6-.1-.9a2.092,2.092,0,0,0,.4-.6h0c.5,1.1.3,2.4.4,3.6s.6,1.9,1.7,1.9c1.2,0,2.4.5,3.7.5,1.7,0,1.8.1,1.7,1.9-.2,3-.6,6.1-.5,9.1a1.7,1.7,0,0,1-.1.7c-.1.9-.5,1.4-1.4,1a22.935,22.935,0,0,0-2.8-.9c-4.2-1.4-8.3-3.1-12.7-3.9h0A.6.6,0,0,0,458.3,236.6Z"/><path class="ad" d="M457.2,230.2c-3,.1-6,0-9.1-.1-.1-.2-.2-.5-.4-.6a.919.919,0,0,1,1-.2,59.09,59.09,0,0,0,9.4.3c2.1,0,2.8-.9,2.9-3.2v-1.8a.756.756,0,0,1,.4.1C462,228.5,460.8,230.1,457.2,230.2Z"/><path class="ad" d="M466.6,224.4a13.536,13.536,0,0,1-5.3.2h0c0-.1-.1-.1-.1-.2a5.4,5.4,0,0,1,2.5-.3,10.515,10.515,0,0,0,4.3-.7.6.6,0,0,0,.1.4A3.386,3.386,0,0,1,466.6,224.4Z"/><path class="ad" d="M468.1,223.7a.6.6,0,0,0-.1-.4c.2-.1.3-.1.5-.2A1.538,1.538,0,0,1,468.1,223.7Z"/><path class="ad" d="M461.3,224.5H461c.1-.1.2-.1.3-.2Z"/><path class="ad" d="M451.1,234a50.837,50.837,0,0,1,5.2,1.5c.7.2,1.6.3,2,1.2-.1,0-.2.1-.3.1-2.1-1.1-4.5-1.4-6.7-2.1-3.3-1.1-3.5-1.2-3.7-4.6h.4c0,.1.1.2.1.3A3.588,3.588,0,0,0,451.1,234Z"/><path class="ad" d="M458.1,236.8c.1,0,.2-.1.3-.1,0,.1.1.2.1.3h0C458.3,236.9,458.2,236.8,458.1,236.8Z"/><path class="ad" d="M448.1,230.1h-.4v-.6A2.092,2.092,0,0,1,448.1,230.1Z"/><path class="ae" d="M454,284.3c1.6.8,2.4,2.7,3.5,4a47.428,47.428,0,0,1,3.7,5.1c.1.1.2.2.3.2a92.329,92.329,0,0,1-1.9,10.5,11.271,11.271,0,0,0-.3,1.8H459c-2.6,1.6-5.2.4-7.8.2a6.468,6.468,0,0,1-1.3-.4,131.921,131.921,0,0,0,3.4-15.4A42.506,42.506,0,0,1,454,284.3Z"/><path class="ae" d="M461.2,293.4a36.8,36.8,0,0,0-3.7-5.1c-1.2-1.4-1.9-3.2-3.5-4v-.1h0c.8-.6,1.2.2,1.5.7.7,1.1,1.7,2,2.4,3.1,1.2,1.9,3,3.2,3.6,5.5v.2Z"/><path class="ae" d="M451.2,306.2c2.6.2,5.2,1.4,7.8-.2h.3v.2a3.309,3.309,0,0,1-4.2,1,4.329,4.329,0,0,0-1.6-.1,5.416,5.416,0,0,1-3.7-.9c0-.1.1-.2.1-.4A4.952,4.952,0,0,0,451.2,306.2Z"/><path class="af" d="M442.4,315.1c-.2-.1-.3-.1-.5-.2h.4C442.3,315,442.3,315,442.4,315.1Z"/><path class="af" d="M454,284.3h0v-.2h0Z"/><path class="ag" d="M430.6,308.7a67.752,67.752,0,0,0,4.9-9.2,3.809,3.809,0,0,0,.3-1c2.5,1.4,4.9,3,7.7,3.4h0c-1.9,3.5-3.9,6.9-2.6,11.2-.7-.3-1.1.1-1.5.8-.8,1.5-2,1.4-3.2,1-1.5-.5-2.5-1.8-3.5-3.1a5.052,5.052,0,0,0-2.7-2.3C430.2,309.2,430.4,309,430.6,308.7Z"/><path class="ag" d="M443.5,301.9c-2.8-.4-5.2-2.1-7.7-3.4a.9.9,0,0,0-.1-.5h0c1.4.1,2.4,1.4,3.7,1.9,1.4.6,2.9,1.2,4.3,1.9h0c-.1-.1-.1,0-.2.1Z"/><path class="ag" d="M432.7,311.7a7.054,7.054,0,0,0,3.5,3.1c1.3.5,2.4.6,3.2-1,.4-.7.9-1.1,1.5-.8,0,.1.1.3.1.4-.6-.4-.9-.2-1.2.6-.8,1.8-1.4,2-3.1,1.6a7.6,7.6,0,0,1-4.4-3.5c-.8-1.2-1.5-2.4-3-2.4a1.612,1.612,0,0,0,.7-.4A5.244,5.244,0,0,1,432.7,311.7Z"/><path class="ag" d="M435.8,298.4a1.689,1.689,0,0,1-.3,1,73.394,73.394,0,0,1-4.9,9.2,4.351,4.351,0,0,1-.6.7.6.6,0,0,1-.4-.1,105.159,105.159,0,0,0,5.9-11h0C435.6,298.3,435.7,298.4,435.8,298.4Z"/><path class="ag" d="M435.8,298.4c-.1,0-.2-.1-.3-.1h0c.1-.1.1-.2.2-.3h0A.6.6,0,0,1,435.8,298.4Z"/><path class="ag" d="M430,309.4a1.612,1.612,0,0,1-.7.4,2.185,2.185,0,0,0,.3-.5C429.7,309.3,429.9,309.4,430,309.4Z"/><path class="ag" d="M443.5,301.8h0c-.5,1.5-1,3.1-1.6,4.6a13.687,13.687,0,0,0-.9,6.7h-.1C439.6,308.8,441.6,305.3,443.5,301.8Z"/><path class="ag" d="M443.5,301.8c0-.1.1-.1.1-.2,0,.1,0,.2-.1.2Z"/><path class="ah" d="M437.8,265.4a10.887,10.887,0,0,0-3.6.1c-.1-.1-.2-.2-.3-.2a.7.7,0,0,0-.5.4,4.5,4.5,0,0,0-2.3-.1,48.259,48.259,0,0,1-7.6.2v-.1a4.3,4.3,0,0,0,0-1.6c-.1-1.8.6-2.5,2.3-2.7a99.285,99.285,0,0,1,10.9-.4,3.967,3.967,0,0,0,2.4-.4A17.231,17.231,0,0,0,441,265l-2.7.3A2.035,2.035,0,0,0,437.8,265.4Z"/><path class="ah" d="M439,260.6l.3-.3h0a24.008,24.008,0,0,0,2.1,4.6.749.749,0,0,0-.5.1A17.232,17.232,0,0,1,439,260.6Z"/><path class="ah" d="M433.9,265.2c.1.1.2.1.3.2h-.1c-.2.1-.4.1-.6.2h-.1A.7.7,0,0,1,433.9,265.2Z"/><path class="ah" d="M436.6,261a99.285,99.285,0,0,0-10.9.4c-1.7.2-2.4.9-2.3,2.7v1.7H423a9.679,9.679,0,0,1-.2-2.9c.1-1.8.4-2,2-2.2,4.7-.4,9.5-.3,14.2-.3a.367.367,0,0,0,.1.3A5.4,5.4,0,0,1,436.6,261Z"/><path class="ah" d="M438.9,260.3h.4l-.3.3C439,260.5,438.9,260.4,438.9,260.3Z"/><path class="ai" d="M462.2,265.3c-.8-1.5-.5-1.8,1.7-2.2,0,1.4,1,2,2,2.5a29.967,29.967,0,0,0,6.4,2.1c-1,3-2.6,5.8-3.5,8.9A90.218,90.218,0,0,1,462.2,265.3Z"/><path class="ai" d="M462.2,265.3c2.1,3.9,4,7.8,6.7,11.3,0,.1-.1.1-.1.2h0c-.8,0-1-.6-1.4-1.2-1.8-3.2-3.6-6.3-5.4-9.5-1.6-2.8-1.3-3.4,1.7-3.6h.2v.5C461.7,263.5,461.4,263.8,462.2,265.3Z"/><path class="ai" d="M466,265.6c-1-.5-2-1.1-2-2.5h.3a5.185,5.185,0,0,0,3.2,2.6c1.7.6,3.5,1.1,5.2,1.6,0,.2-.1.3-.2.5A33.121,33.121,0,0,1,466,265.6Z"/><path class="ai" d="M463.9,263.1v-.5c.1.2.1.3.2.5Z"/><path class="aj" d="M461.3,307.9Z"/><path class="ak" d="M470.8,291.1c-.9,3.1-.9,6.4-1.2,9.6v.4A5.367,5.367,0,0,0,468,299c-.7-.7-1.4-1.4-2.1-2.2-.3-.4-.5-.5-.7-.4.1-.5.3-1,0-1.4A19.48,19.48,0,0,0,470.8,291.1Z"/><path class="ak" d="M465.2,295a2.185,2.185,0,0,0-.5-.3,41.564,41.564,0,0,0,6.2-4.1,1.087,1.087,0,0,0-.1.5A19.481,19.481,0,0,1,465.2,295Z"/><path class="ak" d="M465.2,295c.3.4.1.9,0,1.4-.2.2-.3.6-.5.7-.3-.6.3-1.3.2-1.9.1,0,.1-.1.2-.1Z"/><path class="ak" d="M469.5,301.1v-.4a61.443,61.443,0,0,1,1.2-9.6c.1-.1.1-.1.1-.2.1,4.2-1,8.2-.9,12.4,0,.2-.2.4-.3.6A4.38,4.38,0,0,0,469.5,301.1Z"/><path class="ak" d="M465.2,295a.1.1,0,0,0-.1.1c-.1,0-.1.1-.2.1,0-.2-.1-.3-.3-.5A1.047,1.047,0,0,1,465.2,295Z"/><path class="ak" d="M470.9,290.6v.3c-.1.1-.1.1-.1.2A4.331,4.331,0,0,1,470.9,290.6Z"/><path class="al" d="M435,215.3c2.1,1,4.3,2.1,6.4,3.1-4.4,0-8.8-.5-13.1.6-.1,0-.2.1-.3.1-.1-.2-.1-.4-.3-.4-1.8-.7-3.1-2.6-5-3.1-.3-.1-.6-.2-.7-.4-2.5-3-5.7-2-8.8-1.8,0-1.3-1-1.9-1.7-2.5-2.5-2.2-4.8-4.5-7.3-6.8,4.2-.6,8.2-2.5,12.4-.7.5.2,1.1.5,1.6.1a8.068,8.068,0,0,0,2.4,1.7h0A31.78,31.78,0,0,0,427,209a22.635,22.635,0,0,0,5.2,3c.1.1.1.2.2.2h.2C432.7,213.9,433.6,214.6,435,215.3Z"/><path class="al" d="M416.7,203.4c-4.2-1.8-8.2.1-12.4.7,2.5,2.3,4.9,4.6,7.3,6.8.8.7,1.7,1.3,1.7,2.5h-.1A91.649,91.649,0,0,0,404,205c-.4-.3-1.1-.4-.9-1.3,1.4-1,3.1-.8,4.6-1.1,3.5-.6,7.1-1.5,10.4.7h0l.1.1C417.7,203.9,417.2,203.6,416.7,203.4Z"/><path class="al" d="M432.4,212.2c-.1-.1-.2-.1-.2-.2.1,0,.2.1.3.1h.2v.1Z"/><path class="al" d="M428.4,219c4.3-1.2,8.7-.6,13.1-.6.5.2.9.5,1.4.7-4.9,0-9.8-.4-14.6.4,0-.1-.1-.2-.1-.3A.215.215,0,0,1,428.4,219Z"/><path class="al" d="M442.9,219Z"/><path class="t" d="M416.4,213.6c3.4-.1,5.8,2.3,8.6,3.8,1,.6,1.8,1.3,2.8,1.8a6.665,6.665,0,0,1-3.7.4c-4.3-.7-8.7-.3-13-.4-3.6-.1-3.8,0-2.6-3.3a4.8,4.8,0,0,0,4.8-2.3v-.3C414.3,214,415.4,213.7,416.4,213.6Z"/><path class="t" d="M413.3,213.7a4.8,4.8,0,0,1-4.8,2.3c.1-.2.1-.3.2-.5h0a4.331,4.331,0,0,0,3.8-1.6c.2-.2.5-.3.7-.5h.1Q413.3,213.55,413.3,213.7Z"/><path class="t" d="M408.5,216c-1.2,3.3-1,3.3,2.6,3.3,4.3.1,8.7-.3,13,.4a6.763,6.763,0,0,0,3.7-.4.758.758,0,0,0,.4.2c-.4.9-1.2.9-2,.9a46.659,46.659,0,0,1-5.2-.3c-4-.1-8-.1-12-.1-2.1,0-2.7-1-1.7-3.1a3.916,3.916,0,0,1,.8-1c.2,0,.3,0,.4.1Z"/><path class="t" d="M408.5,216h0c-.2,0-.3,0-.4-.1a2.182,2.182,0,0,0,.5-.4h0A.9.9,0,0,1,408.5,216Z"/><path class="t" d="M422.1,215.1a2.506,2.506,0,0,0,.7.4c1.9.5,3.2,2.4,5,3.1.1,0,.2.2.3.4-.1,0-.2.1-.3.1a26.749,26.749,0,0,1-2.8-1.8c-2.7-1.6-5.2-4-8.6-3.8-1,0-2.1.4-3.1-.2v-.1C416.4,213.2,419.6,212.2,422.1,215.1Z"/><path class="t" d="M413.3,213.4Z"/><path class="t" d="M428.2,219.5c-.1-.1-.3-.1-.4-.2.1,0,.2-.1.3-.1A1.007,1.007,0,0,1,428.2,219.5Z"/><path class="x" d="M425.8,197.5h0c-.6-1.8-1.2-3.5-1.8-5.4-1.7.9-2.3,2.7-3.4,4h0c-.4.6-.8,1.1-1.6.3a16.286,16.286,0,0,1-1.1-1.7v-.4a69.012,69.012,0,0,1-.9-7.8c2.3,3,4.8,5.5,8.8,4.9a4.734,4.734,0,0,0,3.8-2.2,12.75,12.75,0,0,0,.1,1.9c0,.4.1.8.1,1.1-.7,1.9-1.9,3.5-2.6,5.4C426.8,198.7,426.3,198.1,425.8,197.5Z"/><path class="x" d="M417.9,194.3v.4a1.755,1.755,0,0,0-.5-.4,33.733,33.733,0,0,1-.8-8.4h0a4.233,4.233,0,0,1,.5.7A51.613,51.613,0,0,0,417.9,194.3Z"/><path class="x" d="M429.8,191a11.482,11.482,0,0,1-.1-1.9,4.78,4.78,0,0,0,.6-1.8c0,1.2,0,2.4.1,3.6a5.639,5.639,0,0,1-.4,1.2C429.9,191.8,429.9,191.4,429.8,191Z"/><path class="x" d="M425.9,191.4c-4,.6-6.6-1.9-8.8-4.9v-.2c0-.1-.1-.1-.1-.2a38.476,38.476,0,0,1,3,2.7c3.4,3.1,7.2,2.8,9.8-.7v1A4.908,4.908,0,0,1,425.9,191.4Z"/><path class="x" d="M417.1,186.5a4.233,4.233,0,0,1-.5-.7c.1.1.3.2.4.3,0,.1.1.1.1.2Z"/><path class="x" d="M429.7,188.1a2.177,2.177,0,0,0,.5-.8,4.779,4.779,0,0,1-.6,1.8A3.083,3.083,0,0,0,429.7,188.1Z"/><path class="am" d="M420.7,196.7c0,.2.1.3.1.4,1.3,1.5,1,3.1.5,4.8a22.916,22.916,0,0,0-.7,2.8,8.031,8.031,0,0,0-2.4-1.3c.1-.1.2-.2.2-.3.3-2.6-.6-5.2-.6-7.8a2.01,2.01,0,0,0,.4.8C419.1,197.1,419.9,197.6,420.7,196.7Z"/><path class="am" d="M418.5,203.1c-.1.1-.2.2-.2.3h-.1a6.8,6.8,0,0,0-.2-2,34.444,34.444,0,0,1-.6-7.2,2.22,2.22,0,0,1,.5,1.1C417.9,198,418.8,200.5,418.5,203.1Z"/><path class="am" d="M420.6,205.2h0a13.087,13.087,0,0,1-2.4-1.7l.1-.1a8.031,8.031,0,0,1,2.4,1.3A4.331,4.331,0,0,1,420.6,205.2Z"/><path class="am" d="M418.2,203.5Z"/><path class="am" d="M420.6,196.1h0a1.268,1.268,0,0,0,.1.6c-.9.9-1.6.4-2.4-.5a2.01,2.01,0,0,1-.4-.8v-.7c.4.5.7,1.2,1.1,1.7C419.8,197.1,420.2,196.7,420.6,196.1Z"/><path class="am" d="M417.9,194.6v.7a3.7,3.7,0,0,0-.5-1.1A2.181,2.181,0,0,1,417.9,194.6Z"/><path class="m" d="M412.2,242c.2,2.1-.1,4.1,0,6.2.1,12.7.4,25.4.5,38.1.1,5.9.2,11.8.3,17.6a8.129,8.129,0,0,1-.1,2.2c-1.1-2.6-1.2-5.4-1.7-8.2a2.7,2.7,0,0,1,.3-1.5,2.4,2.4,0,0,0-.2-2.2c-1.2-1.4-1.4-3.3-1.8-5-.8-3.1-1.4-6.2-2.3-9.8-2.3,5.1-3.1,10.4-4.6,15.3-1.5,5-2.7,10-4,15.1-.4,0-.7.5-1,.8,2.7-10.4,5.3-20.9,8.4-31.2.3-1.1.8-2.1.5-3.3a19.522,19.522,0,0,1,.7-9.9h.1c1.1-1.1,1.2-2.6.1-3.5-2.2-1.6-4.4-3.3-7.1-3.6a4.749,4.749,0,0,1,0-3.7,19.751,19.751,0,0,0,.8-2.6,8.615,8.615,0,0,1,4.6-6.8c2.1-1.1,2.5-3.5,3.5-5.5,1,.6,2,1.1,2.9,1.7C412.2,241.9,412.2,242,412.2,242Z"/><path class="ac" d="M413,303.9c-.2-5.9-.3-11.8-.3-17.6-.1-12.7-.4-25.4-.5-38.1,0-2.1.2-4.1,0-6.2v-.1l.1.1c.5.4,1.1.8.7,1.7a7.248,7.248,0,0,0-.2,2.9c0,5.7,0,11.4.3,17.1.2,4.3.2,8.5,0,12.8-.3,6.4.8,12.8.4,19.2,0,.1.1.3.1.4.3,3.3,0,6.5,0,9.8a.909.909,0,0,1-.4.8l-.3-.6A5.525,5.525,0,0,0,413,303.9Z"/><path class="ac" d="M398.7,309.7h0c-.5.5-.3,1.6-1.2,1.5a6.375,6.375,0,0,1,.2-.7C398,310.2,398.3,309.7,398.7,309.7Z"/><path class="ac" d="M405.8,245.8a8.615,8.615,0,0,0-4.6,6.8,7.862,7.862,0,0,1-.8,2.6,4.749,4.749,0,0,0,0,3.7h-.1c-.9-.5-1.5-1.1-.9-2.4a25.745,25.745,0,0,0,1.6-5.4,6.382,6.382,0,0,1,3.4-5,6.276,6.276,0,0,0,3.5-4.5,1.806,1.806,0,0,1,1-1.4c.1,0,.2.1.3.1C408.3,242.2,407.9,244.7,405.8,245.8Z"/><path class="ac" d="M400.5,258.9c2.7.3,5,2,7.1,3.6,1.2.9,1.1,2.4-.1,3.5h-.1c0-.1,0-.1.1-.2.8-2,.7-2.7-1-3.6l-6-3.3Z"/><path class="ac" d="M400.5,258.9Z"/><path class="af" d="M398.7,309.7Z"/><path class="an" d="M423.1,244.9a10.5,10.5,0,0,0-3.5-.8,102.794,102.794,0,0,0-.2-11.1c-.2-1.9.1-3,2-3a1.02,1.02,0,0,0,.8-.5h.1l.1.1C422.7,234.8,423.3,239.8,423.1,244.9Z"/><path class="an" d="M421.5,230.1c-1.9.1-2.2,1.2-2,3a102.8,102.8,0,0,1,.2,11.1,1.268,1.268,0,0,0-.6.1c0-2.6-.1-5.2,0-7.7a43.819,43.819,0,0,0-.4-5.2c-.1-1.6,0-1.7,1.4-1.8h2.2C422.1,229.8,421.8,230.1,421.5,230.1Z"/><path class="an" d="M422.4,229.5h.1v.2C422.5,229.6,422.4,229.6,422.4,229.5Z"/><path class="an" d="M423.1,245.1h0c-1.3.4-2.4-.2-3.5-.7v-.3a8.9,8.9,0,0,1,3.5.8v.2Z"/><path class="an" d="M419.6,244.5a1.421,1.421,0,0,0-.6-.2c.2,0,.4-.1.6-.1A.187.187,0,0,1,419.6,244.5Z"/><path class="ao" d="M420.8,295.8c.7,2,0,4.2.6,6.2a20.263,20.263,0,0,0,3.6,7c-1.3-.4-2.5-.6-3.8-1a2.4,2.4,0,0,1-1.8-3,61.822,61.822,0,0,0,.3-8.6C420.1,296.5,420.5,296.2,420.8,295.8Z"/><path class="ao" d="M419.3,305a2.421,2.421,0,0,0,1.8,3c1.3.4,2.5.6,3.8,1,.2.3.4.5.6.8-1.7-.5-3.5-.9-5.2-1.4-1.6-.5-1.7-.7-1.7-2.6.1-3.3.3-6.5.4-9.8h0c.2.1.3.2.5.2A43,43,0,0,1,419.3,305Z"/><path class="ao" d="M420.7,295.6c0,.1,0,.2.1.2a1.069,1.069,0,0,1-1.1.5V296a2.112,2.112,0,0,0,1-.4Z"/><path class="ao" d="M419.7,296.3c-.2,0-.3-.1-.5-.2h.5Z"/><path class="ao" d="M420.8,295.8h0a4.416,4.416,0,0,1,1,3.7,7.183,7.183,0,0,0,.5,3.8,38.831,38.831,0,0,0,2.4,4.5,9.992,9.992,0,0,1,.8,1.4c-.2-.1-.4-.1-.6-.2a20.263,20.263,0,0,1-3.6-7C420.9,300.1,421.5,297.8,420.8,295.8Z"/><path class="ao" d="M425.5,309.2a1.268,1.268,0,0,1,.1.6c-.2-.3-.4-.5-.6-.8C425.2,309.1,425.3,309.2,425.5,309.2Z"/><path class="ao" d="M420.7,295.6c0,.1.1.1.1.2l-.1.1C420.8,295.7,420.8,295.7,420.7,295.6Z"/><path class="ap" d="M412.6,232.9c-.1,3,.3,5.9-.3,8.9a3.357,3.357,0,0,0-2.9-1.7.349.349,0,0,1,.1-.2c.4-1.5,1-3,1.5-4.5.5-1.7,1.2-3.4.5-5.2a2.822,2.822,0,0,0,1.5-.4A8.282,8.282,0,0,0,412.6,232.9Z"/><path class="ap" d="M412.6,232.9a7.813,7.813,0,0,1,.3-3.1c.1-.1.2-.2.3-.2v10.7c0,.8.1,1.6-.9,1.7,0-.1-.1-.1-.1-.2C412.9,238.9,412.5,235.9,412.6,232.9Z"/><path class="ap" d="M411.5,230.2l-.3-.6a6.054,6.054,0,0,1,1.9,0c-.1.1-.1.2-.2.3A3.194,3.194,0,0,1,411.5,230.2Z"/><path class="ap" d="M413.3,229.5c-.1.1-.2.2-.3.2,0-.1.1-.2.2-.3,0,.1,0,.1.1.1Z"/><path class="ap" d="M411.5,230.2c.6,1.8,0,3.5-.5,5.2-.5,1.5-1.1,2.9-1.5,4.5a.349.349,0,0,1-.1.2h-.3a7.246,7.246,0,0,1,.7-3.3,13.787,13.787,0,0,0,1.4-6.6Z"/><path class="ap" d="M411.2,230.2v-.6l.3.6Z"/><path class="ap" d="M412.3,241.8v.1c-1-.6-2-1.1-2.9-1.7a.1.1,0,0,1,.1-.1A3.324,3.324,0,0,1,412.3,241.8Z"/><path class="ap" d="M412.3,241.8c0,.1.1.1.1.2a.1.1,0,0,1-.1-.1Z"/><path class="ap" d="M409.3,240.3c-.1,0-.2-.1-.3-.1h.3C409.4,240.2,409.3,240.2,409.3,240.3Z"/><path class="ag" d="M479.6,298.5c-.6.2-.9.7-1.2,1.4-.2.7-.4,1.4-.6,2.2-.9,3-2.9,3.4-5.3,3a3.455,3.455,0,0,0-1.3-1.9c1-5.4,1.2-10.8,1.7-16.2.9,4,3.2,7.2,5.4,10.4A3.339,3.339,0,0,0,479.6,298.5Z"/><path class="ag" d="M471.3,303.2l-.2-.2c-.4.5-.1,1.4-.6,1.8-.2-2.6,1-5,.9-7.6,0-2.3.5-4.6.6-6.9a32.874,32.874,0,0,1,.5-5.4c.1.7.2,1.4.3,2A124.97,124.97,0,0,1,471.3,303.2Z"/><path class="ag" d="M477.9,302.1c.2-.7.4-1.5.6-2.2a1.754,1.754,0,0,1,1.2-1.4c.2.1.4.1.6.2-.9.1-1.2.9-1.4,1.7-.2.7-.3,1.5-.5,2.2a5.717,5.717,0,0,1-2.6,3.1c-1.2.8-2.1-.4-3.1-.5V305C475,305.5,477,305.1,477.9,302.1Z"/><path class="ag" d="M480,298.5h-.4a3.339,3.339,0,0,1-1.3-1.1c-2.2-3.2-4.4-6.4-5.4-10.4,0-.4.1-.8.1-1.2a2.353,2.353,0,0,1,.2.8A33.342,33.342,0,0,0,480,298.5Z"/><path class="ag" d="M480,298.5c.1.1.1.2.2.2-.2-.1-.4-.1-.6-.2Z"/><path class="ag" d="M473,287a6.447,6.447,0,0,1-.3-2,2.177,2.177,0,0,1,.5.8A5.019,5.019,0,0,0,473,287Z"/><path class="w" d="M466.8,315.7a14,14,0,0,1-1,1.6,1.752,1.752,0,0,1-2.3.9,2.358,2.358,0,0,1-1.6-2.6,15.533,15.533,0,0,1,.8-3.6A7.768,7.768,0,0,0,466.8,315.7Z"/><path class="w" d="M462,315.6a2.425,2.425,0,0,0,1.6,2.6,1.752,1.752,0,0,0,2.3-.9c.3-.5.7-1.1,1-1.6.1.1.2.1.4.2,0,.9-.7,1.2-1,1.9-.5,1-1.1,1.6-2.1,1.2-1-.3-2.2-.7-2.5-2a6.325,6.325,0,0,1,1-5.2c0,.1.1.2.1.3A9.965,9.965,0,0,0,462,315.6Z"/><path class="w" d="M466.8,315.7a7.767,7.767,0,0,1-4.1-3.7v-.1c1.4,1.2,2.7,2.5,4.1,3.7C466.9,315.6,466.9,315.6,466.8,315.7Z"/><path class="w" d="M462.7,312c0-.1-.1-.2-.1-.3l.2.2Z"/><path class="w" d="M466.9,315.6l.3.3c-.1-.1-.2-.1-.4-.2Z"/><path class="ag" d="M473,281.4c-.3.6,0,1.3-.3,2C472.6,282.7,472.4,282,473,281.4Z"/><path class="o" d="M472.6,283.4c.3-.6,0-1.3.3-2A2.356,2.356,0,0,1,472.6,283.4Z"/><path class="ak" d="M462.2,310.4c-.1-.7-.2-1.4.4-1.9C462.2,309,462.6,309.8,462.2,310.4Z"/><path class="ak" d="M462.2,310.4c.4-.6,0-1.3.4-1.9A2.656,2.656,0,0,1,462.2,310.4Z"/><path class="ak" d="M463.1,301.1c.3-.4.1-1,.3-1.5A1.569,1.569,0,0,1,463.1,301.1Z"/><path class="o" d="M463.4,299.6c-.3.5,0,1-.3,1.5A1.68,1.68,0,0,1,463.4,299.6Z"/><path class="ak" d="M461.4,308.2c.1,0,.2-.1.4-.3a.819.819,0,0,1-.4,1h0A.854.854,0,0,0,461.4,308.2Z"/><path class="ak" d="M461.3,308.2c0,.1,0,.2-.1.2-.1-.2-.1-.3-.2-.5Z"/><path class="ak" d="M461.4,308.2a.854.854,0,0,1,0,.7h0c-.1-.2-.1-.3-.2-.5,0-.1,0-.2.1-.2Z"/><path class="ak" d="M461.3,307.9h.4c-.1.2-.2.3-.4.3A.187.187,0,0,0,461.3,307.9Z"/><path class="ak" d="M461.3,308v.1a.215.215,0,0,1-.2-.2.31.31,0,0,1,.2.1Z"/><path class="ak" d="M461.4,308.2h-.1V308h0C461.4,308,461.4,308.1,461.4,308.2Z"/><path class="o" d="M463,306.2c-.3.5-.1,1-.3,1.5C462.6,307.1,462.5,306.6,463,306.2Z"/><path class="ak" d="M462.7,307.7c.2-.5,0-1.1.3-1.5A1.625,1.625,0,0,1,462.7,307.7Z"/><path class="ak" d="M461.9,307.1c.3-.4,0-1,.3-1.4A1.436,1.436,0,0,1,461.9,307.1Z"/><path class="ak" d="M462.2,305.7c-.3.4-.1,1-.3,1.4A1.436,1.436,0,0,1,462.2,305.7Z"/><path class="o" d="M464.6,297.9c-.3.4,0,1-.3,1.5A1.569,1.569,0,0,1,464.6,297.9Z"/><path class="ak" d="M464.3,299.4c.3-.4.1-1,.3-1.5A1.625,1.625,0,0,1,464.3,299.4Z"/><path class="o" d="M463.5,298.8c.3-.5.1-1,.3-1.5C463.9,297.9,464,298.4,463.5,298.8Z"/><path class="o" d="M463.4,304.3c-.3.4,0,1-.3,1.4C463,305.2,462.9,304.7,463.4,304.3Z"/><path class="o" d="M463.1,305.8c.3-.4.1-1,.3-1.4A1.735,1.735,0,0,1,463.1,305.8Z"/><path class="ak" d="M462.2,305.3c.3-.5.1-1,.3-1.5A1.237,1.237,0,0,1,462.2,305.3Z"/><path class="ak" d="M462.6,303.8c-.2.5,0,1.1-.3,1.5A1.569,1.569,0,0,1,462.6,303.8Z"/><path class="o" d="M464.2,300.2c-.3.4,0,1-.3,1.4A1.436,1.436,0,0,1,464.2,300.2Z"/><path class="o" d="M463.9,301.7c.3-.4.1-1,.3-1.4A1.533,1.533,0,0,1,463.9,301.7Z"/><path class="ak" d="M463.9,302c-.3.4-.1,1-.3,1.5A1.237,1.237,0,0,1,463.9,302Z"/><path class="o" d="M463.5,303.5c.3-.4,0-1,.3-1.5A1.569,1.569,0,0,1,463.5,303.5Z"/><path class="ak" d="M462.7,303c.3-.4,0-1,.3-1.4A1.436,1.436,0,0,1,462.7,303Z"/><path class="ak" d="M463,301.5c-.3.4-.1,1-.3,1.4A1.735,1.735,0,0,1,463,301.5Z"/><path class="aq" d="M431.5,244.1c-.8,2.4-.5,5.1-1.4,7.5a10.789,10.789,0,0,1-1.3,3.2,26.007,26.007,0,0,1-5.5-9.7c1-1.2.7-2.8.5-4.2-.2-2.6-.4-5.3-.4-7.9a5.467,5.467,0,0,0-.7-3.1c2.5-.1,5,.6,7.4.2l.9,12A4.552,4.552,0,0,0,431.5,244.1Z"/><path class="aq" d="M422.7,229.8c-.1-.1-.1-.2-.2-.3,2.5-.6,5.1.1,7.6,0v.6C427.7,230.4,425.2,229.7,422.7,229.8Z"/><path class="aq" d="M428.8,254.7a10.789,10.789,0,0,0,1.3-3.2c.9-2.4.6-5.1,1.4-7.5,0,.1,0,.1.1.2,0,.3-.1.6-.1.9.3,3.2-.8,6.1-1.7,9.1-.5,1.6-1,1.6-2,.4-1-1.4-2.1-2.9-3-4.4a9.161,9.161,0,0,1-1.7-5.1l.1-.1A24.237,24.237,0,0,0,428.8,254.7Z"/><path class="aq" d="M423.8,240.8c.1,1.4.4,2.9-.5,4.2h-.1c.2-5.1-.4-10.2-.6-15.3l.1.1h.1a5.467,5.467,0,0,1,.7,3.1A51.7,51.7,0,0,0,423.8,240.8Z"/><path class="aq" d="M422.6,229.8l-.1-.1v-.2a.367.367,0,0,1,.1.3Z"/><path class="aq" d="M423.2,245l-.1.1h0v-.2a.1.1,0,0,1,.1.1Z"/><path class="ar" d="M440.3,235.2c.3,2.1-.1,3.4-1.8,4.6a70.612,70.612,0,0,1-6.9,4.2c.4-2.7-.4-5.3-.4-7.9,0-1.5-.3-3-.3-4.6a2.544,2.544,0,0,0-.3-1.5c3.1-.4,6.2-.1,9.4-.2C439.3,231.6,440.1,233.5,440.3,235.2Z"/><path class="ar" d="M440,229.8c-3.1.2-6.2-.2-9.4.2a1.205,1.205,0,0,0-.5-.5c3.3-.7,6.7-.4,10.1-.2h0A.764.764,0,0,0,440,229.8Z"/><path class="ar" d="M440.1,239.4c-1.8,1.2-3.6,2.5-5.4,3.7a5.639,5.639,0,0,1-3.1,1.2v-.2a60.441,60.441,0,0,0,6.9-4.2c1.7-1.1,2.1-2.4,1.8-4.6-.3-1.8-1-3.6-.4-5.5h.3c.1,2.4.5,4.8.8,7.2A2.091,2.091,0,0,1,440.1,239.4Z"/><path class="ar" d="M440.1,229.8h-.2c.1-.2.1-.3.2-.5h0a.446.446,0,0,1,0,.5Z"/><path class="ar" d="M431.2,236c0,2.7.8,5.3.4,7.9a.1.1,0,0,0-.1.1h0a4.477,4.477,0,0,1-.4-2l-.9-12h.4a6.639,6.639,0,0,1,.3,1.5C430.9,233,431.2,234.5,431.2,236Z"/><path class="ar" d="M430.6,230h-.4v-.6C430.3,229.6,430.5,229.8,430.6,230Z"/><path class="ar" d="M431.5,244.1a.1.1,0,0,0,.1-.1v.2a.1.1,0,0,1-.1-.1Z"/><path class="t" d="M447.1,215.5c0,2-.6,2.7-2.4,2.8h-2.1a2.925,2.925,0,0,0-1.2-.7c-1.7-.7-3.4-1.6-5-2.4a8.38,8.38,0,0,1-3.7-3c.5-.1.7-.6,1-.9,2.3-2.4,3.3-2.5,6.2-1,1,.5,2,1.4,3.2,1.2.1,0,.1,0,.2-.1.5.4,1.1.4,1.6.7A3.5,3.5,0,0,1,447.1,215.5Z"/><path class="t" d="M443.3,211.4c-.1,0-.1,0-.2.1-1.3.2-2.2-.7-3.2-1.2-2.9-1.5-3.9-1.4-6.2,1-.3.3-.6.8-1,.9a.1.1,0,0,0-.1-.1c2.8-4.2,4.3-4.1,7.5-2.4,1,.5,1.9,1.3,3,1.4h0C443.2,211.2,443.2,211.3,443.3,211.4Z"/><path class="t" d="M442.9,219Z"/><path class="t" d="M447.7,216.7c-.3,1.6-.8,2.2-2.3,2.3h-2.5a1.445,1.445,0,0,0-.2-.7,14.718,14.718,0,0,0,2.1,0c1.8-.1,2.4-.8,2.4-2.8A3.793,3.793,0,0,0,445,212c-.5-.3-1.1-.3-1.6-.7.2-.1.3-.1.5-.2C446.9,211.7,448.2,213.6,447.7,216.7Z"/><path class="t" d="M443.3,211.4c-.1-.1-.2-.2-.2-.3a1.483,1.483,0,0,1,.7.1C443.7,211.3,443.5,211.3,443.3,211.4Z"/><path class="t" d="M436.4,215.3c1.7.8,3.3,1.8,5,2.4a2.925,2.925,0,0,1,1.2.7h-1.1c-2.2-1-4.3-2.1-6.4-3.1-1.4-.7-2.3-1.4-2.4-3h.1A8.941,8.941,0,0,0,436.4,215.3Z"/><path class="t" d="M432.6,212.2v0Z"/><path class="t" d="M442.3,218.4h.3a1.445,1.445,0,0,1,.2.7h0a9.143,9.143,0,0,1-1.4-.7Z"/><path class="as" d="M426.9,208.5a87.613,87.613,0,0,1-1-10.3c.5.5,1.1.7,1.5,0a29.109,29.109,0,0,0,2.7-4.9c.4,4.5,1,9,1.3,13.5a21.522,21.522,0,0,0,.7,5,.1.1,0,0,0,.1.1c-1.5-1.2-3.3-2.1-4.9-3.2C427,208.5,426.9,208.5,426.9,208.5Z"/><path class="as" d="M432,211.7a40.13,40.13,0,0,1-.7-5c-.3-4.5-.9-9-1.3-13.5a8.523,8.523,0,0,0,.3-2.3,4.253,4.253,0,0,1,.2,1.1c.6,6.7,1.2,13.4,1.9,20.1-.1-.1-.3-.2-.4-.4Z"/><path class="as" d="M426.9,208.5c.1,0,.1.1.2.1,1.6,1.1,3.4,2,4.9,3.2a.349.349,0,0,0,.1.2,22.636,22.636,0,0,1-5.2-3Z"/><path class="as" d="M432.2,212c-.1-.1-.1-.1-.1-.2.1.1.3.2.4.3h0A.438.438,0,0,1,432.2,212Z"/><path class="as" d="M425.8,198.2v-.7c.5.7,1,1.2,1.5.1.8-1.8,1.9-3.5,2.6-5.4,0,.4.1.7.1,1.1a23.432,23.432,0,0,1-2.7,4.9C426.9,198.9,426.3,198.7,425.8,198.2Z"/><path class="as" d="M429.9,192.2a5.637,5.637,0,0,0,.4-1.2,8.525,8.525,0,0,1-.3,2.3A3.749,3.749,0,0,0,429.9,192.2Z"/><path class="ac" d="M437.6,268.8v-.4a12.651,12.651,0,0,1,.3-2.8,15,15,0,0,1,.1,3.6C437.9,269.3,437.6,268.7,437.6,268.8Z"/><path class="ac" d="M437.7,271.3a.367.367,0,0,0-.3-.1,1.445,1.445,0,0,0,.2-.7A2.486,2.486,0,0,1,437.7,271.3Z"/><path class="ac" d="M437.4,271.2a.367.367,0,0,1,.3.1v.4h0c0-.1-.2-.3-.3-.5Z"/><path class="ac" d="M437.7,270.6a12.31,12.31,0,0,1,.2-2h.2c0,1,.3,2-.2,2.9l-.2-.2Z"/><path class="ac" d="M437.7,271.3c.1,0,.1.1.2.2a.349.349,0,0,1-.1.2h0A.757.757,0,0,0,437.7,271.3Z"/><path class="ac" d="M437.6,268.8a10.868,10.868,0,0,0,.1,1.8,2.544,2.544,0,0,1-.2.7h0A3.075,3.075,0,0,1,437.6,268.8Z"/><path class="at" d="M437.4,271.2Z"/><path class="ac" d="M437.6,268.8c0-.1.1-.1.1-.2h.2a15.029,15.029,0,0,0-.2,2A10.868,10.868,0,0,1,437.6,268.8Z"/><path class="ac" d="M437.8,265.4h.4c-.1.1-.2.3-.3.4C437.9,265.7,437.8,265.5,437.8,265.4Z"/><path class="ac" d="M437.9,268.4h0a19.217,19.217,0,0,0,0-2.4h.3a11.328,11.328,0,0,1-.1,2.6h0C438,268.5,438,268.4,437.9,268.4Z"/><path class="ac" d="M437.9,266v-.2a1.381,1.381,0,0,1,.3-.4v.6h-.3Z"/><path class="ac" d="M437.8,266Z"/><path class="ac" d="M437.8,266h0v-.6c0,.1.1.3.1.4S437.8,265.9,437.8,266Z"/><path class="ac" d="M437.9,265.8v.2h-.1C437.8,265.9,437.9,265.9,437.9,265.8Z"/><path class="ac" d="M437.9,268.5v-.1c.1,0,.1.1.1.2.1,0-.1-.1-.1-.1Z"/><path class="ac" d="M437.9,268.4v.1h-.2C437.8,268.4,437.8,268.4,437.9,268.4Z"/><path class="au" d="M421,196.4h0c.9-1.3,1.9-2.6,2.7-3.8a34.513,34.513,0,0,0,1.8,5.1.1.1,0,0,0,.1.1c-.7,1.3-.1,2.8,0,4.2.1,2.1,0,4.3,1,6.3-1.9-1-3.7-2.2-5.6-3.4-.1,0-.1-.1-.2-.1C422.8,201.3,422.8,198.1,421,196.4Z"/><path class="au" d="M421,204.9a52.119,52.119,0,0,0,5.6,3.4c.1.2.3.5.4.7a34.807,34.807,0,0,1-6.4-3.8h0a.758.758,0,0,0,.2-.4C420.9,204.8,420.9,204.9,421,204.9Z"/><path class="au" d="M425.6,197.8h0a29.267,29.267,0,0,1-1.8-5.2c-.9,1.2-1.8,2.5-2.7,3.8h0a1.381,1.381,0,0,0-.4-.3h0c1.1-1.3,1.7-3.1,3.4-4,.6,1.9,1.2,3.6,1.8,5.4h0Q425.6,197.65,425.6,197.8Z"/><path class="au" d="M420.8,204.8a.1.1,0,0,1-.1-.1c.2-.9.5-1.8.7-2.8.5-1.7.7-3.3-.5-4.8a.6.6,0,0,1-.1-.4l.3-.3C422.8,198.1,422.8,201.3,420.8,204.8Z"/><path class="au" d="M420.8,204.8a.758.758,0,0,0-.2.4c0-.2.1-.3.1-.5A.1.1,0,0,0,420.8,204.8Z"/><path class="au" d="M420.7,196.7a1.268,1.268,0,0,0-.1-.6,1.381,1.381,0,0,0,.4.3Z"/><path class="au" d="M425.6,202c-.1-1.4-.7-2.8,0-4.2l.3.3c.2,3.4.5,6.9,1,10.3-.1-.1-.2-.1-.3-.2C425.6,206.4,425.6,204.1,425.6,202Z"/><path class="au" d="M426.9,208.5a.749.749,0,0,0,.1.5,2.506,2.506,0,0,1-.4-.7A1.238,1.238,0,0,0,426.9,208.5Z"/><path class="au" d="M425.8,197.5h0v.7l-.3-.3A1.381,1.381,0,0,1,425.8,197.5Z"/></g></svg>