<svg xmlns="http://www.w3.org/2000/svg" width="272.199" height="176.923" viewBox="0 0 272.199 176.923"><defs><style>.a{fill:#e0f3ff;}.b{fill:#ffb07b;}.c{fill:#ffc8a3;}.d{fill:#f0a574;}.e{fill:#fff;}.f{fill:#f0f0f0;}.g,.h{fill:#1e1542;}.h,.r{opacity:0.5;}.i{fill:#dbdbdb;}.j{fill:#bfbfbf;}.k{fill:#a5bbaa;}.l{fill:#566359;}.m{fill:#769b77;}.n{fill:#020203;}.o{fill:#e3cac8;}.p,.r{fill:#684c7d;}.q{fill:#faefec;}.s{fill:#c9acb4;}</style></defs><g transform="translate(-324.515 -191.088)"><path class="a" d="M338.2,227.8c-33.3,43.5-2.2,121.8,54.2,136.4s93.7-17.4,127.9-18.2c42.7-.9,75-16.6,71-71.7C585.9,198.3,392.9,156.5,338.2,227.8Z"/><path class="b" d="M436.7,279.5a6.607,6.607,0,0,1-2.8,1.7c-.3.1-.5.1-.8.2a.367.367,0,0,0-.3.1c-.2,0-.3.1-.5.1H432a.9.9,0,0,0-.5.1h-2.7a1.268,1.268,0,0,1-.6-.1H428c-.3,0-.5-.1-.8-.1h-.3a4.331,4.331,0,0,1-.5-.1.367.367,0,0,1-.3-.1c-.2,0-.3-.1-.5-.1-.1,0-.2-.1-.3-.1-.2,0-.3-.1-.5-.1-.1,0-.2-.1-.3-.1-.2,0-.3-.1-.5-.1-.1,0-.2-.1-.3-.1-.2,0-.3-.1-.5-.1-.1,0-.2-.1-.3-.1-.2-.1-.3-.1-.5-.2-.1,0-.2-.1-.3-.1h0a7.494,7.494,0,0,0-1.6-.5c.2.1.5.8.6,1,2.5,3.9,7.8,7.9,11.9,10a1.852,1.852,0,0,0,1.4.2c.1,0,.1,0,.2-.1h0c.1,0,.1-.1.2-.1l6.4,4.9c-3,1.8-6,3.6-8.9,5.4a4.6,4.6,0,0,1-1.6.7,4.133,4.133,0,0,1-1.9-.2c-1.6,1-3.3,1.9-4.9,2.9a4.6,4.6,0,0,1-1.6.7,4.367,4.367,0,0,1-2.7-.5c-.7.4-1.4.9-2.2,1.3a4.6,4.6,0,0,1-1.6.7,4.3,4.3,0,0,1-3.1-.8c-.3-.2-.6-.3-.9-.5a26.3,26.3,0,0,1-10.6-5.8,64.2,64.2,0,0,1-8.3-9,13.247,13.247,0,0,1-1.6-2.5,26.252,26.252,0,0,0-4.9-3.9c2.6-5.7,6.2-9.8,10.2-14.5,8.3,2.4,17.6-.4,25.8,2.4,1.8.6,3.5,1.5,5.3,2.3a3,3,0,0,1,.8.4c.1,0,.1,0,.2.1.3.1.6.3.9.4a12.545,12.545,0,0,0,7.6,1C437.8,277.1,437.4,278.6,436.7,279.5Z"/><path class="b" d="M436.7,279.5a6.607,6.607,0,0,1-2.8,1.7c-.3.1-.5.1-.8.2a.367.367,0,0,0-.3.1c-.2,0-.3.1-.5.1H432a.9.9,0,0,0-.5.1h-2.7a1.268,1.268,0,0,1-.6-.1H428c-.3,0-.5-.1-.8-.1h-.3a4.331,4.331,0,0,1-.5-.1.367.367,0,0,1-.3-.1c-.2,0-.3-.1-.5-.1-.1,0-.2-.1-.3-.1-.2,0-.3-.1-.5-.1-.1,0-.2-.1-.3-.1-.2,0-.3-.1-.5-.1-.1,0-.2-.1-.3-.1-.2,0-.3-.1-.5-.1-.1,0-.2-.1-.3-.1-.2-.1-.3-.1-.5-.2-.1,0-.2-.1-.3-.1h0a7.494,7.494,0,0,0-1.6-.5c.2.1.5.8.6,1,2.5,3.9,7.8,7.9,11.9,10a1.852,1.852,0,0,0,1.4.2c.1,0,.1,0,.2-.1h0c.1,0,.1-.1.2-.1l6.4,4.9c-3,1.8-6,3.6-8.9,5.4a4.6,4.6,0,0,1-1.6.7,4.133,4.133,0,0,1-1.9-.2c-1.6,1-3.3,1.9-4.9,2.9a4.6,4.6,0,0,1-1.6.7,4.367,4.367,0,0,1-2.7-.5c-.7.4-1.4.9-2.2,1.3a4.6,4.6,0,0,1-1.6.7,4.3,4.3,0,0,1-3.1-.8c-.3-.2-.6-.3-.9-.5a26.3,26.3,0,0,1-10.6-5.8,64.2,64.2,0,0,1-8.3-9,13.247,13.247,0,0,1-1.6-2.5,26.252,26.252,0,0,0-4.9-3.9c2.6-5.7,6.2-9.8,10.2-14.5,8.3,2.4,17.6-.4,25.8,2.4,1.8.6,3.5,1.5,5.3,2.3a3,3,0,0,1,.8.4c.1,0,.1,0,.2.1.3.1.6.3.9.4a12.545,12.545,0,0,0,7.6,1C437.8,277.1,437.4,278.6,436.7,279.5Z"/><path class="c" d="M435.6,278.7a3.3,3.3,0,0,0,1.2-2.4,10.819,10.819,0,0,1-4.4-.2c.1,1,.1,1.9.2,2.9A3.254,3.254,0,0,0,435.6,278.7Z"/><path class="d" d="M416,274.7a43.02,43.02,0,0,1,10.7-.9,36.521,36.521,0,0,0-4.1-1.8c-8.2-2.8-17.5,0-25.8-2.4-4,4.7-7.6,8.9-10.2,14.5a19.407,19.407,0,0,1,2.9,2.1,59.086,59.086,0,0,0,8.8-11.6C403.8,277,410.1,275.8,416,274.7Z"/><path class="d" d="M427.8,294.5s.6.2,1.4.5a12.128,12.128,0,0,1,1.4.5,3,3,0,0,1,.8.4c.3.1.5.3.8.4s.5.3.8.4a2.353,2.353,0,0,0,.8.2,1.952,1.952,0,0,0,.7.1,1.7,1.7,0,0,0,.7-.1,10.374,10.374,0,0,0,1-.4l.4-.2-.3.3a3.49,3.49,0,0,1-.9.6,1.854,1.854,0,0,1-.7.2h-.8a2.92,2.92,0,0,1-.9-.2,2.01,2.01,0,0,1-.8-.4c-.3-.1-.5-.3-.8-.4a4.349,4.349,0,0,1-.7-.4c-.5-.2-1-.5-1.4-.7C428.3,294.8,427.8,294.5,427.8,294.5Z"/><path class="d" d="M431.2,301.2c-.2,0-.4.1-.6.1a1.7,1.7,0,0,1-.7-.1,4.714,4.714,0,0,1-1.5-.6,5.939,5.939,0,0,0-.8-.4c-.3-.1-.5-.2-.8-.3a12.128,12.128,0,0,0-1.4-.5,6.218,6.218,0,0,1-1-.3,1.577,1.577,0,0,0-.4-.1c1.3.6,2.6,1.1,3.9,1.8a5.16,5.16,0,0,0,3.1.8,4.594,4.594,0,0,0,1.6-.7,1.577,1.577,0,0,0-.4.1A4.4,4.4,0,0,0,431.2,301.2Z"/><rect class="e" width="25.1" height="6.3" transform="matrix(-0.56, 0.828, -0.828, -0.56, 400.948, 267.479)"/><rect class="f" width="9.3" height="6.3" transform="matrix(-0.56, 0.828, -0.828, -0.56, 400.919, 267.479)"/><rect class="g" width="31.9" height="64.6" transform="matrix(-0.56, 0.828, -0.828, -0.56, 398.581, 261.782)"/><rect class="h" width="9.8" height="64.6" transform="matrix(-0.56, 0.828, -0.828, -0.56, 398.501, 261.822)"/><circle class="i" cx="2.1" cy="2.1" r="2.1" transform="translate(375.5 278)"/><circle class="j" cx="1.2" cy="1.2" r="1.2" transform="translate(376.4 278.9)"/><circle class="i" cx="2.1" cy="2.1" r="2.1" transform="translate(370.2 274.4)"/><circle class="j" cx="1.2" cy="1.2" r="1.2" transform="translate(371.1 275.3)"/><circle class="i" cx="2.1" cy="2.1" r="2.1" transform="translate(364.9 270.9)"/><circle class="j" cx="1.2" cy="1.2" r="1.2" transform="translate(365.8 271.8)"/><path d="M464.8,283.7l1.2,3-52.7,10.4-.8-2.7Z"/><path class="k" d="M412.5,294.4l52.3-10.7,8.2-15-52.4,10.7Z"/><path class="l" d="M416.9,292.5l44.7-9.1,6.9-12.8-44.7,9.1Z"/><path class="l" d="M464.6,272.3c-.6,1,.3,1.6,1.9,1.3a6.338,6.338,0,0,0,4-2.5c.6-1-.3-1.6-1.9-1.3A7.287,7.287,0,0,0,464.6,272.3Z"/><path class="l" d="M420.9,281.3c-.6,1,.3,1.6,1.9,1.3a6.338,6.338,0,0,0,4-2.5c.6-1-.3-1.6-1.9-1.3C423.2,279.2,421.4,280.3,420.9,281.3Z"/><path class="l" d="M458.9,282.9c-.6,1,.3,1.6,1.9,1.3a6.338,6.338,0,0,0,4-2.5c.6-1-.3-1.6-1.9-1.3A6.937,6.937,0,0,0,458.9,282.9Z"/><path class="m" d="M415.2,291.9c-.6,1,.3,1.6,1.9,1.3s3.4-1.4,3.9-2.5c.6-1-.3-1.6-1.9-1.3C417.5,289.8,415.7,290.9,415.2,291.9Z"/><path class="k" d="M435.3,283.1c-1.4,2.6.8,4,4.9,3.2s8.6-3.6,10-6.2-.8-4-4.9-3.2C441.1,277.7,436.7,280.5,435.3,283.1Z"/><path class="k" d="M426.4,284.6c-.5.9.3,1.4,1.7,1.1a5.922,5.922,0,0,0,3.5-2.2c.5-.9-.3-1.4-1.7-1.1A6.434,6.434,0,0,0,426.4,284.6Z"/><path class="k" d="M453.7,279.2c-.5.9.3,1.4,1.7,1.1a5.922,5.922,0,0,0,3.5-2.2c.5-.9-.3-1.4-1.7-1.1A5.625,5.625,0,0,0,453.7,279.2Z"/><path class="n" d="M445.7,277.7l-.4.7c1.1-.2,2.2,0,1.6,1.2-1,1.9-5.3,2.7-5.7,3.3-.2.3.4.3.8.2a3.913,3.913,0,0,0,2.1-1.1l2.1-.4-1.1,2-2,.4.1-.5c-.3.2-.6.3-.9.5l-.6,1.1-1.9.4.5-.9c-1.4.3-2.8.2-2.1-1,1-1.9,5.4-2.6,5.9-3.4.2-.3-.2-.3-.6-.3a3.6,3.6,0,0,0-2,1.2l-2.1.4,1.1-2,2-.4-.1.5a8.794,8.794,0,0,1,1-.6l.5-.9Z"/><path class="l" d="M466,286.7l8.3-15.1-1.3-2.9-8.2,15Z"/><path class="b" d="M436.7,279.5a6.607,6.607,0,0,1-2.8,1.7c-.3.1-.5.1-.8.2a.367.367,0,0,0-.3.1c-.2,0-.3.1-.5.1H432a.9.9,0,0,0-.5.1h-2.7a1.268,1.268,0,0,1-.6-.1H428c-.3,0-.5-.1-.8-.1h-.3a4.331,4.331,0,0,1-.5-.1.367.367,0,0,1-.3-.1c-.2,0-.3-.1-.5-.1-.1,0-.2-.1-.3-.1-.2,0-.3-.1-.5-.1-.1,0-.2-.1-.3-.1-.2,0-.3-.1-.5-.1-.1,0-.2-.1-.3-.1-.2,0-.3-.1-.5-.1-.1,0-.2-.1-.3-.1-.2-.1-.3-.1-.5-.2-.1,0-.2-.1-.3-.1h0a7.494,7.494,0,0,0-1.6-.5c.2.1.5.8.6,1,2.5,3.9,7.8,7.9,11.9,10a1.852,1.852,0,0,0,1.4.2c.1,0,.1,0,.2-.1h0c.1,0,.1-.1.2-.1l6.4,4.9c-3,1.8-6,3.6-8.9,5.4a4.6,4.6,0,0,1-1.6.7,4.133,4.133,0,0,1-1.9-.2c-1.6,1-3.3,1.9-4.9,2.9a4.6,4.6,0,0,1-1.6.7,4.367,4.367,0,0,1-2.7-.5c-.7.4-1.4.9-2.2,1.3a4.6,4.6,0,0,1-1.6.7,4.3,4.3,0,0,1-3.1-.8c-.3-.2-.6-.3-.9-.5a26.3,26.3,0,0,1-10.6-5.8,64.2,64.2,0,0,1-8.3-9,13.247,13.247,0,0,1-1.6-2.5,26.252,26.252,0,0,0-4.9-3.9c2.6-5.7,6.2-9.8,10.2-14.5,8.3,2.4,17.6-.4,25.8,2.4,1.8.6,3.5,1.5,5.3,2.3a3,3,0,0,1,.8.4c.1,0,.1,0,.2.1.3.1.6.3.9.4a12.545,12.545,0,0,0,7.6,1C437.8,277.1,437.4,278.6,436.7,279.5Z"/><path class="b" d="M436.7,279.5a6.607,6.607,0,0,1-2.8,1.7c-.3.1-.5.1-.8.2a.367.367,0,0,0-.3.1c-.2,0-.3.1-.5.1H432a.9.9,0,0,0-.5.1h-2.7a1.268,1.268,0,0,1-.6-.1H428c-.3,0-.5-.1-.8-.1h-.3a4.331,4.331,0,0,1-.5-.1.367.367,0,0,1-.3-.1c-.2,0-.3-.1-.5-.1-.1,0-.2-.1-.3-.1-.2,0-.3-.1-.5-.1-.1,0-.2-.1-.3-.1-.2,0-.3-.1-.5-.1-.1,0-.2-.1-.3-.1-.2,0-.3-.1-.5-.1-.1,0-.2-.1-.3-.1-.2-.1-.3-.1-.5-.2-.1,0-.2-.1-.3-.1h0a7.494,7.494,0,0,0-1.6-.5c.2.1.5.8.6,1,2.5,3.9,7.8,7.9,11.9,10a1.852,1.852,0,0,0,1.4.2c.1,0,.1,0,.2-.1h0c.1,0,.1-.1.2-.1l6.4,4.9c-3,1.8-6,3.6-8.9,5.4a4.6,4.6,0,0,1-1.6.7,4.133,4.133,0,0,1-1.9-.2c-1.6,1-3.3,1.9-4.9,2.9a4.6,4.6,0,0,1-1.6.7,4.367,4.367,0,0,1-2.7-.5c-.7.4-1.4.9-2.2,1.3a4.6,4.6,0,0,1-1.6.7,4.3,4.3,0,0,1-3.1-.8c-.3-.2-.6-.3-.9-.5a26.3,26.3,0,0,1-10.6-5.8,64.2,64.2,0,0,1-8.3-9,13.247,13.247,0,0,1-1.6-2.5,26.252,26.252,0,0,0-4.9-3.9c2.6-5.7,6.2-9.8,10.2-14.5,8.3,2.4,17.6-.4,25.8,2.4,1.8.6,3.5,1.5,5.3,2.3a3,3,0,0,1,.8.4c.1,0,.1,0,.2.1.3.1.6.3.9.4a12.545,12.545,0,0,0,7.6,1C437.8,277.1,437.4,278.6,436.7,279.5Z"/><path class="c" d="M435.6,278.7a3.3,3.3,0,0,0,1.2-2.4,10.819,10.819,0,0,1-4.4-.2c.1,1,.1,1.9.2,2.9A3.254,3.254,0,0,0,435.6,278.7Z"/><path class="d" d="M416,274.7a43.02,43.02,0,0,1,10.7-.9,36.521,36.521,0,0,0-4.1-1.8c-8.2-2.8-17.5,0-25.8-2.4-4,4.7-7.6,8.9-10.2,14.5a19.407,19.407,0,0,1,2.9,2.1,59.086,59.086,0,0,0,8.8-11.6C403.8,277,410.1,275.8,416,274.7Z"/><path class="d" d="M429.5,295.3s.6.2,1.4.5a12.128,12.128,0,0,1,1.4.5,3,3,0,0,1,.8.4c.3.1.5.3.8.4s.5.3.8.4a2.353,2.353,0,0,0,.8.2,1.952,1.952,0,0,0,.7.1,1.7,1.7,0,0,0,.7-.1,10.374,10.374,0,0,0,1-.4l.4-.2-.3.3a3.49,3.49,0,0,1-.9.6,1.854,1.854,0,0,1-.7.2h-.8a2.92,2.92,0,0,1-.9-.2,2.01,2.01,0,0,1-.8-.4c-.3-.1-.5-.3-.8-.4a4.349,4.349,0,0,1-.7-.4c-.5-.2-1-.5-1.4-.7A6.4,6.4,0,0,1,429.5,295.3Z"/><path class="d" d="M431.2,301.2c-.2,0-.4.1-.6.1a1.7,1.7,0,0,1-.7-.1,4.714,4.714,0,0,1-1.5-.6,5.939,5.939,0,0,0-.8-.4c-.3-.1-.5-.2-.8-.3a12.128,12.128,0,0,0-1.4-.5,6.218,6.218,0,0,1-1-.3,1.577,1.577,0,0,0-.4-.1c1.3.6,2.6,1.1,3.9,1.8a5.16,5.16,0,0,0,3.1.8,4.594,4.594,0,0,0,1.6-.7,1.577,1.577,0,0,0-.4.1A4.4,4.4,0,0,0,431.2,301.2Z"/><rect class="e" width="25.1" height="6.3" transform="matrix(-0.56, 0.828, -0.828, -0.56, 400.948, 267.479)"/><rect class="f" width="9.3" height="6.3" transform="matrix(-0.56, 0.828, -0.828, -0.56, 400.919, 267.479)"/><rect class="k" width="31.9" height="64.6" transform="matrix(-0.56, 0.828, -0.828, -0.56, 398.581, 261.782)"/><rect class="h" width="9.8" height="64.6" transform="matrix(-0.56, 0.828, -0.828, -0.56, 385.381, 280.311)"/><circle class="i" cx="2.1" cy="2.1" r="2.1" transform="translate(375.5 278)"/><circle class="j" cx="1.2" cy="1.2" r="1.2" transform="translate(376.4 278.9)"/><circle class="i" cx="2.1" cy="2.1" r="2.1" transform="translate(370.2 274.4)"/><circle class="j" cx="1.2" cy="1.2" r="1.2" transform="translate(371.1 275.3)"/><circle class="i" cx="2.1" cy="2.1" r="2.1" transform="translate(364.9 270.9)"/><circle class="j" cx="1.2" cy="1.2" r="1.2" transform="translate(365.8 271.8)"/><path class="b" d="M435.2,293l-.4-2.5,8.2-1.8s6-1.6,8.2,1.8l-9.8,4.9Z"/><rect class="o" width="34.5" height="82.8" transform="translate(478.3 240)"/><rect class="p" width="34.5" height="4.2" transform="translate(478.3 241.3)"/><rect class="q" width="8.2" height="8.2" transform="translate(483.6 247.3)"/><rect class="k" width="7.2" height="7.2" transform="translate(484.1 247.8)"/><path class="r" d="M484.7,248.3h6.6v-.5h-7.2V255h.6Z"/><rect class="q" width="8.2" height="0.5" transform="translate(483.5 251)"/><rect class="q" width="8.2" height="8.2" transform="translate(498.9 247.3)"/><rect class="k" width="7.2" height="7.2" transform="translate(499.4 247.8)"/><path class="r" d="M500,248.3h6.6v-.5h-7.2V255h.6Z"/><rect class="q" width="8.2" height="0.5" transform="translate(498.8 251)"/><rect class="q" width="8.2" height="8.2" transform="translate(483.6 263.2)"/><rect class="k" width="7.2" height="7.2" transform="translate(484.1 263.7)"/><path class="r" d="M484.7,264.2h6.6v-.5h-7.2v7.2h.6Z"/><rect class="q" width="8.2" height="0.5" transform="translate(483.5 266.9)"/><rect class="q" width="8.2" height="8.2" transform="translate(498.9 263.2)"/><rect class="k" width="7.2" height="7.2" transform="translate(499.4 263.7)"/><path class="r" d="M500,264.2h6.6v-.5h-7.2v7.2h.6Z"/><rect class="q" width="8.2" height="0.5" transform="translate(498.8 266.9)"/><rect class="q" width="8.2" height="8.2" transform="translate(483.6 279.1)"/><rect class="k" width="7.2" height="7.2" transform="translate(484.1 279.6)"/><path class="r" d="M484.7,280h6.6v-.4h-7.2v7.2h.6Z"/><rect class="q" width="8.2" height="0.5" transform="translate(483.5 282.7)"/><rect class="q" width="8.2" height="8.2" transform="translate(498.9 279.1)"/><rect class="k" width="7.2" height="7.2" transform="translate(499.4 279.6)"/><path class="r" d="M500,280h6.6v-.4h-7.2v7.2h.6Z"/><rect class="q" width="8.2" height="0.5" transform="translate(498.8 282.7)"/><rect class="q" width="8.2" height="8.2" transform="translate(483.6 294.9)"/><rect class="k" width="7.2" height="7.2" transform="translate(484.1 295.5)"/><path class="r" d="M484.7,295.9h6.6v-.4h-7.2v7.2h.6Z"/><rect class="q" width="8.2" height="0.5" transform="translate(483.5 298.6)"/><rect class="q" width="8.2" height="8.2" transform="translate(498.9 294.9)"/><rect class="k" width="7.2" height="7.2" transform="translate(499.4 295.5)"/><path class="r" d="M500,295.9h6.6v-.4h-7.2v7.2h.6Z"/><rect class="q" width="8.2" height="0.5" transform="translate(498.8 298.6)"/><rect class="q" width="8.2" height="8.2" transform="translate(483.6 310.8)"/><rect class="k" width="7.2" height="7.2" transform="translate(484.1 311.4)"/><path class="r" d="M484.7,311.8h6.6v-.4h-7.2v7.1h.6Z"/><rect class="q" width="8.2" height="0.5" transform="translate(483.5 314.5)"/><rect class="q" width="8.2" height="8.2" transform="translate(498.9 310.8)"/><rect class="k" width="7.2" height="7.2" transform="translate(499.4 311.4)"/><path class="r" d="M500,311.8h6.6v-.4h-7.2v7.1h.6Z"/><rect class="q" width="8.2" height="0.5" transform="translate(498.8 314.5)"/><rect class="s" width="34.5" height="0.6" transform="translate(478.3 259.1)"/><rect class="s" width="34.5" height="0.6" transform="translate(478.3 274.5)"/><rect class="s" width="34.5" height="0.6" transform="translate(478.3 290)"/><rect class="s" width="34.5" height="0.6" transform="translate(478.3 305.5)"/><rect class="s" width="34.5" height="0.6" transform="translate(478.3 321)"/><rect class="f" width="2.5" height="1" transform="translate(480.5 244.3)"/><rect class="f" width="2.6" height="1" transform="translate(482 245.6)"/><rect class="f" width="2.5" height="1" transform="translate(507.9 270.8)"/><rect class="f" width="2.5" height="1" transform="translate(509.4 272.1)"/><rect class="f" width="2.5" height="1" transform="translate(507.6 244.7)"/><rect class="f" width="2.5" height="1" transform="translate(509 246)"/><rect class="f" width="2.5" height="1" transform="translate(508.1 248.3)"/><rect class="f" width="2.5" height="1" transform="translate(480.4 271.9)"/><rect class="f" width="2.5" height="1" transform="translate(494.2 292.3)"/><rect class="f" width="2.5" height="1" transform="translate(495.6 293.5)"/><rect class="f" width="2.5" height="1" transform="translate(494.7 295.8)"/><rect class="f" width="2.5" height="1" transform="translate(494.5 254.8)"/><rect class="f" width="2.5" height="1" transform="translate(509.4 278.5)"/><rect class="f" width="2.5" height="1" transform="translate(482.4 275.1)"/><rect class="f" width="2.5" height="1" transform="translate(508.9 318)"/><rect class="f" width="2.5" height="1" transform="translate(480.6 292.9)"/><rect class="f" width="2.5" height="1" transform="translate(500.2 306.7)"/><rect class="f" width="2.5" height="1" transform="translate(479.8 308.6)"/><rect class="f" width="2.5" height="1" transform="translate(481.2 256.4)"/><rect class="f" width="2.5" height="1" transform="translate(494.9 262.7)"/><path class="l" d="M513.1,242.4H478.3l7.2-13.3h21.2Z"/><rect class="k" width="36.3" height="4.2" transform="translate(477.6 239.3)"/><path class="b" d="M487.2,310.9a6.607,6.607,0,0,0,2.8,1.7c.3.1.5.1.8.2a.367.367,0,0,1,.3.1c.2,0,.3.1.5.1h.3a.9.9,0,0,1,.5.1h2.7a1.268,1.268,0,0,0,.6-.1h.2c.3,0,.5-.1.8-.1h.3a4.331,4.331,0,0,0,.5-.1.367.367,0,0,0,.3-.1c.2,0,.3-.1.5-.1.1,0,.2-.1.3-.1.2,0,.3-.1.5-.1.1,0,.2-.1.3-.1.2,0,.3-.1.5-.1.1,0,.2-.1.3-.1.2,0,.3-.1.5-.1.1,0,.2-.1.3-.1.2-.1.3-.1.5-.2.1,0,.2-.1.3-.1h0a7.494,7.494,0,0,1,1.6-.5c-.2.1-.5.8-.6,1-2.5,3.9-7.8,7.9-11.9,10a1.852,1.852,0,0,1-1.4.2c-.1,0-.1,0-.2-.1h0c-.1,0-.1-.1-.2-.1l-6.4,4.9c3,1.8,6,3.6,8.9,5.4a4.6,4.6,0,0,0,1.6.7,4.133,4.133,0,0,0,1.9-.2c1.6,1,3.3,1.9,4.9,2.9a4.6,4.6,0,0,0,1.6.7,4.367,4.367,0,0,0,2.7-.5c.7.4,1.4.9,2.2,1.3a4.6,4.6,0,0,0,1.6.7,4.3,4.3,0,0,0,3.1-.8c.3-.2.6-.3.9-.5a26.3,26.3,0,0,0,10.6-5.8,64.2,64.2,0,0,0,8.3-9,13.247,13.247,0,0,0,1.6-2.5,26.25,26.25,0,0,1,4.9-3.9c-2.6-5.7-6.2-9.8-10.2-14.5-8.3,2.4-17.6-.4-25.8,2.4-1.8.6-3.5,1.5-5.3,2.3a3,3,0,0,0-.8.4c-.1,0-.1,0-.2.1-.3.1-.6.3-.9.4a12.545,12.545,0,0,1-7.6,1A3.281,3.281,0,0,0,487.2,310.9Z"/><path class="b" d="M487.2,310.9a6.607,6.607,0,0,0,2.8,1.7c.3.1.5.1.8.2a.367.367,0,0,1,.3.1c.2,0,.3.1.5.1h.3a.9.9,0,0,1,.5.1h2.7a1.268,1.268,0,0,0,.6-.1h.2c.3,0,.5-.1.8-.1h.3a4.331,4.331,0,0,0,.5-.1.367.367,0,0,0,.3-.1c.2,0,.3-.1.5-.1.1,0,.2-.1.3-.1.2,0,.3-.1.5-.1.1,0,.2-.1.3-.1.2,0,.3-.1.5-.1.1,0,.2-.1.3-.1.2,0,.3-.1.5-.1.1,0,.2-.1.3-.1.2-.1.3-.1.5-.2.1,0,.2-.1.3-.1h0a7.494,7.494,0,0,1,1.6-.5c-.2.1-.5.8-.6,1-2.5,3.9-7.8,7.9-11.9,10a1.852,1.852,0,0,1-1.4.2c-.1,0-.1,0-.2-.1h0c-.1,0-.1-.1-.2-.1l-6.4,4.9c3,1.8,6,3.6,8.9,5.4a4.6,4.6,0,0,0,1.6.7,4.133,4.133,0,0,0,1.9-.2c1.6,1,3.3,1.9,4.9,2.9a4.6,4.6,0,0,0,1.6.7,4.367,4.367,0,0,0,2.7-.5c.7.4,1.4.9,2.2,1.3a4.6,4.6,0,0,0,1.6.7,4.3,4.3,0,0,0,3.1-.8c.3-.2.6-.3.9-.5a26.3,26.3,0,0,0,10.6-5.8,64.2,64.2,0,0,0,8.3-9,13.247,13.247,0,0,0,1.6-2.5,26.25,26.25,0,0,1,4.9-3.9c-2.6-5.7-6.2-9.8-10.2-14.5-8.3,2.4-17.6-.4-25.8,2.4-1.8.6-3.5,1.5-5.3,2.3a3,3,0,0,0-.8.4c-.1,0-.1,0-.2.1-.3.1-.6.3-.9.4a12.545,12.545,0,0,1-7.6,1A3.281,3.281,0,0,0,487.2,310.9Z"/><path class="c" d="M488.3,310.1a3.3,3.3,0,0,1-1.2-2.4,10.819,10.819,0,0,0,4.4-.2c-.1,1-.1,1.9-.2,2.9A2.775,2.775,0,0,1,488.3,310.1Z"/><path class="d" d="M507.9,306.1a42.625,42.625,0,0,0-10.6-.9,36.521,36.521,0,0,1,4.1-1.8c8.2-2.8,17.5,0,25.8-2.4,4,4.7,7.6,8.9,10.2,14.5a19.409,19.409,0,0,0-2.9,2.1,59.085,59.085,0,0,1-8.8-11.6C520.1,308.4,513.8,307.2,507.9,306.1Z"/><path class="d" d="M496.1,325.9s-.6.2-1.4.5a12.128,12.128,0,0,0-1.4.5,3,3,0,0,0-.8.4c-.3.1-.5.3-.8.4s-.5.3-.8.4a2.353,2.353,0,0,1-.8.2,1.952,1.952,0,0,1-.7.1,1.7,1.7,0,0,1-.7-.1,10.374,10.374,0,0,1-1-.4l-.4-.2.3.3a3.49,3.49,0,0,0,.9.6,1.854,1.854,0,0,0,.7.2h.8a2.92,2.92,0,0,0,.9-.2,2.01,2.01,0,0,0,.8-.4c.3-.1.5-.3.8-.4a4.349,4.349,0,0,0,.7-.4c.5-.2,1-.5,1.4-.7A6.4,6.4,0,0,0,496.1,325.9Z"/><path class="d" d="M492.7,332.6c.2,0,.4.1.6.1a1.7,1.7,0,0,0,.7-.1,4.714,4.714,0,0,0,1.5-.6,5.939,5.939,0,0,1,.8-.4c.3-.1.5-.2.8-.3a12.128,12.128,0,0,1,1.4-.5,6.218,6.218,0,0,0,1-.3,1.577,1.577,0,0,1,.4-.1c-1.3.6-2.6,1.1-3.9,1.8a5.16,5.16,0,0,1-3.1.8,4.594,4.594,0,0,1-1.6-.7,1.577,1.577,0,0,1,.4.1A4.4,4.4,0,0,1,492.7,332.6Z"/><rect class="e" width="25.1" height="6.3" transform="matrix(0.56, 0.828, -0.828, 0.56, 528.252, 295.392)"/><rect class="f" width="9.3" height="6.3" transform="matrix(0.56, 0.828, -0.828, 0.56, 528.247, 295.435)"/><rect class="g" width="31.9" height="64.6" transform="matrix(0.56, 0.828, -0.828, 0.56, 578.851, 257.087)"/><rect class="h" width="9.8" height="64.6" transform="matrix(0.56, 0.828, -0.828, 0.56, 578.937, 257.09)"/><circle class="i" cx="2.1" cy="2.1" r="2.1" transform="translate(544.2 309.4)"/><circle class="j" cx="1.2" cy="1.2" r="1.2" transform="translate(545.1 310.3)"/><circle class="i" cx="2.1" cy="2.1" r="2.1" transform="translate(549.5 305.9)"/><circle class="j" cx="1.2" cy="1.2" r="1.2" transform="translate(550.4 306.8)"/><circle class="i" cx="2.1" cy="2.1" r="2.1" transform="translate(554.9 302.4)"/><circle class="j" cx="1.2" cy="1.2" r="1.2" transform="translate(555.8 303.3)"/><path class="b" d="M487.2,310.9a6.607,6.607,0,0,0,2.8,1.7c.3.1.5.1.8.2a.367.367,0,0,1,.3.1c.2,0,.3.1.5.1h.3a.9.9,0,0,1,.5.1h2.7a1.268,1.268,0,0,0,.6-.1h.2c.3,0,.5-.1.8-.1h.3a4.331,4.331,0,0,0,.5-.1.367.367,0,0,0,.3-.1c.2,0,.3-.1.5-.1.1,0,.2-.1.3-.1.2,0,.3-.1.5-.1.1,0,.2-.1.3-.1.2,0,.3-.1.5-.1.1,0,.2-.1.3-.1.2,0,.3-.1.5-.1.1,0,.2-.1.3-.1.2-.1.3-.1.5-.2.1,0,.2-.1.3-.1h0a7.494,7.494,0,0,1,1.6-.5c-.2.1-.5.8-.6,1-2.5,3.9-7.8,7.9-11.9,10a1.852,1.852,0,0,1-1.4.2c-.1,0-.1,0-.2-.1h0c-.1,0-.1-.1-.2-.1l-6.4,4.9c3,1.8,6,3.6,8.9,5.4a4.6,4.6,0,0,0,1.6.7,4.133,4.133,0,0,0,1.9-.2c1.6,1,3.3,1.9,4.9,2.9a4.6,4.6,0,0,0,1.6.7,4.367,4.367,0,0,0,2.7-.5c.7.4,1.4.9,2.2,1.3a4.6,4.6,0,0,0,1.6.7,4.3,4.3,0,0,0,3.1-.8c.3-.2.6-.3.9-.5a26.3,26.3,0,0,0,10.6-5.8,64.2,64.2,0,0,0,8.3-9,13.247,13.247,0,0,0,1.6-2.5,26.25,26.25,0,0,1,4.9-3.9c-2.6-5.7-6.2-9.8-10.2-14.5-8.3,2.4-17.6-.4-25.8,2.4-1.8.6-3.5,1.5-5.3,2.3a3,3,0,0,0-.8.4c-.1,0-.1,0-.2.1-.3.1-.6.3-.9.4a12.545,12.545,0,0,1-7.6,1A3.281,3.281,0,0,0,487.2,310.9Z"/><path class="b" d="M487.2,310.9a6.607,6.607,0,0,0,2.8,1.7c.3.1.5.1.8.2a.367.367,0,0,1,.3.1c.2,0,.3.1.5.1h.3a.9.9,0,0,1,.5.1h2.7a1.268,1.268,0,0,0,.6-.1h.2c.3,0,.5-.1.8-.1h.3a4.331,4.331,0,0,0,.5-.1.367.367,0,0,0,.3-.1c.2,0,.3-.1.5-.1.1,0,.2-.1.3-.1.2,0,.3-.1.5-.1.1,0,.2-.1.3-.1.2,0,.3-.1.5-.1.1,0,.2-.1.3-.1.2,0,.3-.1.5-.1.1,0,.2-.1.3-.1.2-.1.3-.1.5-.2.1,0,.2-.1.3-.1h0a7.494,7.494,0,0,1,1.6-.5c-.2.1-.5.8-.6,1-2.5,3.9-7.8,7.9-11.9,10a1.852,1.852,0,0,1-1.4.2c-.1,0-.1,0-.2-.1h0c-.1,0-.1-.1-.2-.1l-6.4,4.9c3,1.8,6,3.6,8.9,5.4a4.6,4.6,0,0,0,1.6.7,4.133,4.133,0,0,0,1.9-.2c1.6,1,3.3,1.9,4.9,2.9a4.6,4.6,0,0,0,1.6.7,4.367,4.367,0,0,0,2.7-.5c.7.4,1.4.9,2.2,1.3a4.6,4.6,0,0,0,1.6.7,4.3,4.3,0,0,0,3.1-.8c.3-.2.6-.3.9-.5a26.3,26.3,0,0,0,10.6-5.8,64.2,64.2,0,0,0,8.3-9,13.247,13.247,0,0,0,1.6-2.5,26.25,26.25,0,0,1,4.9-3.9c-2.6-5.7-6.2-9.8-10.2-14.5-8.3,2.4-17.6-.4-25.8,2.4-1.8.6-3.5,1.5-5.3,2.3a3,3,0,0,0-.8.4c-.1,0-.1,0-.2.1-.3.1-.6.3-.9.4a12.545,12.545,0,0,1-7.6,1A3.281,3.281,0,0,0,487.2,310.9Z"/><path class="c" d="M488.3,310.1a3.3,3.3,0,0,1-1.2-2.4,10.819,10.819,0,0,0,4.4-.2c-.1,1-.1,1.9-.2,2.9A2.775,2.775,0,0,1,488.3,310.1Z"/><path class="d" d="M507.9,306.1a42.625,42.625,0,0,0-10.6-.9,36.521,36.521,0,0,1,4.1-1.8c8.2-2.8,17.5,0,25.8-2.4,4,4.7,7.6,8.9,10.2,14.5a19.409,19.409,0,0,0-2.9,2.1,59.085,59.085,0,0,1-8.8-11.6C520.1,308.4,513.8,307.2,507.9,306.1Z"/><path class="d" d="M494.4,326.8s-.6.2-1.4.5a12.128,12.128,0,0,0-1.4.5,3,3,0,0,0-.8.4c-.3.1-.5.3-.8.4s-.5.3-.8.4a2.353,2.353,0,0,1-.8.2,1.952,1.952,0,0,1-.7.1,1.7,1.7,0,0,1-.7-.1,10.374,10.374,0,0,1-1-.4l-.4-.2.3.3a3.49,3.49,0,0,0,.9.6,1.854,1.854,0,0,0,.7.2h.8a2.92,2.92,0,0,0,.9-.2,2.01,2.01,0,0,0,.8-.4c.3-.1.5-.3.8-.4a4.349,4.349,0,0,0,.7-.4c.5-.2,1-.5,1.4-.7C493.9,327.1,494.4,326.8,494.4,326.8Z"/><path class="d" d="M492.7,332.6c.2,0,.4.1.6.1a1.7,1.7,0,0,0,.7-.1,4.714,4.714,0,0,0,1.5-.6,5.939,5.939,0,0,1,.8-.4c.3-.1.5-.2.8-.3a12.128,12.128,0,0,1,1.4-.5,6.218,6.218,0,0,0,1-.3,1.577,1.577,0,0,1,.4-.1c-1.3.6-2.6,1.1-3.9,1.8a5.16,5.16,0,0,1-3.1.8,4.594,4.594,0,0,1-1.6-.7,1.577,1.577,0,0,1,.4.1A4.4,4.4,0,0,1,492.7,332.6Z"/><rect class="e" width="25.1" height="6.3" transform="matrix(0.56, 0.828, -0.828, 0.56, 528.252, 295.392)"/><rect class="f" width="9.3" height="6.3" transform="matrix(0.56, 0.828, -0.828, 0.56, 528.247, 295.435)"/><rect class="k" width="31.9" height="64.6" transform="matrix(0.56, 0.828, -0.828, 0.56, 578.851, 257.087)"/><rect class="h" width="9.8" height="64.6" transform="matrix(0.56, 0.828, -0.828, 0.56, 591.086, 275.53)"/><circle class="i" cx="2.1" cy="2.1" r="2.1" transform="translate(544.2 309.4)"/><circle class="j" cx="1.2" cy="1.2" r="1.2" transform="translate(545.1 310.3)"/><circle class="i" cx="2.1" cy="2.1" r="2.1" transform="translate(549.5 305.9)"/><circle class="j" cx="1.2" cy="1.2" r="1.2" transform="translate(550.4 306.8)"/><circle class="i" cx="2.1" cy="2.1" r="2.1" transform="translate(554.9 302.4)"/><circle class="j" cx="1.2" cy="1.2" r="1.2" transform="translate(555.8 303.3)"/><path class="b" d="M488.7,324.5l.4-2.5-8.2-1.8s-6-1.6-8.2,1.8l9.8,4.9Z"/></g></svg>