<svg xmlns="http://www.w3.org/2000/svg" width="269.252" height="266.743" viewBox="0 0 269.252 266.743"><defs><style>.a{fill:#e0f3ff;}.b{opacity:0.36;}.c{fill:#ede2d9;}.d{fill:#b7ac9a;opacity:0.66;}.e{fill:#fff;}.f{fill:none;stroke:#b9c9bc;stroke-miterlimit:10;stroke-width:7px;}.g{fill:#4893c1;}.h{fill:#5294db;}.i{fill:#001d4f;}.j{fill:#6d645b;}.j,.p{opacity:0.4;}.k{fill:#e67e4b;}.l{fill:#ffa97d;}.m{fill:#ea8f68;}.n{fill:#ffc692;}.o{fill:#de7540;}.p{fill:#869e9a;}.q{fill:#a5bbaa;}.r{fill:#566359;}</style></defs><g transform="translate(-299.3 -137.583)"><path class="a" d="M568.4,256.2c-1.7-37.2-20.8-75.7-50.9-97.1-59.2-41.8-168.2-22.4-205.1,55.6-31.3,66.1-1.1,154.1,61.2,181.3,68.6,29.9,141.5-29,159.4-46.7a142.482,142.482,0,0,0,17.2-21.2C569.8,296.9,568.8,264.7,568.4,256.2Z" transform="translate(0)"/><path class="b" d="M513.8,372.3l9.3-1-9.3-83.1V164.8H500.1l-.4-3.6-32.1,3.6H353.3v12.6l-13.2,1.5,13.2,118.2v79.1H362l1.4,12.8,115.8-12.8h34.6Z" transform="translate(0 0)"/><path class="b" d="M494.6,263.9l1.2,4.9-9.5,2.5.7,2.8-4.7,1.4a7.959,7.959,0,0,1-6.7-.9L453.8,261a11.85,11.85,0,0,0-9.9-1.1L432,264l-8.3-1.8a9.03,9.03,0,0,0-7.3,1.6L397.2,278a5.326,5.326,0,0,1-4.9.7l-7.6-2.7.6-2.4-9.5-2.5,1.2-4.9-77.7-19.3v58l64.2,15.9.2-.6h0l1.8-7.2,9.1,2.4,1.3-5.2,17.9,7.4h0l.8.3h0l8-8.2-8.2,8.5c-4.5,4.7-.6,12.6,5.8,11.6a14.581,14.581,0,0,0,3.6-1.1s1.2,9.8,11.5,9.1c0,0,1.4,10,12.9,7.5h0a5.2,5.2,0,0,0,.3.5l.1.1a7.69,7.69,0,0,0,6.4,2.9h0c.5,0,1-.1,1.6-.1h.2a17.367,17.367,0,0,0,6-2.4l2.2,2.2c3,3,7.5,3.1,10.2.3l.1-.1a7.5,7.5,0,0,0-.4-10.4l.5.5a6.67,6.67,0,0,0,9.5,0l1.2-1.2a6.9,6.9,0,0,0,1.9-5.9,7.612,7.612,0,0,0,6.1-2.3l.1-.1a7.765,7.765,0,0,0,1.3-9.1,6.413,6.413,0,0,0,6.2-1.9,6.834,6.834,0,0,0,1.9-5.4L496,309l1,4,9.1-2.4,1.8,7.2h0l.2.6,55.7-13.8V246.7Z" transform="translate(0 0)"/><rect class="c" width="160.6" height="211.4" transform="matrix(0.994, -0.11, 0.11, 0.994, 339.628, 172.996)"/><path class="d" d="M414,164.7l-61.3,6.8V291.2l9.4,85h63.6l87.6-9.8v-84L500.2,164.7Z" transform="translate(0 0)"/><rect class="e" width="160.6" height="211.4" transform="translate(352.7 158.9)"/><line class="f" x2="105.6" transform="translate(380.1 213.9)"/><line class="f" x2="123.3" transform="translate(371.3 222.7)"/><line class="f" x2="123.3" transform="translate(371.3 248.3)"/><line class="f" x2="123.3" transform="translate(371.3 239.5)"/><line class="f" x2="29.2" transform="translate(465 343.2)"/><line class="f" x2="29.2" transform="translate(465 334.4)"/><g transform="translate(370.822 312.622)"><path class="g" d="M413.2,341.4a21.757,21.757,0,1,1-13.6-27.6A21.676,21.676,0,0,1,413.2,341.4Zm-40.3-13.7a20.808,20.808,0,1,0,26.4-13A20.866,20.866,0,0,0,372.9,327.7Z" transform="translate(-370.822 -312.622)"/></g><g transform="translate(403.4 329)"><path class="g" d="M410.4,340.4a18.005,18.005,0,0,1-6.4,8.9l-.6-.8a18.339,18.339,0,0,0,6.1-8.4,17.344,17.344,0,0,0,.2-10.8l1-.3A19.264,19.264,0,0,1,410.4,340.4Z" transform="translate(-403.4 -329)"/></g><g transform="translate(373.698 319.5)"><path class="g" d="M375.5,339.5l-1,.3a18.5,18.5,0,0,1,.2-11.4,18.005,18.005,0,0,1,6.4-8.9l.6.8a17.391,17.391,0,0,0-6.2,19.2Z" transform="translate(-373.698 -319.5)"/></g><g transform="translate(377.156 318.556)"><path class="g" d="M407.7,339.3a15.685,15.685,0,1,1-9.8-19.9A15.682,15.682,0,0,1,407.7,339.3ZM379,329.6a14.673,14.673,0,1,0,18.6-9.2A14.643,14.643,0,0,0,379,329.6Z" transform="translate(-377.156 -318.556)"/></g><line class="f" x2="123.3" transform="translate(371.3 256.1)"/><line class="f" x2="123.3" transform="translate(371.3 272.8)"/><line class="f" x2="123.3" transform="translate(371.3 264)"/><g transform="translate(372.898 182.625)"><path class="h" d="M380.3,182.7c3,0,6.3,1.6,6.9,5.5h-3.7a2.976,2.976,0,0,0-3.2-2.1c-2.2,0-3.6,1.6-3.6,4.1a3.745,3.745,0,0,0,3.6,4,3.15,3.15,0,0,0,3.3-2.4h3.7c-.5,4.1-3.8,5.8-6.9,5.8a7.207,7.207,0,0,1-7.5-7.4C372.8,185.2,376.5,182.7,380.3,182.7Z" transform="translate(-372.898 -182.625)"/><path class="h" d="M389.1,190.2c0-10.1,15-10.1,15,0S389.1,200.3,389.1,190.2Zm11.2,0a3.663,3.663,0,1,0-7.3,0A3.663,3.663,0,1,0,400.3,190.2Z" transform="translate(-372.898 -182.625)"/><path class="h" d="M410.8,190.3v7.2h-3.9V182.8h1.4l7.4,7.2v-7.2h3.8v14.6h-1.3Z" transform="translate(-372.898 -182.625)"/><path class="h" d="M421.7,186.2v-3.3h10.8v3.3H429v11.3h-3.7V186.2Z" transform="translate(-372.898 -182.625)"/><path class="h" d="M447.2,197v.5H443l-2.5-4.3h-1.9v4.3h-3.7V182.9h6.4c5.7,0,6.8,6.9,3.1,9.4Zm-5.9-10.8h-2.7v3.6h2.7C443.3,189.9,443.4,186.3,441.3,186.2Z" transform="translate(-372.898 -182.625)"/><path class="h" d="M458.5,195.7h-5.8l-.9,1.8h-3.6V197l6.6-14.2h1.6L463,197v.5h-3.6Zm-2.8-7.1-1.6,3.8h3.3Z" transform="translate(-372.898 -182.625)"/><path class="h" d="M471.2,182.7c3,0,6.3,1.6,6.9,5.5h-3.7a2.976,2.976,0,0,0-3.2-2.1c-2.2,0-3.6,1.6-3.6,4.1a3.745,3.745,0,0,0,3.6,4,3.15,3.15,0,0,0,3.3-2.4h3.7c-.5,4.1-3.8,5.8-6.9,5.8a7.45,7.45,0,1,1-.1-14.9Z" transform="translate(-372.898 -182.625)"/><path class="h" d="M479.6,186.2v-3.3h10.8v3.3h-3.6v11.3h-3.7V186.2Z" transform="translate(-372.898 -182.625)"/></g><circle class="g" cx="12.3" cy="12.3" r="12.3" transform="translate(380.3 322.1)"/><g transform="translate(453.39 324.922)"><path class="i" d="M499.9,336.5a34.64,34.64,0,0,1-8.2,5.5,8.084,8.084,0,0,1-2.2.7c-1.1.2-1.8,0-2.2-1-.5-1.1,0-2.2-.1-3.5,0-.2-.1-.5-.3-.5-.9-.1-1.7.9-2.3,1.4-.5.4-.9.9-1.4,1.3a6.6,6.6,0,0,0-.1-3.7c-.1-.1-.2-.3-.3-.2-1.9,1.1-3.5,3.1-5,4.7a10.588,10.588,0,0,0-1,1.2.6.6,0,0,0-.1-.4,11.3,11.3,0,0,0,1.1-1.1c.8-1.1,1.3-2.9.6-4.1-1-1.9-3-.7-4.1.4-.3.3-.1,1.6.3,1.2s1.6-1.6,2.4-1.2c.3.5.6,1.1.9,1.6-.1.2-.2.5-.3.7a4,4,0,0,1-1,1.2,10.54,10.54,0,0,1-1.1.7c-.1,0-.3.1-.4.1a.1.1,0,0,0-.1.1h-.4c-1.3-.1-.9-1.9-.6-2.8.1-.2-.1-1.4-.5-.9a20.272,20.272,0,0,1-1.3,1.8c-.6.7-1.7,2-2.7,2.2-.4.1-.9.1-1-.6a9.439,9.439,0,0,1,.3-.9,18.409,18.409,0,0,0,.9-2.5c.1-.3.1-1-.3-1-1.1-.1-2.5.7-3.5,1l-2.4.9a3.4,3.4,0,0,1,.1-1c0-2.7-.7-5.9.2-8.5a4.158,4.158,0,0,1,3-2.6c.7-.2,2.9-.8,3.8-.2a.446.446,0,0,0,.3.4h.1c.5-.1.4-1,.2-1.3-.8-1.1-3.1-.6-4.1-.3a5.25,5.25,0,0,0-3.6,2.5c-1.8,3.5-.3,7.6-.7,11.4-.3.1-.6.3-.9.4a31.869,31.869,0,0,0-6.5,4.3c-1.1,1-2.4,2.7-1.9,4.3.5,1.7,2.4,1.3,3.7.8,3.5-1.4,5.6-5,6.2-8.7a25.026,25.026,0,0,1,2.5-.9c.7-.2,2-.8,2.9-1-.7,1.6-1.8,3.9-.8,5,1.1,1.2,3.3-1,4.7-2.6-.1.9,0,1.8.7,2.2a2.427,2.427,0,0,0,2.2,0,.472.472,0,0,1,.5.5l-3,3.9a26.554,26.554,0,0,0-3.3,5.6c-.3.8-.9,2.1-.4,2.9,1.1,2,5.6-6.5,6.1-7.4a23.9,23.9,0,0,0,1.3-4.2c.6-.7,1.2-1.5,1.9-2.2a36.366,36.366,0,0,1,3.4-3.4c1.3-1.1.8.7.6,1.5a7.715,7.715,0,0,1-1,2.5c-.2.3,0,1.6.3,1.2a14.927,14.927,0,0,1,2.3-2.7c.6-.5,1.6-1.8,2.6-2,0,1.2-.6,2.4,0,3.6.6,1.4,2.2,1.6,3.5,1.3,3.9-.9,7.3-3.7,10.3-6.2C500.6,337.4,500.4,336.1,499.9,336.5Zm-37.5,4.3a10.951,10.951,0,0,1-4.2,6.1,5.822,5.822,0,0,1-3.1,1.1c-2.2-.3,0-2.5.6-3a28.832,28.832,0,0,1,6.3-4.2c.2-.1.3-.1.5-.2A.35.35,0,0,0,462.4,340.8Zm12.3,6.9a30.042,30.042,0,0,1-2.6,4.6,17.327,17.327,0,0,1-1.7,2.1c-.5.6-.7.7-.4,0a19.121,19.121,0,0,1,2.3-4.5c1-1.5,2.1-3,3.2-4.4A19.929,19.929,0,0,1,474.7,347.7Z" transform="translate(-453.39 -324.922)"/><path class="i" d="M469.4,333.7a1.855,1.855,0,0,0,.5,2.2c.4.4.6-.8.3-1l-.4-.4.1-.1.3-.3a3.746,3.746,0,0,1,1.2-.7c.4-.1.4-1.2,0-1.2A3.7,3.7,0,0,0,469.4,333.7Z" transform="translate(-453.39 -324.922)"/></g><path class="j" d="M513.3,259.8l-18.7,4.6,1.2,4.9-9.5,2.5.7,2.8-4.7,1.4a7.959,7.959,0,0,1-6.7-.9l-21.8-13.6a11.85,11.85,0,0,0-9.9-1.1L432,264.5l-8.3-1.8a9.03,9.03,0,0,0-7.3,1.6l-19.1,14.1a5.326,5.326,0,0,1-4.9.7l-7.6-2.7.6-2.4-9.5-2.5,1.2-4.9-24.4-6v57.9l10.9,2.7.2-.6h0l1.8-7.2,9.1,2.4,1.3-5.2,17.9,7.4h0l.8.3h0l8-8.2-8.2,8.5c-4.5,4.7-.6,12.6,5.8,11.6a14.581,14.581,0,0,0,3.6-1.1s1.2,9.8,11.5,9.1c0,0,1.4,10,12.9,7.5h0a5.2,5.2,0,0,0,.3.5l.1.1a7.69,7.69,0,0,0,6.4,2.9h0c.5,0,1-.1,1.6-.1h.2a17.367,17.367,0,0,0,6-2.4l2.2,2.2c3,3,7.5,3.1,10.2.3l.1-.1a7.5,7.5,0,0,0-.4-10.4l.5.5a6.67,6.67,0,0,0,9.5,0l1.2-1.2a6.9,6.9,0,0,0,1.9-5.9,7.612,7.612,0,0,0,6.1-2.3l.1-.1a7.765,7.765,0,0,0,1.3-9.1,6.413,6.413,0,0,0,6.2-1.9,6.834,6.834,0,0,0,1.9-5.4l12.3-3.8,1,4,9.1-2.4,1.8,7.2h0l.2.6,8.9-2.8Z" transform="translate(0 0)"/><path class="k" d="M430.5,273.4l-37.9,39.4c-4.5,4.7-.6,12.6,5.8,11.6a14.581,14.581,0,0,0,3.6-1.1s1.2,9.8,11.5,9.1c0,0,1.4,10,12.9,7.5,0,0,5.6,10.3,21.3-4.2,7.8-7.2,33.4-27.9,33.4-27.9Z" transform="translate(0 0)"/><path class="l" d="M539,250.7l-56.7,17.4a7.959,7.959,0,0,1-6.7-.9l-21.8-13.6a11.85,11.85,0,0,0-9.9-1.1L419.5,261l12.8,10.3-37.9,39.4c-4.5,4.7-.6,12.6,5.8,11.6a14.581,14.581,0,0,0,3.6-1.1s1.2,9.8,11.5,9.1c0,0,1.4,10,12.9,7.5,0,0,5.6,10.3,21.3-4.2,7.8-7.2,33.4-27.9,33.4-27.9L549,285Z" transform="translate(0 0)"/><path class="m" d="M461.7,285.8c5.2-2.4,4.3-6.9,2.2-8.5L448,264.7a14.23,14.23,0,0,0-5.8-2.8l-15.8-3.4-6.4,2.2L432.8,271l-10.4,10.8c1.5-.1,9.2-.6,15.5-3.6C437.9,278.3,450.5,291,461.7,285.8Z" transform="translate(0 0)"/><path class="n" d="M466.6,274.7l-15.9-12.6a14.23,14.23,0,0,0-5.8-2.8l-21.2-4.5a9.03,9.03,0,0,0-7.3,1.6l-19.1,14.1a5.326,5.326,0,0,1-4.9.7l-28.8-10.4-2.8,35.5,34,14,30.1-31s8.8-.3,15.8-3.6c0,0,12.6,12.7,23.8,7.5C469.6,280.9,468.7,276.4,466.6,274.7Z" transform="translate(0 0)"/><path class="o" d="M461.1,282.8c-9,.1-19.6-10.6-19.8-10.7,0,0-7.7,7.3-21.8,3.9,0,0-2.3,8.3-15.3,23.2a8.832,8.832,0,0,1-9.8,2.4c-1.3-.5-2.8-1-4.3-1.6a8.946,8.946,0,0,1-6-8.8l.8-22.7c-10-3.5-23.5,21-23.1,16.4l-.9,11.5L394,310.1h0l.8.3h0l5.5-5.7,24.6-25.3s8.8-.3,15.8-3.6c-.1,0,12.5,12.7,23.8,7.5a6.349,6.349,0,0,0,3.6-3.4C467.2,281.3,464.8,282.8,461.1,282.8Z" transform="translate(0 0)"/><path class="k" d="M438.6,337.7c-9.6-9.3-7.5-15.1-7.5-15.1l50.6-23.9h.1a8.232,8.232,0,0,0,6.5-8.6l-1.2-23.4,61.6,17.2.3,1.1-65.9,20.6s-25.7,20.8-33.4,27.9c-15.7,14.5-21.3,4.2-21.3,4.2S432.7,342.4,438.6,337.7Z" transform="translate(0 0)"/><g transform="translate(402.32 299.375)"><path class="k" d="M403.6,323.1l24-22.5c.7-.6-.3-1.7-1-1l-24,22.5c-.8.7.3,1.7,1,1Z" transform="translate(-402.32 -299.375)"/></g><g transform="translate(413.862 308.562)"><path class="k" d="M415.1,332.2c7.7-7.5,15.4-14.9,23.1-22.4.7-.7-.4-1.7-1-1-7.7,7.5-15.4,14.9-23.1,22.4-.7.6.3,1.7,1,1Z" transform="translate(-413.862 -308.562)"/></g><g transform="translate(426.762 318.762)"><path class="k" d="M428,339.7c6.8-6.6,13.6-13.2,20.4-19.7.7-.7-.4-1.7-1-1-6.8,6.6-13.6,13.2-20.4,19.7a.708.708,0,1,0,1,1Z" transform="translate(-426.762 -318.762)"/></g><path class="o" d="M432.9,318.7l.1-.1c2.7-2.8,7.3-2.6,10.2.3l-.5-.5a7.007,7.007,0,0,1-.1-9.7l1.2-1.2a6.77,6.77,0,0,1,5.8-2,7.733,7.733,0,0,1,2.2-6.2l.1-.1a7.518,7.518,0,0,1,10.8-.1l1.4,1.4a6.8,6.8,0,0,1,1.9-5.7,6.583,6.583,0,0,1,9.5,0l6.2,6.2a7.007,7.007,0,0,1,.1,9.7,6.909,6.909,0,0,1-6.2,1.9,7.924,7.924,0,0,1-1.3,9.1l-.1.1a7.612,7.612,0,0,1-6.1,2.3,6.9,6.9,0,0,1-1.9,5.9l-1.2,1.2a6.583,6.583,0,0,1-9.5,0l-6.4-6.4,5.9,5.9c3,3,3.2,7.6.4,10.4l-.1.1c-2.7,2.8-7.3,2.6-10.2-.3l-11.7-11.8A7.418,7.418,0,0,1,432.9,318.7Z" transform="translate(0 0)"/><path class="e" d="M552.5,291.2l-55.4,14.3-10.8-41.7,70.6-18.2Z" transform="translate(0 0)"/><rect class="e" width="72.9" height="43.1" transform="translate(374.628 307.79) rotate(-165.534)"/><g transform="translate(441.962 317.275)"><path class="o" d="M456,330.4c-4.3-4.3-8.5-8.6-12.8-12.9-.7-.7-1.7.4-1,1,4.3,4.3,8.5,8.6,12.8,12.9.7.8,1.7-.3,1-1Z" transform="translate(-441.962 -317.275)"/></g><path class="p" d="M319.2,293.6l55.4,14.3,1.3-44.2-69.7,16.6Z" transform="translate(0 0)"/><path class="q" d="M299.4,239.5v57.2l64.3,16,13.4-54Z" transform="translate(0 0)"/><path class="p" d="M552.5,291.2l-55.4,14.3-1.3-44.1L544,272.8Z" transform="translate(0 0)"/><path class="r" d="M299.4,285.3v12.1l64.2,15.9,2.8-11.4Z" transform="translate(0 0)"/><path class="q" d="M563.8,239.3l-69.2,17.1,13.4,54,55.8-13.9Z" transform="translate(0 0)"/><path class="r" d="M563.8,285.1l-58.5,14.5,2.8,11.4,55.7-13.8Z" transform="translate(0 0)"/><g transform="translate(431.424 316.186)"><path class="n" d="M433.3,327.4,444,337.8c2.5,2.4,6.9,2.7,9.3,0,2.4-2.6,2.7-6.8,0-9.3l-10.7-10.4c-2.5-2.4-6.9-2.7-9.3,0a6.7,6.7,0,0,0,0,9.3Z" transform="translate(-431.424 -316.186)"/></g><g transform="translate(440.697 305.597)"><path class="n" d="M442.5,316.4c3.7,3.3,7.3,6.7,11,10,2.5,2.2,6.6,2.6,9,0,2.2-2.4,2.6-6.6,0-9-3.7-3.3-7.3-6.7-11-10-2.5-2.2-6.6-2.6-9,0-2.2,2.4-2.6,6.6,0,9Z" transform="translate(-440.697 -305.597)"/></g><g transform="translate(451.122 296.122)"><path class="n" d="M453,307.3c3.7,3.3,7.3,6.7,11,10,2.6,2.3,6.9,2.7,9.3,0,2.3-2.5,2.7-6.9,0-9.3-3.7-3.3-7.3-6.7-11-10-2.6-2.3-6.9-2.7-9.3,0-2.3,2.4-2.7,6.8,0,9.3Z" transform="translate(-451.122 -296.122)"/></g><g transform="translate(466.01 292.11)"><path class="n" d="M467.4,300.4c2.7,2.4,5.4,4.9,8.1,7.3a4.879,4.879,0,0,0,6.9-6.9c-2.7-2.4-5.4-4.9-8.1-7.3a4.983,4.983,0,0,0-6.9,0c-1.7,1.9-2,5.1,0,6.9Z" transform="translate(-466.01 -292.11)"/></g><g transform="translate(383.079 337.279)"><path class="e" d="M388.8,341.8a8.213,8.213,0,0,1-3.8-4c-.6-1.2-2.4-.1-1.8,1a10.46,10.46,0,0,0,4.6,4.7c1.1.7,2.2-1.1,1-1.7Z" transform="translate(-383.079 -337.279)"/></g><g transform="translate(391.625 342.15)"><path class="e" d="M395.2,342.2a7.834,7.834,0,0,1-2.6.4,1.053,1.053,0,0,0,0,2.1,11.27,11.27,0,0,0,3.2-.5c1.2-.3.7-2.4-.6-2Z" transform="translate(-391.625 -342.15)"/></g><g transform="translate(396.426 325.254)"><path class="e" d="M396.9,327.2a8.578,8.578,0,0,1,3.9,8.8c-.2,1.3,1.8,1.9,2,.6a10.659,10.659,0,0,0-4.8-11.1c-1.2-.9-2.2.9-1.1,1.7Z" transform="translate(-396.426 -325.254)"/></g><g transform="translate(387.947 323.8)"><path class="e" d="M389.2,326.6a9.828,9.828,0,0,1,3.4-.7,1.053,1.053,0,0,0,0-2.1,10.065,10.065,0,0,0-3.9.8,1.053,1.053,0,0,0-.7,1.3.859.859,0,0,0,1.2.7Z" transform="translate(-387.947 -323.8)"/></g><g transform="translate(382.097 327.623)"><path class="e" d="M384.2,333.5a8.981,8.981,0,0,1,1.8-4.4c.8-1.1-1-2.1-1.8-1a10.592,10.592,0,0,0-2.1,5.4c-.1,1.3,2,1.3,2.1,0Z" transform="translate(-382.097 -327.623)"/></g></g></svg>