<svg xmlns="http://www.w3.org/2000/svg" width="300.677" height="212.574" viewBox="0 0 300.677 212.574"><defs><style>.a{fill:#e0f3ff;}.b{fill:#fff;}.c{fill:#26a587;}.d{fill:#87decd;}.e{fill:#b81818;}.f{fill:#fefefe;}.ag,.ah,.g{fill:#ff4140;}.h{fill:#eff2f4;}.i{fill:#cadfea;}.j{fill:#ffca00;}.k{fill:#f59905;}.l{fill:#2b476b;}.m{fill:#16405e;}.n{fill:#e7b088;}.o{fill:#ead4c1;}.p{fill:#f62f48;}.q{fill:#f59207;}.r{opacity:0.3;}.s{fill:#d8a932;}.t{fill:#bcbec0;}.u{fill:#c2c4c4;}.v{fill:#203145;}.w{fill:#c4c4c4;}.x{fill:#e1e1e1;}.y{fill:#4dc5ac;}.z{opacity:0.5;}.aa{fill:#91dce1;}.ab{fill:#ffc28e;}.ac{fill:#063b5b;}.ad{fill:#a5bbaa;}.ae{fill:#f2c4a5;}.af{fill:#f2f6fa;}.ag{font-size:9.98px;}.ag,.ah{font-family:Poppins-Bold, Poppins;font-weight:700;}.ah{font-size:10px;}</style></defs><g transform="translate(-266.221 -168.284)"><path class="a" d="M553.5,358.1c-5.2,10.3-11.2,16.5-17.7,19.7-9.9,5-21.1,3.1-32.7-1.2-.2-.1-.5-.2-1-.4a27.053,27.053,0,0,0-12.4-1.1c-10.2,1.2-26.4-20.1-45.4-18.6-7.2.6-6.8,3.7-24.1,7.8-7.4,1.7-9.1,1.5-13,3.6-8.2,4.2-9.8,9.8-16.3,11-4.6.8-8.1-1-11.2-2.3-10.3-4.3-20.9-3.6-42-2.2-26.9,1.8-27.2,8.4-36.7,5.9-24.9-6.4-39.3-56.1-33.5-97.1a119.058,119.058,0,0,1,19.6-50.1c49.9-74.7,183.1-73.5,221.6-52.3C577.1,218.4,575.2,315.2,553.5,358.1Z"/><path class="b" d="M408.7,254.8l-18.9,11.4-21.6-35.5L387,219.4Z"/><path class="c" d="M374.5,232.3l11-6.6,16.9,27.6-11,6.6-16.9-27.6Zm-4.2-1.1,20.1,32.9,16.2-9.8-20.1-32.9-16.2,9.8Z"/><path class="c" d="M387,258.6a6.584,6.584,0,0,1,8.9,2.1l-5.5,3.3Z"/><path class="c" d="M373.6,236.7a6.471,6.471,0,0,0,2.2-8.8l-5.5,3.3Z"/><path class="c" d="M403.3,248.9a6.471,6.471,0,0,0-2.2,8.8l5.5-3.3Z"/><path class="c" d="M389.9,226.9a6.383,6.383,0,0,1-8.8-2.2l5.5-3.3Z"/><path class="c" d="M393,249.9a3.053,3.053,0,1,0,4.2,1A3.177,3.177,0,0,0,393,249.9Z"/><path class="c" d="M385.5,237.9a5.677,5.677,0,1,0,7.8,1.9A5.763,5.763,0,0,0,385.5,237.9Z"/><path class="c" d="M381.6,231.2a3.053,3.053,0,1,0,4.2,1A3.177,3.177,0,0,0,381.6,231.2Z"/><path class="d" d="M388.2,245.7a1.738,1.738,0,0,1-2.6-.7l-.7.4-.5-.8.7-.4a6.394,6.394,0,0,1-.6-1.6l1.1-.6c.3.5.8,1.4,1,1.8.3.5.5.7.9.4l.2-.1c.4-.2.4-.5.1-.9l-.4-.7a1.743,1.743,0,0,1,.8-2.5l.3-.2a1.707,1.707,0,0,1,2.7.6l.7-.4.5.8-.7.4a3.977,3.977,0,0,1,.6,1.6l-1.1.6c-.2-.3-.6-1.2-1.1-2-.2-.3-.5-.6-.8-.4l-.2.1a.524.524,0,0,0-.2.8l.4.6a1.719,1.719,0,0,1-.7,2.6Z"/><path class="b" d="M400.6,257.1,389.5,276l-36-21,11.1-18.9Z"/><path class="c" d="M359.8,253.4l6.5-11,28.1,16.4-6.5,11-28.1-16.4Zm-4.2,1.1L389,274l9.6-16.3-33.4-19.5-9.6,16.3Z"/><path class="c" d="M383.4,270.7a6.413,6.413,0,0,1,8.8-2.3l-3.3,5.5Z"/><path class="c" d="M361.1,257.7a6.413,6.413,0,0,0-2.3-8.8l-3.3,5.5Z"/><path class="c" d="M393,254.4a6.413,6.413,0,0,0,2.3,8.8l3.3-5.5Z"/><path class="c" d="M370.7,241.4a6.5,6.5,0,0,1-8.8,2.3l3.3-5.5Z"/><path class="c" d="M384.5,260.2a2.892,2.892,0,0,0,1.1,4.1,3.089,3.089,0,0,0,4.2-1.1,2.892,2.892,0,0,0-1.1-4.1A3.157,3.157,0,0,0,384.5,260.2Z"/><path class="c" d="M372.1,253.2a5.563,5.563,0,0,0,2,7.7,5.7,5.7,0,0,0,7.8-2,5.563,5.563,0,0,0-2-7.7A5.7,5.7,0,0,0,372.1,253.2Z"/><path class="c" d="M365.5,249.1a2.973,2.973,0,0,0,1.1,4.1,3.089,3.089,0,0,0,4.2-1.1,2.973,2.973,0,0,0-1.1-4.1A3.157,3.157,0,0,0,365.5,249.1Z"/><path class="d" d="M378.2,258.7a1.654,1.654,0,0,1-2.6.6l-.4.7-.8-.5.4-.7a4.974,4.974,0,0,1-1.3-1.1l.6-1.1c.5.3,1.4.9,1.8,1.2.5.3.7.4,1-.1l.1-.2c.2-.4.1-.6-.3-.9l-.7-.4a1.775,1.775,0,0,1-.5-2.6l.2-.3a1.837,1.837,0,0,1,2.7-.8l.4-.7.8.5-.4.7a3.611,3.611,0,0,1,1.3,1.1l-.6,1.1A16.677,16.677,0,0,0,378,254c-.4-.2-.7-.3-.9.1l-.1.2c-.2.3-.2.5.2.8l.6.4a1.7,1.7,0,0,1,.6,2.6Z"/><path class="b" d="M507.5,265.6l12.6-17.9,34.2,23.8-12.6,17.9Z"/><path class="c" d="M547.9,272.6,540.5,283l-26.7-18.5,7.4-10.4,26.7,18.5Zm4.3-.8-31.7-22-10.9,15.4,31.7,22,10.9-15.4Z"/><path class="c" d="M525.8,253.4a6.525,6.525,0,0,1-9,1.6l3.7-5.3Z"/><path class="c" d="M546.9,268.2a6.405,6.405,0,0,0,1.6,8.9l3.7-5.3Z"/><path class="c" d="M514.9,268.9a6.405,6.405,0,0,0-1.6-8.9l-3.7,5.2Z"/><path class="c" d="M536,283.6a6.525,6.525,0,0,1,9-1.6l-3.7,5.2Z"/><path class="c" d="M523.9,263.8a3.011,3.011,0,0,0-4.9-3.5,2.945,2.945,0,0,0,.8,4.2A2.851,2.851,0,0,0,523.9,263.8Z"/><path class="c" d="M535.6,271.8a5.673,5.673,0,1,0-7.9,1.4A5.742,5.742,0,0,0,535.6,271.8Z"/><path class="c" d="M541.9,276.3a3.011,3.011,0,0,0-.7-4.2,3.148,3.148,0,0,0-4.3.7,3.052,3.052,0,0,0,5,3.5Z"/><path class="d" d="M529.9,265.8a1.78,1.78,0,0,1,2.7-.4l.5-.7.8.5-.5.7a6.787,6.787,0,0,1,1.2,1.2l-.7,1a19.224,19.224,0,0,0-1.7-1.3c-.5-.3-.7-.4-1,0l-.2.2a.59.59,0,0,0,.2.9l.6.4a1.672,1.672,0,0,1,.3,2.6l-.2.3a1.791,1.791,0,0,1-2.8.5l-.5.7-.8-.5.5-.7a6.79,6.79,0,0,1-1.2-1.2l.7-1c.3.2,1,.8,1.8,1.4.3.2.7.3.9,0l.2-.2c.2-.3.2-.5-.2-.8l-.6-.4a1.8,1.8,0,0,1-.4-2.7Z"/><path class="e" d="M519.7,347.9l.1-.1.3-.3.2-.3h0l3.2-5,2.8-4.4,1.9-3a2.459,2.459,0,0,0-.8-3.4L504.7,317a2.459,2.459,0,0,0-3.4.8l-1.9,3-2.8,4.4-3.2,5h0l-.2.3c-.1.2-.2.3-.2.5h0a.9.9,0,0,0-.1.5h0a2.385,2.385,0,0,0,1.1,2.3l22.8,14.4a2.441,2.441,0,0,0,2.6,0h0c.1,0,.1-.1.2-.1C519.5,348.1,519.6,348,519.7,347.9Z"/><path class="f" d="M525.5,337.3l-26.9-17-2.8,4.4,26.9,17Z"/><path class="g" d="M527.5,334.3a2.459,2.459,0,0,0-.8-3.4l-22.8-14.4a2.524,2.524,0,0,0-3.4.7l-1.9,3,26.9,17Z"/><path class="g" d="M495.8,324.7l-3.4,5.3a2.459,2.459,0,0,0,.8,3.4L516,347.8a2.524,2.524,0,0,0,3.4-.7l3.4-5.3Z"/><path class="e" d="M518.5,347.8a2.047,2.047,0,0,0,.8-.8l.2-.3-26.9-17.1-.2.3a3.582,3.582,0,0,0-.4,1.1Z"/><path class="h" d="M507.4,321.4l-.3.1a2.187,2.187,0,0,0-.3-.5c-.4-.2-.8-.2-1.3.5-.4.7-.3,1.1,0,1.3a1.268,1.268,0,0,0,.6.1v.3a.882.882,0,0,1-.8-.2c-.6-.4-.7-1-.2-1.8a1.222,1.222,0,0,1,1.7-.6A2.1,2.1,0,0,1,507.4,321.4Z"/><path class="h" d="M508.5,322.6l-.3.3-.1-.1a.527.527,0,0,0-.7.2l-.7,1-.3-.2,1.1-1.8.3.2-.2.4a.631.631,0,0,1,.7-.1C508.4,322.5,508.5,322.5,508.5,322.6Z"/><path class="h" d="M509.5,324.6l-1.1-.7a.722.722,0,0,0,.1.9,1.083,1.083,0,0,0,.6.1v.3a1.2,1.2,0,0,1-.8-.2.9.9,0,0,1-.2-1.4c.4-.6.9-.8,1.4-.5s.5.8.2,1.3C509.6,324.5,509.6,324.6,509.5,324.6Zm-.1-.4a.521.521,0,0,0-.1-.8c-.2-.2-.5-.1-.8.3l.9.5Z"/><path class="h" d="M510.9,326.6l-.3-.2.1-.3a.854.854,0,0,1-.7,0c-.4-.3-.4-.8-.1-1.4.3-.5.9-.8,1.3-.5a.55.55,0,0,1,.3.5l.6-.9.3.2Zm0-.6.6-.9a.55.55,0,0,0-.3-.5c-.3-.2-.6-.1-.9.4s-.3.8,0,.9A.471.471,0,0,0,510.9,326Z"/><path class="h" d="M513.5,324.9c-.1.1-.2.2-.4.1-.1-.1-.2-.2-.1-.3s.2-.2.4-.1C513.6,324.6,513.6,324.7,513.5,324.9Zm-1.9,2.1,1.1-1.8.3.2-1.1,1.8Z"/><path class="h" d="M513,328a.54.54,0,0,1-.2-.8l.7-1.1-.3-.2.2-.2.3.2.3-.4.3.2-.3.4.4.3-.2.2-.4-.2-.7,1.1c-.1.2-.1.3,0,.4a.367.367,0,0,0,.3.1v.3A1.38,1.38,0,0,0,513,328Z"/><path class="h" d="M517.5,327.8l-.3.1a2.186,2.186,0,0,0-.3-.5c-.4-.2-.8-.2-1.3.5-.4.7-.3,1.1,0,1.3a1.268,1.268,0,0,0,.6.1v.3a.882.882,0,0,1-.8-.2c-.6-.4-.7-1-.2-1.8a1.222,1.222,0,0,1,1.7-.6C517.3,327.4,517.4,327.5,517.5,327.8Z"/><path class="h" d="M518.1,330.9l-.2.2c-.2-.1-.2-.3-.2-.5a.616.616,0,0,1-.7-.1.58.58,0,0,1-.2-.9c.2-.4.7-.4,1.2-.1l.3.2.1-.1c.2-.3.1-.4-.1-.6a.764.764,0,0,0-.5-.2l.1-.3c.3.1.5.1.7.3a.714.714,0,0,1,.3,1l-.5.8C518,330.7,518,330.8,518.1,330.9Zm-.3-.6.3-.4-.2-.1c-.3-.2-.6-.2-.7.1-.1.2-.1.4.1.5A1.087,1.087,0,0,0,517.8,330.3Z"/><path class="h" d="M520.5,330.2l-.3.3-.1-.1a.527.527,0,0,0-.7.2l-.7,1-.3-.2,1.1-1.8.3.2-.2.4a.631.631,0,0,1,.7-.1C520.4,330.1,520.5,330.1,520.5,330.2Z"/><path class="h" d="M521.1,333.1l-.3-.2.1-.3a.854.854,0,0,1-.7,0c-.4-.3-.4-.8-.1-1.4.3-.5.9-.8,1.3-.5a.55.55,0,0,1,.3.5l.6-.9.3.2Zm0-.7.6-.9a.55.55,0,0,0-.3-.5c-.3-.2-.6-.1-.9.4s-.3.8,0,.9A.471.471,0,0,0,521.1,332.4Z"/><path class="i" d="M509.2,335.3l-12.8-8.1-1.5,2.2,12.8,8.1Z"/><path class="i" d="M520.6,342.5l-5.5-3.4-1.4,2.2,5.4,3.4Z"/><path class="h" d="M509.4,338l.4.2.9-1.3-.3-.2v-.1a.6.6,0,0,0,.4.1l.1.1-1,1.5.4.2-.1.1-.8-.6Z"/><path class="h" d="M510.5,338.7c.9-.2,1.3-.3,1.5-.6a.471.471,0,0,0-.1-.6.446.446,0,0,0-.5,0v-.1a.471.471,0,0,1,.6.1.527.527,0,0,1,.2.7c-.2.3-.7.4-1.4.6.1.1.2.1.3.2l.6.3-.1.1-1.1-.7Z"/><path class="h" d="M511.8,339.3c0,.2.1.3.3.5.2.1.5.1.6-.1a.5.5,0,0,0-.3-.7l.1-.1c.4.2.6.2.7,0s.1-.4-.1-.5a.749.749,0,0,0-.5-.1v-.1a1.268,1.268,0,0,1,.6.1c.3.2.4.4.2.7a.445.445,0,0,1-.6.2h0a.471.471,0,0,1,.1.6.521.521,0,0,1-.8.1c-.3-.2-.3-.4-.4-.6Z"/><path class="b" d="M428.8,210l14.1,55.3,74.6-18.8-14.1-55.4Z"/><path class="j" d="M464.2,247.2l-7.5,1.9-4.3-16.6,7.6-1.9Z"/><path class="g" d="M473.3,244.9l-7.6,1.9L459.6,223l7.6-1.9Z"/><path class="c" d="M482.4,242.6l-7.6,1.9-8.6-33.3,7.6-1.9Z"/><path class="k" d="M491.4,240.3l-7.5,1.9L477,215.7l7.6-1.9Z"/><path class="l" d="M501,237.9l-7.5,1.9-7.7-29.9,7.5-1.9Z"/><path class="g" d="M491.8,198.4l-6,2.5,1.5,1.2c-.1.1-.2.1-.3.2l-6.8,6.9L468,203.5a1.165,1.165,0,0,0-1.6.5l-13.8,24.3a1.282,1.282,0,0,0,.5,1.7.972.972,0,0,0,.9.1,1.555,1.555,0,0,0,.8-.6L468,206.2l12,5.6a1.238,1.238,0,0,0,1.4-.3l7.4-7.5a1.332,1.332,0,0,0,.3-.5l1.8,1.4Z"/><path class="m" d="M507.9,242.6l-55.2,14a1.184,1.184,0,0,1-1.5-.9L441,216.5a1.237,1.237,0,0,1,2.4-.6l9.8,38,54-13.7a1.184,1.184,0,0,1,1.5.9A1.157,1.157,0,0,1,507.9,242.6Z"/><path class="n" d="M348.9,328.6s-.8-2.9-4.2-.8-7.2,14.3-7.2,14.3,5.2,2.8,5.5,2.8C343.4,344.9,348.9,328.6,348.9,328.6Z"/><path class="o" d="M350.9,343.6a2.362,2.362,0,0,1-.6-.9,1.421,1.421,0,0,1,.2-.6c.7-2.2,3.1-3.4,3.9-3.8a1.377,1.377,0,0,1-.2,1.8l-3,3.3C351.1,343.5,351,343.6,350.9,343.6Z"/><path class="b" d="M396.5,287.8l-69.6,20L342.4,361l69.7-20Z"/><path class="c" d="M369,325.8l-7.1,21.9a22.924,22.924,0,0,1-15.6-17,22.927,22.927,0,0,1,7.1-21.9Z"/><path class="g" d="M369,325.8l4.9,22.4a23.056,23.056,0,0,1-11.9-.6Z"/><path class="g" d="M369,325.8l4.9,22.4a23.31,23.31,0,0,0,10.6-5.4l-15.5-17Z"/><path class="g" d="M391,332.8a22.918,22.918,0,0,1-6.5,10l-15.5-17Z"/><path class="k" d="M364.1,303.4a23.31,23.31,0,0,0-10.6,5.4l15.5,17,.1-.1,6.7-21.8A23.3,23.3,0,0,0,364.1,303.4Z"/><path class="p" d="M369.5,325.4l-.2.4H369Z"/><path class="g" d="M391.6,321a23.056,23.056,0,0,1-.6,11.9l-22-7,.3-.1.2-.4-.4.3,6.7-21.8c.1,0,.1,0,.2.1a19.854,19.854,0,0,1,4.7,2.1,28.364,28.364,0,0,1,5.4,4.3A22.543,22.543,0,0,1,391.6,321Z"/><path class="k" d="M329,252.6a8.861,8.861,0,0,0,5.1,11.5l6.5-16.6A8.972,8.972,0,0,0,329,252.6Z"/><path class="j" d="M339,246.9a8.972,8.972,0,0,0-11.6,5.1,8.861,8.861,0,0,0,5.1,11.5,8.972,8.972,0,0,0,11.6-5.1A8.862,8.862,0,0,0,339,246.9Z"/><path class="k" d="M328.8,252.5a7.418,7.418,0,0,0,4.2,9.6l5.4-13.8A7.418,7.418,0,0,0,328.8,252.5Z"/><path class="q" d="M338.5,248.3l-5.4,13.8a7.41,7.41,0,1,0,5.4-13.8Z"/><path class="j" d="M333.7,252a2.14,2.14,0,0,1,3.1-1.3l.4-1,1.1.4-.4,1a10.633,10.633,0,0,1,1.9,1.1l-.6,1.5c-.7-.3-1.9-.9-2.5-1.1-.7-.3-1-.3-1.3.3l-.1.3c-.2.5-.1.8.5,1l.9.4a2.246,2.246,0,0,1,1.2,3.1l-.2.5c-.8,1.9-2.1,1.9-3.2,1.5l-.4.9-1.1-.4.4-1a8.623,8.623,0,0,1-1.9-1.1l.6-1.4c.4.2,1.5.7,2.6,1.1.5.2.9.2,1.1-.3l.1-.3c.2-.4.1-.7-.4-.9l-.9-.3a2.176,2.176,0,0,1-1.3-3.2Z"/><g class="r"><path class="j" d="M336.9,246.3l-8.5,3.7a6.916,6.916,0,0,0-1,1.9l11.6-5.1A15.986,15.986,0,0,0,336.9,246.3Z"/><path class="j" d="M341.7,248.5,326.8,255a9.392,9.392,0,0,0,1.2,4.7l16.3-7.1A7.836,7.836,0,0,0,341.7,248.5Z"/></g><path class="s" d="M523,297.5l-42.4,28.8a2.131,2.131,0,0,1-3-.6L455,292.9a2.7,2.7,0,0,1,.1-3.2l.6-.6,8.3-5.5,3.2-2.1L496.6,262a4.551,4.551,0,0,1,3-.8,4.914,4.914,0,0,1,3.7,2.1L523.8,293A3.154,3.154,0,0,1,523,297.5Z"/><path class="b" d="M528.9,296.5,498.2,313l-16.7,9-.8.5-4.5-8.2-14.3-26.2-.9-1.6,15.7-8.4L507,261.7l2.2-1.2,13.3,24.3,4.7,8.6Z"/><path class="t" d="M527.7,293l-29.4,19.3L481.5,322l-22.2-32.1,17.4-11.8L507,261.7l15.5,23.1Z"/><path class="b" d="M504.2,258.9l-45.3,30.8,23.3,33.8,45.3-30.8Z"/><path class="j" d="M485.1,323.3l11.8-8a5.479,5.479,0,0,0,2.3-5.6l24.6-16.8-22.6-32.8a1.446,1.446,0,0,0-1-.7l-20.8,65.1C481.2,325.4,483.3,324.5,485.1,323.3Z"/><path class="k" d="M479.4,324.5c-.1-.1-.2-.1-.3-.2l-24-34.8L499,259.6a1.481,1.481,0,0,1,1.3-.2l-.6,1.7Z"/><path class="b" d="M511.1,289.7l-33,22.4,2.9,4.2,33-22.4Z"/><path class="u" d="M493.5,306l10.7-7.2-1.3-1.8-10.6,7.2Z"/><path class="u" d="M489.8,306l-9.9,6.7,1.2,1.7,9.9-6.7Z"/><path class="u" d="M506.1,297.5l5.4-3.7-1.2-1.8-5.4,3.7Z"/><rect class="v" width="78.1" height="95.7" transform="translate(388.3 232.7)"/><rect class="w" width="68.7" height="86.3" transform="translate(393.9 237.4)"/><rect class="f" width="68.7" height="86.3" transform="translate(391.4 237.4)"/><path class="j" d="M439.6,233.4h-6.2v-.2a8.3,8.3,0,1,0-16.6,0v.2H411a6.479,6.479,0,0,0-6.5,6.1H446A6.39,6.39,0,0,0,439.6,233.4Zm-17.5-2.6a2.9,2.9,0,1,1,3.9,2.7h-2A3.033,3.033,0,0,1,422.1,230.8Z"/><rect class="x" width="3.1" height="43.2" transform="translate(395.7 275.9)"/><rect class="x" width="3.1" height="43.2" transform="translate(413.5 275)"/><rect class="x" width="3.1" height="43.2" transform="translate(434.1 275)"/><rect class="x" width="3.1" height="43.2" transform="translate(452.8 275)"/><rect class="x" width="60.1" height="3" transform="translate(395.7 273.8)"/><rect class="w" width="10.3" height="6.4" transform="translate(400.9 279.7)"/><rect class="w" width="10.3" height="6.4" transform="translate(420 279.7)"/><rect class="w" width="10.3" height="6.4" transform="translate(420 293.5)"/><rect class="x" width="60.1" height="3" transform="translate(395.7 287.9)"/><rect class="x" width="60.1" height="3" transform="translate(395.7 302)"/><rect class="x" width="58.9" height="3" transform="translate(397 316.1)"/><path class="l" d="M381.3,273.7a4.378,4.378,0,0,0-4.5-4.3H347.4a4.378,4.378,0,0,0-4.5,4.3l.1,34.5a4.378,4.378,0,0,0,4.5,4.3h29.4a4.378,4.378,0,0,0,4.5-4.3Z"/><path class="w" d="M376.7,288.3h-3.3a3.159,3.159,0,0,0-3.2,3.2v14.3a3.159,3.159,0,0,0,3.2,3.2h3.3a3.159,3.159,0,0,0,3.2-3.2V291.5A3.222,3.222,0,0,0,376.7,288.3Z"/><path class="w" d="M355.5,294.9a3.159,3.159,0,0,1-3.2,3.2H349a3.159,3.159,0,0,1-3.2-3.2v-3.3a3.159,3.159,0,0,1,3.2-3.2h3.3a3.159,3.159,0,0,1,3.2,3.2Z"/><path class="w" d="M355.5,305.7a3.159,3.159,0,0,1-3.2,3.2H349a3.159,3.159,0,0,1-3.2-3.2v-3.3a3.159,3.159,0,0,1,3.2-3.2h3.3a3.159,3.159,0,0,1,3.2,3.2Z"/><path class="w" d="M367.7,294.9a3.159,3.159,0,0,1-3.2,3.2h-3.3a3.159,3.159,0,0,1-3.2-3.2v-3.3a3.159,3.159,0,0,1,3.2-3.2h3.3a3.159,3.159,0,0,1,3.2,3.2Z"/><path class="w" d="M367.7,305.7a3.159,3.159,0,0,1-3.2,3.2h-3.3a3.159,3.159,0,0,1-3.2-3.2v-3.3a3.159,3.159,0,0,1,3.2-3.2h3.3a3.159,3.159,0,0,1,3.2,3.2Z"/><path class="b" d="M375.5,288.3h-3.3a3.159,3.159,0,0,0-3.2,3.2v14.3a3.159,3.159,0,0,0,3.2,3.2h3.3a3.159,3.159,0,0,0,3.2-3.2V291.5A3.222,3.222,0,0,0,375.5,288.3Z"/><path class="b" d="M354.3,294.9a3.159,3.159,0,0,1-3.2,3.2h-3.3a3.159,3.159,0,0,1-3.2-3.2v-3.3a3.159,3.159,0,0,1,3.2-3.2h3.3a3.159,3.159,0,0,1,3.2,3.2Z"/><path class="b" d="M354.3,305.7a3.159,3.159,0,0,1-3.2,3.2h-3.3a3.159,3.159,0,0,1-3.2-3.2v-3.3a3.159,3.159,0,0,1,3.2-3.2h3.3a3.159,3.159,0,0,1,3.2,3.2Z"/><path class="b" d="M366.4,294.9a3.159,3.159,0,0,1-3.2,3.2h-3.3a3.159,3.159,0,0,1-3.2-3.2v-3.3a3.159,3.159,0,0,1,3.2-3.2h3.3a3.159,3.159,0,0,1,3.2,3.2Z"/><path class="b" d="M366.4,305.7a3.159,3.159,0,0,1-3.2,3.2h-3.3a3.159,3.159,0,0,1-3.2-3.2v-3.3a3.159,3.159,0,0,1,3.2-3.2h3.3a3.159,3.159,0,0,1,3.2,3.2Z"/><path class="v" d="M346.3,292.2h2.1v-2.1h2v2.1h2.1v2h-2.1v2.1h-2v-2.1h-2.1Z"/><path class="v" d="M346.5,305.6l1.5-1.5-1.5-1.5,1.4-1.4,1.5,1.5,1.5-1.5,1.4,1.4-1.5,1.5,1.5,1.5-1.4,1.4-1.5-1.5-1.5,1.5Z"/><path class="v" d="M358.5,292.2h6.1v2h-6.1Z"/><path class="g" d="M371.1,296.4h5.5v1.7h-5.5Zm0,2.8h5.5v1.7h-5.5Z"/><path class="v" d="M358.5,303.1h6.1v2h-6.1Z"/><circle class="v" cx="0.9" cy="0.9" r="0.9" transform="translate(360.6 300.5)"/><circle class="v" cx="0.9" cy="0.9" r="0.9" transform="translate(360.6 305.8)"/><path class="y" d="M379.3,279.6a3.244,3.244,0,0,1-3.3,3.2H348.3a3.311,3.311,0,0,1-3.3-3.2v-3.9a3.244,3.244,0,0,1,3.3-3.2H376a3.311,3.311,0,0,1,3.3,3.2Z"/><path class="b" d="M362.7,280h2.4c.6,0,.5-.3.5-.5v-.3c0-.3-.1-.5-.4-.5h-.4c-.3,0-.4.1-.4.4h-1.7l.2-4.2h4.2v1.6h-2.5v.9a2.073,2.073,0,0,1,.6-.2h.7a1.613,1.613,0,0,1,1.5,1.8v.8a1.648,1.648,0,0,1-1.8,1.7,13.677,13.677,0,0,1-2.8-.2V280Z"/><path class="b" d="M369.5,275a9.9,9.9,0,0,1,3,.2v1.3h-2c-.8,0-.8.5-.8,1.1.3-.2.6-.2,1.4-.2,1.3,0,1.6.7,1.6,1.7v.8c0,1.2-.7,1.6-1.7,1.6h-1.2c-1.1,0-1.8-.6-1.8-3.4C367.9,275.7,368.7,275.1,369.5,275Zm.9,5h.2c.3,0,.4-.1.4-.4v-.2c0-.4,0-.5-.3-.5h-.9C369.7,279.9,369.8,280,370.4,280Z"/><path class="b" d="M373.1,275h4.3l.4.7-2.1,5.8H374l1.8-5h-2.6V275Z"/><path class="c" d="M378.8,274a3.168,3.168,0,0,0-2.3-.9H348.8a3.311,3.311,0,0,0-3.3,3.2v4a3.371,3.371,0,0,0,.5,1.7,3.255,3.255,0,0,1-1-2.3v-4a3.329,3.329,0,0,1,3.3-3.3H376A3.192,3.192,0,0,1,378.8,274Z"/><g class="z"><path class="aa" d="M352.9,272.4l-7.8,7.8a3.219,3.219,0,0,0,1.2,2l9.8-9.7h-3.2Z"/><path class="aa" d="M359.9,272.4l-10.6,10.5h13l10.5-10.5Z"/></g><path class="ab" d="M470,304.9l12.6-2.1,5.8,32L473.9,342l-4.7-12.9-6.3-7,8-12.6Z"/><path class="ab" d="M470,304.9l12.6-2.1,2.3,23.2a9.616,9.616,0,0,0-3.4-.2,40.063,40.063,0,0,0-6.9.5c-2.6.4-3.4.2-6,.4l-4.5-4.6.7-11.5,7.3-2.1Z"/><path class="ab" d="M482.6,302.8l-14.3-10.4-9.8-.8s-8.2,2.1-9.8,3.1c-.8.5-1.3,2.8,1.8,3.7,1.9.5,5.9-1.4,5.9-1.4l5.3,1.4,5.4,4,3.5,5.8,10.2-2.5Z"/><path class="ac" d="M482,305.7l-1.2,4.3-1.9-.5,1.2-4.3Z"/><path class="ac" d="M469.4,302.3l-1.2,4.3-24.5-6.5,1.2-4.4Z"/><path class="g" d="M469.4,302.3l-1.2,4.3-24.5-6.5,1.2-4.4Z"/><path class="ac" d="M456.6,298.2l-1.6,5.6-.2-.8,1.2-4.3Z"/><path class="g" d="M481,304.8l-1.5,5.5L455,303.8l1.6-5.6Z"/><path class="ac" d="M443.7,300.1l-3.7-3.4,4.9-1Z"/><path class="ac" d="M475.1,309.7l-.5-.1-6-1.6-.3-.1a5.849,5.849,0,0,0-1.4-.2c-1.1,0-2.2.8-1.7,1.5.6.8,1.4-.3,2.3,0l.7.2,6,1.6,1.2.3a.618.618,0,0,0,.8-.5v-.1L478,304l-1.4-.4Z"/><path class="ab" d="M454.2,312.5s-4.3-7.4-5-8.8c-1.6-2.9.6-4.8,2.9-3.7,1.1.5,5.3,6.4,5.3,6.4l5.5,4.1,3.5-.6,8.8,17.2-6.7,1.1Z"/><path class="b" d="M468.1,330.8c.4,1.6,3.6,8.2,4,9.8,6.3-2.4,12.3-6.5,19.1-8-.2-1.7-2.8-6.1-3.1-7.8A132.142,132.142,0,0,0,468.1,330.8Z"/><path class="ad" d="M504.4,370.9H475.3l-6.8-37,.7-.3,1.5-.5,16.3-5.7,1.8-.6,1.3-.5Z"/><path class="ab" d="M372.9,299.5c-3.1,1.1-.7,18.2-2.3,20.4.4-.5-.6-4.9-.7-5.6-.2-2.7.4-7.9-4-6.2-3,1.2-1.7,4.2-1.8,6.6,0,.5-.5,4.4-.6,3.8-.7-2.3-.8-7.9-4.7-6.1-1.4.7-1.7,2.2-1.8,3.6a26.147,26.147,0,0,0-.2,3.9c-2.4-3.4-5.2-3.2-5.9,1.1a30.029,30.029,0,0,0,.3,13,16.932,16.932,0,0,0,1,2.7c.8,1.7,1.8,3.3,2.6,5.1.7,1.5,2.1,2.6,2.6,4.2a29.786,29.786,0,0,1,.9,4.3c.1.7.3,1.3.3,1.5s0,.5.2.5c.1.1.6-.1.7-.1.5-.1.9-.1,1.4-.2,1.4-.2,1.3.4,2.7.3,2.9-.3,5.7-1,8.6-1,2.6,0,3.4-2.1,4.7-4.4,2.6-4.9,7.2-7.9,7.4-17.4,0-1.2-.1-2.4,0-3.5,0-.4.7-3,.7-3.3.2-1,1-2.7.6-3.5-.5-1.1-3.3-.4-4,.3-3.2,2.9-1.2,9.5-4,11.5C373.3,324.1,379.7,296.9,372.9,299.5Z"/><path class="b" d="M356.4,352.6a132.943,132.943,0,0,1,21.9.7c-.1-1.8-.1-3.6-.2-5.5a138.718,138.718,0,0,0-22.4-.7C356,348.9,356.2,350.7,356.4,352.6Z"/><path class="ae" d="M382.5,323.6c0,.4-.1,2.7.4,2.8,0-.3.6-2.7.7-3,.2-.9.9-2.4.5-3.2C383.6,320.6,382.3,322.2,382.5,323.6Z"/><path class="ad" d="M382.4,370.9h-27l-1-21.6h25l.4,3Z"/><path class="v" d="M543.9,314.4a2.682,2.682,0,0,0-2.2-3.1l-8.7-1.8-8.7-1.8a2.673,2.673,0,0,0-3.2,2l-7.3,35.9a2.682,2.682,0,0,0,2.2,3.1l8.7,1.8,8.7,1.8a2.673,2.673,0,0,0,3.2-2Z"/><path class="af" d="M542.3,316.8a1.033,1.033,0,0,0-.9-1.2l-9.3-1.9-9.3-1.9a1.065,1.065,0,0,0-1.3.8l-5.8,28.6a1.033,1.033,0,0,0,.9,1.2l9.3,1.9,9.3,1.9a1.065,1.065,0,0,0,1.3-.8Z"/><path class="x" d="M539.1,327.9,520,324l2.1-10.2,19.1,3.9Z"/><path class="x" d="M527.7,346.9a1.326,1.326,0,0,0-1-.6l-1.2-.2-1.2-.3h-.6a1.512,1.512,0,0,0-1.2,1.1,1.557,1.557,0,0,0,1.2,1.8l1.2.2,1.2.2h.6a1.512,1.512,0,0,0,1.2-1.1A.913.913,0,0,0,527.7,346.9Z"/><path class="x" d="M535.1,311.8l-2.5-.5-2.5-.5a.569.569,0,0,0-.7.4c-.1.3.2.6.5.7l2.5.5,2.5.5a.569.569,0,0,0,.7-.4C535.7,312.2,535.5,311.9,535.1,311.8Z"/><circle class="x" cx="0.5" cy="0.5" r="0.5" transform="translate(540.1 313)"/><path class="k" d="M521.4,333.8a7.19,7.19,0,0,0,5.6,8.5l2.9-14A7.051,7.051,0,0,0,521.4,333.8Z"/><path class="k" d="M535.5,336.7a6.984,6.984,0,0,1-.8,2,7.4,7.4,0,0,1-2,2.3,6.816,6.816,0,0,1-4.4,1.4c-.5,0-.9-.1-1.4-.1l2.9-14c.2,0,.3.1.5.1A6.977,6.977,0,0,1,535.5,336.7Z"/><path class="j" d="M528.5,327.9a7.2,7.2,0,1,0,5.6,8.5A7.19,7.19,0,0,0,528.5,327.9Z"/><path class="k" d="M521.2,333.8a5.862,5.862,0,0,0,4.7,7l2.4-11.7A5.985,5.985,0,0,0,521.2,333.8Z"/><path class="q" d="M528.3,329.1l-2.4,11.7a6.018,6.018,0,0,0,7.1-4.6A6.112,6.112,0,0,0,528.3,329.1Z"/><path class="j" d="M526,339.9a5.05,5.05,0,1,1,6-3.9A5,5,0,0,1,526,339.9Zm2-9.7a4.844,4.844,0,1,0,3.8,5.7A4.733,4.733,0,0,0,528,330.2Z"/><path class="j" d="M525.2,333a1.6,1.6,0,0,1,2.1-1.3l.2-.7.8.2-.2.8a11.643,11.643,0,0,1,1.5.6l-.2,1.1a18.028,18.028,0,0,0-1.9-.5c-.5-.1-.8-.1-.9.4v.2c-.1.4,0,.6.5.7l.7.1a1.568,1.568,0,0,1,1.2,2.1l-.1.4a1.672,1.672,0,0,1-2.1,1.5l-.2.7-.8-.2.2-.7a5.212,5.212,0,0,1-1.5-.6l.2-1.1c.3.1,1.2.3,2,.5.4.1.7.1.8-.3l.1-.3c.1-.3,0-.5-.4-.6l-.7-.1a1.562,1.562,0,0,1-1.3-2.1Z"/><text class="ag" transform="translate(395.872 268.893)"><tspan x="0" y="0">ESTIMATION</tspan></text><text class="ah" transform="translate(411.235 258.719)"><tspan x="0" y="0">TOTAL</tspan></text></g></svg>