<svg xmlns="http://www.w3.org/2000/svg" width="349.525" height="194.615" viewBox="0 0 349.525 194.615"><defs><style>.a{fill:#e0f3ff;}.b{fill:#f4b078;}.c{fill:#efa46c;}.d{fill:#f7f7ee;}.e{fill:#b2b0aa;}.f,.h{fill:#114c8f;}.g{fill:#ffca5a;}.g,.h,.j,.k,.l,.n{fill-rule:evenodd;}.i{fill:#fff;}.j{fill:#fe912a;}.k{fill:#df2938;}.l{fill:#e34856;}.m,.n{fill:#384146;}.o{fill:#f7be89;}.p{fill:#ffd7b6;}.q{fill:#a5bbaa;}.r{fill:#f4aa6e;}.s{font-size:7.37px;font-family:Poppins-ExtraBold, Poppins;font-weight:800;}</style></defs><g transform="translate(-258.121 -163.059)"><path class="a" d="M282,205.8c-29.6,36.3-32.5,100.7-4.1,134.2,10.8,12.7,23.9,18.4,194.8,17.6,69.1-.3,99.4-1.4,118.6-24.4,15.8-19,20.1-48.2,13.1-70.6C576.8,174,351,121.1,282,205.8Z"/><path class="b" d="M402.3,276.2s-3.7,29.8-15.1,36.9c-7.5,4.7-3.9-35.5-3.9-35.5Z"/><path class="b" d="M369.6,307.6l1.7-32.7a15.286,15.286,0,0,1,2.6-7.2l6.2-13.4c1.3-1.8,5.1-3,7-4l3.8,1c2-1,3.5,0,3.4,2.3l-.8,12.8a25.581,25.581,0,0,1-1.9,7.7l-4.4,9.6a29.124,29.124,0,0,0-2,7.7l-.7,7.7a5.649,5.649,0,0,1-4.3,4.8Z"/><path class="c" d="M386.5,295l.1-7.7c0-2.2.7-37.1.6-37.1,0,0-10,15.4-10.3,22.2-.3,7.1,5.8,27.8,5.8,27.8A6.074,6.074,0,0,0,386.5,295Z"/><path d="M496.1,209a2.112,2.112,0,0,1,2.1,2.1v81.8a2.112,2.112,0,0,1-2.1,2.1H388.5a2.112,2.112,0,0,1-2.1-2.1V211.1a2.112,2.112,0,0,1,2.1-2.1Z"/><rect class="d" width="92.6" height="68.4" transform="translate(396.2 217.9)"/><rect class="e" width="23.8" height="1.9" transform="translate(455.8 260.9)"/><rect class="e" width="23.8" height="1.9" transform="translate(455.8 265)"/><rect class="e" width="23.8" height="1.9" transform="translate(455.8 269.1)"/><rect class="e" width="23.8" height="1.9" transform="translate(455.8 273.1)"/><rect class="e" width="23.8" height="1.9" transform="translate(455.8 277.2)"/><rect class="f" width="4.9" height="4.9" transform="translate(456 252.2)"/><rect class="f" width="4.9" height="4.9" transform="translate(462.2 252.2)"/><rect class="f" width="4.9" height="4.9" transform="translate(468.4 252.2)"/><rect class="f" width="4.9" height="4.9" transform="translate(456 245.8)"/><rect class="f" width="4.9" height="4.9" transform="translate(462.2 245.8)"/><rect class="f" width="4.9" height="4.9" transform="translate(468.4 245.8)"/><rect class="f" width="4.9" height="4.9" transform="translate(474.6 252.2)"/><rect class="f" width="4.9" height="4.9" transform="translate(474.6 245.8)"/><path class="g" d="M406.9,244.6h19.8a1.324,1.324,0,0,1,1.3,1.3h0a1.324,1.324,0,0,1-1.3,1.3H406.9a1.324,1.324,0,0,1-1.3-1.3h0A1.324,1.324,0,0,1,406.9,244.6Z"/><path class="h" d="M426.7,247.9a2.1,2.1,0,1,0-2.1-2.1A2.051,2.051,0,0,0,426.7,247.9Z"/><circle class="i" cx="0.9" cy="0.9" r="0.9" transform="translate(425.8 244.9)"/><path class="j" d="M406.9,250h25.9a1.324,1.324,0,0,1,1.3,1.3h0a1.324,1.324,0,0,1-1.3,1.3H406.9a1.324,1.324,0,0,1-1.3-1.3h0A1.324,1.324,0,0,1,406.9,250Z"/><path class="h" d="M432.8,253.3a2.1,2.1,0,1,0-2.1-2.1A2.051,2.051,0,0,0,432.8,253.3Z"/><circle class="i" cx="0.9" cy="0.9" r="0.9" transform="translate(431.9 250.3)"/><path class="k" d="M406.9,255.4h36.4a1.324,1.324,0,0,1,1.3,1.3h0a1.324,1.324,0,0,1-1.3,1.3H406.9a1.324,1.324,0,0,1-1.3-1.3h0A1.324,1.324,0,0,1,406.9,255.4Z"/><path class="h" d="M443.3,258.8a2.1,2.1,0,1,0-2.1-2.1A2.112,2.112,0,0,0,443.3,258.8Z"/><circle class="i" cx="0.9" cy="0.9" r="0.9" transform="translate(442.4 255.8)"/><path class="l" d="M406.9,260.9h32a1.324,1.324,0,0,1,1.3,1.3h0a1.324,1.324,0,0,1-1.3,1.3h-32a1.324,1.324,0,0,1-1.3-1.3h0A1.26,1.26,0,0,1,406.9,260.9Z"/><path class="h" d="M438.9,264.2a2.1,2.1,0,1,0-2.1-2.1A2.112,2.112,0,0,0,438.9,264.2Z"/><circle class="i" cx="0.9" cy="0.9" r="0.9" transform="translate(438 261.2)"/><path class="j" d="M406.9,266.3h26.7a1.324,1.324,0,0,1,1.3,1.3h0a1.324,1.324,0,0,1-1.3,1.3H406.9a1.324,1.324,0,0,1-1.3-1.3h0A1.26,1.26,0,0,1,406.9,266.3Z"/><path class="h" d="M433.7,269.6a2.1,2.1,0,1,0-2.1-2.1A2.051,2.051,0,0,0,433.7,269.6Z"/><circle class="i" cx="0.9" cy="0.9" r="0.9" transform="translate(432.8 266.6)"/><path class="k" d="M406.9,271.7h33.7a1.324,1.324,0,0,1,1.3,1.3h0a1.324,1.324,0,0,1-1.3,1.3H406.9a1.324,1.324,0,0,1-1.3-1.3h0A1.324,1.324,0,0,1,406.9,271.7Z"/><path class="h" d="M440.6,275a2.1,2.1,0,1,0-2.1-2.1A2.112,2.112,0,0,0,440.6,275Z"/><circle class="i" cx="0.9" cy="0.9" r="0.9" transform="translate(439.7 272)"/><rect class="m" width="47.9" height="1.2" transform="translate(402.3 277.6)"/><rect class="m" width="1.2" height="37.4" transform="translate(401.9 241.4)"/><path class="n" d="M453.5,278.3l-2.2-1.1-2.2-1.1v4.3l2.2-1Z"/><path class="n" d="M402.4,237.6l1.1,2.2,1.1,2.2h-4.3l1-2.2Z"/><path class="o" d="M367.2,299.2l-9.4,14.1,16.5,12.2a31.647,31.647,0,0,1,1.9-2.7c1.7-2.5,8.6-7.8,10.5-9.3a1,1,0,0,0,.5-.4s1-1,2-7.9c2.3-16.5-4.6-22.9-4.6-22.9C383.8,281.6,367.2,299.2,367.2,299.2Z"/><path class="p" d="M386.4,260.7a32.744,32.744,0,0,0,2.6-3.8,13.114,13.114,0,0,0-1.9-2.1c-1.2.8-2.4,3.4-3.2,5.4l1,.4A1.354,1.354,0,0,0,386.4,260.7Z"/><path class="o" d="M386.4,293.6a16.069,16.069,0,0,0-.2-8l.1-13.3s3.9-4.4,4.6-8.3a38.7,38.7,0,0,0,0-4.9,7.25,7.25,0,0,0-2.5-4.4,1.2,1.2,0,0,0-1.4,0,13.114,13.114,0,0,1,1.9,2.1,32.744,32.744,0,0,1-2.6,3.8c-.6.5-1.6,0-1.6,0l-1-.4c-.5,1.3-.4,1.1-.5,1.3-1.9,3.7-5.7,3.2-6,7.2-.4,5-4.6,8.5-5.5,13a98.218,98.218,0,0,0-1.6,14.1c0,1.1,1.5,6.2,1.5,7-2.1,2.2-13.1,11.1-13.1,11.1l11,6.9Z"/><path class="b" d="M390.9,264a20.082,20.082,0,0,0,0-4.9c0-.1-.1-.3-.1-.4a10.688,10.688,0,0,1-1.9,6.6,63.034,63.034,0,0,0-4.1,6.5s.8,4.5,1.4,9.9l.1-9.4S390.2,267.9,390.9,264Z"/><path class="q" d="M379,326.9l-20.4-20.4-2.4-2.5-49.9,49.9h48.8l25.5-25.5Z"/><rect class="d" width="28.9" height="8.7" transform="translate(364.69 300.316) rotate(45)"/><path class="r" d="M492,308.1l-4.5-11.7c-1.4-3.6-2.7-7.3-3.9-11h0s1.6,15.3,1.8,17.1c.6,4.3,4.8,7.7,7.5,10.7.5.6,8.1,8.5,8.1,8.5h0c-.5-.6-1-1.3-1.6-2.1C496.8,316,493.6,312.4,492,308.1Z"/><path class="o" d="M529.3,313.6c-3.4-4.2.3-12.9-1.8-17.8-1.5-3.6-3.8-13.2-8-14.4-2-.6-3.3.5-5-1.4-1.9-2.1-3.3,0-5.3-.7-1.9-.7-2.5-3.6-5-1.9-1.5.6-2.5,1.8-4.2.6-1.5-1-2.6-2.6-4.6-1.3-1.2.4-1.9,1.6-3.4.9-1.3-.7-2-3.1-2.5-4.4-2.3-5.2-4.6-10.3-6.9-15.5-.7-1.5-1.3-4-2.7-4.8-4.5-2.7-4.4,5.3-3.7,7.6,1.4,4.9,2.8,9.8,4.3,14.8,1,3.5,2.1,6.9,3.2,10.2,1.2,3.7,2.5,7.3,3.9,11l4.5,11.7c1.6,4.3,4.7,7.9,7.3,11.5.6.8,1.1,1.5,1.6,2.1a22.977,22.977,0,0,0,5.4,4.5c3,2.1,8.1,9.3,8.1,9.3l21-10.9C535.3,324.7,530.6,315.3,529.3,313.6Z"/><path class="p" d="M476.9,253.7s.6,3,1.7,3.2c1,.2,3.5-.7,3.5-.7-.6-1.2-1-2.8-2.1-3.3l-.6-.3A3.272,3.272,0,0,0,476.9,253.7Z"/><path class="r" d="M492,308.1l-4.5-11.7c-1.4-3.6-2.7-7.3-3.9-11h0s1.6,15.3,1.8,17.1c.6,4.3,4.8,7.7,7.5,10.7.5.6,8.1,8.5,8.1,8.5h0c-.5-.6-1-1.3-1.6-2.1C496.8,316,493.6,312.4,492,308.1Z"/><path class="r" d="M495.7,280.2c.1-2.9.1-1.6-.8-3.2-.9.5-1.7,1.3-2.9.6C492,277.6,495.6,285,495.7,280.2Z"/><path class="r" d="M506.1,282.1a8.18,8.18,0,0,0-1.5-4.8c-.1.1-.2.1-.4.2a10.062,10.062,0,0,1-2.4,1.1C503,280.8,506.2,285.7,506.1,282.1Z"/><path class="r" d="M513,283.8a6.356,6.356,0,0,0-.2-4.7c-.9,0-1.9.5-2.9.4C510.4,282.2,512.1,285.6,513,283.8Z"/><path class="r" d="M519.5,282.8a3.339,3.339,0,0,0-.3-1.5,21.749,21.749,0,0,0-2.5-.1l1.7,4.7S519.5,286.4,519.5,282.8Z"/><path class="q" d="M539.3,326.5l-24.5,15.3-3,1.8,6.4,10.3h40.7l-17.8-28.5Z"/><rect class="d" width="28.9" height="8.7" transform="translate(510.193 334.359) rotate(-31.91)"/><text class="s" transform="translate(414.205 234.282)"><tspan x="0" y="0">ONLINE PORTAL</tspan></text></g></svg>