<svg xmlns="http://www.w3.org/2000/svg" xmlns:xlink="http://www.w3.org/1999/xlink" width="244.967" height="206.133" viewBox="0 0 244.967 206.133"><defs><style>.a{fill:#e0f3ff;}.aa,.b{fill:#fff;}.ab,.c{fill:#f3f5f4;}.d,.i,.y{fill:none;}.aa,.ab,.d{stroke:#70927f;stroke-width:0.25px;}.aa,.ab,.d,.i,.y{stroke-miterlimit:10;}.e{clip-path:url(#a);}.f{fill:#b14330;}.g{fill:#ffb84f;}.h{fill:#5f281c;}.i{stroke:#422e2d;}.j{fill:#422e2d;}.k{fill:#9a2532;}.l{fill:#ffd788;}.m{fill:#a5bbaa;}.n{fill:#e8dfcf;}.o{fill:#86593e;}.p{fill:#b58e67;}.q{fill:#b7c9b9;}.r{fill:#efebdf;}.s{fill:#709480;}.t{fill:#b4c6b6;}.u{fill:#f1eadf;}.v{fill:#b1432d;}.w{fill:#70927f;}.x{fill:#e3e3e3;}.y{stroke:#f3f5f4;stroke-linecap:round;stroke-linejoin:round;}.z{fill:#d1cec7;}</style><clipPath id="a"><circle cx="40.7" cy="40.7" r="40.7" transform="translate(468.4 178.7)"/></clipPath></defs><g transform="translate(-315.575 -169.577)"><path class="a" d="M317,276.5c-10.2,33.9,35.4,100.1,103.6,99.2,76.1-1,136.5-66.2,139.8-121s-51.4-93.4-96.1-83.6-60.9,39.9-82.1,59.3C369.9,241.7,330.5,231.8,317,276.5Z"/><circle class="b" cx="40.7" cy="40.7" r="40.7" transform="translate(465.1 179.7)"/><circle class="c" cx="40.7" cy="40.7" r="40.7" transform="translate(468.4 178.7)"/><circle class="d" cx="40.7" cy="40.7" r="40.7" transform="translate(465.1 179.7)"/><g class="e"><path class="f" d="M498.7,261h-6.8l.6-14.7h5.8Z"/><path class="g" d="M494.8,221.3l-7,24.2,2.4,2.3-2.4,2.9,12.7,1.5Z"/><path class="g" d="M498.7,261.5h19.8l6.8-43.2-11-.7-12.3.7-7.2,3Z"/><path class="f" d="M505.3,224.8l9-7.2L511,206.7l-9.5,1.3Z"/><path class="h" d="M503.4,216.5l4.4-5.5-6.3-3Z"/><path class="f" d="M495,202.2c-.4,5,1.2,11.2,6.2,11.6s11.1-5.5,11.5-10.6,2.3-13.4-4.5-14C498.3,188.4,495.4,197.1,495,202.2Z"/><path class="i" d="M504.1,197.7a4.051,4.051,0,0,0,2.2,2.8"/><path class="i" d="M496.5,198a3.163,3.163,0,0,0,2.4-.3"/><path class="b" d="M498.1,206.7a44.64,44.64,0,0,0,5.8,0,5.435,5.435,0,0,1-4.4,1.9C499,208.6,498.1,206.7,498.1,206.7Z"/><ellipse class="j" cx="0.7" cy="1.3" rx="0.7" ry="1.3" transform="translate(503.2 200.7)"/><ellipse class="j" cx="0.7" cy="1.3" rx="0.7" ry="1.3" transform="translate(496.9 199.9)"/><path class="k" d="M499.8,202a2.861,2.861,0,0,1-3.1,2C496.8,203.9,500,208,499.8,202Z"/><path class="j" d="M514.3,205.3c6.2-7.5,8.6-9.1,0-15.1,0,0-.8-5.7-8.3-3.8-11.4,2.8-9.3,3.8-9.7,10.1,0,0,6.2.8,11.1-2.1,0,0,.2,3.5,2.2,5.3l-.4,3.7Z"/><path class="i" d="M514.3,190.2a3.864,3.864,0,0,0,0-3.2"/><path class="i" d="M513.8,191.1s2.7-1.2,2.9-2.5"/><ellipse class="f" cx="2.9" cy="3.8" rx="2.9" ry="3.8" transform="matrix(-0.935, -0.354, 0.354, -0.935, 514.121, 209.28)"/><path class="g" d="M516.1,218.3l-2.3-5.7L501,215.5l3.6,10.9Z"/><path class="l" d="M501.5,216.8l7.1-.4-6.6,1.9Z"/><path class="g" d="M525.3,218.3l1.7,32-10.1,5.3-.8-37.3Z"/><path class="m" d="M512.2,212.9l-2.3-.7a1.284,1.284,0,0,1-.9-1.6l2.3-7.5a1.284,1.284,0,0,1,1.6-.9l2.3.7a1.284,1.284,0,0,1,.9,1.6l-2.3,7.5A1.25,1.25,0,0,1,512.2,212.9Z"/><path class="n" d="M513.1,213.2l-2.5-.8a1.284,1.284,0,0,1-.9-1.6l2.3-7.5a1.284,1.284,0,0,1,1.6-.9l2.5.8a1.284,1.284,0,0,1,.9,1.6l-2.3,7.5A1.284,1.284,0,0,1,513.1,213.2Z"/><circle class="m" cx="0.5" cy="0.5" r="0.5" transform="translate(512.9 203.2)"/><path class="f" d="M524.9,248.9l-9.7-36.1-1.5.7s-1.4,27.9,4.9,38.5Z"/><path class="f" d="M515.3,212.9l2.9-6.3s-7.6,1.8-4.3,7Z"/><path class="f" d="M518.1,206.6l-3.4-2.9s-1.2,2,2.8,3.3Z"/><path class="f" d="M513.8,209l1.9-1.3-2-2.5s-.7,1.3,1.1,2.6Z"/><path class="f" d="M517.5,206.9l-3.6-2.8s-1,1.8,3,3Z"/><path class="l" d="M498.7,261.5l-3.9-40.2,6.2,40.2Z"/></g><rect class="o" width="32.3" height="4.7" transform="translate(393.7 328.3)"/><path class="p" d="M438.4,356.3h-4.1l-18.9-52.8h4Z"/><path class="p" d="M405.9,356.3h4l4.8-52.8h-4.1Z"/><path class="p" d="M382.2,356.3h4l19-52.8h-4.1Z"/><path class="g" d="M418.4,266.1H388.2a2.22,2.22,0,0,0-2.2,2.2v32.1a3.585,3.585,0,0,0,3.6,3.6h34.3V271.6A5.548,5.548,0,0,0,418.4,266.1Z"/><path class="g" d="M435.4,309H402.5v-5h32.9a1.43,1.43,0,0,1,1.4,1.4v2.3A1.493,1.493,0,0,1,435.4,309Z"/><path class="l" d="M388.7,298.5V268.2a2.112,2.112,0,0,0-2.1-2.1h0a2.112,2.112,0,0,0-2.1,2.1v30.7A10.072,10.072,0,0,0,394.6,309H402a2.476,2.476,0,0,0,2.5-2.5h0A2.476,2.476,0,0,0,402,304h-7.8A5.484,5.484,0,0,1,388.7,298.5Z"/><path class="q" d="M422.9,303.5h-17a11.719,11.719,0,0,1-11.2-15.3l2.8-8.8,24.9-3Z"/><path class="r" d="M425.5,243.6l7.1,25.5h-7.1l-7.6-12.7Z"/><path class="h" d="M432.3,268l18.4,3.6-.5,1.5s-16.3,3.9-24.7-3.9Z"/><path class="h" d="M450.7,271.5l7.9-.7-2.2,2a4.836,4.836,0,0,1-6.2.3h0Z"/><path class="h" d="M458.6,270.8,460,274s-2.1.5-2-2.7Z"/><path class="h" d="M456.9,271.2l1.3,3.4S455.8,274.9,456.9,271.2Z"/><path class="h" d="M458.6,270.8l2.7,2.1s-1.8,1-2.9-1.7Z"/><rect class="b" width="33.4" height="2.4" transform="translate(421.4 273.1)"/><path class="b" d="M425.5,243.6l-7.9-3.2h-9.4l-12,3.6,5.4,22.8-4.9,12.3h23.2l-1.8-12.8.1-.2a4.957,4.957,0,0,1,2.6-2.9c2.1-1,3.3-2.5,3.4-3.9a8.3,8.3,0,0,0-.1-2.2,21.259,21.259,0,0,1,.7-10.9Z"/><path class="r" d="M421.2,263.7a5.873,5.873,0,0,0,2.8-3.8s-2.8,2.6-12.7,1.6c-11.4-1.1-4.3,7.3-8.3,17.4h16.9l-1.8-12.8.1-.2C418.6,264.6,420,264.3,421.2,263.7Z"/><path class="f" d="M416.1,246.7l-7.9-6.3,4.2-8.5h7.1Z"/><path class="h" d="M417.8,239.4l-3.9-4.8,5.6-2.7Z"/><path class="j" d="M412,214.4a7.622,7.622,0,0,1,4.2-1.5c2,0,7.3,2.1,9.2,7s2.7,9,.7,14.6l-8.6-2.7Z"/><path class="f" d="M425.2,226.8c.4,4.4-1.1,9.8-5.5,10.2s-11-4.9-11.4-9.3-.8-11.8,5.2-12.3C422.2,214.7,424.8,222.4,425.2,226.8Z"/><path class="i" d="M421.7,223.2a2.17,2.17,0,0,1,2.2.2"/><path class="j" d="M407.8,227s10.4-.1,12.7-9.2c0,0,1.6.3,3.8,2.7,0,0-1-5.4-9.7-5.4C405.7,215.2,407.8,227,407.8,227Z"/><path class="i" d="M420.3,217.2s1.7,7.1-9.4,9.4"/><path class="j" d="M412,225.4a15.266,15.266,0,0,0,.9,10.5s-8.4,1.1-14-5.1c-.1-5.6,2.7-11.1,6.2-14.7,3-3,11.4-4,13.5,1.8C418.5,217.8,412.7,217.7,412,225.4Z"/><path class="i" d="M426.9,234.9s3.9-11-4.7-18.4"/><path class="i" d="M398,230s.9-17.1,15.5-15.8"/><path class="b" d="M422.4,230.8a34.969,34.969,0,0,1-5.1,0,5.038,5.038,0,0,0,3.9,1.7C421.7,232.5,422.4,230.8,422.4,230.8Z"/><ellipse class="j" cx="0.6" cy="1.1" rx="0.6" ry="1.1" transform="translate(416.7 225.5)"/><ellipse class="j" cx="0.6" cy="1.1" rx="0.6" ry="1.1" transform="translate(422.3 224.8)"/><path class="k" d="M420.9,226.6a2.441,2.441,0,0,0,2.7,1.7S420.8,231.9,420.9,226.6Z"/><ellipse class="f" cx="2.6" cy="3.3" rx="2.6" ry="3.3" transform="matrix(0.935, -0.354, 0.354, 0.935, 406.032, 226.846)"/><rect class="s" width="1.3" height="6.7" transform="translate(408.1 219.9)"/><rect class="t" width="1.3" height="6.7" transform="translate(407.2 219.9)"/><path class="s" d="M410,221.4v-3.2a4.16,4.16,0,0,1,2-3.5c.6-.4,2.4-1.5,2.4-1.5a17.774,17.774,0,0,0-4.4.5l-.4.1a3.812,3.812,0,0,0-2.4,3.5v4.1H410Z"/><path class="t" d="M409.2,221.4v-3.2a3.714,3.714,0,0,1,2-3.3l3.2-1.7-1-.1a10.683,10.683,0,0,0-4.3.6l-.4.1a3.812,3.812,0,0,0-2.4,3.5v4.1h2.9Z"/><circle class="t" cx="3.5" cy="3.5" r="3.5" transform="translate(404.9 224.6)"/><circle class="u" cx="3.5" cy="3.5" r="3.5" transform="translate(404.2 224.6)"/><circle class="t" cx="2.2" cy="2.2" r="2.2" transform="translate(405.5 225.9)"/><circle class="u" cx="1" cy="1" r="1" transform="translate(406.7 227.1)"/><path class="u" d="M420.3,235.2l-8.4-.9-4.4-6,.5-.3,4.2,5.7,8.2.9Z"/><path class="t" d="M420.5,235.5h-2a.43.43,0,0,1-.4-.4v-.7a.43.43,0,0,1,.4-.4h2a.43.43,0,0,1,.4.4v.7A.43.43,0,0,1,420.5,235.5Z"/><path class="r" d="M402.2,257.6l-1.6,4.8-1-3.3Z"/><path class="b" d="M396.2,243.9,386,269.4h8.4l7.8-11.8Z"/><path class="q" d="M441.2,275.5h-7.3a3.691,3.691,0,0,1,3.7-3.7A3.548,3.548,0,0,1,441.2,275.5Z"/><path class="v" d="M395.6,267.6l35.5,3.9-.5,1.5s-27.7,9.5-44.7-3.6Z"/><path class="v" d="M431.2,271.5l7.9-.7-2.2,2a4.836,4.836,0,0,1-6.2.3h0Z"/><path class="v" d="M439.1,270.8l1.4,3.2s-2.1.5-2-2.7Z"/><path class="v" d="M437.3,271.2l1.3,3.4S436.2,274.9,437.3,271.2Z"/><path class="v" d="M439.1,270.8l2.7,2.1s-1.8,1-2.9-1.7Z"/><path class="w" d="M472,265.1H439.5a3.466,3.466,0,0,1-3.5-3.7l1.3-21.1a3.593,3.593,0,0,1,3.5-3.4h32.5a3.466,3.466,0,0,1,3.5,3.7l-1.3,21.1A3.523,3.523,0,0,1,472,265.1Z"/><path class="m" d="M474,265.1H441.5a3.466,3.466,0,0,1-3.5-3.7l1.3-21.1a3.593,3.593,0,0,1,3.5-3.4h32.5a3.466,3.466,0,0,1,3.5,3.7l-1.3,21.1A3.458,3.458,0,0,1,474,265.1Z"/><path class="w" d="M462.7,257.1H452.5l4.3,15.6a.8.8,0,0,1-.8,1h-9.9v1.8h18.2a2.622,2.622,0,0,0,2.5-3.3Zm-.7,12.8a2.3,2.3,0,1,1,2.3-2.3A2.4,2.4,0,0,1,462,269.9Z"/><path class="w" d="M460.9,251h-5.8a2.476,2.476,0,0,0-2.5,2.5v3.6h10.8v-3.6A2.476,2.476,0,0,0,460.9,251Z"/><path class="x" d="M462.6,251h-5.8a2.476,2.476,0,0,0-2.5,2.5v3.6h10.8v-3.6A2.476,2.476,0,0,0,462.6,251Z"/><path class="x" d="M469.2,272.1l-4.1-15H454.2l.6,2.2h0l3.8,14.1a1.647,1.647,0,0,1-1.5,2.1h9.5A2.672,2.672,0,0,0,469.2,272.1Zm-6.4-2.2a2.3,2.3,0,1,1,2.3-2.3A2.263,2.263,0,0,1,462.8,269.9Z"/><path class="m" d="M462.6,251h-5.8a2.476,2.476,0,0,0-2.5,2.5v3.6h10.8v-3.6A2.476,2.476,0,0,0,462.6,251Z"/><path class="m" d="M469.2,272.1l-4.1-15H454.2l.6,2.2h0l3.8,14.1a1.647,1.647,0,0,1-1.5,2.1h9.5A2.672,2.672,0,0,0,469.2,272.1Zm-6.4-2.2a2.3,2.3,0,1,1,2.3-2.3A2.263,2.263,0,0,1,462.8,269.9Z"/><path class="y" d="M469.2,272.1l-4.1-15h0v-3.6a2.476,2.476,0,0,0-2.5-2.5h-5.8"/><path class="y" d="M465.1,257.1l4.1,15a2.672,2.672,0,0,1-2.6,3.4"/><path class="z" d="M442.3,255.7h0a.265.265,0,0,1-.3-.3l.7-12.5c0-.1.1-.3.3-.2.1,0,.2.1.2.3l-.7,12.5A.215.215,0,0,1,442.3,255.7Z"/><path class="z" d="M443.9,255.7h0a.265.265,0,0,1-.3-.3l.7-12.5c0-.1.1-.3.3-.2.1,0,.2.1.2.3l-.7,12.5C444.2,255.6,444.1,255.7,443.9,255.7Z"/><path class="z" d="M445.6,255.7h0a.265.265,0,0,1-.3-.3L446,243c0-.1.1-.3.3-.2.1,0,.2.1.2.3l-.7,12.5A.349.349,0,0,1,445.6,255.7Z"/><path class="z" d="M447.3,255.7h0a.265.265,0,0,1-.3-.3l.7-12.5c0-.1.1-.3.3-.2.1,0,.2.1.2.3l-.7,12.5A.215.215,0,0,1,447.3,255.7Z"/><path class="z" d="M448.9,255.7h0a.265.265,0,0,1-.3-.3l.7-12.5c0-.1.1-.3.3-.2.1,0,.2.1.2.3l-.7,12.5C449.2,255.6,449.1,255.7,448.9,255.7Z"/><path class="z" d="M468.3,255.7h0a.265.265,0,0,1-.3-.3l.7-12.5c0-.1.1-.3.3-.2.1,0,.2.1.2.3l-.7,12.5A.215.215,0,0,1,468.3,255.7Z"/><path class="z" d="M469.9,255.7h0a.265.265,0,0,1-.3-.3l.7-12.5c0-.1.1-.3.3-.2.1,0,.2.1.2.3l-.7,12.5C470.2,255.6,470.1,255.7,469.9,255.7Z"/><path class="z" d="M471.6,255.7h0a.265.265,0,0,1-.3-.3L472,243c0-.1.1-.3.3-.2.1,0,.2.1.2.3l-.7,12.5A.349.349,0,0,1,471.6,255.7Z"/><path class="z" d="M473.3,255.7h0a.265.265,0,0,1-.3-.3l.7-12.5c0-.1.1-.3.3-.2.1,0,.2.1.2.3l-.7,12.5A.215.215,0,0,1,473.3,255.7Z"/><path class="z" d="M474.9,255.7h0a.265.265,0,0,1-.3-.3l.7-12.5c0-.1.1-.3.3-.2.1,0,.2.1.2.3l-.7,12.5C475.2,255.6,475.1,255.7,474.9,255.7Z"/><path class="q" d="M439,285.4H427.6L422,346.2h1.8c13.2-35.3,17-51.2,18.1-57.4A2.925,2.925,0,0,0,439,285.4Z"/><path class="m" d="M422.3,343.8s12.6-32.5,9.4-54.4c-.2-1.4-4-4-4-4Z"/><path class="q" d="M428,285.4h-9.7l-22.7,58.4,1.4,2.3c16.3-25.1,31.3-47.4,34.4-55.8A3.552,3.552,0,0,0,428,285.4Z"/><path class="m" d="M414.7,295.5c-5.5,1.4-11.3-.6-12.5-4a5.376,5.376,0,0,1,2-6.1l-2.4-6.5-4.2.5-2.8,8.8A11.719,11.719,0,0,0,406,303.5h5.4l-15.6,40.3C419.2,306.5,414.7,295.5,414.7,295.5Z"/><path class="w" d="M397.3,280.2h25.2l.1,5.2h-27Z"/><path class="v" d="M423.8,346.1v7.3l4.6.5h-6l-.3-4.5-2.1-2.7,2.3-2.9Z"/><path class="n" d="M428.4,353.9l-.7,2.5H423a1.538,1.538,0,0,1-1.5-1.5V350l-2.4-3.1,3.2-3.1.2,10h5.9Z"/><path class="n" d="M419.1,346.9v9.4l1.7-8.4Z"/><path class="v" d="M397.2,346.1v7.3l4.6.5h-5.9l-.4-4.5-2.1-2.7,2.3-2.9Z"/><path class="n" d="M401.8,353.9l-.7,2.5h-4.7a1.538,1.538,0,0,1-1.5-1.5V350l-2.4-3.1,3.2-3.1.2,10h5.9Z"/><path class="n" d="M392.5,346.9v9.4l1.7-8.4Z"/><path class="n" d="M389.4,356.3H378.6a6.274,6.274,0,0,1-6.3-6.3V280.1h23.3V350A6.128,6.128,0,0,1,389.4,356.3Z"/><path class="m" d="M386.1,356.3H375.3A6.274,6.274,0,0,1,369,350V280.1h23.3V350A6.128,6.128,0,0,1,386.1,356.3Z"/><path class="n" d="M479.6,356.3H468.8a6.274,6.274,0,0,1-6.3-6.3V280.1h23.3V350A6.253,6.253,0,0,1,479.6,356.3Z"/><path class="m" d="M476.2,356.3H465.4a6.274,6.274,0,0,1-6.3-6.3V280.1h23.3V350A6.128,6.128,0,0,1,476.2,356.3Z"/><path class="m" d="M361.4,282.8H480.9a2.006,2.006,0,0,0,2-2v-3.4a2.006,2.006,0,0,0-2-2H361.4a2.006,2.006,0,0,0-2,2v3.4A2.149,2.149,0,0,0,361.4,282.8Z"/><path class="n" d="M414.9,282.8h83.8a2.006,2.006,0,0,0,2-2v-3.4a2.006,2.006,0,0,0-2-2H414.9a2.006,2.006,0,0,0-2,2v3.4A2.006,2.006,0,0,0,414.9,282.8Z"/><rect class="w" width="23.3" height="4.3" transform="translate(369.1 282.8)"/><rect class="w" width="23.3" height="4.3" transform="translate(459.2 282.8)"/><path class="aa" d="M431.9,226.2l5.9-4.8h37.6a4.481,4.481,0,0,0,4.5-4.5v-6.2a4.481,4.481,0,0,0-4.5-4.5h-39a4.481,4.481,0,0,0-4.5,4.5Z"/><line class="d" x1="26.4" transform="translate(448.2 210)"/><line class="d" x1="26.4" transform="translate(448.2 213.5)"/><line class="d" x1="26.4" transform="translate(448.2 217)"/><path class="m" d="M525.5,198.3h.2c2.4,1.4,4,1.4,4.8.1h0c.7-1,.3-2.3-1-3.1a4.638,4.638,0,0,0-4-.5l-.4-2.4a6.778,6.778,0,0,1,5.8.8c2.6,1.7,3.4,4.3,1.9,6.6h0c-1.5,2.3-3.9,2.3-6.2,1.3l-1.1,1.4-1.5-1Zm-3.1,4.5,2.5,1.6-1.6,2.6-2.5-1.6Z"/><path class="n" d="M367.8,303.7h-5.6a3.329,3.329,0,0,0-3.3,3.3v42.8a.9.9,0,0,0,.9.9h10.4a.9.9,0,0,0,.9-.9V307A3.265,3.265,0,0,0,367.8,303.7Z"/><path class="n" d="M370.4,327.7h-4a3,3,0,0,1,0-6h4a4.012,4.012,0,0,0,4-4v-4.2a3,3,0,0,1,6,0v4.2A10.029,10.029,0,0,1,370.4,327.7Z"/><path class="n" d="M364,335.5h-4.2a10.029,10.029,0,0,1-10-10v-4a3,3,0,0,1,6,0v4a4.012,4.012,0,0,0,4,4H364a3,3,0,0,1,0,6Z"/><rect class="c" width="0.5" height="2.1" transform="translate(361.5 310.5)"/><rect class="c" width="0.5" height="2.1" transform="translate(367.9 307.4)"/><rect class="c" width="0.5" height="2.1" transform="translate(364.3 319.4)"/><rect class="c" width="0.5" height="2.1" transform="translate(366.1 313.1)"/><rect class="c" width="0.5" height="2.1" transform="translate(368.8 331)"/><rect class="c" width="0.5" height="2.1" transform="translate(375.6 312.4)"/><rect class="c" width="0.5" height="2.1" transform="translate(361.5 326.1)"/><rect class="c" width="0.5" height="2.1" transform="translate(362.1 334.9)"/><rect class="c" width="0.5" height="2.1" transform="translate(366.7 325.6)"/><rect class="c" width="0.5" height="2.1" transform="translate(351.6 326)"/><rect class="c" width="0.5" height="2.1" transform="translate(354 322.1)"/><rect class="c" width="0.5" height="2.1" transform="translate(355.1 328.1)"/><rect class="c" width="0.5" height="2.1" transform="translate(369.3 317.6)"/><rect class="c" width="0.5" height="2.1" transform="translate(376.7 320.5)"/><path class="c" d="M375.3,339H354.9a.919.919,0,0,0-.9,1l2.1,15.8a3.233,3.233,0,0,0,3.2,2.8h11.9a3.167,3.167,0,0,0,3.2-2.9l1.8-15.7A.987.987,0,0,0,375.3,339Z"/><path class="w" d="M375.2,348.5l.4-3.2H354.7l.4,3.2Z"/><path class="ab" d="M541.5,222.7l-1.9,8-6.1-6.1Z"/></g></svg>